<svg width="100" height="100" viewBox="0 0 100 100" fill="none" xmlns="http://www.w3.org/2000/svg">
<path d="M53.5793 94.7751C43.2762 94.7751 35.3975 90.9872 35.3975 85.8357V76.5933C35.3975 75.6842 36.0035 75.0781 36.9126 75.0781C37.8217 75.0781 38.4278 75.6842 38.4278 76.5933V85.8357C38.4278 88.563 44.9429 91.7448 53.5793 91.7448C62.2156 91.7448 68.7308 88.563 68.7308 85.8357V76.5933C68.7308 75.6842 69.3369 75.0781 70.2459 75.0781C71.155 75.0781 71.7611 75.6842 71.7611 76.5933V85.8357C71.7611 90.9872 63.8823 94.7751 53.5793 94.7751Z" fill="#656565"/>
<path d="M53.5793 85.5327C43.2762 85.5327 35.3975 81.7448 35.3975 76.5933C35.3975 75.8357 35.549 75.2297 35.852 74.7751C36.155 74.0175 36.9126 73.563 37.8217 73.866C38.5793 74.169 39.0338 74.9266 38.7308 75.8357C38.5793 76.1387 38.5793 76.4418 38.5793 76.7448C38.5793 79.4721 45.0944 82.6539 53.7308 82.6539C62.3672 82.6539 68.8823 79.4721 68.8823 76.7448C68.8823 75.0781 66.3066 73.1084 62.3672 72.0478C61.6096 71.7448 61.155 70.9872 61.3065 70.2297C61.6096 69.4721 62.3672 69.0175 63.1247 69.169C68.5793 70.8357 71.7611 73.563 71.7611 76.8963C71.7611 81.7448 63.8823 85.5327 53.5793 85.5327Z" fill="#656565"/>
<path d="M46.3068 77.957C36.0038 77.957 28.125 74.1691 28.125 69.0176V59.7752C28.125 58.8661 28.7311 58.26 29.6402 58.26C30.5492 58.26 31.1553 58.8661 31.1553 59.7752V69.0176C31.1553 71.7449 37.6705 74.9267 46.3068 74.9267C54.9432 74.9267 61.4583 71.7449 61.4583 69.0176V59.7752C61.4583 58.8661 62.0644 58.26 62.9735 58.26C63.8826 58.26 64.4886 58.8661 64.4886 59.7752V69.0176C64.4886 74.1691 56.6098 77.957 46.3068 77.957Z" fill="#656565"/>
<path d="M46.1553 68.563C35.7008 68.563 28.125 64.9266 28.125 59.7751C28.125 56.5933 31.1553 53.7145 36.4583 52.0478C37.2159 51.7448 38.125 52.1993 38.428 53.1084C38.7311 53.866 38.2765 54.7751 37.3674 55.0781C33.5795 56.2903 31.1553 58.1084 31.1553 59.7751C31.1553 62.5024 37.3674 65.5327 46.1553 65.5327C54.7917 65.5327 61.3068 62.3509 61.3068 59.6236V59.169C61.3068 58.26 61.9129 57.6539 62.822 57.6539C63.7311 57.6539 64.3371 58.26 64.3371 59.169V59.6236C64.3371 64.7751 56.4583 68.563 46.1553 68.563Z" fill="#656565"/>
<path d="M53.5793 61.8963C43.2762 61.8963 35.3975 58.1084 35.3975 52.9569V43.7145C35.3975 42.8054 36.0035 42.1993 36.9126 42.1993C37.8217 42.1993 38.4278 42.8054 38.4278 43.7145V52.9569C38.4278 55.6842 44.9429 58.866 53.5793 58.866C62.2156 58.866 68.7308 55.6842 68.7308 52.9569V43.7145C68.7308 42.8054 69.3369 42.1993 70.2459 42.1993C71.155 42.1993 71.7611 42.8054 71.7611 43.7145V52.9569C71.7611 58.1084 63.8823 61.8963 53.5793 61.8963Z" fill="#656565"/>
<path d="M53.5793 52.6539C43.2762 52.6539 35.3975 48.8661 35.3975 43.7145C35.3975 38.563 43.2762 34.7751 53.5793 34.7751C63.8823 34.7751 71.7611 38.563 71.7611 43.7145C71.7611 48.8661 63.8823 52.6539 53.5793 52.6539ZM53.5793 37.8054C44.9429 37.8054 38.4278 40.9873 38.4278 43.7145C38.4278 46.4418 44.9429 49.6236 53.5793 49.6236C62.2156 49.6236 68.7308 46.4418 68.7308 43.7145C68.7308 40.9873 62.2156 37.8054 53.5793 37.8054Z" fill="#656565"/>
<path d="M48.8827 21.2902C46.3069 21.2902 44.0342 18.866 44.0342 16.1387C44.0342 13.4114 46.3069 10.9872 48.8827 10.9872C51.4584 10.9872 53.7311 13.4114 53.7311 16.1387C53.7311 17.0478 53.1251 17.6538 52.216 17.6538C51.3069 17.6538 50.7008 17.0478 50.7008 16.1387C50.7008 15.0781 49.7918 14.0175 48.8827 14.0175C47.9736 14.0175 47.0645 15.0781 47.0645 16.1387C47.0645 17.1993 47.9736 18.2599 48.8827 18.2599C49.7918 18.2599 50.3978 18.866 50.3978 19.7751C50.3978 20.6842 49.7918 21.2902 48.8827 21.2902Z" fill="#656565"/>
<path d="M48.8827 28.5629C46.3069 28.5629 44.0342 26.1387 44.0342 23.4114C44.0342 22.5023 44.6402 21.8963 45.5493 21.8963C46.4584 21.8963 47.0645 22.5023 47.0645 23.4114C47.0645 24.472 47.9736 25.5326 48.8827 25.5326C49.7918 25.5326 50.7008 24.472 50.7008 23.4114C50.7008 22.3508 49.7918 21.2902 48.8827 21.2902C47.9736 21.2902 47.3675 20.6841 47.3675 19.775C47.3675 18.8659 47.9736 18.2599 48.8827 18.2599C51.4584 18.2599 53.7311 20.6841 53.7311 23.4114C53.7311 26.1387 51.4584 28.5629 48.8827 28.5629Z" fill="#656565"/>
<path d="M48.8823 14.169C47.9732 14.169 47.3672 13.563 47.3672 12.6539V10.2296C47.3672 9.32054 47.9732 8.71448 48.8823 8.71448C49.7914 8.71448 50.3975 9.32054 50.3975 10.2296V12.6539C50.3975 13.563 49.7914 14.169 48.8823 14.169Z" fill="#656565"/>
<path d="M48.8823 30.5327C47.9732 30.5327 47.3672 29.9267 47.3672 29.0176V27.0479C47.3672 26.1388 47.9732 25.5327 48.8823 25.5327C49.7914 25.5327 50.3975 26.1388 50.3975 27.0479V29.0176C50.3975 29.9267 49.7914 30.5327 48.8823 30.5327Z" fill="#656565"/>
<path d="M48.8824 34.169C40.8521 34.169 34.3369 27.6539 34.3369 19.6236C34.3369 11.5933 40.8521 5.07812 48.8824 5.07812C56.9127 5.07812 63.4278 11.5933 63.4278 19.6236C63.4278 27.6539 56.9127 34.169 48.8824 34.169ZM48.8824 8.10843C42.5187 8.10843 37.3672 13.2599 37.3672 19.6236C37.3672 25.9872 42.5187 31.1387 48.8824 31.1387C55.246 31.1387 60.3975 25.9872 60.3975 19.6236C60.3975 13.2599 55.246 8.10843 48.8824 8.10843Z" fill="#656565"/>
</svg>
