<svg width="100" height="100" viewBox="0 0 100 100" fill="none" xmlns="http://www.w3.org/2000/svg">
<path d="M68.75 6.25C68.75 2.79844 65.9545 0 62.5 0H37.5C34.0484 0 31.25 2.79844 31.25 6.25C31.25 8.96914 32.9895 11.2854 35.4156 12.143V85.4187C35.4156 93.4693 41.9465 100 50 100C58.0566 100 64.5875 93.4691 64.5875 85.4187V12.143C67.0105 11.2854 68.75 8.96914 68.75 6.25ZM60.4127 37.5H39.5844V12.5H60.4127V37.5ZM50 95.8313C44.2566 95.8313 39.5844 91.1559 39.5844 85.4185V66.6685H45.8344C46.985 66.6685 47.9156 65.7285 47.9156 64.5811C47.9156 63.4336 46.985 62.5 45.8344 62.5H39.5844V54.1687H45.8344C46.985 54.1687 47.9156 53.2287 47.9156 52.0813C47.9156 50.9338 46.985 50 45.8344 50H39.5844V41.6656H60.4127V85.4187C60.4127 91.1561 55.7434 95.8313 50 95.8313ZM62.5 8.33125H37.5C36.3525 8.33125 35.4156 7.39746 35.4156 6.25C35.4156 5.09941 36.3525 4.16562 37.5 4.16562H62.5C63.6475 4.16562 64.5875 5.09941 64.5875 6.25C64.5875 7.39746 63.6475 8.33125 62.5 8.33125Z" fill="#656565"/>
</svg>
