<svg width="100" height="100" viewBox="0 0 100 100" fill="none" xmlns="http://www.w3.org/2000/svg">
<g clip-path="url(#clip0_56_739)">
<path fill-rule="evenodd" clip-rule="evenodd" d="M96.8787 95.5801H3.12891V93.8578H96.8787V95.5801ZM9.40078 32.0879H19.1105V90.7322H9.40078V32.0879ZM33.2322 44.2068H42.942V90.7324H33.2322V44.2068ZM57.0646 57.6783H66.7744V90.7324H57.0646V57.6783ZM80.8969 70.5785H90.6066V90.7322H80.8969V70.5785ZM98.4414 90.7322H93.7318V69.0158C93.7318 68.1543 93.0324 67.4531 92.1691 67.4531H79.3344C78.4717 67.4531 77.7719 68.1543 77.7719 69.0158V90.7324H69.8996V56.1156C69.8996 55.2521 69.1998 54.5529 68.3371 54.5529H55.502C54.6389 54.5529 53.9395 55.2523 53.9395 56.1156V90.7324H46.0668V42.6449C46.0668 41.7814 45.3674 41.0822 44.5043 41.0822H31.6697C30.807 41.0822 30.1072 41.7816 30.1072 42.6449V90.7322H22.2355V30.5252C22.2355 29.6646 21.5361 28.9633 20.6729 28.9633H7.83828C6.9752 28.9633 6.27578 29.6644 6.27578 30.5252V90.7322H1.56641C0.70332 90.7322 0.00390625 91.4316 0.00390625 92.2949V97.1426C0.00390625 98.0041 0.70332 98.7052 1.56641 98.7052H98.4414C99.3039 98.7052 100.004 98.0041 100.004 97.1426V92.2949C100.004 91.4316 99.3039 90.7322 98.4414 90.7322ZM42.7826 25.0002C37.5127 21.8515 33.0002 18.2597 29.174 14.1519C33.6664 21.7926 40.4941 28.5799 48.9592 33.6367C57.4455 38.7027 66.7592 41.5289 75.8934 41.8062C76.3174 41.8201 76.718 42.0052 77.0031 42.3203C77.2885 42.6345 77.4332 43.0502 77.4047 43.474L77.1838 46.7617L88.6248 38.4236L78.3281 29.75L78.0768 33.4818C78.0203 34.3185 77.3063 34.9625 76.4754 34.9396C66.1271 34.6588 51.957 30.4791 42.7826 25.0002ZM47.357 36.3183C55.8002 41.3613 65.0395 44.297 74.1797 44.8574L73.8414 49.8885C73.8004 50.4937 74.1143 51.0689 74.6455 51.3609C74.8812 51.4927 75.1412 51.5572 75.4002 51.5572C75.7246 51.5572 76.0475 51.4549 76.3203 51.2578L92.0756 39.7775C92.4631 39.4945 92.7 39.0486 92.7166 38.5685C92.7342 38.0875 92.5295 37.6287 92.1629 37.3181L77.9828 25.3734C77.5324 24.9947 76.9072 24.8988 76.3652 25.1293C75.8232 25.3597 75.4568 25.8746 75.4172 26.4627L75.0619 31.748C65.3516 31.1463 52.718 27.2928 44.3852 22.3162C35.5045 17.0142 28.8998 10.3965 24.1943 2.08767C23.8096 1.40857 22.9816 1.11736 22.2561 1.40681C21.5305 1.69529 21.1303 2.47654 21.3184 3.23494C24.566 16.3183 34.0568 28.3773 47.357 36.3183Z" fill="#656565"/>
</g>
<defs>
<clipPath id="clip0_56_739">
<rect width="100" height="100" fill="white"/>
</clipPath>
</defs>
</svg>
