<svg width="100" height="100" viewBox="0 0 100 100" fill="none" xmlns="http://www.w3.org/2000/svg">
<path d="M43.483 83.4249L60.5369 70.3837C77.3965 56.8996 70.2752 35.5675 59.6818 28.9622L54.8401 32.6647C56.6936 34.0996 57.2212 34.4394 58.1753 35.2941H41.8212C42.8924 34.3341 42.023 35.0888 60.0867 21.2473C66.6612 16.2198 70.5861 8.27667 70.5861 0H64.7038C64.7038 2.00588 64.4077 3.98686 63.8465 5.88235H36.1497C35.5883 3.98686 35.2922 2.00588 35.2922 0H29.4099C29.4099 8.27667 33.3353 16.2198 39.9099 21.2473L40.3146 21.5567L45.1563 17.8541C44.1563 16.9963 41.443 15.4414 38.9399 11.7645H61.0567C59.8177 13.5847 58.2899 15.2163 56.5136 16.5745L39.4593 29.6157C33.1261 34.4586 29.4551 41.8078 29.3871 49.7788L29.3867 52.9412H64.512C64.2071 55.0065 63.5832 56.9871 62.6687 58.8235H35.2691V64.7059H58.1753C57.0981 65.6708 58.0155 64.8786 39.9097 78.7523C33.3352 83.7804 29.4097 91.7233 29.4097 100H35.292C35.292 97.9243 35.6103 95.8763 36.2101 93.9216H64.7038V88.0392H39.0763C40.2906 86.2978 41.7708 84.7343 43.483 83.4249ZM35.485 47.0588C35.7904 44.9939 36.415 43.0129 37.3295 41.1765H62.6685C63.583 43.0127 64.2071 44.9933 64.5118 47.0588H35.485Z" fill="#656565"/>
</svg>
