<svg width="388" height="230" viewBox="0 0 388 230" fill="none" xmlns="http://www.w3.org/2000/svg">
<mask id="mask0_363_4306" style="mask-type:alpha" maskUnits="userSpaceOnUse" x="0" y="0" width="388" height="230">
<rect width="388" height="230" rx="25" fill="black"/>
</mask>
<g mask="url(#mask0_363_4306)">
<g opacity="0.9">
<path d="M177.439 190.107C179.963 154.517 120.48 121.143 44.5796 115.563C-31.3211 109.984 -94.8971 134.312 -97.4214 169.902C-99.9458 205.492 -40.4626 238.867 35.4381 244.446C111.339 250.025 174.915 225.697 177.439 190.107Z" stroke="url(#paint0_linear_363_4306)" stroke-width="0.8" stroke-miterlimit="10"/>
<path d="M172.393 182.679C173.383 147.883 114.018 117.9 39.7969 115.711C-34.4244 113.521 -95.3956 139.953 -96.3861 174.749C-97.3767 209.545 -38.0115 239.528 36.2098 241.718C110.431 243.908 171.402 217.475 172.393 182.679Z" stroke="url(#paint1_linear_363_4306)" stroke-width="0.8" stroke-miterlimit="10"/>
<path d="M37.0323 239.018C109.562 237.819 167.919 209.28 167.377 175.273C166.835 141.266 107.598 114.67 35.0686 115.869C-37.461 117.067 -95.8182 145.607 -95.276 179.614C-94.7337 213.62 -35.4973 240.216 37.0323 239.018Z" stroke="url(#paint2_linear_363_4306)" stroke-width="0.8" stroke-miterlimit="10"/>
<path d="M37.818 236.299C108.664 231.711 164.413 201.064 162.337 167.847C160.261 134.629 101.147 111.421 30.3011 116.009C-40.5447 120.597 -96.2939 151.244 -94.2181 184.462C-92.1424 217.679 -33.0278 240.887 37.818 236.299Z" stroke="url(#paint3_linear_363_4306)" stroke-width="0.8" stroke-miterlimit="10"/>
<path d="M38.5766 233.599C107.747 225.626 160.897 192.878 157.291 160.455C153.685 128.032 94.6876 108.211 25.5173 116.184C-43.653 124.158 -96.8031 156.905 -93.1969 189.328C-89.5907 221.752 -30.5937 241.572 38.5766 233.599Z" stroke="url(#paint4_linear_363_4306)" stroke-width="0.8" stroke-miterlimit="10"/>
<path d="M39.3387 230.909C106.821 219.548 157.36 184.689 152.22 153.049C147.08 121.409 88.2086 104.969 20.7264 116.33C-46.7558 127.691 -97.2944 162.55 -92.1548 194.19C-87.0151 225.83 -28.1435 242.269 39.3387 230.909Z" stroke="url(#paint5_linear_363_4306)" stroke-width="0.8" stroke-miterlimit="10"/>
<path d="M40.1277 228.19C105.93 213.437 153.864 176.475 147.192 145.632C140.519 114.789 81.7674 101.746 15.9654 116.499C-49.8366 131.251 -97.7708 168.214 -91.0985 199.057C-84.4263 229.899 -25.6743 242.943 40.1277 228.19Z" stroke="url(#paint6_linear_363_4306)" stroke-width="0.8" stroke-miterlimit="10"/>
<path d="M40.9019 225.494C105.015 207.356 150.338 168.286 142.132 138.227C133.927 108.168 75.3019 98.5043 11.1887 116.642C-52.9244 134.779 -98.2469 173.85 -90.0419 203.908C-81.8368 233.967 -23.2113 243.631 40.9019 225.494Z" stroke="url(#paint7_linear_363_4306)" stroke-width="0.8" stroke-miterlimit="10"/>
<path d="M41.6842 222.757C104.108 201.222 146.816 160.043 137.075 130.781C127.335 101.519 68.8343 95.2543 6.41071 116.789C-56.0129 138.324 -98.721 179.503 -88.9805 208.765C-79.24 238.027 -20.7394 244.291 41.6842 222.757Z" stroke="url(#paint8_linear_363_4306)" stroke-width="0.8" stroke-miterlimit="10"/>
<path d="M42.4644 220.054C103.209 195.132 143.315 151.846 132.042 123.372C120.77 94.8983 62.389 92.019 1.6443 116.941C-59.1004 141.863 -99.2059 185.149 -87.9337 213.623C-76.6615 242.097 -18.2803 244.976 42.4644 220.054Z" stroke="url(#paint9_linear_363_4306)" stroke-width="0.8" stroke-miterlimit="10"/>
<path d="M43.2562 217.369C102.317 189.064 139.814 143.67 127.009 115.979C114.203 88.2883 55.9443 88.7866 -3.1162 117.092C-62.1767 145.398 -99.6739 190.792 -86.8685 218.482C-74.0631 246.173 -15.8043 245.675 43.2562 217.369Z" stroke="url(#paint10_linear_363_4306)" stroke-width="0.8" stroke-miterlimit="10"/>
<path d="M44.0417 214.65C101.415 182.951 136.299 135.447 121.958 108.548C107.618 81.6481 49.4823 85.539 -7.89057 117.238C-65.2635 148.937 -100.148 196.441 -85.8073 223.341C-71.4666 250.24 -13.3312 246.349 44.0417 214.65Z" stroke="url(#paint11_linear_363_4306)" stroke-width="0.8" stroke-miterlimit="10"/>
<path d="M44.8185 211.936C100.51 176.852 132.793 127.248 116.925 101.143C101.056 75.0376 43.0454 82.3164 -12.6461 117.4C-68.3375 152.485 -100.62 202.088 -84.7521 228.193C-68.8837 254.299 -10.873 247.02 44.8185 211.936Z" stroke="url(#paint12_linear_363_4306)" stroke-width="0.8" stroke-miterlimit="10"/>
<path d="M45.6138 209.209C99.6194 170.727 129.291 119.011 111.888 93.6992C94.4843 68.3871 36.5959 79.0638 -17.4096 117.546C-71.4152 156.028 -101.087 207.744 -83.6836 233.056C-66.2801 258.368 -8.3917 247.692 45.6138 209.209Z" stroke="url(#paint13_linear_363_4306)" stroke-width="0.8" stroke-miterlimit="10"/>
<path d="M46.3605 206.483C98.683 164.612 125.746 110.786 106.807 86.2592C87.8686 61.7322 30.0999 75.7921 -22.2226 117.663C-74.5451 159.534 -101.608 213.36 -82.6694 237.887C-63.7307 262.414 -5.96204 248.354 46.3605 206.483Z" stroke="url(#paint14_linear_363_4306)" stroke-width="0.8" stroke-miterlimit="10"/>
<path d="M47.1337 203.79C97.7763 158.53 122.238 102.599 101.772 78.8653C81.3048 55.1318 23.6592 72.5829 -26.9833 117.843C-77.6258 163.104 -102.088 219.035 -81.6212 242.768C-61.1543 266.502 -3.50878 249.051 47.1337 203.79Z" stroke="url(#paint15_linear_363_4306)" stroke-width="0.8" stroke-miterlimit="10"/>
<path d="M47.9142 201.077C96.8656 152.43 118.715 94.3958 96.7172 71.4551C74.719 48.5143 17.2029 69.3539 -31.7485 118.002C-80.6999 166.649 -102.55 224.683 -80.5515 247.624C-58.5532 270.565 -1.03715 249.725 47.9142 201.077Z" stroke="url(#paint16_linear_363_4306)" stroke-width="0.8" stroke-miterlimit="10"/>
<path d="M48.6915 198.373C95.9602 146.334 115.202 86.1898 91.6685 64.0361C68.1353 41.8824 10.7391 66.1088 -36.5296 118.147C-83.7983 170.186 -103.04 230.33 -79.5066 252.484C-55.9734 274.638 1.42283 250.411 48.6915 198.373Z" stroke="url(#paint17_linear_363_4306)" stroke-width="0.8" stroke-miterlimit="10"/>
<path d="M49.4572 195.648C95.0442 140.223 111.684 77.975 86.6244 56.6136C61.5643 35.2521 4.29355 62.8664 -41.2934 118.292C-86.8804 173.717 -103.521 235.965 -78.4606 257.327C-53.4005 278.688 3.87022 251.074 49.4572 195.648Z" stroke="url(#paint18_linear_363_4306)" stroke-width="0.8" stroke-miterlimit="10"/>
<path d="M50.2485 192.928C94.1482 134.113 108.178 69.7591 81.5858 49.1881C54.9932 28.6171 -2.152 59.6192 -46.0517 118.433C-89.9513 177.248 -103.982 241.602 -77.389 262.173C-50.7964 282.744 6.34884 251.742 50.2485 192.928Z" stroke="url(#paint19_linear_363_4306)" stroke-width="0.8" stroke-miterlimit="10"/>
<path d="M51.0066 190.214C93.2188 128.014 104.639 61.5548 76.5146 41.7737C48.39 21.9927 -8.62925 56.38 -50.8415 118.58C-93.0537 180.78 -104.474 247.239 -76.3494 267.02C-48.2248 286.801 8.79442 252.414 51.0066 190.214Z" stroke="url(#paint20_linear_363_4306)" stroke-width="0.8" stroke-miterlimit="10"/>
<path d="M51.803 187.554C92.3423 121.968 101.164 53.3982 71.506 34.3999C41.8483 15.4015 -15.0577 53.1686 -55.597 118.755C-96.1364 184.341 -104.958 252.911 -75.3 271.909C-45.6423 290.908 11.2637 253.141 51.803 187.554Z" stroke="url(#paint21_linear_363_4306)" stroke-width="0.8" stroke-miterlimit="10"/>
</g>
<path opacity="0.7" d="M-7 23C-7 9.19289 4.19288 -2 18 -2H395C408.807 -2 420 9.19288 420 23V218C420 231.807 408.807 243 395 243H18C4.19289 243 -7 231.807 -7 218V23Z" fill="url(#paint22_linear_363_4306)"/>
</g>
<path d="M52.6 106.1V103.95H57.7C58.6833 103.95 59.4417 103.675 59.975 103.125C60.525 102.558 60.8 101.808 60.8 100.875C60.8 99.925 60.5333 99.1833 60 98.65C59.4667 98.1 58.7 97.825 57.7 97.825H52.6V96.225H57.35C58.5167 96.225 59.5417 96.3667 60.425 96.65C61.325 96.9333 62.025 97.4083 62.525 98.075C63.0417 98.725 63.3 99.6167 63.3 100.75V101.1C63.3 102.167 63.0833 103.075 62.65 103.825C62.2167 104.558 61.5583 105.125 60.675 105.525C59.7917 105.908 58.6833 106.1 57.35 106.1H52.6ZM50.65 106.1V87.65H53.1V106.1H50.65ZM52.6 97.375V95.775H57.025C58.0583 95.775 58.8167 95.5 59.3 94.95C59.8 94.3833 60.05 93.6667 60.05 92.8C60.05 91.9167 59.8 91.2 59.3 90.65C58.8167 90.0833 58.0583 89.8 57.025 89.8H52.6V87.65H56.6C58.6 87.65 60.0917 88.075 61.075 88.925C62.0583 89.7583 62.55 90.9667 62.55 92.55V92.9C62.55 94.0167 62.3 94.9083 61.8 95.575C61.3 96.225 60.6 96.6917 59.7 96.975C58.8167 97.2417 57.7833 97.375 56.6 97.375H52.6ZM72.8695 106.45C71.7029 106.45 70.6945 106.25 69.8445 105.85C68.9945 105.45 68.3029 104.925 67.7695 104.275C67.2362 103.608 66.8362 102.867 66.5695 102.05C66.3195 101.233 66.1945 100.4 66.1945 99.55V99.1C66.1945 98.2333 66.3195 97.3917 66.5695 96.575C66.8362 95.7583 67.2362 95.025 67.7695 94.375C68.3029 93.7083 68.9779 93.1833 69.7945 92.8C70.6279 92.4 71.6029 92.2 72.7195 92.2C74.1695 92.2 75.3612 92.5167 76.2945 93.15C77.2445 93.7667 77.9445 94.5667 78.3945 95.55C78.8612 96.5333 79.0945 97.5833 79.0945 98.7V99.775H67.2445V97.975H77.3445L76.7945 98.95C76.7945 98 76.6445 97.1833 76.3445 96.5C76.0445 95.8 75.5945 95.2583 74.9945 94.875C74.3945 94.4917 73.6362 94.3 72.7195 94.3C71.7695 94.3 70.9779 94.5167 70.3445 94.95C69.7279 95.3833 69.2612 95.975 68.9445 96.725C68.6445 97.475 68.4945 98.3417 68.4945 99.325C68.4945 100.275 68.6445 101.133 68.9445 101.9C69.2612 102.65 69.7445 103.25 70.3945 103.7C71.0445 104.133 71.8695 104.35 72.8695 104.35C73.9195 104.35 74.7695 104.117 75.4195 103.65C76.0862 103.183 76.4862 102.642 76.6195 102.025H78.8695C78.6862 102.942 78.3195 103.733 77.7695 104.4C77.2195 105.067 76.5279 105.575 75.6945 105.925C74.8612 106.275 73.9195 106.45 72.8695 106.45ZM87.7021 106.15C86.7021 106.15 85.8355 106.008 85.1021 105.725C84.3855 105.442 83.8271 104.958 83.4271 104.275C83.0438 103.575 82.8521 102.633 82.8521 101.45V88.6H85.1521V101.75C85.1521 102.467 85.3438 103.025 85.7271 103.425C86.1271 103.808 86.6855 104 87.4021 104H89.7521V106.15H87.7021ZM80.5521 94.45V92.65H89.7521V94.45H80.5521ZM98.3467 106.15C97.3467 106.15 96.48 106.008 95.7467 105.725C95.03 105.442 94.4717 104.958 94.0717 104.275C93.6883 103.575 93.4967 102.633 93.4967 101.45V88.6H95.7967V101.75C95.7967 102.467 95.9883 103.025 96.3717 103.425C96.7717 103.808 97.33 104 98.0467 104H100.397V106.15H98.3467ZM91.1967 94.45V92.65H100.397V94.45H91.1967ZM109.369 106.45C108.202 106.45 107.194 106.25 106.344 105.85C105.494 105.45 104.802 104.925 104.269 104.275C103.735 103.608 103.335 102.867 103.069 102.05C102.819 101.233 102.694 100.4 102.694 99.55V99.1C102.694 98.2333 102.819 97.3917 103.069 96.575C103.335 95.7583 103.735 95.025 104.269 94.375C104.802 93.7083 105.477 93.1833 106.294 92.8C107.127 92.4 108.102 92.2 109.219 92.2C110.669 92.2 111.86 92.5167 112.794 93.15C113.744 93.7667 114.444 94.5667 114.894 95.55C115.36 96.5333 115.594 97.5833 115.594 98.7V99.775H103.744V97.975H113.844L113.294 98.95C113.294 98 113.144 97.1833 112.844 96.5C112.544 95.8 112.094 95.2583 111.494 94.875C110.894 94.4917 110.135 94.3 109.219 94.3C108.269 94.3 107.477 94.5167 106.844 94.95C106.227 95.3833 105.76 95.975 105.444 96.725C105.144 97.475 104.994 98.3417 104.994 99.325C104.994 100.275 105.144 101.133 105.444 101.9C105.76 102.65 106.244 103.25 106.894 103.7C107.544 104.133 108.369 104.35 109.369 104.35C110.419 104.35 111.269 104.117 111.919 103.65C112.585 103.183 112.985 102.642 113.119 102.025H115.369C115.185 102.942 114.819 103.733 114.269 104.4C113.719 105.067 113.027 105.575 112.194 105.925C111.36 106.275 110.419 106.45 109.369 106.45ZM119.001 106V92.65H120.901V98.15H120.801C120.801 96.2 121.226 94.775 122.076 93.875C122.943 92.9583 124.235 92.5 125.951 92.5H126.401V94.65H125.551C124.218 94.65 123.193 95.0083 122.476 95.725C121.76 96.425 121.401 97.4417 121.401 98.775V106H119.001ZM140.144 106.15C139.144 106.15 138.277 106.008 137.544 105.725C136.827 105.442 136.269 104.958 135.869 104.275C135.485 103.575 135.294 102.633 135.294 101.45V88.6H137.594V101.75C137.594 102.467 137.785 103.025 138.169 103.425C138.569 103.808 139.127 104 139.844 104H142.194V106.15H140.144ZM132.994 94.45V92.65H142.194V94.45H132.994ZM145.588 106V87.75H147.988V98.65H147.388C147.388 97.3333 147.555 96.2 147.888 95.25C148.238 94.2833 148.771 93.5417 149.488 93.025C150.205 92.5083 151.121 92.25 152.238 92.25H152.338C153.938 92.25 155.146 92.7833 155.963 93.85C156.78 94.9 157.188 96.4083 157.188 98.375V106H154.788V97.875C154.788 96.7917 154.48 95.95 153.863 95.35C153.263 94.75 152.48 94.45 151.513 94.45C150.446 94.45 149.588 94.8083 148.938 95.525C148.305 96.225 147.988 97.15 147.988 98.3V106H145.588ZM169.654 106V102H169.254V97.375C169.254 96.4583 169.013 95.7667 168.529 95.3C168.063 94.8333 167.371 94.6 166.454 94.6C165.938 94.6 165.404 94.6083 164.854 94.625C164.304 94.6417 163.779 94.6583 163.279 94.675C162.779 94.6917 162.346 94.7167 161.979 94.75V92.65C162.346 92.6167 162.729 92.5917 163.129 92.575C163.546 92.5417 163.971 92.525 164.404 92.525C164.838 92.5083 165.254 92.5 165.654 92.5C167.021 92.5 168.138 92.6667 169.004 93C169.871 93.3167 170.513 93.8417 170.929 94.575C171.346 95.3083 171.554 96.3 171.554 97.55V106H169.654ZM165.279 106.35C164.279 106.35 163.413 106.183 162.679 105.85C161.963 105.5 161.404 105 161.004 104.35C160.621 103.7 160.429 102.917 160.429 102C160.429 101.05 160.638 100.258 161.054 99.625C161.488 98.9917 162.113 98.5167 162.929 98.2C163.746 97.8667 164.729 97.7 165.879 97.7H169.504V99.5H165.779C164.813 99.5 164.071 99.7333 163.554 100.2C163.038 100.667 162.779 101.267 162.779 102C162.779 102.733 163.038 103.325 163.554 103.775C164.071 104.225 164.813 104.45 165.779 104.45C166.346 104.45 166.888 104.35 167.404 104.15C167.921 103.933 168.346 103.583 168.679 103.1C169.029 102.6 169.221 101.917 169.254 101.05L169.904 102C169.821 102.95 169.588 103.75 169.204 104.4C168.838 105.033 168.321 105.517 167.654 105.85C167.004 106.183 166.213 106.35 165.279 106.35ZM175.959 106V92.65H177.859V98.375H177.559C177.559 97.0583 177.734 95.95 178.084 95.05C178.451 94.1333 179.001 93.4417 179.734 92.975C180.468 92.4917 181.393 92.25 182.509 92.25H182.609C184.293 92.25 185.534 92.775 186.334 93.825C187.151 94.875 187.559 96.3917 187.559 98.375V106H185.159V97.875C185.159 96.8417 184.868 96.0167 184.284 95.4C183.701 94.7667 182.901 94.45 181.884 94.45C180.834 94.45 179.984 94.775 179.334 95.425C178.684 96.075 178.359 96.9417 178.359 98.025V106H175.959ZM197.639 111V92.65H199.539V98.425L199.089 98.375C199.172 96.9417 199.472 95.775 199.989 94.875C200.522 93.9583 201.214 93.2833 202.064 92.85C202.914 92.4167 203.839 92.2 204.839 92.2C205.806 92.2 206.681 92.3833 207.464 92.75C208.264 93.1167 208.947 93.6167 209.514 94.25C210.081 94.8833 210.514 95.6167 210.814 96.45C211.114 97.2833 211.264 98.1667 211.264 99.1V99.55C211.264 100.483 211.106 101.367 210.789 102.2C210.472 103.033 210.022 103.767 209.439 104.4C208.872 105.033 208.189 105.533 207.389 105.9C206.606 106.267 205.739 106.45 204.789 106.45C203.839 106.45 202.931 106.242 202.064 105.825C201.197 105.408 200.481 104.733 199.914 103.8C199.347 102.867 199.022 101.642 198.939 100.125L200.039 102.125V111H197.639ZM204.414 104.35C205.314 104.35 206.097 104.142 206.764 103.725C207.431 103.292 207.947 102.7 208.314 101.95C208.681 101.183 208.864 100.308 208.864 99.325C208.864 98.325 208.681 97.45 208.314 96.7C207.947 95.95 207.431 95.3667 206.764 94.95C206.097 94.5167 205.314 94.3 204.414 94.3C203.614 94.3 202.872 94.4833 202.189 94.85C201.506 95.2 200.956 95.7167 200.539 96.4C200.139 97.0667 199.939 97.875 199.939 98.825V99.975C199.939 100.892 200.147 101.675 200.564 102.325C200.981 102.975 201.531 103.475 202.214 103.825C202.897 104.175 203.631 104.35 204.414 104.35ZM222.95 106V102H222.55V97.375C222.55 96.4583 222.309 95.7667 221.825 95.3C221.359 94.8333 220.667 94.6 219.75 94.6C219.234 94.6 218.7 94.6083 218.15 94.625C217.6 94.6417 217.075 94.6583 216.575 94.675C216.075 94.6917 215.642 94.7167 215.275 94.75V92.65C215.642 92.6167 216.025 92.5917 216.425 92.575C216.842 92.5417 217.267 92.525 217.7 92.525C218.134 92.5083 218.55 92.5 218.95 92.5C220.317 92.5 221.434 92.6667 222.3 93C223.167 93.3167 223.809 93.8417 224.225 94.575C224.642 95.3083 224.85 96.3 224.85 97.55V106H222.95ZM218.575 106.35C217.575 106.35 216.709 106.183 215.975 105.85C215.259 105.5 214.7 105 214.3 104.35C213.917 103.7 213.725 102.917 213.725 102C213.725 101.05 213.934 100.258 214.35 99.625C214.784 98.9917 215.409 98.5167 216.225 98.2C217.042 97.8667 218.025 97.7 219.175 97.7H222.8V99.5H219.075C218.109 99.5 217.367 99.7333 216.85 100.2C216.334 100.667 216.075 101.267 216.075 102C216.075 102.733 216.334 103.325 216.85 103.775C217.367 104.225 218.109 104.45 219.075 104.45C219.642 104.45 220.184 104.35 220.7 104.15C221.217 103.933 221.642 103.583 221.975 103.1C222.325 102.6 222.517 101.917 222.55 101.05L223.2 102C223.117 102.95 222.884 103.75 222.5 104.4C222.134 105.033 221.617 105.517 220.95 105.85C220.3 106.183 219.509 106.35 218.575 106.35ZM234.455 106.15C233.455 106.15 232.588 106.008 231.855 105.725C231.138 105.442 230.58 104.958 230.18 104.275C229.797 103.575 229.605 102.633 229.605 101.45V88.6H231.905V101.75C231.905 102.467 232.097 103.025 232.48 103.425C232.88 103.808 233.438 104 234.155 104H236.505V106.15H234.455ZM227.305 94.45V92.65H236.505V94.45H227.305ZM239.9 106V87.75H242.3V98.65H241.7C241.7 97.3333 241.866 96.2 242.2 95.25C242.55 94.2833 243.083 93.5417 243.8 93.025C244.516 92.5083 245.433 92.25 246.55 92.25H246.65C248.25 92.25 249.458 92.7833 250.275 93.85C251.091 94.9 251.5 96.4083 251.5 98.375V106H249.1V97.875C249.1 96.7917 248.791 95.95 248.175 95.35C247.575 94.75 246.791 94.45 245.825 94.45C244.758 94.45 243.9 94.8083 243.25 95.525C242.616 96.225 242.3 97.15 242.3 98.3V106H239.9ZM262.041 106.45C260.874 106.45 259.849 106.25 258.966 105.85C258.082 105.45 257.332 104.925 256.716 104.275C256.116 103.608 255.657 102.867 255.341 102.05C255.041 101.233 254.891 100.4 254.891 99.55V99.1C254.891 98.25 255.049 97.4167 255.366 96.6C255.682 95.7667 256.149 95.025 256.766 94.375C257.382 93.7083 258.132 93.1833 259.016 92.8C259.899 92.4 260.907 92.2 262.041 92.2C263.174 92.2 264.182 92.4 265.066 92.8C265.949 93.1833 266.699 93.7083 267.316 94.375C267.932 95.025 268.399 95.7667 268.716 96.6C269.032 97.4167 269.191 98.25 269.191 99.1V99.55C269.191 100.4 269.032 101.233 268.716 102.05C268.416 102.867 267.957 103.608 267.341 104.275C266.741 104.925 265.999 105.45 265.116 105.85C264.232 106.25 263.207 106.45 262.041 106.45ZM262.041 104.3C263.041 104.3 263.891 104.083 264.591 103.65C265.307 103.2 265.849 102.6 266.216 101.85C266.599 101.1 266.791 100.258 266.791 99.325C266.791 98.375 266.599 97.525 266.216 96.775C265.832 96.025 265.282 95.4333 264.566 95C263.866 94.5667 263.024 94.35 262.041 94.35C261.074 94.35 260.232 94.5667 259.516 95C258.799 95.4333 258.249 96.025 257.866 96.775C257.482 97.525 257.291 98.375 257.291 99.325C257.291 100.258 257.474 101.1 257.841 101.85C258.224 102.6 258.766 103.2 259.466 103.65C260.182 104.083 261.041 104.3 262.041 104.3ZM272.935 106V87.75H275.335V106H272.935ZM271.085 89.65V87.75H275.335V89.65H271.085ZM286.089 106.45C284.922 106.45 283.897 106.25 283.014 105.85C282.13 105.45 281.38 104.925 280.764 104.275C280.164 103.608 279.705 102.867 279.389 102.05C279.089 101.233 278.939 100.4 278.939 99.55V99.1C278.939 98.25 279.097 97.4167 279.414 96.6C279.73 95.7667 280.197 95.025 280.814 94.375C281.43 93.7083 282.18 93.1833 283.064 92.8C283.947 92.4 284.955 92.2 286.089 92.2C287.222 92.2 288.23 92.4 289.114 92.8C289.997 93.1833 290.747 93.7083 291.364 94.375C291.98 95.025 292.447 95.7667 292.764 96.6C293.08 97.4167 293.239 98.25 293.239 99.1V99.55C293.239 100.4 293.08 101.233 292.764 102.05C292.464 102.867 292.005 103.608 291.389 104.275C290.789 104.925 290.047 105.45 289.164 105.85C288.28 106.25 287.255 106.45 286.089 106.45ZM286.089 104.3C287.089 104.3 287.939 104.083 288.639 103.65C289.355 103.2 289.897 102.6 290.264 101.85C290.647 101.1 290.839 100.258 290.839 99.325C290.839 98.375 290.647 97.525 290.264 96.775C289.88 96.025 289.33 95.4333 288.614 95C287.914 94.5667 287.072 94.35 286.089 94.35C285.122 94.35 284.28 94.5667 283.564 95C282.847 95.4333 282.297 96.025 281.914 96.775C281.53 97.525 281.339 98.375 281.339 99.325C281.339 100.258 281.522 101.1 281.889 101.85C282.272 102.6 282.814 103.2 283.514 103.65C284.23 104.083 285.089 104.3 286.089 104.3ZM301.883 111.2C301.267 111.2 300.642 111.175 300.008 111.125C299.392 111.075 298.8 111.008 298.233 110.925V108.9C298.833 108.983 299.458 109.05 300.108 109.1C300.775 109.167 301.4 109.2 301.983 109.2C303.2 109.2 304.167 109.033 304.883 108.7C305.617 108.383 306.142 107.875 306.458 107.175C306.792 106.492 306.958 105.608 306.958 104.525V101.975L307.758 100.075C307.708 101.425 307.425 102.55 306.908 103.45C306.392 104.333 305.717 105 304.883 105.45C304.067 105.883 303.158 106.1 302.158 106.1C301.225 106.1 300.367 105.925 299.583 105.575C298.817 105.208 298.15 104.708 297.583 104.075C297.033 103.442 296.6 102.717 296.283 101.9C295.983 101.067 295.833 100.192 295.833 99.275V98.825C295.833 97.8917 295.992 97.025 296.308 96.225C296.625 95.4083 297.067 94.7 297.633 94.1C298.2 93.5 298.875 93.0333 299.658 92.7C300.458 92.3667 301.333 92.2 302.283 92.2C303.4 92.2 304.383 92.4417 305.233 92.925C306.083 93.3917 306.75 94.0833 307.233 95C307.733 95.9 308.008 97.0083 308.058 98.325L307.358 98.35V92.65H309.258V104.425C309.258 106.025 309.008 107.317 308.508 108.3C308.025 109.3 307.242 110.033 306.158 110.5C305.092 110.967 303.667 111.2 301.883 111.2ZM302.608 103.9C303.408 103.9 304.133 103.725 304.783 103.375C305.45 103.025 305.975 102.525 306.358 101.875C306.758 101.208 306.958 100.417 306.958 99.5V98.35C306.958 97.45 306.75 96.6917 306.333 96.075C305.933 95.4583 305.408 94.9917 304.758 94.675C304.108 94.3583 303.4 94.2 302.633 94.2C301.767 94.2 301 94.4 300.333 94.8C299.667 95.2 299.15 95.7667 298.783 96.5C298.417 97.2167 298.233 98.0667 298.233 99.05C298.233 100.033 298.417 100.892 298.783 101.625C299.167 102.358 299.683 102.925 300.333 103.325C301 103.708 301.758 103.9 302.608 103.9ZM312.803 111.2V109.05H314.728C315.295 109.05 315.77 108.975 316.153 108.825C316.553 108.692 316.878 108.458 317.128 108.125C317.395 107.792 317.612 107.35 317.778 106.8L321.978 92.65H324.328L319.878 107.425C319.612 108.308 319.237 109.025 318.753 109.575C318.27 110.142 317.678 110.55 316.978 110.8C316.295 111.067 315.495 111.2 314.578 111.2H312.803ZM316.878 105.7V103.7H319.778V105.7H316.878ZM316.628 105.7L311.853 92.65H314.303L318.878 105.7H316.628ZM326.432 100.075V98.025H335.732V100.075H326.432ZM57.35 141.45C56.25 141.45 55.2667 141.208 54.4 140.725C53.55 140.242 52.875 139.542 52.375 138.625C51.875 137.692 51.6 136.575 51.55 135.275H52.2V141H50.3V122.75H52.7V131.625L51.85 133.45C51.9167 132 52.2083 130.817 52.725 129.9C53.2417 128.983 53.9167 128.308 54.75 127.875C55.6 127.425 56.5333 127.2 57.55 127.2C58.5 127.2 59.3667 127.383 60.15 127.75C60.9333 128.1 61.6083 128.592 62.175 129.225C62.7417 129.842 63.175 130.567 63.475 131.4C63.775 132.217 63.925 133.1 63.925 134.05V134.5C63.925 135.45 63.7667 136.342 63.45 137.175C63.15 138.008 62.7083 138.75 62.125 139.4C61.5417 140.033 60.8417 140.533 60.025 140.9C59.225 141.267 58.3333 141.45 57.35 141.45ZM57.075 139.35C57.975 139.35 58.7583 139.133 59.425 138.7C60.0917 138.267 60.6083 137.675 60.975 136.925C61.3417 136.158 61.525 135.275 61.525 134.275C61.525 133.275 61.3333 132.4 60.95 131.65C60.5833 130.9 60.0667 130.325 59.4 129.925C58.7333 129.508 57.9583 129.3 57.075 129.3C56.275 129.3 55.5333 129.483 54.85 129.85C54.1667 130.2 53.6167 130.717 53.2 131.4C52.8 132.067 52.6 132.875 52.6 133.825V134.975C52.6 135.892 52.8083 136.675 53.225 137.325C53.6417 137.975 54.1917 138.475 54.875 138.825C55.5583 139.175 56.2917 139.35 57.075 139.35ZM75.6113 141V137H75.2113V132.375C75.2113 131.458 74.9697 130.767 74.4863 130.3C74.0197 129.833 73.328 129.6 72.4113 129.6C71.8947 129.6 71.3613 129.608 70.8113 129.625C70.2613 129.642 69.7363 129.658 69.2363 129.675C68.7363 129.692 68.303 129.717 67.9363 129.75V127.65C68.303 127.617 68.6863 127.592 69.0863 127.575C69.503 127.542 69.928 127.525 70.3613 127.525C70.7947 127.508 71.2113 127.5 71.6113 127.5C72.978 127.5 74.0947 127.667 74.9613 128C75.828 128.317 76.4697 128.842 76.8863 129.575C77.303 130.308 77.5113 131.3 77.5113 132.55V141H75.6113ZM71.2363 141.35C70.2363 141.35 69.3697 141.183 68.6363 140.85C67.9197 140.5 67.3613 140 66.9613 139.35C66.578 138.7 66.3863 137.917 66.3863 137C66.3863 136.05 66.5947 135.258 67.0113 134.625C67.4447 133.992 68.0697 133.517 68.8863 133.2C69.703 132.867 70.6863 132.7 71.8363 132.7H75.4613V134.5H71.7363C70.7697 134.5 70.028 134.733 69.5113 135.2C68.9947 135.667 68.7363 136.267 68.7363 137C68.7363 137.733 68.9947 138.325 69.5113 138.775C70.028 139.225 70.7697 139.45 71.7363 139.45C72.303 139.45 72.8447 139.35 73.3613 139.15C73.878 138.933 74.303 138.583 74.6363 138.1C74.9863 137.6 75.178 136.917 75.2113 136.05L75.8613 137C75.778 137.95 75.5447 138.75 75.1613 139.4C74.7947 140.033 74.278 140.517 73.6113 140.85C72.9613 141.183 72.1697 141.35 71.2363 141.35ZM86.2912 141.4C84.5412 141.4 83.1829 141.025 82.2162 140.275C81.2662 139.525 80.7745 138.5 80.7412 137.2H82.9912C83.0245 137.717 83.2829 138.208 83.7662 138.675C84.2662 139.125 85.1079 139.35 86.2912 139.35C87.3579 139.35 88.1745 139.142 88.7412 138.725C89.3079 138.292 89.5912 137.767 89.5912 137.15C89.5912 136.6 89.3829 136.175 88.9662 135.875C88.5495 135.558 87.8745 135.35 86.9412 135.25L85.4912 135.1C84.2245 134.967 83.1912 134.592 82.3912 133.975C81.5912 133.342 81.1912 132.458 81.1912 131.325C81.1912 130.475 81.4079 129.75 81.8412 129.15C82.2745 128.533 82.8745 128.067 83.6412 127.75C84.4079 127.417 85.2912 127.25 86.2912 127.25C87.7912 127.25 89.0079 127.583 89.9412 128.25C90.8745 128.917 91.3579 129.908 91.3912 131.225H89.1412C89.1245 130.692 88.8745 130.242 88.3912 129.875C87.9245 129.492 87.2245 129.3 86.2912 129.3C85.3579 129.3 84.6495 129.492 84.1662 129.875C83.6829 130.258 83.4412 130.742 83.4412 131.325C83.4412 131.825 83.6079 132.225 83.9412 132.525C84.2912 132.825 84.8579 133.017 85.6412 133.1L87.0912 133.25C88.5245 133.4 89.6745 133.8 90.5412 134.45C91.4079 135.083 91.8412 135.983 91.8412 137.15C91.8412 137.983 91.5995 138.725 91.1162 139.375C90.6495 140.008 89.9995 140.508 89.1662 140.875C88.3329 141.225 87.3745 141.4 86.2912 141.4ZM100.995 141.45C99.8279 141.45 98.8195 141.25 97.9695 140.85C97.1195 140.45 96.4279 139.925 95.8945 139.275C95.3612 138.608 94.9612 137.867 94.6945 137.05C94.4445 136.233 94.3195 135.4 94.3195 134.55V134.1C94.3195 133.233 94.4445 132.392 94.6945 131.575C94.9612 130.758 95.3612 130.025 95.8945 129.375C96.4279 128.708 97.1029 128.183 97.9195 127.8C98.7529 127.4 99.7279 127.2 100.845 127.2C102.295 127.2 103.486 127.517 104.42 128.15C105.37 128.767 106.07 129.567 106.52 130.55C106.986 131.533 107.22 132.583 107.22 133.7V134.775H95.3695V132.975H105.47L104.92 133.95C104.92 133 104.77 132.183 104.47 131.5C104.17 130.8 103.72 130.258 103.12 129.875C102.52 129.492 101.761 129.3 100.845 129.3C99.8945 129.3 99.1029 129.517 98.4695 129.95C97.8529 130.383 97.3862 130.975 97.0695 131.725C96.7695 132.475 96.6195 133.342 96.6195 134.325C96.6195 135.275 96.7695 136.133 97.0695 136.9C97.3862 137.65 97.8695 138.25 98.5195 138.7C99.1695 139.133 99.9945 139.35 100.995 139.35C102.045 139.35 102.895 139.117 103.545 138.65C104.211 138.183 104.611 137.642 104.745 137.025H106.995C106.811 137.942 106.445 138.733 105.895 139.4C105.345 140.067 104.653 140.575 103.82 140.925C102.986 141.275 102.045 141.45 100.995 141.45ZM116.202 141.45C115.252 141.45 114.377 141.275 113.577 140.925C112.777 140.575 112.077 140.083 111.477 139.45C110.894 138.817 110.435 138.083 110.102 137.25C109.785 136.417 109.627 135.517 109.627 134.55V134.1C109.627 133.15 109.785 132.258 110.102 131.425C110.419 130.592 110.86 129.858 111.427 129.225C112.01 128.592 112.694 128.1 113.477 127.75C114.277 127.383 115.16 127.2 116.127 127.2C117.144 127.2 118.069 127.417 118.902 127.85C119.735 128.267 120.419 128.925 120.952 129.825C121.485 130.725 121.785 131.892 121.852 133.325L120.852 131.725V122.75H123.252V141H121.352V135.075H122.052C121.985 136.592 121.669 137.825 121.102 138.775C120.535 139.708 119.819 140.392 118.952 140.825C118.102 141.242 117.185 141.45 116.202 141.45ZM116.527 139.35C117.344 139.35 118.085 139.167 118.752 138.8C119.419 138.433 119.952 137.908 120.352 137.225C120.752 136.525 120.952 135.708 120.952 134.775V133.625C120.952 132.708 120.744 131.933 120.327 131.3C119.927 130.65 119.385 130.158 118.702 129.825C118.035 129.475 117.302 129.3 116.502 129.3C115.619 129.3 114.835 129.508 114.152 129.925C113.485 130.342 112.96 130.925 112.577 131.675C112.21 132.425 112.027 133.308 112.027 134.325C112.027 135.342 112.219 136.233 112.602 137C112.985 137.75 113.519 138.333 114.202 138.75C114.885 139.15 115.66 139.35 116.527 139.35ZM133.552 146V127.65H135.452V133.425L135.002 133.375C135.085 131.942 135.385 130.775 135.902 129.875C136.435 128.958 137.127 128.283 137.977 127.85C138.827 127.417 139.752 127.2 140.752 127.2C141.719 127.2 142.594 127.383 143.377 127.75C144.177 128.117 144.86 128.617 145.427 129.25C145.994 129.883 146.427 130.617 146.727 131.45C147.027 132.283 147.177 133.167 147.177 134.1V134.55C147.177 135.483 147.019 136.367 146.702 137.2C146.385 138.033 145.935 138.767 145.352 139.4C144.785 140.033 144.102 140.533 143.302 140.9C142.519 141.267 141.652 141.45 140.702 141.45C139.752 141.45 138.844 141.242 137.977 140.825C137.11 140.408 136.394 139.733 135.827 138.8C135.26 137.867 134.935 136.642 134.852 135.125L135.952 137.125V146H133.552ZM140.327 139.35C141.227 139.35 142.01 139.142 142.677 138.725C143.344 138.292 143.86 137.7 144.227 136.95C144.594 136.183 144.777 135.308 144.777 134.325C144.777 133.325 144.594 132.45 144.227 131.7C143.86 130.95 143.344 130.367 142.677 129.95C142.01 129.517 141.227 129.3 140.327 129.3C139.527 129.3 138.785 129.483 138.102 129.85C137.419 130.2 136.869 130.717 136.452 131.4C136.052 132.067 135.852 132.875 135.852 133.825V134.975C135.852 135.892 136.06 136.675 136.477 137.325C136.894 137.975 137.444 138.475 138.127 138.825C138.81 139.175 139.544 139.35 140.327 139.35ZM150.788 141V127.65H152.688V133.15H152.588C152.588 131.2 153.013 129.775 153.863 128.875C154.73 127.958 156.022 127.5 157.738 127.5H158.188V129.65H157.338C156.005 129.65 154.98 130.008 154.263 130.725C153.547 131.425 153.188 132.442 153.188 133.775V141H150.788ZM167.046 141.45C165.879 141.45 164.854 141.25 163.971 140.85C163.087 140.45 162.337 139.925 161.721 139.275C161.121 138.608 160.662 137.867 160.346 137.05C160.046 136.233 159.896 135.4 159.896 134.55V134.1C159.896 133.25 160.054 132.417 160.371 131.6C160.687 130.767 161.154 130.025 161.771 129.375C162.387 128.708 163.137 128.183 164.021 127.8C164.904 127.4 165.912 127.2 167.046 127.2C168.179 127.2 169.187 127.4 170.071 127.8C170.954 128.183 171.704 128.708 172.321 129.375C172.937 130.025 173.404 130.767 173.721 131.6C174.037 132.417 174.196 133.25 174.196 134.1V134.55C174.196 135.4 174.037 136.233 173.721 137.05C173.421 137.867 172.962 138.608 172.346 139.275C171.746 139.925 171.004 140.45 170.121 140.85C169.237 141.25 168.212 141.45 167.046 141.45ZM167.046 139.3C168.046 139.3 168.896 139.083 169.596 138.65C170.312 138.2 170.854 137.6 171.221 136.85C171.604 136.1 171.796 135.258 171.796 134.325C171.796 133.375 171.604 132.525 171.221 131.775C170.837 131.025 170.287 130.433 169.571 130C168.871 129.567 168.029 129.35 167.046 129.35C166.079 129.35 165.237 129.567 164.521 130C163.804 130.433 163.254 131.025 162.871 131.775C162.487 132.525 162.296 133.375 162.296 134.325C162.296 135.258 162.479 136.1 162.846 136.85C163.229 137.6 163.771 138.2 164.471 138.65C165.187 139.083 166.046 139.3 167.046 139.3ZM182.84 146.2C182.224 146.2 181.599 146.175 180.965 146.125C180.349 146.075 179.757 146.008 179.19 145.925V143.9C179.79 143.983 180.415 144.05 181.065 144.1C181.732 144.167 182.357 144.2 182.94 144.2C184.157 144.2 185.124 144.033 185.84 143.7C186.574 143.383 187.099 142.875 187.415 142.175C187.749 141.492 187.915 140.608 187.915 139.525V136.975L188.715 135.075C188.665 136.425 188.382 137.55 187.865 138.45C187.349 139.333 186.674 140 185.84 140.45C185.024 140.883 184.115 141.1 183.115 141.1C182.182 141.1 181.324 140.925 180.54 140.575C179.774 140.208 179.107 139.708 178.54 139.075C177.99 138.442 177.557 137.717 177.24 136.9C176.94 136.067 176.79 135.192 176.79 134.275V133.825C176.79 132.892 176.949 132.025 177.265 131.225C177.582 130.408 178.024 129.7 178.59 129.1C179.157 128.5 179.832 128.033 180.615 127.7C181.415 127.367 182.29 127.2 183.24 127.2C184.357 127.2 185.34 127.442 186.19 127.925C187.04 128.392 187.707 129.083 188.19 130C188.69 130.9 188.965 132.008 189.015 133.325L188.315 133.35V127.65H190.215V139.425C190.215 141.025 189.965 142.317 189.465 143.3C188.982 144.3 188.199 145.033 187.115 145.5C186.049 145.967 184.624 146.2 182.84 146.2ZM183.565 138.9C184.365 138.9 185.09 138.725 185.74 138.375C186.407 138.025 186.932 137.525 187.315 136.875C187.715 136.208 187.915 135.417 187.915 134.5V133.35C187.915 132.45 187.707 131.692 187.29 131.075C186.89 130.458 186.365 129.992 185.715 129.675C185.065 129.358 184.357 129.2 183.59 129.2C182.724 129.2 181.957 129.4 181.29 129.8C180.624 130.2 180.107 130.767 179.74 131.5C179.374 132.217 179.19 133.067 179.19 134.05C179.19 135.033 179.374 135.892 179.74 136.625C180.124 137.358 180.64 137.925 181.29 138.325C181.957 138.708 182.715 138.9 183.565 138.9ZM194.66 141V127.65H196.56V133.375H196.26C196.26 132.058 196.435 130.95 196.785 130.05C197.152 129.133 197.702 128.442 198.435 127.975C199.169 127.492 200.094 127.25 201.21 127.25H201.31C202.994 127.25 204.235 127.775 205.035 128.825C205.852 129.875 206.26 131.392 206.26 133.375V141H203.86V132.875C203.86 131.842 203.569 131.017 202.985 130.4C202.402 129.767 201.602 129.45 200.585 129.45C199.535 129.45 198.685 129.775 198.035 130.425C197.385 131.075 197.06 131.942 197.06 133.025V141H194.66ZM216.802 141.45C215.635 141.45 214.61 141.25 213.727 140.85C212.843 140.45 212.093 139.925 211.477 139.275C210.877 138.608 210.418 137.867 210.102 137.05C209.802 136.233 209.652 135.4 209.652 134.55V134.1C209.652 133.25 209.81 132.417 210.127 131.6C210.443 130.767 210.91 130.025 211.527 129.375C212.143 128.708 212.893 128.183 213.777 127.8C214.66 127.4 215.668 127.2 216.802 127.2C217.935 127.2 218.943 127.4 219.827 127.8C220.71 128.183 221.46 128.708 222.077 129.375C222.693 130.025 223.16 130.767 223.477 131.6C223.793 132.417 223.952 133.25 223.952 134.1V134.55C223.952 135.4 223.793 136.233 223.477 137.05C223.177 137.867 222.718 138.608 222.102 139.275C221.502 139.925 220.76 140.45 219.877 140.85C218.993 141.25 217.968 141.45 216.802 141.45ZM216.802 139.3C217.802 139.3 218.652 139.083 219.352 138.65C220.068 138.2 220.61 137.6 220.977 136.85C221.36 136.1 221.552 135.258 221.552 134.325C221.552 133.375 221.36 132.525 220.977 131.775C220.593 131.025 220.043 130.433 219.327 130C218.627 129.567 217.785 129.35 216.802 129.35C215.835 129.35 214.993 129.567 214.277 130C213.56 130.433 213.01 131.025 212.627 131.775C212.243 132.525 212.052 133.375 212.052 134.325C212.052 135.258 212.235 136.1 212.602 136.85C212.985 137.6 213.527 138.2 214.227 138.65C214.943 139.083 215.802 139.3 216.802 139.3ZM231.921 141.4C230.171 141.4 228.813 141.025 227.846 140.275C226.896 139.525 226.404 138.5 226.371 137.2H228.621C228.654 137.717 228.913 138.208 229.396 138.675C229.896 139.125 230.738 139.35 231.921 139.35C232.988 139.35 233.804 139.142 234.371 138.725C234.938 138.292 235.221 137.767 235.221 137.15C235.221 136.6 235.013 136.175 234.596 135.875C234.179 135.558 233.504 135.35 232.571 135.25L231.121 135.1C229.854 134.967 228.821 134.592 228.021 133.975C227.221 133.342 226.821 132.458 226.821 131.325C226.821 130.475 227.038 129.75 227.471 129.15C227.904 128.533 228.504 128.067 229.271 127.75C230.038 127.417 230.921 127.25 231.921 127.25C233.421 127.25 234.638 127.583 235.571 128.25C236.504 128.917 236.988 129.908 237.021 131.225H234.771C234.754 130.692 234.504 130.242 234.021 129.875C233.554 129.492 232.854 129.3 231.921 129.3C230.988 129.3 230.279 129.492 229.796 129.875C229.313 130.258 229.071 130.742 229.071 131.325C229.071 131.825 229.238 132.225 229.571 132.525C229.921 132.825 230.488 133.017 231.271 133.1L232.721 133.25C234.154 133.4 235.304 133.8 236.171 134.45C237.038 135.083 237.471 135.983 237.471 137.15C237.471 137.983 237.229 138.725 236.746 139.375C236.279 140.008 235.629 140.508 234.796 140.875C233.963 141.225 233.004 141.4 231.921 141.4ZM241.599 141V127.65H243.999V141H241.599ZM239.549 129.55V127.65H243.999V129.55H239.549ZM242.274 125.5C241.741 125.5 241.341 125.358 241.074 125.075C240.824 124.792 240.699 124.433 240.699 124C240.699 123.567 240.824 123.208 241.074 122.925C241.341 122.642 241.741 122.5 242.274 122.5C242.808 122.5 243.199 122.642 243.449 122.925C243.716 123.208 243.849 123.567 243.849 124C243.849 124.433 243.716 124.792 243.449 125.075C243.199 125.358 242.808 125.5 242.274 125.5ZM253.015 141.4C251.265 141.4 249.907 141.025 248.94 140.275C247.99 139.525 247.498 138.5 247.465 137.2H249.715C249.748 137.717 250.007 138.208 250.49 138.675C250.99 139.125 251.832 139.35 253.015 139.35C254.082 139.35 254.898 139.142 255.465 138.725C256.032 138.292 256.315 137.767 256.315 137.15C256.315 136.6 256.107 136.175 255.69 135.875C255.273 135.558 254.598 135.35 253.665 135.25L252.215 135.1C250.948 134.967 249.915 134.592 249.115 133.975C248.315 133.342 247.915 132.458 247.915 131.325C247.915 130.475 248.132 129.75 248.565 129.15C248.998 128.533 249.598 128.067 250.365 127.75C251.132 127.417 252.015 127.25 253.015 127.25C254.515 127.25 255.732 127.583 256.665 128.25C257.598 128.917 258.082 129.908 258.115 131.225H255.865C255.848 130.692 255.598 130.242 255.115 129.875C254.648 129.492 253.948 129.3 253.015 129.3C252.082 129.3 251.373 129.492 250.89 129.875C250.407 130.258 250.165 130.742 250.165 131.325C250.165 131.825 250.332 132.225 250.665 132.525C251.015 132.825 251.582 133.017 252.365 133.1L253.815 133.25C255.248 133.4 256.398 133.8 257.265 134.45C258.132 135.083 258.565 135.983 258.565 137.15C258.565 137.983 258.323 138.725 257.84 139.375C257.373 140.008 256.723 140.508 255.89 140.875C255.057 141.225 254.098 141.4 253.015 141.4Z" fill="white"/>
<defs>
<linearGradient id="paint0_linear_363_4306" x1="-101.907" y1="233.146" x2="-75.3804" y2="80.5133" gradientUnits="userSpaceOnUse">
<stop stop-color="#8258C8"/>
<stop offset="0.315" stop-color="#6766C8"/>
<stop offset="1" stop-color="#2C84C8"/>
</linearGradient>
<linearGradient id="paint1_linear_363_4306" x1="-98.1464" y1="236.582" x2="-78.8186" y2="86.6535" gradientUnits="userSpaceOnUse">
<stop stop-color="#8258C8"/>
<stop offset="0.315" stop-color="#6766C8"/>
<stop offset="1" stop-color="#2C84C8"/>
</linearGradient>
<linearGradient id="paint2_linear_363_4306" x1="-93.8168" y1="117.999" x2="171.151" y2="232.317" gradientUnits="userSpaceOnUse">
<stop stop-color="#8258C8"/>
<stop offset="0.315" stop-color="#6766C8"/>
<stop offset="1" stop-color="#2C84C8"/>
</linearGradient>
<linearGradient id="paint3_linear_363_4306" x1="-95.5922" y1="124.162" x2="168.498" y2="223.752" gradientUnits="userSpaceOnUse">
<stop stop-color="#8258C8"/>
<stop offset="0.315" stop-color="#6766C8"/>
<stop offset="1" stop-color="#2C84C8"/>
</linearGradient>
<linearGradient id="paint4_linear_363_4306" x1="-97.3986" y1="130.353" x2="165.839" y2="215.307" gradientUnits="userSpaceOnUse">
<stop stop-color="#8258C8"/>
<stop offset="0.315" stop-color="#6766C8"/>
<stop offset="1" stop-color="#2C84C8"/>
</linearGradient>
<linearGradient id="paint5_linear_363_4306" x1="-99.1898" y1="136.518" x2="163.223" y2="206.803" gradientUnits="userSpaceOnUse">
<stop stop-color="#8258C8"/>
<stop offset="0.315" stop-color="#6766C8"/>
<stop offset="1" stop-color="#2C84C8"/>
</linearGradient>
<linearGradient id="paint6_linear_363_4306" x1="-100.965" y1="142.714" x2="160.654" y2="198.412" gradientUnits="userSpaceOnUse">
<stop stop-color="#8258C8"/>
<stop offset="0.315" stop-color="#6766C8"/>
<stop offset="1" stop-color="#2C84C8"/>
</linearGradient>
<linearGradient id="paint7_linear_363_4306" x1="-102.741" y1="148.872" x2="158.123" y2="189.977" gradientUnits="userSpaceOnUse">
<stop stop-color="#8258C8"/>
<stop offset="0.315" stop-color="#6766C8"/>
<stop offset="1" stop-color="#2C84C8"/>
</linearGradient>
<linearGradient id="paint8_linear_363_4306" x1="-104.516" y1="155.056" x2="155.635" y2="181.584" gradientUnits="userSpaceOnUse">
<stop stop-color="#8258C8"/>
<stop offset="0.315" stop-color="#6766C8"/>
<stop offset="1" stop-color="#2C84C8"/>
</linearGradient>
<linearGradient id="paint9_linear_363_4306" x1="-106.299" y1="161.228" x2="153.224" y2="173.238" gradientUnits="userSpaceOnUse">
<stop stop-color="#8258C8"/>
<stop offset="0.315" stop-color="#6766C8"/>
<stop offset="1" stop-color="#2C84C8"/>
</linearGradient>
<linearGradient id="paint10_linear_363_4306" x1="-108.067" y1="167.391" x2="150.873" y2="164.872" gradientUnits="userSpaceOnUse">
<stop stop-color="#8258C8"/>
<stop offset="0.315" stop-color="#6766C8"/>
<stop offset="1" stop-color="#2C84C8"/>
</linearGradient>
<linearGradient id="paint11_linear_363_4306" x1="-109.843" y1="173.568" x2="148.566" y2="156.497" gradientUnits="userSpaceOnUse">
<stop stop-color="#8258C8"/>
<stop offset="0.315" stop-color="#6766C8"/>
<stop offset="1" stop-color="#2C84C8"/>
</linearGradient>
<linearGradient id="paint12_linear_363_4306" x1="-111.61" y1="179.745" x2="146.326" y2="148.175" gradientUnits="userSpaceOnUse">
<stop stop-color="#8258C8"/>
<stop offset="0.315" stop-color="#6766C8"/>
<stop offset="1" stop-color="#2C84C8"/>
</linearGradient>
<linearGradient id="paint13_linear_363_4306" x1="-113.378" y1="185.929" x2="144.152" y2="139.774" gradientUnits="userSpaceOnUse">
<stop stop-color="#8258C8"/>
<stop offset="0.315" stop-color="#6766C8"/>
<stop offset="1" stop-color="#2C84C8"/>
</linearGradient>
<linearGradient id="paint14_linear_363_4306" x1="-115.2" y1="192.067" x2="141.974" y2="131.31" gradientUnits="userSpaceOnUse">
<stop stop-color="#8258C8"/>
<stop offset="0.315" stop-color="#6766C8"/>
<stop offset="1" stop-color="#2C84C8"/>
</linearGradient>
<linearGradient id="paint15_linear_363_4306" x1="-116.975" y1="198.272" x2="139.89" y2="122.918" gradientUnits="userSpaceOnUse">
<stop stop-color="#8258C8"/>
<stop offset="0.315" stop-color="#6766C8"/>
<stop offset="1" stop-color="#2C84C8"/>
</linearGradient>
<linearGradient id="paint16_linear_363_4306" x1="-118.735" y1="204.449" x2="137.819" y2="114.425" gradientUnits="userSpaceOnUse">
<stop stop-color="#8258C8"/>
<stop offset="0.315" stop-color="#6766C8"/>
<stop offset="1" stop-color="#2C84C8"/>
</linearGradient>
<linearGradient id="paint17_linear_363_4306" x1="-120.526" y1="210.62" x2="135.781" y2="105.874" gradientUnits="userSpaceOnUse">
<stop stop-color="#8258C8"/>
<stop offset="0.315" stop-color="#6766C8"/>
<stop offset="1" stop-color="#2C84C8"/>
</linearGradient>
<linearGradient id="paint18_linear_363_4306" x1="-122.302" y1="216.783" x2="133.774" y2="97.3146" gradientUnits="userSpaceOnUse">
<stop stop-color="#8258C8"/>
<stop offset="0.315" stop-color="#6766C8"/>
<stop offset="1" stop-color="#2C84C8"/>
</linearGradient>
<linearGradient id="paint19_linear_363_4306" x1="-124.062" y1="222.946" x2="131.78" y2="88.6721" gradientUnits="userSpaceOnUse">
<stop stop-color="#8258C8"/>
<stop offset="0.315" stop-color="#6766C8"/>
<stop offset="1" stop-color="#2C84C8"/>
</linearGradient>
<linearGradient id="paint20_linear_363_4306" x1="-125.853" y1="229.11" x2="129.753" y2="79.9925" gradientUnits="userSpaceOnUse">
<stop stop-color="#8258C8"/>
<stop offset="0.315" stop-color="#6766C8"/>
<stop offset="1" stop-color="#2C84C8"/>
</linearGradient>
<linearGradient id="paint21_linear_363_4306" x1="-127.636" y1="235.302" x2="127.786" y2="71.321" gradientUnits="userSpaceOnUse">
<stop stop-color="#8258C8"/>
<stop offset="0.315" stop-color="#6766C8"/>
<stop offset="1" stop-color="#2C84C8"/>
</linearGradient>
<linearGradient id="paint22_linear_363_4306" x1="-3.03158" y1="-2.00004" x2="450.142" y2="164.865" gradientUnits="userSpaceOnUse">
<stop stop-color="#8258C8"/>
<stop offset="1" stop-color="#2C84C8"/>
</linearGradient>
</defs>
</svg>
