<svg width="422" height="220" viewBox="0 0 422 220" fill="none" xmlns="http://www.w3.org/2000/svg">
<g filter="url(#filter0_d_769_8681)">
<path d="M30 59C30 52.3726 35.3726 47 42 47H390V176C390 182.627 384.627 188 378 188H42C35.3726 188 30 182.627 30 176V59Z" fill="white"/>
<path d="M28 47C28 44.7909 29.7909 43 32 43V131C29.7909 131 28 129.209 28 127V47Z" fill="url(#paint0_linear_769_8681)"/>
<path d="M30 40C30 33.3726 35.3726 28 42 28H378C384.627 28 390 33.3726 390 40V47H32C30.8954 47 30 46.1046 30 45V40Z" fill="white"/>
<path d="M30 129C30 127.895 30.8954 127 32 127H390V134C390 140.627 384.627 146 378 146H42C35.3726 146 30 140.627 30 134V129Z" fill="white"/>
<path d="M30 47H322C328.627 47 334 52.3726 334 59V115C334 121.627 328.627 127 322 127H30V47Z" fill="url(#paint1_linear_769_8681)"/>
<path d="M115.96 98V77.84H123.884C125.163 77.84 126.236 78.1013 127.104 78.624C127.972 79.1467 128.625 79.8233 129.064 80.654C129.503 81.4753 129.722 82.3433 129.722 83.258C129.722 84.3687 129.447 85.3207 128.896 86.114C128.355 86.9073 127.622 87.4487 126.698 87.738L126.67 87.052C127.958 87.3693 128.947 87.99 129.638 88.914C130.329 89.8287 130.674 90.8973 130.674 92.12C130.674 93.3053 130.436 94.3367 129.96 95.214C129.493 96.0913 128.807 96.7773 127.902 97.272C127.006 97.7573 125.919 98 124.64 98H115.96ZM118.928 95.214H124.192C124.855 95.214 125.447 95.088 125.97 94.836C126.502 94.584 126.917 94.2247 127.216 93.758C127.524 93.282 127.678 92.7173 127.678 92.064C127.678 91.4573 127.543 90.9113 127.272 90.426C127.011 89.9313 126.628 89.544 126.124 89.264C125.629 88.9747 125.046 88.83 124.374 88.83H118.928V95.214ZM118.928 86.072H123.842C124.383 86.072 124.869 85.9647 125.298 85.75C125.737 85.526 126.082 85.2087 126.334 84.798C126.595 84.378 126.726 83.874 126.726 83.286C126.726 82.502 126.465 81.858 125.942 81.354C125.419 80.85 124.719 80.598 123.842 80.598H118.928V86.072ZM137.73 98.42C136.61 98.42 135.672 98.2147 134.916 97.804C134.16 97.384 133.586 96.8333 133.194 96.152C132.811 95.4613 132.62 94.7053 132.62 93.884C132.62 93.1187 132.755 92.4467 133.026 91.868C133.297 91.2893 133.698 90.7993 134.23 90.398C134.762 89.9873 135.415 89.656 136.19 89.404C136.862 89.208 137.623 89.0353 138.472 88.886C139.321 88.7367 140.213 88.5967 141.146 88.466C142.089 88.3353 143.022 88.2047 143.946 88.074L142.882 88.662C142.901 87.4767 142.649 86.5993 142.126 86.03C141.613 85.4513 140.726 85.162 139.466 85.162C138.673 85.162 137.945 85.3487 137.282 85.722C136.619 86.086 136.157 86.6927 135.896 87.542L133.166 86.702C133.539 85.4047 134.249 84.3733 135.294 83.608C136.349 82.8427 137.749 82.46 139.494 82.46C140.847 82.46 142.023 82.6933 143.022 83.16C144.03 83.6173 144.767 84.3453 145.234 85.344C145.477 85.8387 145.626 86.3613 145.682 86.912C145.738 87.4627 145.766 88.0553 145.766 88.69V98H143.176V94.542L143.68 94.99C143.055 96.1473 142.257 97.0107 141.286 97.58C140.325 98.14 139.139 98.42 137.73 98.42ZM138.248 96.026C139.079 96.026 139.793 95.8813 140.39 95.592C140.987 95.2933 141.468 94.9153 141.832 94.458C142.196 94.0007 142.434 93.5247 142.546 93.03C142.705 92.582 142.793 92.078 142.812 91.518C142.84 90.958 142.854 90.51 142.854 90.174L143.806 90.524C142.882 90.664 142.042 90.79 141.286 90.902C140.53 91.014 139.844 91.126 139.228 91.238C138.621 91.3407 138.08 91.4667 137.604 91.616C137.203 91.756 136.843 91.924 136.526 92.12C136.218 92.316 135.971 92.554 135.784 92.834C135.607 93.114 135.518 93.4547 135.518 93.856C135.518 94.248 135.616 94.612 135.812 94.948C136.008 95.2747 136.307 95.536 136.708 95.732C137.109 95.928 137.623 96.026 138.248 96.026ZM150.598 104.72L153.524 96.754L153.566 99.106L146.972 82.88H150.024L154.952 95.41H154.056L158.76 82.88H161.728L153.384 104.72H150.598ZM169.94 98.42C168.428 98.42 167.117 98.0793 166.006 97.398C164.895 96.7167 164.037 95.7787 163.43 94.584C162.833 93.38 162.534 91.994 162.534 90.426C162.534 88.8487 162.842 87.4627 163.458 86.268C164.074 85.064 164.937 84.1307 166.048 83.468C167.159 82.796 168.456 82.46 169.94 82.46C171.452 82.46 172.763 82.8007 173.874 83.482C174.985 84.1633 175.843 85.1013 176.45 86.296C177.057 87.4907 177.36 88.8673 177.36 90.426C177.36 92.0033 177.052 93.394 176.436 94.598C175.829 95.7927 174.971 96.7307 173.86 97.412C172.749 98.084 171.443 98.42 169.94 98.42ZM169.94 95.662C171.387 95.662 172.465 95.1767 173.174 94.206C173.893 93.226 174.252 91.966 174.252 90.426C174.252 88.8487 173.888 87.5887 173.16 86.646C172.441 85.694 171.368 85.218 169.94 85.218C168.96 85.218 168.153 85.442 167.518 85.89C166.883 86.3287 166.412 86.94 166.104 87.724C165.796 88.4987 165.642 89.3993 165.642 90.426C165.642 92.0127 166.006 93.282 166.734 94.234C167.462 95.186 168.531 95.662 169.94 95.662ZM185.945 98.406C184.106 98.406 182.608 98 181.451 97.188C180.294 96.376 179.584 95.2327 179.323 93.758L182.319 93.296C182.506 94.08 182.935 94.7007 183.607 95.158C184.288 95.606 185.133 95.83 186.141 95.83C187.056 95.83 187.77 95.6433 188.283 95.27C188.806 94.8967 189.067 94.3833 189.067 93.73C189.067 93.3473 188.974 93.0393 188.787 92.806C188.61 92.5633 188.232 92.3347 187.653 92.12C187.074 91.9053 186.192 91.6393 185.007 91.322C183.71 90.986 182.678 90.6267 181.913 90.244C181.157 89.852 180.616 89.3993 180.289 88.886C179.972 88.3633 179.813 87.7333 179.813 86.996C179.813 86.0813 180.056 85.2833 180.541 84.602C181.026 83.9207 181.708 83.3933 182.585 83.02C183.472 82.6467 184.508 82.46 185.693 82.46C186.85 82.46 187.882 82.642 188.787 83.006C189.692 83.37 190.425 83.888 190.985 84.56C191.545 85.2227 191.881 86.002 191.993 86.898L188.997 87.444C188.894 86.716 188.554 86.142 187.975 85.722C187.396 85.302 186.645 85.0733 185.721 85.036C184.834 84.9987 184.116 85.148 183.565 85.484C183.014 85.8107 182.739 86.2633 182.739 86.842C182.739 87.178 182.842 87.4627 183.047 87.696C183.262 87.9293 183.672 88.1533 184.279 88.368C184.886 88.5827 185.782 88.8393 186.967 89.138C188.236 89.4647 189.244 89.8287 189.991 90.23C190.738 90.622 191.27 91.0933 191.587 91.644C191.914 92.1853 192.077 92.8433 192.077 93.618C192.077 95.1113 191.531 96.2827 190.439 97.132C189.356 97.9813 187.858 98.406 185.945 98.406ZM203.827 98C202.875 98.1867 201.942 98.266 201.027 98.238C200.112 98.21 199.296 98.0327 198.577 97.706C197.858 97.3793 197.317 96.866 196.953 96.166C196.626 95.5407 196.449 94.906 196.421 94.262C196.402 93.6087 196.393 92.8713 196.393 92.05V78.68H199.333V91.91C199.333 92.5167 199.338 93.044 199.347 93.492C199.366 93.94 199.464 94.318 199.641 94.626C199.977 95.2047 200.509 95.536 201.237 95.62C201.974 95.6947 202.838 95.662 203.827 95.522V98ZM193.495 85.232V82.88H203.827V85.232H193.495ZM217.627 98V90.566C217.627 89.978 217.575 89.376 217.473 88.76C217.379 88.1347 217.193 87.556 216.913 87.024C216.642 86.492 216.255 86.0627 215.751 85.736C215.256 85.4093 214.607 85.246 213.805 85.246C213.282 85.246 212.787 85.3347 212.321 85.512C211.854 85.68 211.443 85.9553 211.089 86.338C210.743 86.7207 210.468 87.2247 210.263 87.85C210.067 88.4753 209.969 89.236 209.969 90.132L208.149 89.446C208.149 88.074 208.405 86.8653 208.919 85.82C209.432 84.7653 210.169 83.944 211.131 83.356C212.092 82.768 213.254 82.474 214.617 82.474C215.662 82.474 216.539 82.642 217.249 82.978C217.958 83.314 218.532 83.7573 218.971 84.308C219.419 84.8493 219.759 85.442 219.993 86.086C220.226 86.73 220.385 87.36 220.469 87.976C220.553 88.592 220.595 89.1333 220.595 89.6V98H217.627ZM207.001 98V77.84H209.619V88.718H209.969V98H207.001ZM224.521 80.402V77.56H227.447V80.402H224.521ZM224.521 98V82.88H227.447V98H224.521ZM240.303 98C239.351 98.1867 238.418 98.266 237.503 98.238C236.589 98.21 235.772 98.0327 235.053 97.706C234.335 97.3793 233.793 96.866 233.429 96.166C233.103 95.5407 232.925 94.906 232.897 94.262C232.879 93.6087 232.869 92.8713 232.869 92.05V78.68H235.809V91.91C235.809 92.5167 235.814 93.044 235.823 93.492C235.842 93.94 235.94 94.318 236.117 94.626C236.453 95.2047 236.985 95.536 237.713 95.62C238.451 95.6947 239.314 95.662 240.303 95.522V98ZM229.971 85.232V82.88H240.303V85.232H229.971ZM243.771 80.402V77.56H246.697V80.402H243.771ZM243.771 98V82.88H246.697V98H243.771Z" fill="white"/>
<path d="M120.92 163V145.72H123.428V163H120.92ZM136.128 163V156.628C136.128 156.124 136.084 155.608 135.996 155.08C135.916 154.544 135.756 154.048 135.516 153.592C135.284 153.136 134.952 152.768 134.52 152.488C134.096 152.208 133.54 152.068 132.852 152.068C132.404 152.068 131.98 152.144 131.58 152.296C131.18 152.44 130.828 152.676 130.524 153.004C130.228 153.332 129.992 153.764 129.816 154.3C129.648 154.836 129.564 155.488 129.564 156.256L128.004 155.668C128.004 154.492 128.224 153.456 128.664 152.56C129.104 151.656 129.736 150.952 130.56 150.448C131.384 149.944 132.38 149.692 133.548 149.692C134.444 149.692 135.196 149.836 135.804 150.124C136.412 150.412 136.904 150.792 137.28 151.264C137.664 151.728 137.956 152.236 138.156 152.788C138.356 153.34 138.492 153.88 138.564 154.408C138.636 154.936 138.672 155.4 138.672 155.8V163H136.128ZM127.02 163V150.04H129.264V153.784H129.564V163H127.02ZM146.781 163.36C145.573 163.36 144.529 163.06 143.649 162.46C142.777 161.86 142.101 161.044 141.621 160.012C141.149 158.972 140.913 157.804 140.913 156.508C140.913 155.204 141.153 154.04 141.633 153.016C142.113 151.984 142.793 151.172 143.673 150.58C144.561 149.98 145.613 149.68 146.829 149.68C148.053 149.68 149.081 149.98 149.913 150.58C150.753 151.172 151.385 151.984 151.809 153.016C152.241 154.048 152.457 155.212 152.457 156.508C152.457 157.804 152.241 158.968 151.809 160C151.377 161.032 150.741 161.852 149.901 162.46C149.061 163.06 148.021 163.36 146.781 163.36ZM147.129 161.092C147.953 161.092 148.625 160.896 149.145 160.504C149.665 160.112 150.045 159.572 150.285 158.884C150.525 158.196 150.645 157.404 150.645 156.508C150.645 155.612 150.521 154.82 150.273 154.132C150.033 153.444 149.657 152.908 149.145 152.524C148.641 152.14 147.997 151.948 147.213 151.948C146.381 151.948 145.697 152.152 145.161 152.56C144.625 152.968 144.225 153.516 143.961 154.204C143.705 154.892 143.577 155.66 143.577 156.508C143.577 157.364 143.705 158.14 143.961 158.836C144.225 159.524 144.617 160.072 145.137 160.48C145.665 160.888 146.329 161.092 147.129 161.092ZM150.645 163V153.676H150.357V145.72H152.877V163H150.645ZM156.475 147.916V145.48H158.983V147.916H156.475ZM156.475 163V150.04H158.983V163H156.475ZM166.246 163.36C165.286 163.36 164.482 163.184 163.834 162.832C163.186 162.472 162.694 162 162.358 161.416C162.03 160.824 161.866 160.176 161.866 159.472C161.866 158.816 161.982 158.24 162.214 157.744C162.446 157.248 162.79 156.828 163.246 156.484C163.702 156.132 164.262 155.848 164.926 155.632C165.502 155.464 166.154 155.316 166.882 155.188C167.61 155.06 168.374 154.94 169.174 154.828C169.982 154.716 170.782 154.604 171.574 154.492L170.662 154.996C170.678 153.98 170.462 153.228 170.014 152.74C169.574 152.244 168.814 151.996 167.734 151.996C167.054 151.996 166.43 152.156 165.862 152.476C165.294 152.788 164.898 153.308 164.674 154.036L162.334 153.316C162.654 152.204 163.262 151.32 164.158 150.664C165.062 150.008 166.262 149.68 167.758 149.68C168.918 149.68 169.926 149.88 170.782 150.28C171.646 150.672 172.278 151.296 172.678 152.152C172.886 152.576 173.014 153.024 173.062 153.496C173.11 153.968 173.134 154.476 173.134 155.02V163H170.914V160.036L171.346 160.42C170.81 161.412 170.126 162.152 169.294 162.64C168.47 163.12 167.454 163.36 166.246 163.36ZM166.69 161.308C167.402 161.308 168.014 161.184 168.526 160.936C169.038 160.68 169.45 160.356 169.762 159.964C170.074 159.572 170.278 159.164 170.374 158.74C170.51 158.356 170.586 157.924 170.602 157.444C170.626 156.964 170.638 156.58 170.638 156.292L171.454 156.592C170.662 156.712 169.942 156.82 169.294 156.916C168.646 157.012 168.058 157.108 167.53 157.204C167.01 157.292 166.546 157.4 166.138 157.528C165.794 157.648 165.486 157.792 165.214 157.96C164.95 158.128 164.738 158.332 164.578 158.572C164.426 158.812 164.35 159.104 164.35 159.448C164.35 159.784 164.434 160.096 164.602 160.384C164.77 160.664 165.026 160.888 165.37 161.056C165.714 161.224 166.154 161.308 166.69 161.308ZM187.319 163.36C186.079 163.36 184.959 163.148 183.959 162.724C182.967 162.292 182.147 161.68 181.499 160.888C180.859 160.088 180.443 159.14 180.251 158.044L182.867 157.648C183.131 158.704 183.683 159.528 184.523 160.12C185.363 160.704 186.343 160.996 187.463 160.996C188.159 160.996 188.799 160.888 189.383 160.672C189.967 160.448 190.435 160.132 190.787 159.724C191.147 159.308 191.327 158.812 191.327 158.236C191.327 157.924 191.271 157.648 191.159 157.408C191.055 157.168 190.907 156.96 190.715 156.784C190.531 156.6 190.303 156.444 190.031 156.316C189.767 156.18 189.475 156.064 189.155 155.968L184.727 154.66C184.295 154.532 183.855 154.368 183.407 154.168C182.959 153.96 182.547 153.692 182.171 153.364C181.803 153.028 181.503 152.616 181.271 152.128C181.039 151.632 180.923 151.032 180.923 150.328C180.923 149.264 181.195 148.364 181.739 147.628C182.291 146.884 183.035 146.324 183.971 145.948C184.907 145.564 185.955 145.372 187.115 145.372C188.283 145.388 189.327 145.596 190.247 145.996C191.175 146.396 191.943 146.972 192.551 147.724C193.167 148.468 193.591 149.372 193.823 150.436L191.135 150.892C191.015 150.244 190.759 149.688 190.367 149.224C189.975 148.752 189.495 148.392 188.927 148.144C188.359 147.888 187.743 147.756 187.079 147.748C186.439 147.732 185.851 147.828 185.315 148.036C184.787 148.244 184.363 148.536 184.043 148.912C183.731 149.288 183.575 149.72 183.575 150.208C183.575 150.688 183.715 151.076 183.995 151.372C184.275 151.668 184.619 151.904 185.027 152.08C185.443 152.248 185.855 152.388 186.263 152.5L189.455 153.4C189.855 153.512 190.307 153.664 190.811 153.856C191.323 154.04 191.815 154.3 192.287 154.636C192.767 154.972 193.163 155.42 193.475 155.98C193.787 156.532 193.943 157.228 193.943 158.068C193.943 158.94 193.767 159.708 193.415 160.372C193.063 161.028 192.579 161.58 191.963 162.028C191.355 162.468 190.651 162.8 189.851 163.024C189.051 163.248 188.207 163.36 187.319 163.36ZM201.384 163.348C200.488 163.348 199.736 163.204 199.128 162.916C198.52 162.628 198.024 162.252 197.64 161.788C197.264 161.316 196.976 160.804 196.776 160.252C196.576 159.7 196.44 159.16 196.368 158.632C196.296 158.104 196.26 157.64 196.26 157.24V150.04H198.804V156.412C198.804 156.916 198.844 157.436 198.924 157.972C199.012 158.5 199.172 158.992 199.404 159.448C199.644 159.904 199.976 160.272 200.4 160.552C200.832 160.832 201.392 160.972 202.08 160.972C202.528 160.972 202.952 160.9 203.352 160.756C203.752 160.604 204.1 160.364 204.396 160.036C204.7 159.708 204.936 159.276 205.104 158.74C205.28 158.204 205.368 157.552 205.368 156.784L206.928 157.372C206.928 158.548 206.708 159.588 206.268 160.492C205.828 161.388 205.196 162.088 204.372 162.592C203.548 163.096 202.552 163.348 201.384 163.348ZM205.668 163V159.256H205.368V150.04H207.9V163H205.668ZM217.35 163.36C216.11 163.36 215.07 163.06 214.23 162.46C213.39 161.852 212.754 161.032 212.322 160C211.89 158.968 211.674 157.804 211.674 156.508C211.674 155.212 211.886 154.048 212.31 153.016C212.742 151.984 213.374 151.172 214.206 150.58C215.046 149.98 216.078 149.68 217.302 149.68C218.518 149.68 219.566 149.98 220.446 150.58C221.334 151.172 222.018 151.984 222.498 153.016C222.978 154.04 223.218 155.204 223.218 156.508C223.218 157.804 222.978 158.972 222.498 160.012C222.026 161.044 221.35 161.86 220.47 162.46C219.598 163.06 218.558 163.36 217.35 163.36ZM211.254 163V145.72H213.774V153.676H213.486V163H211.254ZM217.002 161.092C217.802 161.092 218.462 160.888 218.982 160.48C219.51 160.072 219.902 159.524 220.158 158.836C220.422 158.14 220.554 157.364 220.554 156.508C220.554 155.66 220.422 154.892 220.158 154.204C219.902 153.516 219.506 152.968 218.97 152.56C218.434 152.152 217.75 151.948 216.918 151.948C216.134 151.948 215.486 152.14 214.974 152.524C214.47 152.908 214.094 153.444 213.846 154.132C213.606 154.82 213.486 155.612 213.486 156.508C213.486 157.404 213.606 158.196 213.846 158.884C214.086 159.572 214.466 160.112 214.986 160.504C215.506 160.896 216.178 161.092 217.002 161.092ZM230.589 163.348C229.013 163.348 227.729 163 226.737 162.304C225.745 161.608 225.137 160.628 224.913 159.364L227.481 158.968C227.641 159.64 228.009 160.172 228.585 160.564C229.169 160.948 229.893 161.14 230.757 161.14C231.541 161.14 232.153 160.98 232.593 160.66C233.041 160.34 233.265 159.9 233.265 159.34C233.265 159.012 233.185 158.748 233.025 158.548C232.873 158.34 232.549 158.144 232.053 157.96C231.557 157.776 230.801 157.548 229.785 157.276C228.673 156.988 227.789 156.68 227.133 156.352C226.485 156.016 226.021 155.628 225.741 155.188C225.469 154.74 225.333 154.2 225.333 153.568C225.333 152.784 225.541 152.1 225.957 151.516C226.373 150.932 226.957 150.48 227.709 150.16C228.469 149.84 229.357 149.68 230.373 149.68C231.365 149.68 232.249 149.836 233.025 150.148C233.801 150.46 234.429 150.904 234.909 151.48C235.389 152.048 235.677 152.716 235.773 153.484L233.205 153.952C233.117 153.328 232.825 152.836 232.329 152.476C231.833 152.116 231.189 151.92 230.397 151.888C229.637 151.856 229.021 151.984 228.549 152.272C228.077 152.552 227.841 152.94 227.841 153.436C227.841 153.724 227.929 153.968 228.105 154.168C228.289 154.368 228.641 154.56 229.161 154.744C229.681 154.928 230.449 155.148 231.465 155.404C232.553 155.684 233.417 155.996 234.057 156.34C234.697 156.676 235.153 157.08 235.425 157.552C235.705 158.016 235.845 158.58 235.845 159.244C235.845 160.524 235.377 161.528 234.441 162.256C233.513 162.984 232.229 163.348 230.589 163.348ZM238.74 147.916V145.48H241.248V147.916H238.74ZM238.74 163V150.04H241.248V163H238.74ZM250 163.36C248.792 163.36 247.748 163.06 246.868 162.46C245.996 161.86 245.32 161.044 244.84 160.012C244.368 158.972 244.132 157.804 244.132 156.508C244.132 155.204 244.372 154.04 244.852 153.016C245.332 151.984 246.012 151.172 246.892 150.58C247.78 149.98 248.832 149.68 250.048 149.68C251.272 149.68 252.3 149.98 253.132 150.58C253.972 151.172 254.604 151.984 255.028 153.016C255.46 154.048 255.676 155.212 255.676 156.508C255.676 157.804 255.46 158.968 255.028 160C254.596 161.032 253.96 161.852 253.12 162.46C252.28 163.06 251.24 163.36 250 163.36ZM250.348 161.092C251.172 161.092 251.844 160.896 252.364 160.504C252.884 160.112 253.264 159.572 253.504 158.884C253.744 158.196 253.864 157.404 253.864 156.508C253.864 155.612 253.74 154.82 253.492 154.132C253.252 153.444 252.876 152.908 252.364 152.524C251.86 152.14 251.216 151.948 250.432 151.948C249.6 151.948 248.916 152.152 248.38 152.56C247.844 152.968 247.444 153.516 247.18 154.204C246.924 154.892 246.796 155.66 246.796 156.508C246.796 157.364 246.924 158.14 247.18 158.836C247.444 159.524 247.836 160.072 248.356 160.48C248.884 160.888 249.548 161.092 250.348 161.092ZM253.864 163V153.676H253.576V145.72H256.096V163H253.864ZM259.693 147.916V145.48H262.201V147.916H259.693ZM259.693 163V150.04H262.201V163H259.693ZM269.465 163.36C268.505 163.36 267.701 163.184 267.053 162.832C266.405 162.472 265.913 162 265.577 161.416C265.249 160.824 265.085 160.176 265.085 159.472C265.085 158.816 265.201 158.24 265.433 157.744C265.665 157.248 266.009 156.828 266.465 156.484C266.921 156.132 267.481 155.848 268.145 155.632C268.721 155.464 269.373 155.316 270.101 155.188C270.829 155.06 271.593 154.94 272.393 154.828C273.201 154.716 274.001 154.604 274.793 154.492L273.881 154.996C273.897 153.98 273.681 153.228 273.233 152.74C272.793 152.244 272.033 151.996 270.953 151.996C270.273 151.996 269.649 152.156 269.081 152.476C268.513 152.788 268.117 153.308 267.893 154.036L265.553 153.316C265.873 152.204 266.481 151.32 267.377 150.664C268.281 150.008 269.481 149.68 270.977 149.68C272.137 149.68 273.145 149.88 274.001 150.28C274.865 150.672 275.497 151.296 275.897 152.152C276.105 152.576 276.233 153.024 276.281 153.496C276.329 153.968 276.353 154.476 276.353 155.02V163H274.133V160.036L274.565 160.42C274.029 161.412 273.345 162.152 272.513 162.64C271.689 163.12 270.673 163.36 269.465 163.36ZM269.909 161.308C270.621 161.308 271.233 161.184 271.745 160.936C272.257 160.68 272.669 160.356 272.981 159.964C273.293 159.572 273.497 159.164 273.593 158.74C273.729 158.356 273.805 157.924 273.821 157.444C273.845 156.964 273.857 156.58 273.857 156.292L274.673 156.592C273.881 156.712 273.161 156.82 272.513 156.916C271.865 157.012 271.277 157.108 270.749 157.204C270.229 157.292 269.765 157.4 269.357 157.528C269.013 157.648 268.705 157.792 268.433 157.96C268.169 158.128 267.957 158.332 267.797 158.572C267.645 158.812 267.569 159.104 267.569 159.448C267.569 159.784 267.653 160.096 267.821 160.384C267.989 160.664 268.245 160.888 268.589 161.056C268.933 161.224 269.373 161.308 269.909 161.308ZM279.469 163V150.04H281.701V153.184L281.389 152.776C281.549 152.36 281.757 151.98 282.013 151.636C282.269 151.284 282.565 150.996 282.901 150.772C283.229 150.532 283.593 150.348 283.993 150.22C284.401 150.084 284.817 150.004 285.241 149.98C285.665 149.948 286.073 149.968 286.465 150.04V152.392C286.041 152.28 285.569 152.248 285.049 152.296C284.537 152.344 284.065 152.508 283.633 152.788C283.225 153.052 282.901 153.372 282.661 153.748C282.429 154.124 282.261 154.544 282.157 155.008C282.053 155.464 282.001 155.948 282.001 156.46V163H279.469ZM290.174 168.76L292.682 161.932L292.718 163.948L287.066 150.04H289.682L293.906 160.78H293.138L297.17 150.04H299.714L292.562 168.76H290.174Z" fill="#333333"/>
</g>
<defs>
<filter id="filter0_d_769_8681" x="0" y="0" width="422" height="220" filterUnits="userSpaceOnUse" color-interpolation-filters="sRGB">
<feFlood flood-opacity="0" result="BackgroundImageFix"/>
<feColorMatrix in="SourceAlpha" type="matrix" values="0 0 0 0 0 0 0 0 0 0 0 0 0 0 0 0 0 0 127 0" result="hardAlpha"/>
<feOffset dx="2" dy="2"/>
<feGaussianBlur stdDeviation="15"/>
<feComposite in2="hardAlpha" operator="out"/>
<feColorMatrix type="matrix" values="0 0 0 0 0.11692 0 0 0 0 0.726544 0 0 0 0 0.641997 0 0 0 0.25 0"/>
<feBlend mode="normal" in2="BackgroundImageFix" result="effect1_dropShadow_769_8681"/>
<feBlend mode="normal" in="SourceGraphic" in2="effect1_dropShadow_769_8681" result="shape"/>
</filter>
<linearGradient id="paint0_linear_769_8681" x1="30" y1="43" x2="30" y2="131" gradientUnits="userSpaceOnUse">
<stop stop-color="#45D0BD"/>
<stop offset="1" stop-color="#45C9C9"/>
</linearGradient>
<linearGradient id="paint1_linear_769_8681" x1="37.0601" y1="49.8875" x2="154.562" y2="236.224" gradientUnits="userSpaceOnUse">
<stop stop-color="#45D0BD"/>
<stop offset="1" stop-color="#44B6E9"/>
</linearGradient>
</defs>
</svg>
