<svg width="458" height="95" viewBox="0 0 458 95" fill="none" xmlns="http://www.w3.org/2000/svg">
<mask id="path-1-outside-1_103_584" maskUnits="userSpaceOnUse" x="7" y="13.0107" width="387" height="82" fill="black">
<rect fill="white" x="7" y="13.0107" width="387" height="82"/>
<path d="M20.9 91.5107V80.1107H39.2C42.5333 80.1107 45.0667 79.2107 46.8 77.4107C48.5333 75.5441 49.4 73.0107 49.4 69.8107C49.4 66.6107 48.5333 64.1441 46.8 62.4107C45.0667 60.6107 42.5333 59.7107 39.2 59.7107H20.9V51.0107H38.2C43.0667 51.0107 47.4 51.6107 51.2 52.8107C55.0667 53.9441 58.0667 55.8774 60.2 58.6107C62.4 61.3441 63.5 65.0107 63.5 69.6107V71.0107C63.5 75.3441 62.5333 79.0441 60.6 82.1107C58.7333 85.1107 55.9 87.4441 52.1 89.1107C48.3667 90.7107 43.7333 91.5107 38.2 91.5107H20.9ZM9 91.5107V17.5107H22.9V91.5107H9ZM20.9 57.4107V48.7107H36.5C39.9 48.7107 42.4 47.8107 44 46.0107C45.6 44.2107 46.4 41.8107 46.4 38.8107C46.4 35.8107 45.6 33.4107 44 31.6107C42.4 29.8107 39.9 28.9107 36.5 28.9107H20.9V17.5107H35.2C43.4667 17.5107 49.7333 19.2441 54 22.7107C58.3333 26.1774 60.5 31.1441 60.5 37.6107V39.0107C60.5 43.5441 59.4 47.1774 57.2 49.9107C55.0667 52.5774 52.1 54.5107 48.3 55.7107C44.5 56.8441 40.1333 57.4107 35.2 57.4107H20.9ZM74.3477 91.0107V36.7107H88.2477V91.0107H74.3477ZM66.7477 47.1107V36.7107H88.2477V47.1107H66.7477ZM79.4477 30.2107C76.7143 30.2107 74.681 29.5107 73.3477 28.1107C72.081 26.6441 71.4477 24.8441 71.4477 22.7107C71.4477 20.4441 72.081 18.6107 73.3477 17.2107C74.681 15.8107 76.7143 15.1107 79.4477 15.1107C82.181 15.1107 84.181 15.8107 85.4477 17.2107C86.7143 18.6107 87.3477 20.4441 87.3477 22.7107C87.3477 24.8441 86.7143 26.6441 85.4477 28.1107C84.181 29.5107 82.181 30.2107 79.4477 30.2107ZM125.367 92.9107C120.567 92.9107 116.334 92.1441 112.667 90.6107C109.001 89.0774 105.901 87.0107 103.367 84.4107C100.834 81.7441 98.9005 78.7441 97.5672 75.4107C96.3005 72.0774 95.6672 68.6107 95.6672 65.0107V62.9107C95.6672 59.1774 96.3339 55.6441 97.6672 52.3107C99.0672 48.9107 101.034 45.9107 103.567 43.3107C106.167 40.6441 109.301 38.5774 112.967 37.1107C116.634 35.5774 120.767 34.8107 125.367 34.8107C129.967 34.8107 134.101 35.5774 137.767 37.1107C141.434 38.5774 144.534 40.6441 147.067 43.3107C149.667 45.9107 151.634 48.9107 152.967 52.3107C154.301 55.6441 154.967 59.1774 154.967 62.9107V65.0107C154.967 68.6107 154.301 72.0774 152.967 75.4107C151.701 78.7441 149.801 81.7441 147.267 84.4107C144.734 87.0107 141.634 89.0774 137.967 90.6107C134.301 92.1441 130.101 92.9107 125.367 92.9107ZM125.367 81.0107C128.767 81.0107 131.634 80.2774 133.967 78.8107C136.301 77.2774 138.067 75.2441 139.267 72.7107C140.467 70.1107 141.067 67.1774 141.067 63.9107C141.067 60.5774 140.434 57.6441 139.167 55.1107C137.967 52.5107 136.167 50.4774 133.767 49.0107C131.434 47.4774 128.634 46.7107 125.367 46.7107C122.101 46.7107 119.267 47.4774 116.867 49.0107C114.534 50.4774 112.734 52.5107 111.467 55.1107C110.201 57.6441 109.567 60.5774 109.567 63.9107C109.567 67.1774 110.167 70.1107 111.367 72.7107C112.634 75.2441 114.434 77.2774 116.767 78.8107C119.101 80.2774 121.967 81.0107 125.367 81.0107ZM181.838 92.7107C174.372 92.7107 168.505 91.1441 164.238 88.0107C160.038 84.8107 157.838 80.4107 157.638 74.8107H170.138C170.338 76.6774 171.372 78.3774 173.238 79.9107C175.105 81.4441 178.038 82.2107 182.038 82.2107C185.372 82.2107 188.005 81.6107 189.938 80.4107C191.938 79.2107 192.938 77.5774 192.938 75.5107C192.938 73.7107 192.172 72.2774 190.638 71.2107C189.172 70.1441 186.638 69.4441 183.038 69.1107L178.238 68.6107C172.172 67.9441 167.505 66.2107 164.238 63.4107C160.972 60.6107 159.338 56.8774 159.338 52.2107C159.338 48.4774 160.272 45.3441 162.138 42.8107C164.005 40.2774 166.572 38.3774 169.838 37.1107C173.172 35.7774 176.972 35.1107 181.238 35.1107C187.905 35.1107 193.305 36.5774 197.438 39.5107C201.572 42.4441 203.738 46.7441 203.938 52.4107H191.438C191.305 50.5441 190.372 48.9441 188.638 47.6107C186.905 46.2774 184.405 45.6107 181.138 45.6107C178.205 45.6107 175.938 46.1774 174.338 47.3107C172.738 48.4441 171.938 49.9107 171.938 51.7107C171.938 53.4441 172.572 54.7774 173.838 55.7107C175.172 56.6441 177.305 57.2774 180.238 57.6107L185.038 58.1107C191.438 58.7774 196.438 60.5441 200.038 63.4107C203.705 66.2774 205.538 70.1441 205.538 75.0107C205.538 78.6107 204.538 81.7441 202.538 84.4107C200.605 87.0107 197.872 89.0441 194.338 90.5107C190.805 91.9774 186.638 92.7107 181.838 92.7107ZM235.621 91.7107C230.621 91.7107 226.488 91.0774 223.221 89.8107C220.021 88.4774 217.621 86.2774 216.021 83.2107C214.421 80.0774 213.621 75.8774 213.621 70.6107L213.721 21.4107H226.721L226.621 71.5107C226.621 74.1774 227.321 76.2441 228.721 77.7107C230.188 79.1107 232.254 79.8107 234.921 79.8107H243.421V91.7107H235.621ZM205.021 46.9107V36.7107H243.421V46.9107H205.021ZM282.792 91.0107V74.9107H280.492V57.0107C280.492 53.8774 279.726 51.5441 278.192 50.0107C276.659 48.4774 274.292 47.7107 271.092 47.7107C269.426 47.7107 267.426 47.7441 265.092 47.8107C262.759 47.8774 260.392 47.9774 257.992 48.1107C255.659 48.1774 253.559 48.2774 251.692 48.4107V36.6107C253.226 36.4774 254.959 36.3441 256.892 36.2107C258.826 36.0774 260.792 36.0107 262.792 36.0107C264.859 35.9441 266.792 35.9107 268.592 35.9107C274.192 35.9107 278.826 36.6441 282.492 38.1107C286.226 39.5774 289.026 41.8774 290.892 45.0107C292.826 48.1441 293.792 52.2441 293.792 57.3107V91.0107H282.792ZM265.292 92.4107C261.359 92.4107 257.892 91.7107 254.892 90.3107C251.959 88.9107 249.659 86.9107 247.992 84.3107C246.392 81.7107 245.592 78.5774 245.592 74.9107C245.592 70.9107 246.559 67.6441 248.492 65.1107C250.492 62.5774 253.259 60.6774 256.792 59.4107C260.392 58.1441 264.592 57.5107 269.392 57.5107H281.992V65.8107H269.192C265.992 65.8107 263.526 66.6107 261.792 68.2107C260.126 69.7441 259.292 71.7441 259.292 74.2107C259.292 76.6774 260.126 78.6774 261.792 80.2107C263.526 81.7441 265.992 82.5107 269.192 82.5107C271.126 82.5107 272.892 82.1774 274.492 81.5107C276.159 80.7774 277.526 79.5774 278.592 77.9107C279.726 76.1774 280.359 73.8441 280.492 70.9107L283.892 74.8107C283.559 78.6107 282.626 81.8107 281.092 84.4107C279.626 87.0107 277.559 89.0107 274.892 90.4107C272.292 91.7441 269.092 92.4107 265.292 92.4107ZM327.281 91.7107C322.281 91.7107 318.148 91.0774 314.881 89.8107C311.681 88.4774 309.281 86.2774 307.681 83.2107C306.081 80.0774 305.281 75.8774 305.281 70.6107L305.381 21.4107H318.381L318.281 71.5107C318.281 74.1774 318.981 76.2441 320.381 77.7107C321.848 79.1107 323.915 79.8107 326.581 79.8107H335.081V91.7107H327.281ZM296.681 46.9107V36.7107H335.081V46.9107H296.681ZM365.755 92.9107C361.088 92.9107 356.988 92.1107 353.455 90.5107C349.988 88.9107 347.088 86.7774 344.755 84.1107C342.488 81.3774 340.755 78.3441 339.555 75.0107C338.421 71.6774 337.855 68.2774 337.855 64.8107V62.9107C337.855 59.3107 338.421 55.8441 339.555 52.5107C340.755 49.1107 342.488 46.1107 344.755 43.5107C347.088 40.8441 349.955 38.7441 353.355 37.2107C356.755 35.6107 360.688 34.8107 365.155 34.8107C371.021 34.8107 375.921 36.1107 379.855 38.7107C383.855 41.2441 386.855 44.6107 388.855 48.8107C390.855 52.9441 391.855 57.4107 391.855 62.2107V67.2107H343.755V58.7107H383.155L378.855 62.9107C378.855 59.4441 378.355 56.4774 377.355 54.0107C376.355 51.5441 374.821 49.6441 372.755 48.3107C370.755 46.9774 368.221 46.3107 365.155 46.3107C362.088 46.3107 359.488 47.0107 357.355 48.4107C355.221 49.8107 353.588 51.8441 352.455 54.5107C351.388 57.1107 350.855 60.2441 350.855 63.9107C350.855 67.3107 351.388 70.3441 352.455 73.0107C353.521 75.6107 355.155 77.6774 357.355 79.2107C359.555 80.6774 362.355 81.4107 365.755 81.4107C369.155 81.4107 371.921 80.7441 374.055 79.4107C376.188 78.0107 377.555 76.3107 378.155 74.3107H390.955C390.155 78.0441 388.621 81.3107 386.355 84.1107C384.088 86.9107 381.188 89.0774 377.655 90.6107C374.188 92.1441 370.221 92.9107 365.755 92.9107Z"/>
</mask>
<path d="M20.9 91.5107H18.9V93.5107H20.9V91.5107ZM20.9 80.1107V78.1107H18.9V80.1107H20.9ZM46.8 77.4107L48.2406 78.798L48.2532 78.7849L48.2656 78.7716L46.8 77.4107ZM46.8 62.4107L45.3594 63.798L45.3724 63.8116L45.3858 63.825L46.8 62.4107ZM20.9 59.7107H18.9V61.7107H20.9V59.7107ZM20.9 51.0107V49.0107H18.9V51.0107H20.9ZM51.2 52.8107L50.5977 54.7179L50.6175 54.7242L50.6375 54.73L51.2 52.8107ZM60.2 58.6107L58.6234 59.8413L58.6326 59.8531L58.642 59.8648L60.2 58.6107ZM60.6 82.1107L58.9081 81.0441L58.9019 81.0541L60.6 82.1107ZM52.1 89.1107L52.8878 90.949L52.8956 90.9457L52.9033 90.9423L52.1 89.1107ZM9 91.5107H7V93.5107H9V91.5107ZM9 17.5107V15.5107H7V17.5107H9ZM22.9 17.5107H24.9V15.5107H22.9V17.5107ZM22.9 91.5107V93.5107H24.9V91.5107H22.9ZM20.9 57.4107H18.9V59.4107H20.9V57.4107ZM20.9 48.7107V46.7107H18.9V48.7107H20.9ZM44 46.0107L45.4948 47.3395L45.4948 47.3395L44 46.0107ZM44 31.6107L45.4948 30.282H45.4948L44 31.6107ZM20.9 28.9107H18.9V30.9107H20.9V28.9107ZM20.9 17.5107V15.5107H18.9V17.5107H20.9ZM54 22.7107L52.7388 24.263L52.7447 24.2677L52.7506 24.2725L54 22.7107ZM57.2 49.9107L55.642 48.6567L55.6383 48.6614L57.2 49.9107ZM48.3 55.7107L48.8716 57.6273L48.887 57.6227L48.9023 57.6179L48.3 55.7107ZM20.9 91.5107H22.9V80.1107H20.9H18.9V91.5107H20.9ZM20.9 80.1107V82.1107H39.2V80.1107V78.1107H20.9V80.1107ZM39.2 80.1107V82.1107C42.8883 82.1107 46.0169 81.1073 48.2406 78.798L46.8 77.4107L45.3594 76.0235C44.1164 77.3142 42.1784 78.1107 39.2 78.1107V80.1107ZM46.8 77.4107L48.2656 78.7716C50.4243 76.4468 51.4 73.3807 51.4 69.8107H49.4H47.4C47.4 72.6408 46.6423 74.6413 45.3344 76.0498L46.8 77.4107ZM49.4 69.8107H51.4C51.4 66.2489 50.4271 63.2094 48.2142 60.9965L46.8 62.4107L45.3858 63.825C46.6396 65.0788 47.4 66.9725 47.4 69.8107H49.4ZM46.8 62.4107L48.2406 61.0235C46.0169 58.7142 42.8883 57.7107 39.2 57.7107V59.7107V61.7107C42.1784 61.7107 44.1164 62.5073 45.3594 63.798L46.8 62.4107ZM39.2 59.7107V57.7107H20.9V59.7107V61.7107H39.2V59.7107ZM20.9 59.7107H22.9V51.0107H20.9H18.9V59.7107H20.9ZM20.9 51.0107V53.0107H38.2V51.0107V49.0107H20.9V51.0107ZM38.2 51.0107V53.0107C42.9058 53.0107 47.0301 53.5913 50.5977 54.7179L51.2 52.8107L51.8023 50.9036C47.7699 49.6302 43.2275 49.0107 38.2 49.0107V51.0107ZM51.2 52.8107L50.6375 54.73C54.1696 55.7653 56.7877 57.4893 58.6234 59.8413L60.2 58.6107L61.7766 57.3802C59.3457 54.2655 55.9637 52.1229 51.7625 50.8915L51.2 52.8107ZM60.2 58.6107L58.642 59.8648C60.4776 62.1454 61.5 65.3239 61.5 69.6107H63.5H65.5C65.5 64.6975 64.3224 60.5428 61.758 57.3567L60.2 58.6107ZM63.5 69.6107H61.5V71.0107H63.5H65.5V69.6107H63.5ZM63.5 71.0107H61.5C61.5 75.0411 60.6038 78.3545 58.9081 81.0441L60.6 82.1107L62.2919 83.1773C64.4629 79.7337 65.5 75.6471 65.5 71.0107H63.5ZM60.6 82.1107L58.9019 81.0541C57.2836 83.6549 54.7931 85.7457 51.2967 87.2792L52.1 89.1107L52.9033 90.9423C57.0069 89.1425 60.1831 86.5666 62.2981 83.1673L60.6 82.1107ZM52.1 89.1107L51.3122 87.2725C47.9005 88.7346 43.5547 89.5107 38.2 89.5107V91.5107V93.5107C43.912 93.5107 48.8329 92.6869 52.8878 90.949L52.1 89.1107ZM38.2 91.5107V89.5107H20.9V91.5107V93.5107H38.2V91.5107ZM9 91.5107H11V17.5107H9H7V91.5107H9ZM9 17.5107V19.5107H22.9V17.5107V15.5107H9V17.5107ZM22.9 17.5107H20.9V91.5107H22.9H24.9V17.5107H22.9ZM22.9 91.5107V89.5107H9V91.5107V93.5107H22.9V91.5107ZM20.9 57.4107H22.9V48.7107H20.9H18.9V57.4107H20.9ZM20.9 48.7107V50.7107H36.5V48.7107V46.7107H20.9V48.7107ZM36.5 48.7107V50.7107C40.2288 50.7107 43.3795 49.7192 45.4948 47.3395L44 46.0107L42.5052 44.682C41.4205 45.9023 39.5712 46.7107 36.5 46.7107V48.7107ZM44 46.0107L45.4948 47.3395C47.4947 45.0896 48.4 42.1755 48.4 38.8107H46.4H44.4C44.4 41.446 43.7053 43.3319 42.5052 44.682L44 46.0107ZM46.4 38.8107H48.4C48.4 35.446 47.4947 32.5319 45.4948 30.282L44 31.6107L42.5052 32.9395C43.7053 34.2896 44.4 36.1755 44.4 38.8107H46.4ZM44 31.6107L45.4948 30.282C43.3795 27.9022 40.2288 26.9107 36.5 26.9107V28.9107V30.9107C39.5712 30.9107 41.4205 31.7192 42.5052 32.9395L44 31.6107ZM36.5 28.9107V26.9107H20.9V28.9107V30.9107H36.5V28.9107ZM20.9 28.9107H22.9V17.5107H20.9H18.9V28.9107H20.9ZM20.9 17.5107V19.5107H35.2V17.5107V15.5107H20.9V17.5107ZM35.2 17.5107V19.5107C43.2292 19.5107 48.9694 21.2003 52.7388 24.263L54 22.7107L55.2612 21.1585C50.4973 17.2878 43.7041 15.5107 35.2 15.5107V17.5107ZM54 22.7107L52.7506 24.2725C56.528 27.2944 58.5 31.639 58.5 37.6107H60.5H62.5C62.5 30.6491 60.1386 25.0604 55.2494 21.149L54 22.7107ZM60.5 37.6107H58.5V39.0107H60.5H62.5V37.6107H60.5ZM60.5 39.0107H58.5C58.5 43.2228 57.4815 46.3713 55.642 48.6567L57.2 49.9107L58.758 51.1648C61.3185 47.9835 62.5 43.8653 62.5 39.0107H60.5ZM57.2 49.9107L55.6383 48.6614C53.7917 50.9696 51.1844 52.7025 47.6977 53.8036L48.3 55.7107L48.9023 57.6179C53.0156 56.319 56.3416 54.1853 58.7617 51.1601L57.2 49.9107ZM48.3 55.7107L47.7284 53.7942C44.1526 54.8606 39.9849 55.4107 35.2 55.4107V57.4107V59.4107C40.2818 59.4107 44.8474 58.8275 48.8716 57.6273L48.3 55.7107ZM35.2 57.4107V55.4107H20.9V57.4107V59.4107H35.2V57.4107ZM74.3477 91.0107H72.3477V93.0107H74.3477V91.0107ZM74.3477 36.7107V34.7107H72.3477V36.7107H74.3477ZM88.2477 36.7107H90.2477V34.7107H88.2477V36.7107ZM88.2477 91.0107V93.0107H90.2477V91.0107H88.2477ZM66.7477 47.1107H64.7477V49.1107H66.7477V47.1107ZM66.7477 36.7107V34.7107H64.7477V36.7107H66.7477ZM88.2477 36.7107H90.2477V34.7107H88.2477V36.7107ZM88.2477 47.1107V49.1107H90.2477V47.1107H88.2477ZM73.3477 28.1107L71.834 29.418L71.8658 29.4548L71.8994 29.4901L73.3477 28.1107ZM73.3477 17.2107L71.8994 15.8314L71.8817 15.8499L71.8646 15.8689L73.3477 17.2107ZM85.4477 17.2107L83.9646 18.5526V18.5526L85.4477 17.2107ZM85.4477 28.1107L86.9307 29.4526L86.9462 29.4355L86.9613 29.418L85.4477 28.1107ZM74.3477 91.0107H76.3477V36.7107H74.3477H72.3477V91.0107H74.3477ZM74.3477 36.7107V38.7107H88.2477V36.7107V34.7107H74.3477V36.7107ZM88.2477 36.7107H86.2477V91.0107H88.2477H90.2477V36.7107H88.2477ZM88.2477 91.0107V89.0107H74.3477V91.0107V93.0107H88.2477V91.0107ZM66.7477 47.1107H68.7477V36.7107H66.7477H64.7477V47.1107H66.7477ZM66.7477 36.7107V38.7107H88.2477V36.7107V34.7107H66.7477V36.7107ZM88.2477 36.7107H86.2477V47.1107H88.2477H90.2477V36.7107H88.2477ZM88.2477 47.1107V45.1107H66.7477V47.1107V49.1107H88.2477V47.1107ZM79.4477 30.2107V28.2107C77.0309 28.2107 75.6177 27.5943 74.7959 26.7314L73.3477 28.1107L71.8994 29.4901C73.7443 31.4272 76.3978 32.2107 79.4477 32.2107V30.2107ZM73.3477 28.1107L74.8613 26.8035C73.9408 25.7376 73.4477 24.4161 73.4477 22.7107H71.4477H69.4477C69.4477 25.272 70.2212 27.5505 71.834 29.418L73.3477 28.1107ZM71.4477 22.7107H73.4477C73.4477 20.8351 73.961 19.5139 74.8307 18.5526L73.3477 17.2107L71.8646 15.8689C70.201 17.7076 69.4477 20.053 69.4477 22.7107H71.4477ZM73.3477 17.2107L74.7959 18.59C75.6177 17.7272 77.0309 17.1107 79.4477 17.1107V15.1107V13.1107C76.3977 13.1107 73.7443 13.8943 71.8994 15.8314L73.3477 17.2107ZM79.4477 15.1107V17.1107C81.8735 17.1107 83.221 17.7307 83.9646 18.5526L85.4477 17.2107L86.9307 15.8689C85.141 13.8908 82.4885 13.1107 79.4477 13.1107V15.1107ZM85.4477 17.2107L83.9646 18.5526C84.8343 19.5139 85.3477 20.8351 85.3477 22.7107H87.3477H89.3477C89.3477 20.053 88.5943 17.7076 86.9307 15.8689L85.4477 17.2107ZM87.3477 22.7107H85.3477C85.3477 24.4161 84.8545 25.7376 83.934 26.8035L85.4477 28.1107L86.9613 29.418C88.5741 27.5505 89.3477 25.272 89.3477 22.7107H87.3477ZM85.4477 28.1107L83.9646 26.7689C83.221 27.5908 81.8735 28.2107 79.4477 28.2107V30.2107V32.2107C82.4885 32.2107 85.141 31.4307 86.9307 29.4526L85.4477 28.1107ZM112.667 90.6107L113.439 88.7656V88.7656L112.667 90.6107ZM103.367 84.4107L101.917 85.7882L101.926 85.7974L101.935 85.8065L103.367 84.4107ZM97.5672 75.4107L95.6976 76.1212L95.7038 76.1374L95.7102 76.1535L97.5672 75.4107ZM97.6672 52.3107L95.8178 51.5492L95.814 51.5586L95.8102 51.568L97.6672 52.3107ZM103.567 43.3107L102.135 41.9145L102.135 41.915L103.567 43.3107ZM112.967 37.1107L113.71 38.9677L113.724 38.9619L113.739 38.9559L112.967 37.1107ZM137.767 37.1107L136.996 38.9559L137.01 38.9619L137.024 38.9677L137.767 37.1107ZM147.067 43.3107L145.617 44.6882L145.635 44.7068L145.653 44.725L147.067 43.3107ZM152.967 52.3107L151.105 53.0409L151.11 53.0535L152.967 52.3107ZM152.967 75.4107L151.11 74.668L151.104 74.6841L151.098 74.7003L152.967 75.4107ZM147.267 84.4107L148.7 85.8065L148.708 85.7974L148.717 85.7882L147.267 84.4107ZM137.967 90.6107L137.196 88.7656L137.967 90.6107ZM133.967 78.8107L135.032 80.504L135.049 80.4933L135.066 80.4822L133.967 78.8107ZM139.267 72.7107L141.075 73.5669L141.079 73.5579L141.083 73.5489L139.267 72.7107ZM139.167 55.1107L137.351 55.9489L137.364 55.9772L137.378 56.0052L139.167 55.1107ZM133.767 49.0107L132.669 50.6822L132.696 50.7002L132.724 50.7173L133.767 49.0107ZM116.867 49.0107L117.932 50.704L117.938 50.7001L117.944 50.6961L116.867 49.0107ZM111.467 55.1107L113.256 56.0052L113.261 55.9959L113.265 55.9867L111.467 55.1107ZM111.367 72.7107L109.551 73.5489L109.564 73.5772L109.578 73.6052L111.367 72.7107ZM116.767 78.8107L115.669 80.4822L115.686 80.4933L115.703 80.504L116.767 78.8107ZM125.367 92.9107V90.9107C120.778 90.9107 116.816 90.1778 113.439 88.7656L112.667 90.6107L111.896 92.4559C115.852 94.1103 120.356 94.9107 125.367 94.9107V92.9107ZM112.667 90.6107L113.439 88.7656C109.997 87.3262 107.128 85.4047 104.8 83.015L103.367 84.4107L101.935 85.8065C104.673 88.6168 108.004 90.8287 111.896 92.4559L112.667 90.6107ZM103.367 84.4107L104.817 83.0332C102.454 80.5458 100.661 77.76 99.4241 74.668L97.5672 75.4107L95.7102 76.1535C97.1401 79.7281 99.2136 82.9423 101.917 85.7882L103.367 84.4107ZM97.5672 75.4107L99.4368 74.7003C98.2572 71.5961 97.6672 68.3703 97.6672 65.0107H95.6672H93.6672C93.6672 68.8511 94.3439 72.5587 95.6976 76.1212L97.5672 75.4107ZM95.6672 65.0107H97.6672V62.9107H95.6672H93.6672V65.0107H95.6672ZM95.6672 62.9107H97.6672C97.6672 59.4215 98.2891 56.1412 99.5241 53.0535L97.6672 52.3107L95.8102 51.568C94.3786 55.1469 93.6672 58.9333 93.6672 62.9107H95.6672ZM97.6672 52.3107L99.5165 53.0722C100.821 49.9052 102.647 47.1212 105 44.7065L103.567 43.3107L102.135 41.915C99.4209 44.7003 97.3138 47.9163 95.8178 51.5492L97.6672 52.3107ZM103.567 43.3107L104.999 44.7069C107.393 42.2522 110.287 40.337 113.71 38.9677L112.967 37.1107L112.224 35.2538C108.314 36.8178 104.942 39.0359 102.135 41.9145L103.567 43.3107ZM112.967 37.1107L113.739 38.9559C117.126 37.5396 120.991 36.8107 125.367 36.8107V34.8107V32.8107C120.544 32.8107 116.142 33.6152 112.196 35.2656L112.967 37.1107ZM125.367 34.8107V36.8107C129.744 36.8107 133.609 37.5396 136.996 38.9559L137.767 37.1107L138.539 35.2656C134.592 33.6152 130.191 32.8107 125.367 32.8107V34.8107ZM137.767 37.1107L137.024 38.9677C140.444 40.3354 143.297 42.2456 145.617 44.6882L147.067 43.3107L148.517 41.9332C145.771 39.0426 142.424 36.8194 138.51 35.2538L137.767 37.1107ZM147.067 43.3107L145.653 44.725C148.06 47.1316 149.873 49.8991 151.105 53.0409L152.967 52.3107L154.829 51.5806C153.395 47.9224 151.275 44.6899 148.481 41.8965L147.067 43.3107ZM152.967 52.3107L151.11 53.0535C152.345 56.1412 152.967 59.4215 152.967 62.9107H154.967H156.967C156.967 58.9333 156.256 55.1469 154.824 51.568L152.967 52.3107ZM154.967 62.9107H152.967V65.0107H154.967H156.967V62.9107H154.967ZM154.967 65.0107H152.967C152.967 68.357 152.349 71.5715 151.11 74.668L152.967 75.4107L154.824 76.1535C156.252 72.5833 156.967 68.8645 156.967 65.0107H154.967ZM152.967 75.4107L151.098 74.7003C149.928 77.7778 148.174 80.5527 145.817 83.0332L147.267 84.4107L148.717 85.7882C151.427 82.9354 153.473 79.7104 154.837 76.1212L152.967 75.4107ZM147.267 84.4107L145.835 83.015C143.506 85.4047 140.638 87.3262 137.196 88.7656L137.967 90.6107L138.739 92.4559C142.63 90.8287 145.961 88.6168 148.7 85.8065L147.267 84.4107ZM137.967 90.6107L137.196 88.7656C133.815 90.1792 129.885 90.9107 125.367 90.9107V92.9107V94.9107C130.316 94.9107 134.786 94.109 138.739 92.4559L137.967 90.6107ZM125.367 81.0107V83.0107C129.056 83.0107 132.312 82.2133 135.032 80.504L133.967 78.8107L132.903 77.1175C130.955 78.3416 128.479 79.0107 125.367 79.0107V81.0107ZM133.967 78.8107L135.066 80.4822C137.707 78.7464 139.718 76.4305 141.075 73.5669L139.267 72.7107L137.46 71.8546C136.416 74.0576 134.894 75.8084 132.869 77.1393L133.967 78.8107ZM139.267 72.7107L141.083 73.5489C142.42 70.6515 143.067 67.4261 143.067 63.9107H141.067H139.067C139.067 66.9287 138.514 69.57 137.451 71.8726L139.267 72.7107ZM141.067 63.9107H143.067C143.067 60.3216 142.384 57.0724 140.956 54.2163L139.167 55.1107L137.378 56.0052C138.484 58.2157 139.067 60.8332 139.067 63.9107H141.067ZM139.167 55.1107L140.983 54.2726C139.62 51.3199 137.555 48.9813 134.81 47.3042L133.767 49.0107L132.724 50.7173C134.78 51.9735 136.314 53.7016 137.351 55.9489L139.167 55.1107ZM133.767 49.0107L134.866 47.3393C132.154 45.5572 128.956 44.7107 125.367 44.7107V46.7107V48.7107C128.311 48.7107 130.714 49.3976 132.669 50.6822L133.767 49.0107ZM125.367 46.7107V44.7107C121.776 44.7107 118.557 45.5577 115.79 47.3253L116.867 49.0107L117.944 50.6961C119.977 49.3971 122.425 48.7107 125.367 48.7107V46.7107ZM116.867 49.0107L115.803 47.3175C113.138 48.9928 111.091 51.3166 109.669 54.2348L111.467 55.1107L113.265 55.9867C114.377 53.7049 115.93 51.962 117.932 50.704L116.867 49.0107ZM111.467 55.1107L109.678 54.2163C108.25 57.0724 107.567 60.3216 107.567 63.9107H109.567H111.567C111.567 60.8332 112.151 58.2157 113.256 56.0052L111.467 55.1107ZM109.567 63.9107H107.567C107.567 67.4261 108.214 70.6515 109.551 73.5489L111.367 72.7107L113.183 71.8726C112.12 69.57 111.567 66.9287 111.567 63.9107H109.567ZM111.367 72.7107L109.578 73.6052C111 76.449 113.036 78.7523 115.669 80.4822L116.767 78.8107L117.866 77.1393C115.831 75.8025 114.267 74.0391 113.156 71.8163L111.367 72.7107ZM116.767 78.8107L115.703 80.504C118.422 82.2133 121.679 83.0107 125.367 83.0107V81.0107V79.0107C122.256 79.0107 119.779 78.3416 117.832 77.1175L116.767 78.8107ZM164.238 88.0107L163.026 89.6016L163.04 89.6123L163.054 89.6227L164.238 88.0107ZM157.638 74.8107V72.8107H155.566L155.64 74.8821L157.638 74.8107ZM170.138 74.8107L172.127 74.5977L171.935 72.8107H170.138V74.8107ZM173.238 79.9107L174.508 78.3653V78.3653L173.238 79.9107ZM189.938 80.4107L188.909 78.6958L188.896 78.7035L188.884 78.7115L189.938 80.4107ZM190.638 71.2107L189.462 72.8282L189.479 72.8406L189.496 72.8526L190.638 71.2107ZM183.038 69.1107L182.831 71.1L182.842 71.1012L182.854 71.1022L183.038 69.1107ZM178.238 68.6107L178.02 70.5988L178.031 70.6L178.238 68.6107ZM164.238 63.4107L165.54 61.8922V61.8922L164.238 63.4107ZM162.138 42.8107L163.748 43.9971V43.9971L162.138 42.8107ZM169.838 37.1107L170.561 38.9755L170.571 38.9716L170.581 38.9677L169.838 37.1107ZM197.438 39.5107L198.596 37.8797V37.8797L197.438 39.5107ZM203.938 52.4107V54.4107H206.01L205.937 52.3402L203.938 52.4107ZM191.438 52.4107L189.443 52.5532L189.576 54.4107H191.438V52.4107ZM188.638 47.6107L187.419 49.196V49.196L188.638 47.6107ZM174.338 47.3107L175.494 48.9428V48.9428L174.338 47.3107ZM173.838 55.7107L172.652 57.3209L172.671 57.3353L172.691 57.3492L173.838 55.7107ZM180.238 57.6107L180.012 59.5979L180.022 59.599L180.031 59.6L180.238 57.6107ZM185.038 58.1107L185.245 56.1215V56.1215L185.038 58.1107ZM200.038 63.4107L198.792 64.9753L198.799 64.9809L198.806 64.9864L200.038 63.4107ZM202.538 84.4107L200.938 83.2107L200.933 83.2173L202.538 84.4107ZM194.338 90.5107L193.572 88.6636L194.338 90.5107ZM181.838 92.7107V90.7107C174.628 90.7107 169.23 89.1953 165.422 86.3987L164.238 88.0107L163.054 89.6227C167.78 93.0928 174.115 94.7107 181.838 94.7107V92.7107ZM164.238 88.0107L165.45 86.4199C161.759 83.6077 159.817 79.7827 159.637 74.7394L157.638 74.8107L155.64 74.8821C155.859 81.0388 158.317 86.0137 163.026 89.6016L164.238 88.0107ZM157.638 74.8107V76.8107H170.138V74.8107V72.8107H157.638V74.8107ZM170.138 74.8107L168.15 75.0238C168.42 77.5492 169.818 79.6897 171.969 81.4562L173.238 79.9107L174.508 78.3653C172.925 77.0652 172.256 75.8056 172.127 74.5977L170.138 74.8107ZM173.238 79.9107L171.969 81.4562C174.362 83.4223 177.855 84.2107 182.038 84.2107V82.2107V80.2107C178.221 80.2107 175.848 79.4659 174.508 78.3653L173.238 79.9107ZM182.038 82.2107V84.2107C185.581 84.2107 188.628 83.5777 190.993 82.11L189.938 80.4107L188.884 78.7115C187.382 79.6438 185.162 80.2107 182.038 80.2107V82.2107ZM189.938 80.4107L190.967 82.1257C193.477 80.6198 194.938 78.3815 194.938 75.5107H192.938H190.938C190.938 76.7733 190.399 77.8017 188.909 78.6958L189.938 80.4107ZM192.938 75.5107H194.938C194.938 73.0272 193.827 70.9927 191.78 69.5689L190.638 71.2107L189.496 72.8526C190.516 73.5621 190.938 74.3942 190.938 75.5107H192.938ZM190.638 71.2107L191.815 69.5933C189.887 68.1917 186.889 67.4588 183.223 67.1193L183.038 69.1107L182.854 71.1022C186.387 71.4294 188.456 72.0965 189.462 72.8282L190.638 71.2107ZM183.038 69.1107L183.245 67.1215L178.445 66.6215L178.238 68.6107L178.031 70.6L182.831 71.1L183.038 69.1107ZM178.238 68.6107L178.457 66.6227C172.629 65.9823 168.398 64.3417 165.54 61.8922L164.238 63.4107L162.937 64.9293C166.612 68.0797 171.714 69.9058 178.02 70.5988L178.238 68.6107ZM164.238 63.4107L165.54 61.8922C162.757 59.5071 161.338 56.3495 161.338 52.2107H159.338H157.338C157.338 57.4053 159.186 61.7143 162.937 64.9293L164.238 63.4107ZM159.338 52.2107H161.338C161.338 48.8224 162.18 46.1262 163.748 43.9971L162.138 42.8107L160.528 41.6243C158.364 44.562 157.338 48.1324 157.338 52.2107H159.338ZM162.138 42.8107L163.748 43.9971C165.365 41.8035 167.607 40.1209 170.561 38.9755L169.838 37.1107L169.115 35.246C165.536 36.6339 162.645 38.7513 160.528 41.6243L162.138 42.8107ZM169.838 37.1107L170.581 38.9677C173.638 37.7449 177.179 37.1107 181.238 37.1107V35.1107V33.1107C176.764 33.1107 172.705 33.81 169.096 35.2538L169.838 37.1107ZM181.238 35.1107V37.1107C187.62 37.1107 192.578 38.5139 196.281 41.1418L197.438 39.5107L198.596 37.8797C194.032 34.6409 188.19 33.1107 181.238 33.1107V35.1107ZM197.438 39.5107L196.281 41.1418C199.841 43.6681 201.759 47.3528 201.94 52.4813L203.938 52.4107L205.937 52.3402C205.718 46.1354 203.303 41.2201 198.596 37.8797L197.438 39.5107ZM203.938 52.4107V50.4107H191.438V52.4107V54.4107H203.938V52.4107ZM191.438 52.4107L193.433 52.2682C193.252 49.7343 191.96 47.6424 189.858 46.0255L188.638 47.6107L187.419 49.196C188.783 50.2457 189.358 51.3538 189.443 52.5532L191.438 52.4107ZM188.638 47.6107L189.858 46.0255C187.64 44.3192 184.638 43.6107 181.138 43.6107V45.6107V47.6107C184.172 47.6107 186.17 48.2356 187.419 49.196L188.638 47.6107ZM181.138 45.6107V43.6107C177.985 43.6107 175.25 44.214 173.182 45.6787L174.338 47.3107L175.494 48.9428C176.627 48.1408 178.425 47.6107 181.138 47.6107V45.6107ZM174.338 47.3107L173.182 45.6787C171.108 47.1478 169.938 49.1971 169.938 51.7107H171.938H173.938C173.938 50.6243 174.368 49.7403 175.494 48.9428L174.338 47.3107ZM171.938 51.7107H169.938C169.938 54.0048 170.816 55.9683 172.652 57.3209L173.838 55.7107L175.025 54.1006C174.327 53.5865 173.938 52.8834 173.938 51.7107H171.938ZM173.838 55.7107L172.691 57.3492C174.439 58.5727 176.977 59.253 180.012 59.5979L180.238 57.6107L180.464 55.6235C177.633 55.3018 175.904 54.7155 174.985 54.0723L173.838 55.7107ZM180.238 57.6107L180.031 59.6L184.831 60.1L185.038 58.1107L185.245 56.1215L180.445 55.6215L180.238 57.6107ZM185.038 58.1107L184.831 60.1C190.996 60.7422 195.588 62.4233 198.792 64.9753L200.038 63.4107L201.284 61.8462C197.289 58.6648 191.88 56.8126 185.245 56.1215L185.038 58.1107ZM200.038 63.4107L198.806 64.9864C201.963 67.4543 203.538 70.7269 203.538 75.0107H205.538H207.538C207.538 69.5613 205.447 65.1005 201.27 61.8351L200.038 63.4107ZM205.538 75.0107H203.538C203.538 78.2147 202.657 80.9185 200.938 83.2107L202.538 84.4107L204.138 85.6107C206.419 82.5696 207.538 79.0068 207.538 75.0107H205.538ZM202.538 84.4107L200.933 83.2173C199.251 85.4792 196.832 87.31 193.572 88.6636L194.338 90.5107L195.105 92.3579C198.911 90.7782 201.958 88.5423 204.143 85.6041L202.538 84.4107ZM194.338 90.5107L193.572 88.6636C190.335 90.0072 186.44 90.7107 181.838 90.7107V92.7107V94.7107C186.837 94.7107 191.275 93.9476 195.105 92.3579L194.338 90.5107ZM223.221 89.8107L222.452 91.6569L222.475 91.6665L222.498 91.6755L223.221 89.8107ZM216.021 83.2107L214.24 84.1203L214.244 84.1281L214.248 84.1359L216.021 83.2107ZM213.621 70.6107L211.621 70.6067V70.6107H213.621ZM213.721 21.4107V19.4107H211.725L211.721 21.4067L213.721 21.4107ZM226.721 21.4107L228.721 21.4147L228.725 19.4107H226.721V21.4107ZM226.621 71.5107L224.621 71.5068V71.5107H226.621ZM228.721 77.7107L227.274 79.0917L227.307 79.1253L227.34 79.1575L228.721 77.7107ZM243.421 79.8107H245.421V77.8107H243.421V79.8107ZM243.421 91.7107V93.7107H245.421V91.7107H243.421ZM205.021 46.9107H203.021V48.9107H205.021V46.9107ZM205.021 36.7107V34.7107H203.021V36.7107H205.021ZM243.421 36.7107H245.421V34.7107H243.421V36.7107ZM243.421 46.9107V48.9107H245.421V46.9107H243.421ZM235.621 91.7107V89.7107C230.771 89.7107 226.904 89.0938 223.944 87.946L223.221 89.8107L222.498 91.6755C226.071 93.061 230.471 93.7107 235.621 93.7107V91.7107ZM223.221 89.8107L223.99 87.9646C221.221 86.8109 219.177 84.9362 217.794 82.2856L216.021 83.2107L214.248 84.1359C216.065 87.6186 218.821 90.144 222.452 91.6569L223.221 89.8107ZM216.021 83.2107L217.802 82.3012C216.4 79.5547 215.621 75.7054 215.621 70.6107H213.621H211.621C211.621 76.0494 212.442 80.6001 214.24 84.1203L216.021 83.2107ZM213.621 70.6107L215.621 70.6148L215.721 21.4148L213.721 21.4107L211.721 21.4067L211.621 70.6067L213.621 70.6107ZM213.721 21.4107V23.4107H226.721V21.4107V19.4107H213.721V21.4107ZM226.721 21.4107L224.721 21.4067L224.621 71.5068L226.621 71.5107L228.621 71.5147L228.721 21.4147L226.721 21.4107ZM226.621 71.5107H224.621C224.621 74.5246 225.419 77.1475 227.274 79.0917L228.721 77.7107L230.168 76.3298C229.224 75.3407 228.621 73.8302 228.621 71.5107H226.621ZM228.721 77.7107L227.34 79.1575C229.284 81.0133 231.907 81.8107 234.921 81.8107V79.8107V77.8107C232.602 77.8107 231.091 77.2082 230.102 76.264L228.721 77.7107ZM234.921 79.8107V81.8107H243.421V79.8107V77.8107H234.921V79.8107ZM243.421 79.8107H241.421V91.7107H243.421H245.421V79.8107H243.421ZM243.421 91.7107V89.7107H235.621V91.7107V93.7107H243.421V91.7107ZM205.021 46.9107H207.021V36.7107H205.021H203.021V46.9107H205.021ZM205.021 36.7107V38.7107H243.421V36.7107V34.7107H205.021V36.7107ZM243.421 36.7107H241.421V46.9107H243.421H245.421V36.7107H243.421ZM243.421 46.9107V44.9107H205.021V46.9107V48.9107H243.421V46.9107ZM282.792 91.0107H280.792V93.0107H282.792V91.0107ZM282.792 74.9107H284.792V72.9107H282.792V74.9107ZM280.492 74.9107H278.492V76.9107H280.492V74.9107ZM265.092 47.8107L265.149 49.8099H265.149L265.092 47.8107ZM257.992 48.1107L258.049 50.1099L258.076 50.1092L258.103 50.1077L257.992 48.1107ZM251.692 48.4107H249.692V50.5587L251.835 50.4057L251.692 48.4107ZM251.692 36.6107L251.519 34.6183L249.692 34.7771V36.6107H251.692ZM256.892 36.2107L256.755 34.2155V34.2155L256.892 36.2107ZM262.792 36.0107V38.0107H262.824L262.857 38.0097L262.792 36.0107ZM282.492 38.1107L281.749 39.9677L281.761 39.9722L282.492 38.1107ZM290.892 45.0107L289.174 46.0344L289.182 46.0477L289.19 46.061L290.892 45.0107ZM293.792 91.0107V93.0107H295.792V91.0107H293.792ZM254.892 90.3107L254.031 92.1157L254.039 92.1194L254.046 92.1231L254.892 90.3107ZM247.992 84.3107L246.289 85.3589L246.299 85.3746L246.308 85.3901L247.992 84.3107ZM248.492 65.1107L246.922 63.8715L246.912 63.8843L246.902 63.8974L248.492 65.1107ZM256.792 59.4107L256.128 57.5241L256.117 57.5281L256.792 59.4107ZM281.992 57.5107H283.992V55.5107H281.992V57.5107ZM281.992 65.8107V67.8107H283.992V65.8107H281.992ZM261.792 68.2107L263.146 69.6826L263.149 69.6803L261.792 68.2107ZM261.792 80.2107L260.438 81.6826L260.452 81.6958L260.467 81.7087L261.792 80.2107ZM274.492 81.5107L275.261 83.3569L275.28 83.3493L275.298 83.3414L274.492 81.5107ZM278.592 77.9107L276.918 76.8162L276.913 76.8244L276.908 76.8326L278.592 77.9107ZM280.492 70.9107L282 69.5965L278.721 65.8354L278.494 70.8199L280.492 70.9107ZM283.892 74.8107L285.885 74.9855L285.959 74.1379L285.4 73.4965L283.892 74.8107ZM281.092 84.4107L279.369 83.3948L279.36 83.4113L279.35 83.4281L281.092 84.4107ZM274.892 90.4107L275.805 92.1904L275.813 92.186L275.822 92.1815L274.892 90.4107ZM282.792 91.0107H284.792V74.9107H282.792H280.792V91.0107H282.792ZM282.792 74.9107V72.9107H280.492V74.9107V76.9107H282.792V74.9107ZM280.492 74.9107H282.492V57.0107H280.492H278.492V74.9107H280.492ZM280.492 57.0107H282.492C282.492 53.5837 281.654 50.6444 279.606 48.5965L278.192 50.0107L276.778 51.425C277.797 52.4437 278.492 54.1712 278.492 57.0107H280.492ZM278.192 50.0107L279.606 48.5965C277.552 46.5417 274.572 45.7107 271.092 45.7107V47.7107V49.7107C274.013 49.7107 275.766 50.4131 276.778 51.425L278.192 50.0107ZM271.092 47.7107V45.7107C269.401 45.7107 267.381 45.7445 265.035 45.8116L265.092 47.8107L265.149 49.8099C267.47 49.7436 269.45 49.7107 271.092 49.7107V47.7107ZM265.092 47.8107L265.035 45.8116C262.683 45.8787 260.299 45.9795 257.881 46.1138L257.992 48.1107L258.103 50.1077C260.486 49.9753 262.834 49.8761 265.149 49.8099L265.092 47.8107ZM257.992 48.1107L257.935 46.1116C255.58 46.1788 253.451 46.28 251.55 46.4158L251.692 48.4107L251.835 50.4057C253.667 50.2748 255.738 50.176 258.049 50.1099L257.992 48.1107ZM251.692 48.4107H253.692V36.6107H251.692H249.692V48.4107H251.692ZM251.692 36.6107L251.865 38.6032C253.384 38.4711 255.105 38.3387 257.03 38.206L256.892 36.2107L256.755 34.2155C254.812 34.3494 253.067 34.4837 251.519 34.6183L251.692 36.6107ZM256.892 36.2107L257.03 38.206C258.916 38.0759 260.837 38.0107 262.792 38.0107V36.0107V34.0107C260.748 34.0107 258.735 34.0789 256.755 34.2155L256.892 36.2107ZM262.792 36.0107L262.857 38.0097C264.905 37.9436 266.817 37.9107 268.592 37.9107V35.9107V33.9107C266.768 33.9107 264.813 33.9445 262.728 34.0118L262.792 36.0107ZM268.592 35.9107V37.9107C274.036 37.9107 278.396 38.6262 281.749 39.9677L282.492 38.1107L283.235 36.2538C279.255 34.662 274.348 33.9107 268.592 33.9107V35.9107ZM282.492 38.1107L281.761 39.9722C285.125 41.2939 287.557 43.3204 289.174 46.0344L290.892 45.0107L292.61 43.9871C290.494 40.4344 287.326 37.8609 283.224 36.2492L282.492 38.1107ZM290.892 45.0107L289.19 46.061C290.869 48.7812 291.792 52.4808 291.792 57.3107H293.792H295.792C295.792 52.0073 294.783 47.507 292.594 43.9605L290.892 45.0107ZM293.792 57.3107H291.792V91.0107H293.792H295.792V57.3107H293.792ZM293.792 91.0107V89.0107H282.792V91.0107V93.0107H293.792V91.0107ZM265.292 92.4107V90.4107C261.597 90.4107 258.428 89.7537 255.738 88.4984L254.892 90.3107L254.046 92.1231C257.356 93.6678 261.121 94.4107 265.292 94.4107V92.4107ZM254.892 90.3107L255.754 88.5058C253.138 87.2575 251.131 85.5009 249.676 83.2314L247.992 84.3107L246.308 85.3901C248.187 88.3206 250.779 90.564 254.031 92.1157L254.892 90.3107ZM247.992 84.3107L249.696 83.2625C248.325 81.036 247.592 78.2822 247.592 74.9107H245.592H243.592C243.592 78.8726 244.459 82.3855 246.289 85.3589L247.992 84.3107ZM245.592 74.9107H247.592C247.592 71.2355 248.476 68.4282 250.082 66.3241L248.492 65.1107L246.902 63.8974C244.641 66.86 243.592 70.5859 243.592 74.9107H245.592ZM248.492 65.1107L250.062 66.35C251.794 64.156 254.228 62.4546 257.467 61.2934L256.792 59.4107L256.117 57.5281C252.29 58.9002 249.19 60.9989 246.922 63.8715L248.492 65.1107ZM256.792 59.4107L257.456 61.2974C260.796 60.1222 264.763 59.5107 269.392 59.5107V57.5107V55.5107C264.422 55.5107 259.989 56.1659 256.128 57.5241L256.792 59.4107ZM269.392 57.5107V59.5107H281.992V57.5107V55.5107H269.392V57.5107ZM281.992 57.5107H279.992V65.8107H281.992H283.992V57.5107H281.992ZM281.992 65.8107V63.8107H269.192V65.8107V67.8107H281.992V65.8107ZM269.192 65.8107V63.8107C265.671 63.8107 262.653 64.6941 260.436 66.7411L261.792 68.2107L263.149 69.6803C264.398 68.5274 266.313 67.8107 269.192 67.8107V65.8107ZM261.792 68.2107L260.438 66.7389C258.32 68.6871 257.292 71.2404 257.292 74.2107H259.292H261.292C261.292 72.2477 261.931 70.8011 263.146 69.6826L261.792 68.2107ZM259.292 74.2107H257.292C257.292 77.1811 258.32 79.7344 260.438 81.6826L261.792 80.2107L263.146 78.7389C261.931 77.6204 261.292 76.1738 261.292 74.2107H259.292ZM261.792 80.2107L260.467 81.7087C262.685 83.6711 265.691 84.5107 269.192 84.5107V82.5107V80.5107C266.293 80.5107 264.366 79.8171 263.117 78.7127L261.792 80.2107ZM269.192 82.5107V84.5107C271.359 84.5107 273.391 84.1362 275.261 83.3569L274.492 81.5107L273.723 79.6646C272.393 80.2186 270.892 80.5107 269.192 80.5107V82.5107ZM274.492 81.5107L275.298 83.3414C277.356 82.4355 279.017 80.9574 280.277 78.9888L278.592 77.9107L276.908 76.8326C276.034 78.1974 274.961 79.1193 273.687 79.6801L274.492 81.5107ZM278.592 77.9107L280.266 79.0052C281.661 76.8726 282.347 74.1508 282.49 71.0016L280.492 70.9107L278.494 70.8199C278.371 73.5373 277.79 75.4822 276.918 76.8162L278.592 77.9107ZM280.492 70.9107L278.985 72.225L282.385 76.125L283.892 74.8107L285.4 73.4965L282 69.5965L280.492 70.9107ZM283.892 74.8107L281.9 74.636C281.586 78.215 280.717 81.1101 279.369 83.3948L281.092 84.4107L282.815 85.4267C284.534 82.5114 285.532 79.0065 285.885 74.9855L283.892 74.8107ZM281.092 84.4107L279.35 83.4281C278.075 85.6895 276.291 87.4173 273.963 88.6399L274.892 90.4107L275.822 92.1815C278.826 90.6042 281.176 88.332 282.834 85.3934L281.092 84.4107ZM274.892 90.4107L273.98 88.6311C271.734 89.7827 268.867 90.4107 265.292 90.4107V92.4107V94.4107C269.317 94.4107 272.85 93.7054 275.805 92.1904L274.892 90.4107ZM314.881 89.8107L314.112 91.6569L314.135 91.6665L314.158 91.6755L314.881 89.8107ZM307.681 83.2107L305.9 84.1203L305.904 84.1281L305.908 84.1359L307.681 83.2107ZM305.281 70.6107L303.281 70.6067V70.6107H305.281ZM305.381 21.4107V19.4107H303.385L303.381 21.4067L305.381 21.4107ZM318.381 21.4107L320.381 21.4147L320.385 19.4107H318.381V21.4107ZM318.281 71.5107L316.281 71.5068V71.5107H318.281ZM320.381 77.7107L318.935 79.0917L318.967 79.1253L319 79.1575L320.381 77.7107ZM335.081 79.8107H337.081V77.8107H335.081V79.8107ZM335.081 91.7107V93.7107H337.081V91.7107H335.081ZM296.681 46.9107H294.681V48.9107H296.681V46.9107ZM296.681 36.7107V34.7107H294.681V36.7107H296.681ZM335.081 36.7107H337.081V34.7107H335.081V36.7107ZM335.081 46.9107V48.9107H337.081V46.9107H335.081ZM327.281 91.7107V89.7107C322.431 89.7107 318.564 89.0938 315.604 87.946L314.881 89.8107L314.158 91.6755C317.731 93.061 322.131 93.7107 327.281 93.7107V91.7107ZM314.881 89.8107L315.65 87.9646C312.882 86.8109 310.837 84.9362 309.454 82.2856L307.681 83.2107L305.908 84.1359C307.725 87.6186 310.481 90.144 314.112 91.6569L314.881 89.8107ZM307.681 83.2107L309.462 82.3012C308.06 79.5547 307.281 75.7054 307.281 70.6107H305.281H303.281C303.281 76.0494 304.103 80.6001 305.9 84.1203L307.681 83.2107ZM305.281 70.6107L307.281 70.6148L307.381 21.4148L305.381 21.4107L303.381 21.4067L303.281 70.6067L305.281 70.6107ZM305.381 21.4107V23.4107H318.381V21.4107V19.4107H305.381V21.4107ZM318.381 21.4107L316.381 21.4067L316.281 71.5068L318.281 71.5107L320.281 71.5147L320.381 21.4147L318.381 21.4107ZM318.281 71.5107H316.281C316.281 74.5246 317.079 77.1475 318.935 79.0917L320.381 77.7107L321.828 76.3298C320.884 75.3407 320.281 73.8302 320.281 71.5107H318.281ZM320.381 77.7107L319 79.1575C320.944 81.0133 323.567 81.8107 326.581 81.8107V79.8107V77.8107C324.262 77.8107 322.751 77.2082 321.762 76.264L320.381 77.7107ZM326.581 79.8107V81.8107H335.081V79.8107V77.8107H326.581V79.8107ZM335.081 79.8107H333.081V91.7107H335.081H337.081V79.8107H335.081ZM335.081 91.7107V89.7107H327.281V91.7107V93.7107H335.081V91.7107ZM296.681 46.9107H298.681V36.7107H296.681H294.681V46.9107H296.681ZM296.681 36.7107V38.7107H335.081V36.7107V34.7107H296.681V36.7107ZM335.081 36.7107H333.081V46.9107H335.081H337.081V36.7107H335.081ZM335.081 46.9107V44.9107H296.681V46.9107V48.9107H335.081V46.9107ZM353.455 90.5107L352.617 92.3267L352.623 92.3297L352.63 92.3326L353.455 90.5107ZM344.755 84.1107L343.215 85.3874L343.232 85.4078L343.25 85.4277L344.755 84.1107ZM339.555 75.0107L337.661 75.6545L337.667 75.6714L337.673 75.6882L339.555 75.0107ZM339.555 52.5107L337.669 51.8451L337.665 51.856L337.661 51.8669L339.555 52.5107ZM344.755 43.5107L343.25 42.1937L343.247 42.1965L344.755 43.5107ZM353.355 37.2107L354.177 39.0339L354.192 39.0273L354.206 39.0204L353.355 37.2107ZM379.855 38.7107L378.752 40.3792L378.768 40.3899L378.785 40.4004L379.855 38.7107ZM388.855 48.8107L387.049 49.6706L387.054 49.6819L388.855 48.8107ZM391.855 67.2107V69.2107H393.855V67.2107H391.855ZM343.755 67.2107H341.755V69.2107H343.755V67.2107ZM343.755 58.7107V56.7107H341.755V58.7107H343.755ZM383.155 58.7107L384.552 60.1415L388.065 56.7107H383.155V58.7107ZM378.855 62.9107H376.855V67.66L380.252 64.3415L378.855 62.9107ZM377.355 54.0107L379.208 53.2593V53.2593L377.355 54.0107ZM372.755 48.3107L371.645 49.9748L371.658 49.9832L371.67 49.9913L372.755 48.3107ZM357.355 48.4107L356.257 46.7386V46.7386L357.355 48.4107ZM352.455 54.5107L350.614 53.7285L350.609 53.74L350.604 53.7516L352.455 54.5107ZM352.455 73.0107L350.598 73.7535L350.601 73.7617L350.604 73.7699L352.455 73.0107ZM357.355 79.2107L356.211 80.8515L356.228 80.8634L356.245 80.8748L357.355 79.2107ZM374.055 79.4107L375.115 81.1067L375.133 81.095L375.152 81.0828L374.055 79.4107ZM378.155 74.3107V72.3107H376.667L376.239 73.736L378.155 74.3107ZM390.955 74.3107L392.91 74.7298L393.429 72.3107H390.955V74.3107ZM386.355 84.1107L384.8 82.8523V82.8523L386.355 84.1107ZM377.655 90.6107L376.858 88.776L376.846 88.7817L377.655 90.6107ZM365.755 92.9107V90.9107C361.316 90.9107 357.507 90.1501 354.28 88.6888L353.455 90.5107L352.63 92.3326C356.469 94.0714 360.86 94.9107 365.755 94.9107V92.9107ZM353.455 90.5107L354.293 88.6948C351.061 87.2032 348.394 85.2331 346.26 82.7937L344.755 84.1107L343.25 85.4277C345.782 88.3217 348.915 90.6183 352.617 92.3267L353.455 90.5107ZM344.755 84.1107L346.294 82.8341C344.175 80.2787 342.558 77.4481 341.436 74.3333L339.555 75.0107L337.673 75.6882C338.952 79.2401 340.801 82.4761 343.215 85.3874L344.755 84.1107ZM339.555 75.0107L341.448 74.3669C340.384 71.2376 339.855 68.055 339.855 64.8107H337.855H335.855C335.855 68.4998 336.458 72.1172 337.661 75.6545L339.555 75.0107ZM337.855 64.8107H339.855V62.9107H337.855H335.855V64.8107H337.855ZM337.855 62.9107H339.855C339.855 59.5247 340.387 56.2759 341.448 53.1545L339.555 52.5107L337.661 51.8669C336.456 55.4123 335.855 59.0968 335.855 62.9107H337.855ZM339.555 52.5107L341.441 53.1764C342.56 50.0036 344.169 47.2261 346.262 44.825L344.755 43.5107L343.247 42.1965C340.807 44.9954 338.949 48.2179 337.669 51.8451L339.555 52.5107ZM344.755 43.5107L346.26 44.8277C348.395 42.3881 351.024 40.4557 354.177 39.0339L353.355 37.2107L352.532 35.3876C348.885 37.0324 345.781 39.3001 343.25 42.1937L344.755 43.5107ZM353.355 37.2107L354.206 39.0204C357.294 37.5672 360.928 36.8107 365.155 36.8107V34.8107V32.8107C360.449 32.8107 356.215 33.6543 352.503 35.4011L353.355 37.2107ZM365.155 34.8107V36.8107C370.725 36.8107 375.217 38.0429 378.752 40.3792L379.855 38.7107L380.958 37.0423C376.625 34.1786 371.318 32.8107 365.155 32.8107V34.8107ZM379.855 38.7107L378.785 40.4004C382.472 42.7358 385.214 45.8174 387.049 49.6706L388.855 48.8107L390.66 47.9509C388.495 43.4041 385.237 39.7524 380.925 37.0211L379.855 38.7107ZM388.855 48.8107L387.054 49.6819C388.917 53.5312 389.855 57.6984 389.855 62.2107H391.855H393.855C393.855 57.1231 392.792 52.3569 390.655 47.9396L388.855 48.8107ZM391.855 62.2107H389.855V67.2107H391.855H393.855V62.2107H391.855ZM391.855 67.2107V65.2107H343.755V67.2107V69.2107H391.855V67.2107ZM343.755 67.2107H345.755V58.7107H343.755H341.755V67.2107H343.755ZM343.755 58.7107V60.7107H383.155V58.7107V56.7107H343.755V58.7107ZM383.155 58.7107L381.757 57.28L377.457 61.48L378.855 62.9107L380.252 64.3415L384.552 60.1415L383.155 58.7107ZM378.855 62.9107H380.855C380.855 59.2606 380.329 56.0249 379.208 53.2593L377.355 54.0107L375.501 54.7621C376.38 56.9299 376.855 59.6275 376.855 62.9107H378.855ZM377.355 54.0107L379.208 53.2593C378.067 50.4442 376.28 48.2052 373.839 46.6301L372.755 48.3107L371.67 49.9913C373.362 51.0829 374.642 52.644 375.501 54.7622L377.355 54.0107ZM372.755 48.3107L373.864 46.6466C371.456 45.041 368.508 44.3107 365.155 44.3107V46.3107V48.3107C367.935 48.3107 370.054 48.9138 371.645 49.9748L372.755 48.3107ZM365.155 46.3107V44.3107C361.778 44.3107 358.777 45.0848 356.257 46.7386L357.355 48.4107L358.452 50.0828C360.199 48.9367 362.398 48.3107 365.155 48.3107V46.3107ZM357.355 48.4107L356.257 46.7386C353.75 48.3838 351.88 50.7491 350.614 53.7285L352.455 54.5107L354.295 55.293C355.296 52.939 356.692 51.2377 358.452 50.0828L357.355 48.4107ZM352.455 54.5107L350.604 53.7516C349.414 56.6537 348.855 60.0592 348.855 63.9107H350.855H352.855C352.855 60.4289 353.362 57.5678 354.305 55.2699L352.455 54.5107ZM350.855 63.9107H348.855C348.855 67.5193 349.421 70.8115 350.598 73.7535L352.455 73.0107L354.312 72.268C353.355 69.8767 352.855 67.1022 352.855 63.9107H350.855ZM352.455 73.0107L350.604 73.7699C351.81 76.7076 353.68 79.0875 356.211 80.8515L357.355 79.2107L358.498 77.5699C356.629 76.2673 355.233 74.5139 354.305 72.2516L352.455 73.0107ZM357.355 79.2107L356.245 80.8748C358.856 82.6154 362.072 83.4107 365.755 83.4107V81.4107V79.4107C362.638 79.4107 360.253 78.7395 358.464 77.5466L357.355 79.2107ZM365.755 81.4107V83.4107C369.402 83.4107 372.57 82.697 375.115 81.1067L374.055 79.4107L372.995 77.7147C371.272 78.7911 368.908 79.4107 365.755 79.4107V81.4107ZM374.055 79.4107L375.152 81.0828C377.588 79.4841 379.307 77.43 380.07 74.8854L378.155 74.3107L376.239 73.736C375.802 75.1914 374.788 76.5373 372.957 77.7386L374.055 79.4107ZM378.155 74.3107V76.3107H390.955V74.3107V72.3107H378.155V74.3107ZM390.955 74.3107L388.999 73.8917C388.261 77.3365 386.857 80.3113 384.8 82.8523L386.355 84.1107L387.909 85.3691C390.385 82.3102 392.048 78.7517 392.91 74.7298L390.955 74.3107ZM386.355 84.1107L384.8 82.8523C382.75 85.3848 380.117 87.3618 376.858 88.7761L377.655 90.6107L378.451 92.4454C382.259 90.793 385.426 88.4367 387.909 85.3691L386.355 84.1107ZM377.655 90.6107L376.846 88.7817C373.675 90.184 369.992 90.9107 365.755 90.9107V92.9107V94.9107C370.451 94.9107 374.701 94.1041 378.464 92.4398L377.655 90.6107Z" fill="url(#paint0_linear_103_584)" mask="url(#path-1-outside-1_103_584)"/>
<path d="M414.5 27L420.35 9H424.113L429.963 27H427.25L421.863 10.575H422.538L417.212 27H414.5ZM417.538 22.9375V20.4875L426.938 20.4875V22.9375L417.538 22.9375ZM431.705 27V9H434.318V27H431.705Z" fill="black"/>
<defs>
<linearGradient id="paint0_linear_103_584" x1="3.68032" y1="32.0107" x2="129.28" y2="242.172" gradientUnits="userSpaceOnUse">
<stop stop-color="#8258C8"/>
<stop offset="0.315" stop-color="#6766C8"/>
<stop offset="1" stop-color="#2C84C8"/>
</linearGradient>
</defs>
</svg>
