<svg width="422" height="220" viewBox="0 0 422 220" fill="none" xmlns="http://www.w3.org/2000/svg">
<g filter="url(#filter0_d_769_8657)">
<path d="M30 59C30 52.3726 35.3726 47 42 47H390V176C390 182.627 384.627 188 378 188H42C35.3726 188 30 182.627 30 176V59Z" fill="white"/>
<path d="M28 47C28 44.7909 29.7909 43 32 43V131C29.7909 131 28 129.209 28 127V47Z" fill="url(#paint0_linear_769_8657)"/>
<path d="M30 40C30 33.3726 35.3726 28 42 28H378C384.627 28 390 33.3726 390 40V47H32C30.8954 47 30 46.1046 30 45V40Z" fill="white"/>
<path d="M30 129C30 127.895 30.8954 127 32 127H390V134C390 140.627 384.627 146 378 146H42C35.3726 146 30 140.627 30 134V129Z" fill="white"/>
<path d="M30 47H322C328.627 47 334 52.3726 334 59V115C334 121.627 328.627 127 322 127H30V47Z" fill="url(#paint1_linear_769_8657)"/>
<path d="M71.96 98V77.84H79.884C81.1627 77.84 82.236 78.1013 83.104 78.624C83.972 79.1467 84.6253 79.8233 85.064 80.654C85.5027 81.4753 85.722 82.3433 85.722 83.258C85.722 84.3687 85.4467 85.3207 84.896 86.114C84.3547 86.9073 83.622 87.4487 82.698 87.738L82.67 87.052C83.958 87.3693 84.9473 87.99 85.638 88.914C86.3287 89.8287 86.674 90.8973 86.674 92.12C86.674 93.3053 86.436 94.3367 85.96 95.214C85.4933 96.0913 84.8073 96.7773 83.902 97.272C83.006 97.7573 81.9187 98 80.64 98H71.96ZM74.928 95.214H80.192C80.8547 95.214 81.4473 95.088 81.97 94.836C82.502 94.584 82.9173 94.2247 83.216 93.758C83.524 93.282 83.678 92.7173 83.678 92.064C83.678 91.4573 83.5427 90.9113 83.272 90.426C83.0107 89.9313 82.628 89.544 82.124 89.264C81.6293 88.9747 81.046 88.83 80.374 88.83H74.928V95.214ZM74.928 86.072H79.842C80.3833 86.072 80.8687 85.9647 81.298 85.75C81.7367 85.526 82.082 85.2087 82.334 84.798C82.5953 84.378 82.726 83.874 82.726 83.286C82.726 82.502 82.4647 81.858 81.942 81.354C81.4193 80.85 80.7193 80.598 79.842 80.598H74.928V86.072ZM89.74 80.402V77.56H92.666V80.402H89.74ZM89.74 98V82.88H92.666V98H89.74ZM103.436 98.42C101.924 98.42 100.613 98.0793 99.5022 97.398C98.3915 96.7167 97.5328 95.7787 96.9262 94.584C96.3288 93.38 96.0302 91.994 96.0302 90.426C96.0302 88.8487 96.3382 87.4627 96.9542 86.268C97.5702 85.064 98.4335 84.1307 99.5442 83.468C100.655 82.796 101.952 82.46 103.436 82.46C104.948 82.46 106.259 82.8007 107.37 83.482C108.481 84.1633 109.339 85.1013 109.946 86.296C110.553 87.4907 110.856 88.8673 110.856 90.426C110.856 92.0033 110.548 93.394 109.932 94.598C109.325 95.7927 108.467 96.7307 107.356 97.412C106.245 98.084 104.939 98.42 103.436 98.42ZM103.436 95.662C104.883 95.662 105.961 95.1767 106.67 94.206C107.389 93.226 107.748 91.966 107.748 90.426C107.748 88.8487 107.384 87.5887 106.656 86.646C105.937 85.694 104.864 85.218 103.436 85.218C102.456 85.218 101.649 85.442 101.014 85.89C100.379 86.3287 99.9082 86.94 99.6002 87.724C99.2922 88.4987 99.1382 89.3993 99.1382 90.426C99.1382 92.0127 99.5022 93.282 100.23 94.234C100.958 95.186 102.027 95.662 103.436 95.662ZM119.441 98.406C117.603 98.406 116.105 98 114.947 97.188C113.79 96.376 113.081 95.2327 112.819 93.758L115.815 93.296C116.002 94.08 116.431 94.7007 117.103 95.158C117.785 95.606 118.629 95.83 119.637 95.83C120.552 95.83 121.266 95.6433 121.779 95.27C122.302 94.8967 122.563 94.3833 122.563 93.73C122.563 93.3473 122.47 93.0393 122.283 92.806C122.106 92.5633 121.728 92.3347 121.149 92.12C120.571 91.9053 119.689 91.6393 118.503 91.322C117.206 90.986 116.175 90.6267 115.409 90.244C114.653 89.852 114.112 89.3993 113.785 88.886C113.468 88.3633 113.309 87.7333 113.309 86.996C113.309 86.0813 113.552 85.2833 114.037 84.602C114.523 83.9207 115.204 83.3933 116.081 83.02C116.968 82.6467 118.004 82.46 119.189 82.46C120.347 82.46 121.378 82.642 122.283 83.006C123.189 83.37 123.921 83.888 124.481 84.56C125.041 85.2227 125.377 86.002 125.489 86.898L122.493 87.444C122.391 86.716 122.05 86.142 121.471 85.722C120.893 85.302 120.141 85.0733 119.217 85.036C118.331 84.9987 117.612 85.148 117.061 85.484C116.511 85.8107 116.235 86.2633 116.235 86.842C116.235 87.178 116.338 87.4627 116.543 87.696C116.758 87.9293 117.169 88.1533 117.775 88.368C118.382 88.5827 119.278 88.8393 120.463 89.138C121.733 89.4647 122.741 89.8287 123.487 90.23C124.234 90.622 124.766 91.0933 125.083 91.644C125.41 92.1853 125.573 92.8433 125.573 93.618C125.573 95.1113 125.027 96.2827 123.935 97.132C122.853 97.9813 121.355 98.406 119.441 98.406ZM137.323 98C136.371 98.1867 135.438 98.266 134.523 98.238C133.608 98.21 132.792 98.0327 132.073 97.706C131.354 97.3793 130.813 96.866 130.449 96.166C130.122 95.5407 129.945 94.906 129.917 94.262C129.898 93.6087 129.889 92.8713 129.889 92.05V78.68H132.829V91.91C132.829 92.5167 132.834 93.044 132.843 93.492C132.862 93.94 132.96 94.318 133.137 94.626C133.473 95.2047 134.005 95.536 134.733 95.62C135.47 95.6947 136.334 95.662 137.323 95.522V98ZM126.991 85.232V82.88H137.323V85.232H126.991ZM144.781 98.42C143.661 98.42 142.723 98.2147 141.967 97.804C141.211 97.384 140.637 96.8333 140.245 96.152C139.862 95.4613 139.671 94.7053 139.671 93.884C139.671 93.1187 139.806 92.4467 140.077 91.868C140.347 91.2893 140.749 90.7993 141.281 90.398C141.813 89.9873 142.466 89.656 143.241 89.404C143.913 89.208 144.673 89.0353 145.523 88.886C146.372 88.7367 147.263 88.5967 148.197 88.466C149.139 88.3353 150.073 88.2047 150.997 88.074L149.933 88.662C149.951 87.4767 149.699 86.5993 149.177 86.03C148.663 85.4513 147.777 85.162 146.517 85.162C145.723 85.162 144.995 85.3487 144.333 85.722C143.67 86.086 143.208 86.6927 142.947 87.542L140.217 86.702C140.59 85.4047 141.299 84.3733 142.345 83.608C143.399 82.8427 144.799 82.46 146.545 82.46C147.898 82.46 149.074 82.6933 150.073 83.16C151.081 83.6173 151.818 84.3453 152.285 85.344C152.527 85.8387 152.677 86.3613 152.733 86.912C152.789 87.4627 152.817 88.0553 152.817 88.69V98H150.227V94.542L150.731 94.99C150.105 96.1473 149.307 97.0107 148.337 97.58C147.375 98.14 146.19 98.42 144.781 98.42ZM145.299 96.026C146.129 96.026 146.843 95.8813 147.441 95.592C148.038 95.2933 148.519 94.9153 148.883 94.458C149.247 94.0007 149.485 93.5247 149.597 93.03C149.755 92.582 149.844 92.078 149.863 91.518C149.891 90.958 149.905 90.51 149.905 90.174L150.857 90.524C149.933 90.664 149.093 90.79 148.337 90.902C147.581 91.014 146.895 91.126 146.279 91.238C145.672 91.3407 145.131 91.4667 144.655 91.616C144.253 91.756 143.894 91.924 143.577 92.12C143.269 92.316 143.021 92.554 142.835 92.834C142.657 93.114 142.569 93.4547 142.569 93.856C142.569 94.248 142.667 94.612 142.863 94.948C143.059 95.2747 143.357 95.536 143.759 95.732C144.16 95.928 144.673 96.026 145.299 96.026ZM165.104 98C164.152 98.1867 163.219 98.266 162.304 98.238C161.39 98.21 160.573 98.0327 159.854 97.706C159.136 97.3793 158.594 96.866 158.23 96.166C157.904 95.5407 157.726 94.906 157.698 94.262C157.68 93.6087 157.67 92.8713 157.67 92.05V78.68H160.61V91.91C160.61 92.5167 160.615 93.044 160.624 93.492C160.643 93.94 160.741 94.318 160.918 94.626C161.254 95.2047 161.786 95.536 162.514 95.62C163.252 95.6947 164.115 95.662 165.104 95.522V98ZM154.772 85.232V82.88H165.104V85.232H154.772ZM174.314 98.42C172.812 98.42 171.491 98.0933 170.352 97.44C169.223 96.7773 168.341 95.858 167.706 94.682C167.081 93.4967 166.768 92.1247 166.768 90.566C166.768 88.914 167.076 87.4813 167.692 86.268C168.318 85.0547 169.186 84.1167 170.296 83.454C171.407 82.7913 172.7 82.46 174.174 82.46C175.714 82.46 177.026 82.8193 178.108 83.538C179.191 84.2473 179.998 85.26 180.53 86.576C181.072 87.892 181.286 89.4553 181.174 91.266H178.248V90.202C178.23 88.4473 177.894 87.15 177.24 86.31C176.596 85.47 175.612 85.05 174.286 85.05C172.821 85.05 171.72 85.512 170.982 86.436C170.245 87.36 169.876 88.6947 169.876 90.44C169.876 92.1013 170.245 93.3893 170.982 94.304C171.72 95.2093 172.784 95.662 174.174 95.662C175.089 95.662 175.878 95.4567 176.54 95.046C177.212 94.626 177.735 94.0287 178.108 93.254L180.978 94.164C180.39 95.5173 179.499 96.5673 178.304 97.314C177.11 98.0513 175.78 98.42 174.314 98.42ZM168.924 91.266V88.984H179.718V91.266H168.924ZM188.521 98L195.073 77.84H199.287L205.839 98H202.801L196.767 79.604H197.523L191.559 98H188.521ZM191.923 93.45V90.706H202.451V93.45H191.923ZM208.631 98V77.84H211.557V98H208.631ZM221.366 98V77.84H224.012L231.32 93.002L238.586 77.84H241.26V97.986H238.488V84.196L231.978 98H230.648L224.124 84.196V98H221.366ZM245.183 98V77.84H258.063V80.598H248.109V86.254H256.383V89.012H248.109V95.242H258.063V98H245.183ZM261.425 98V77.84H264.393L274.319 92.82V77.84H277.287V98H274.319L264.393 83.006V98H261.425ZM279.794 98L286.346 77.84H290.56L297.112 98H294.074L288.04 79.604H288.796L282.832 98H279.794ZM283.196 93.45V90.706H293.724V93.45H283.196Z" fill="white"/>
<path d="M90.944 163.36C89.704 163.36 88.584 163.148 87.584 162.724C86.592 162.292 85.772 161.68 85.124 160.888C84.484 160.088 84.068 159.14 83.876 158.044L86.492 157.648C86.756 158.704 87.308 159.528 88.148 160.12C88.988 160.704 89.968 160.996 91.088 160.996C91.784 160.996 92.424 160.888 93.008 160.672C93.592 160.448 94.06 160.132 94.412 159.724C94.772 159.308 94.952 158.812 94.952 158.236C94.952 157.924 94.896 157.648 94.784 157.408C94.68 157.168 94.532 156.96 94.34 156.784C94.156 156.6 93.928 156.444 93.656 156.316C93.392 156.18 93.1 156.064 92.78 155.968L88.352 154.66C87.92 154.532 87.48 154.368 87.032 154.168C86.584 153.96 86.172 153.692 85.796 153.364C85.428 153.028 85.128 152.616 84.896 152.128C84.664 151.632 84.548 151.032 84.548 150.328C84.548 149.264 84.82 148.364 85.364 147.628C85.916 146.884 86.66 146.324 87.596 145.948C88.532 145.564 89.58 145.372 90.74 145.372C91.908 145.388 92.952 145.596 93.872 145.996C94.8 146.396 95.568 146.972 96.176 147.724C96.792 148.468 97.216 149.372 97.448 150.436L94.76 150.892C94.64 150.244 94.384 149.688 93.992 149.224C93.6 148.752 93.12 148.392 92.552 148.144C91.984 147.888 91.368 147.756 90.704 147.748C90.064 147.732 89.476 147.828 88.94 148.036C88.412 148.244 87.988 148.536 87.668 148.912C87.356 149.288 87.2 149.72 87.2 150.208C87.2 150.688 87.34 151.076 87.62 151.372C87.9 151.668 88.244 151.904 88.652 152.08C89.068 152.248 89.48 152.388 89.888 152.5L93.08 153.4C93.48 153.512 93.932 153.664 94.436 153.856C94.948 154.04 95.44 154.3 95.912 154.636C96.392 154.972 96.788 155.42 97.1 155.98C97.412 156.532 97.568 157.228 97.568 158.068C97.568 158.94 97.392 159.708 97.04 160.372C96.688 161.028 96.204 161.58 95.588 162.028C94.98 162.468 94.276 162.8 93.476 163.024C92.676 163.248 91.832 163.36 90.944 163.36ZM103.785 163.36C102.825 163.36 102.021 163.184 101.373 162.832C100.725 162.472 100.233 162 99.8973 161.416C99.5693 160.824 99.4053 160.176 99.4053 159.472C99.4053 158.816 99.5213 158.24 99.7533 157.744C99.9853 157.248 100.329 156.828 100.785 156.484C101.241 156.132 101.801 155.848 102.465 155.632C103.041 155.464 103.693 155.316 104.421 155.188C105.149 155.06 105.913 154.94 106.713 154.828C107.521 154.716 108.321 154.604 109.113 154.492L108.201 154.996C108.217 153.98 108.001 153.228 107.553 152.74C107.113 152.244 106.353 151.996 105.273 151.996C104.593 151.996 103.969 152.156 103.401 152.476C102.833 152.788 102.437 153.308 102.213 154.036L99.8733 153.316C100.193 152.204 100.801 151.32 101.697 150.664C102.601 150.008 103.801 149.68 105.297 149.68C106.457 149.68 107.465 149.88 108.321 150.28C109.185 150.672 109.817 151.296 110.217 152.152C110.425 152.576 110.553 153.024 110.601 153.496C110.649 153.968 110.673 154.476 110.673 155.02V163H108.453V160.036L108.885 160.42C108.349 161.412 107.665 162.152 106.833 162.64C106.009 163.12 104.993 163.36 103.785 163.36ZM104.229 161.308C104.941 161.308 105.553 161.184 106.065 160.936C106.577 160.68 106.989 160.356 107.301 159.964C107.613 159.572 107.817 159.164 107.913 158.74C108.049 158.356 108.125 157.924 108.141 157.444C108.165 156.964 108.177 156.58 108.177 156.292L108.993 156.592C108.201 156.712 107.481 156.82 106.833 156.916C106.185 157.012 105.597 157.108 105.069 157.204C104.549 157.292 104.085 157.4 103.677 157.528C103.333 157.648 103.025 157.792 102.753 157.96C102.489 158.128 102.277 158.332 102.117 158.572C101.965 158.812 101.889 159.104 101.889 159.448C101.889 159.784 101.973 160.096 102.141 160.384C102.309 160.664 102.565 160.888 102.909 161.056C103.253 161.224 103.693 161.308 104.229 161.308ZM118.673 163.348C117.777 163.348 117.025 163.204 116.417 162.916C115.809 162.628 115.313 162.252 114.929 161.788C114.553 161.316 114.265 160.804 114.065 160.252C113.865 159.7 113.729 159.16 113.657 158.632C113.585 158.104 113.549 157.64 113.549 157.24V150.04H116.093V156.412C116.093 156.916 116.133 157.436 116.213 157.972C116.301 158.5 116.461 158.992 116.693 159.448C116.933 159.904 117.265 160.272 117.689 160.552C118.121 160.832 118.681 160.972 119.369 160.972C119.817 160.972 120.241 160.9 120.641 160.756C121.041 160.604 121.389 160.364 121.685 160.036C121.989 159.708 122.225 159.276 122.393 158.74C122.569 158.204 122.657 157.552 122.657 156.784L124.217 157.372C124.217 158.548 123.997 159.588 123.557 160.492C123.117 161.388 122.485 162.088 121.661 162.592C120.837 163.096 119.841 163.348 118.673 163.348ZM122.957 163V159.256H122.657V150.04H125.189V163H122.957ZM133.703 163.36C132.495 163.36 131.451 163.06 130.571 162.46C129.699 161.86 129.023 161.044 128.543 160.012C128.071 158.972 127.835 157.804 127.835 156.508C127.835 155.204 128.075 154.04 128.555 153.016C129.035 151.984 129.715 151.172 130.595 150.58C131.483 149.98 132.535 149.68 133.751 149.68C134.975 149.68 136.003 149.98 136.835 150.58C137.675 151.172 138.307 151.984 138.731 153.016C139.163 154.048 139.379 155.212 139.379 156.508C139.379 157.804 139.163 158.968 138.731 160C138.299 161.032 137.663 161.852 136.823 162.46C135.983 163.06 134.943 163.36 133.703 163.36ZM134.051 161.092C134.875 161.092 135.547 160.896 136.067 160.504C136.587 160.112 136.967 159.572 137.207 158.884C137.447 158.196 137.567 157.404 137.567 156.508C137.567 155.612 137.443 154.82 137.195 154.132C136.955 153.444 136.579 152.908 136.067 152.524C135.563 152.14 134.919 151.948 134.135 151.948C133.303 151.948 132.619 152.152 132.083 152.56C131.547 152.968 131.147 153.516 130.883 154.204C130.627 154.892 130.499 155.66 130.499 156.508C130.499 157.364 130.627 158.14 130.883 158.836C131.147 159.524 131.539 160.072 132.059 160.48C132.587 160.888 133.251 161.092 134.051 161.092ZM137.567 163V153.676H137.279V145.72H139.799V163H137.567ZM143.397 147.916V145.48H145.905V147.916H143.397ZM143.397 163V150.04H145.905V163H143.397ZM153.113 163L158.729 145.72H162.341L167.957 163H165.353L160.181 147.232H160.829L155.717 163H153.113ZM156.029 159.1V156.748H165.053V159.1H156.029ZM170.11 163V150.04H172.342V153.184L172.03 152.776C172.19 152.36 172.398 151.98 172.654 151.636C172.91 151.284 173.206 150.996 173.542 150.772C173.87 150.532 174.234 150.348 174.634 150.22C175.042 150.084 175.458 150.004 175.882 149.98C176.306 149.948 176.714 149.968 177.106 150.04V152.392C176.682 152.28 176.21 152.248 175.69 152.296C175.178 152.344 174.706 152.508 174.274 152.788C173.866 153.052 173.542 153.372 173.302 153.748C173.07 154.124 172.902 154.544 172.798 155.008C172.694 155.464 172.642 155.948 172.642 156.46V163H170.11ZM182.676 163.36C181.716 163.36 180.912 163.184 180.264 162.832C179.616 162.472 179.124 162 178.788 161.416C178.46 160.824 178.296 160.176 178.296 159.472C178.296 158.816 178.412 158.24 178.644 157.744C178.876 157.248 179.22 156.828 179.676 156.484C180.132 156.132 180.692 155.848 181.356 155.632C181.932 155.464 182.584 155.316 183.312 155.188C184.04 155.06 184.804 154.94 185.604 154.828C186.412 154.716 187.212 154.604 188.004 154.492L187.092 154.996C187.108 153.98 186.892 153.228 186.444 152.74C186.004 152.244 185.244 151.996 184.164 151.996C183.484 151.996 182.86 152.156 182.292 152.476C181.724 152.788 181.328 153.308 181.104 154.036L178.764 153.316C179.084 152.204 179.692 151.32 180.588 150.664C181.492 150.008 182.692 149.68 184.188 149.68C185.348 149.68 186.356 149.88 187.212 150.28C188.076 150.672 188.708 151.296 189.108 152.152C189.316 152.576 189.444 153.024 189.492 153.496C189.54 153.968 189.564 154.476 189.564 155.02V163H187.344V160.036L187.776 160.42C187.24 161.412 186.556 162.152 185.724 162.64C184.9 163.12 183.884 163.36 182.676 163.36ZM183.12 161.308C183.832 161.308 184.444 161.184 184.956 160.936C185.468 160.68 185.88 160.356 186.192 159.964C186.504 159.572 186.708 159.164 186.804 158.74C186.94 158.356 187.016 157.924 187.032 157.444C187.056 156.964 187.068 156.58 187.068 156.292L187.884 156.592C187.092 156.712 186.372 156.82 185.724 156.916C185.076 157.012 184.488 157.108 183.96 157.204C183.44 157.292 182.976 157.4 182.568 157.528C182.224 157.648 181.916 157.792 181.644 157.96C181.38 158.128 181.168 158.332 181.008 158.572C180.856 158.812 180.78 159.104 180.78 159.448C180.78 159.784 180.864 160.096 181.032 160.384C181.2 160.664 181.456 160.888 181.8 161.056C182.144 161.224 182.584 161.308 183.12 161.308ZM198.764 163.36C197.524 163.36 196.484 163.06 195.644 162.46C194.804 161.852 194.168 161.032 193.736 160C193.304 158.968 193.088 157.804 193.088 156.508C193.088 155.212 193.3 154.048 193.724 153.016C194.156 151.984 194.788 151.172 195.62 150.58C196.46 149.98 197.492 149.68 198.716 149.68C199.932 149.68 200.98 149.98 201.86 150.58C202.748 151.172 203.432 151.984 203.912 153.016C204.392 154.04 204.632 155.204 204.632 156.508C204.632 157.804 204.392 158.972 203.912 160.012C203.44 161.044 202.764 161.86 201.884 162.46C201.012 163.06 199.972 163.36 198.764 163.36ZM192.668 163V145.72H195.188V153.676H194.9V163H192.668ZM198.416 161.092C199.216 161.092 199.876 160.888 200.396 160.48C200.924 160.072 201.316 159.524 201.572 158.836C201.836 158.14 201.968 157.364 201.968 156.508C201.968 155.66 201.836 154.892 201.572 154.204C201.316 153.516 200.92 152.968 200.384 152.56C199.848 152.152 199.164 151.948 198.332 151.948C197.548 151.948 196.9 152.14 196.388 152.524C195.884 152.908 195.508 153.444 195.26 154.132C195.02 154.82 194.9 155.612 194.9 156.508C194.9 157.404 195.02 158.196 195.26 158.884C195.5 159.572 195.88 160.112 196.4 160.504C196.92 160.896 197.592 161.092 198.416 161.092ZM207.522 147.916V145.48H210.03V147.916H207.522ZM207.522 163V150.04H210.03V163H207.522ZM217.293 163.36C216.333 163.36 215.529 163.184 214.881 162.832C214.233 162.472 213.741 162 213.405 161.416C213.077 160.824 212.913 160.176 212.913 159.472C212.913 158.816 213.029 158.24 213.261 157.744C213.493 157.248 213.837 156.828 214.293 156.484C214.749 156.132 215.309 155.848 215.973 155.632C216.549 155.464 217.201 155.316 217.929 155.188C218.657 155.06 219.421 154.94 220.221 154.828C221.029 154.716 221.829 154.604 222.621 154.492L221.709 154.996C221.725 153.98 221.509 153.228 221.061 152.74C220.621 152.244 219.861 151.996 218.781 151.996C218.101 151.996 217.477 152.156 216.909 152.476C216.341 152.788 215.945 153.308 215.721 154.036L213.381 153.316C213.701 152.204 214.309 151.32 215.205 150.664C216.109 150.008 217.309 149.68 218.805 149.68C219.965 149.68 220.973 149.88 221.829 150.28C222.693 150.672 223.325 151.296 223.725 152.152C223.933 152.576 224.061 153.024 224.109 153.496C224.157 153.968 224.181 154.476 224.181 155.02V163H221.961V160.036L222.393 160.42C221.857 161.412 221.173 162.152 220.341 162.64C219.517 163.12 218.501 163.36 217.293 163.36ZM217.737 161.308C218.449 161.308 219.061 161.184 219.573 160.936C220.085 160.68 220.497 160.356 220.809 159.964C221.121 159.572 221.325 159.164 221.421 158.74C221.557 158.356 221.633 157.924 221.649 157.444C221.673 156.964 221.685 156.58 221.685 156.292L222.501 156.592C221.709 156.712 220.989 156.82 220.341 156.916C219.693 157.012 219.105 157.108 218.577 157.204C218.057 157.292 217.593 157.4 217.185 157.528C216.841 157.648 216.533 157.792 216.261 157.96C215.997 158.128 215.785 158.332 215.625 158.572C215.473 158.812 215.397 159.104 215.397 159.448C215.397 159.784 215.481 160.096 215.649 160.384C215.817 160.664 216.073 160.888 216.417 161.056C216.761 161.224 217.201 161.308 217.737 161.308ZM238.366 163.36C237.126 163.36 236.006 163.148 235.006 162.724C234.014 162.292 233.194 161.68 232.546 160.888C231.906 160.088 231.49 159.14 231.298 158.044L233.914 157.648C234.178 158.704 234.73 159.528 235.57 160.12C236.41 160.704 237.39 160.996 238.51 160.996C239.206 160.996 239.846 160.888 240.43 160.672C241.014 160.448 241.482 160.132 241.834 159.724C242.194 159.308 242.374 158.812 242.374 158.236C242.374 157.924 242.318 157.648 242.206 157.408C242.102 157.168 241.954 156.96 241.762 156.784C241.578 156.6 241.35 156.444 241.078 156.316C240.814 156.18 240.522 156.064 240.202 155.968L235.774 154.66C235.342 154.532 234.902 154.368 234.454 154.168C234.006 153.96 233.594 153.692 233.218 153.364C232.85 153.028 232.55 152.616 232.318 152.128C232.086 151.632 231.97 151.032 231.97 150.328C231.97 149.264 232.242 148.364 232.786 147.628C233.338 146.884 234.082 146.324 235.018 145.948C235.954 145.564 237.002 145.372 238.162 145.372C239.33 145.388 240.374 145.596 241.294 145.996C242.222 146.396 242.99 146.972 243.598 147.724C244.214 148.468 244.638 149.372 244.87 150.436L242.182 150.892C242.062 150.244 241.806 149.688 241.414 149.224C241.022 148.752 240.542 148.392 239.974 148.144C239.406 147.888 238.79 147.756 238.126 147.748C237.486 147.732 236.898 147.828 236.362 148.036C235.834 148.244 235.41 148.536 235.09 148.912C234.778 149.288 234.622 149.72 234.622 150.208C234.622 150.688 234.762 151.076 235.042 151.372C235.322 151.668 235.666 151.904 236.074 152.08C236.49 152.248 236.902 152.388 237.31 152.5L240.502 153.4C240.902 153.512 241.354 153.664 241.858 153.856C242.37 154.04 242.862 154.3 243.334 154.636C243.814 154.972 244.21 155.42 244.522 155.98C244.834 156.532 244.99 157.228 244.99 158.068C244.99 158.94 244.814 159.708 244.462 160.372C244.11 161.028 243.626 161.58 243.01 162.028C242.402 162.468 241.698 162.8 240.898 163.024C240.098 163.248 239.254 163.36 238.366 163.36ZM252.431 163.348C251.535 163.348 250.783 163.204 250.175 162.916C249.567 162.628 249.071 162.252 248.687 161.788C248.311 161.316 248.023 160.804 247.823 160.252C247.623 159.7 247.487 159.16 247.415 158.632C247.343 158.104 247.307 157.64 247.307 157.24V150.04H249.851V156.412C249.851 156.916 249.891 157.436 249.971 157.972C250.059 158.5 250.219 158.992 250.451 159.448C250.691 159.904 251.023 160.272 251.447 160.552C251.879 160.832 252.439 160.972 253.127 160.972C253.575 160.972 253.999 160.9 254.399 160.756C254.799 160.604 255.147 160.364 255.443 160.036C255.747 159.708 255.983 159.276 256.151 158.74C256.327 158.204 256.415 157.552 256.415 156.784L257.975 157.372C257.975 158.548 257.755 159.588 257.315 160.492C256.875 161.388 256.243 162.088 255.419 162.592C254.595 163.096 253.599 163.348 252.431 163.348ZM256.715 163V159.256H256.415V150.04H258.947V163H256.715ZM268.397 163.36C267.157 163.36 266.117 163.06 265.277 162.46C264.437 161.852 263.801 161.032 263.369 160C262.937 158.968 262.721 157.804 262.721 156.508C262.721 155.212 262.933 154.048 263.357 153.016C263.789 151.984 264.421 151.172 265.253 150.58C266.093 149.98 267.125 149.68 268.349 149.68C269.565 149.68 270.613 149.98 271.493 150.58C272.381 151.172 273.065 151.984 273.545 153.016C274.025 154.04 274.265 155.204 274.265 156.508C274.265 157.804 274.025 158.972 273.545 160.012C273.073 161.044 272.397 161.86 271.517 162.46C270.645 163.06 269.605 163.36 268.397 163.36ZM262.301 163V145.72H264.821V153.676H264.533V163H262.301ZM268.049 161.092C268.849 161.092 269.509 160.888 270.029 160.48C270.557 160.072 270.949 159.524 271.205 158.836C271.469 158.14 271.601 157.364 271.601 156.508C271.601 155.66 271.469 154.892 271.205 154.204C270.949 153.516 270.553 152.968 270.017 152.56C269.481 152.152 268.797 151.948 267.965 151.948C267.181 151.948 266.533 152.14 266.021 152.524C265.517 152.908 265.141 153.444 264.893 154.132C264.653 154.82 264.533 155.612 264.533 156.508C264.533 157.404 264.653 158.196 264.893 158.884C265.133 159.572 265.513 160.112 266.033 160.504C266.553 160.896 267.225 161.092 268.049 161.092ZM281.636 163.348C280.06 163.348 278.776 163 277.784 162.304C276.792 161.608 276.184 160.628 275.96 159.364L278.528 158.968C278.688 159.64 279.056 160.172 279.632 160.564C280.216 160.948 280.94 161.14 281.804 161.14C282.588 161.14 283.2 160.98 283.64 160.66C284.088 160.34 284.312 159.9 284.312 159.34C284.312 159.012 284.232 158.748 284.072 158.548C283.92 158.34 283.596 158.144 283.1 157.96C282.604 157.776 281.848 157.548 280.832 157.276C279.72 156.988 278.836 156.68 278.18 156.352C277.532 156.016 277.068 155.628 276.788 155.188C276.516 154.74 276.38 154.2 276.38 153.568C276.38 152.784 276.588 152.1 277.004 151.516C277.42 150.932 278.004 150.48 278.756 150.16C279.516 149.84 280.404 149.68 281.42 149.68C282.412 149.68 283.296 149.836 284.072 150.148C284.848 150.46 285.476 150.904 285.956 151.48C286.436 152.048 286.724 152.716 286.82 153.484L284.252 153.952C284.164 153.328 283.872 152.836 283.376 152.476C282.88 152.116 282.236 151.92 281.444 151.888C280.684 151.856 280.068 151.984 279.596 152.272C279.124 152.552 278.888 152.94 278.888 153.436C278.888 153.724 278.976 153.968 279.152 154.168C279.336 154.368 279.688 154.56 280.208 154.744C280.728 154.928 281.496 155.148 282.512 155.404C283.6 155.684 284.464 155.996 285.104 156.34C285.744 156.676 286.2 157.08 286.472 157.552C286.752 158.016 286.892 158.58 286.892 159.244C286.892 160.524 286.424 161.528 285.488 162.256C284.56 162.984 283.276 163.348 281.636 163.348ZM289.787 147.916V145.48H292.295V147.916H289.787ZM289.787 163V150.04H292.295V163H289.787ZM301.047 163.36C299.839 163.36 298.795 163.06 297.915 162.46C297.043 161.86 296.367 161.044 295.887 160.012C295.415 158.972 295.179 157.804 295.179 156.508C295.179 155.204 295.419 154.04 295.899 153.016C296.379 151.984 297.059 151.172 297.939 150.58C298.827 149.98 299.879 149.68 301.095 149.68C302.319 149.68 303.347 149.98 304.179 150.58C305.019 151.172 305.651 151.984 306.075 153.016C306.507 154.048 306.723 155.212 306.723 156.508C306.723 157.804 306.507 158.968 306.075 160C305.643 161.032 305.007 161.852 304.167 162.46C303.327 163.06 302.287 163.36 301.047 163.36ZM301.395 161.092C302.219 161.092 302.891 160.896 303.411 160.504C303.931 160.112 304.311 159.572 304.551 158.884C304.791 158.196 304.911 157.404 304.911 156.508C304.911 155.612 304.787 154.82 304.539 154.132C304.299 153.444 303.923 152.908 303.411 152.524C302.907 152.14 302.263 151.948 301.479 151.948C300.647 151.948 299.963 152.152 299.427 152.56C298.891 152.968 298.491 153.516 298.227 154.204C297.971 154.892 297.843 155.66 297.843 156.508C297.843 157.364 297.971 158.14 298.227 158.836C298.491 159.524 298.883 160.072 299.403 160.48C299.931 160.888 300.595 161.092 301.395 161.092ZM304.911 163V153.676H304.623V145.72H307.143V163H304.911ZM310.74 147.916V145.48H313.248V147.916H310.74ZM310.74 163V150.04H313.248V163H310.74ZM320.512 163.36C319.552 163.36 318.748 163.184 318.1 162.832C317.452 162.472 316.96 162 316.624 161.416C316.296 160.824 316.132 160.176 316.132 159.472C316.132 158.816 316.248 158.24 316.48 157.744C316.712 157.248 317.056 156.828 317.512 156.484C317.968 156.132 318.528 155.848 319.192 155.632C319.768 155.464 320.42 155.316 321.148 155.188C321.876 155.06 322.64 154.94 323.44 154.828C324.248 154.716 325.048 154.604 325.84 154.492L324.928 154.996C324.944 153.98 324.728 153.228 324.28 152.74C323.84 152.244 323.08 151.996 322 151.996C321.32 151.996 320.696 152.156 320.128 152.476C319.56 152.788 319.164 153.308 318.94 154.036L316.6 153.316C316.92 152.204 317.528 151.32 318.424 150.664C319.328 150.008 320.528 149.68 322.024 149.68C323.184 149.68 324.192 149.88 325.048 150.28C325.912 150.672 326.544 151.296 326.944 152.152C327.152 152.576 327.28 153.024 327.328 153.496C327.376 153.968 327.4 154.476 327.4 155.02V163H325.18V160.036L325.612 160.42C325.076 161.412 324.392 162.152 323.56 162.64C322.736 163.12 321.72 163.36 320.512 163.36ZM320.956 161.308C321.668 161.308 322.28 161.184 322.792 160.936C323.304 160.68 323.716 160.356 324.028 159.964C324.34 159.572 324.544 159.164 324.64 158.74C324.776 158.356 324.852 157.924 324.868 157.444C324.892 156.964 324.904 156.58 324.904 156.292L325.72 156.592C324.928 156.712 324.208 156.82 323.56 156.916C322.912 157.012 322.324 157.108 321.796 157.204C321.276 157.292 320.812 157.4 320.404 157.528C320.06 157.648 319.752 157.792 319.48 157.96C319.216 158.128 319.004 158.332 318.844 158.572C318.692 158.812 318.616 159.104 318.616 159.448C318.616 159.784 318.7 160.096 318.868 160.384C319.036 160.664 319.292 160.888 319.636 161.056C319.98 161.224 320.42 161.308 320.956 161.308ZM330.516 163V150.04H332.748V153.184L332.436 152.776C332.596 152.36 332.804 151.98 333.06 151.636C333.316 151.284 333.612 150.996 333.948 150.772C334.276 150.532 334.64 150.348 335.04 150.22C335.448 150.084 335.864 150.004 336.288 149.98C336.712 149.948 337.12 149.968 337.512 150.04V152.392C337.088 152.28 336.616 152.248 336.096 152.296C335.584 152.344 335.112 152.508 334.68 152.788C334.272 153.052 333.948 153.372 333.708 153.748C333.476 154.124 333.308 154.544 333.204 155.008C333.1 155.464 333.048 155.948 333.048 156.46V163H330.516ZM341.221 168.76L343.729 161.932L343.765 163.948L338.113 150.04H340.729L344.953 160.78H344.185L348.217 150.04H350.761L343.609 168.76H341.221Z" fill="#333333"/>
</g>
<defs>
<filter id="filter0_d_769_8657" x="0" y="0" width="422" height="220" filterUnits="userSpaceOnUse" color-interpolation-filters="sRGB">
<feFlood flood-opacity="0" result="BackgroundImageFix"/>
<feColorMatrix in="SourceAlpha" type="matrix" values="0 0 0 0 0 0 0 0 0 0 0 0 0 0 0 0 0 0 127 0" result="hardAlpha"/>
<feOffset dx="2" dy="2"/>
<feGaussianBlur stdDeviation="15"/>
<feComposite in2="hardAlpha" operator="out"/>
<feColorMatrix type="matrix" values="0 0 0 0 0.11692 0 0 0 0 0.726544 0 0 0 0 0.641997 0 0 0 0.25 0"/>
<feBlend mode="normal" in2="BackgroundImageFix" result="effect1_dropShadow_769_8657"/>
<feBlend mode="normal" in="SourceGraphic" in2="effect1_dropShadow_769_8657" result="shape"/>
</filter>
<linearGradient id="paint0_linear_769_8657" x1="30" y1="43" x2="30" y2="131" gradientUnits="userSpaceOnUse">
<stop stop-color="#45D0BD"/>
<stop offset="1" stop-color="#45C9C9"/>
</linearGradient>
<linearGradient id="paint1_linear_769_8657" x1="37.0601" y1="49.8875" x2="154.562" y2="236.224" gradientUnits="userSpaceOnUse">
<stop stop-color="#45D0BD"/>
<stop offset="1" stop-color="#44B6E9"/>
</linearGradient>
</defs>
</svg>
