<svg width="422" height="220" viewBox="0 0 422 220" fill="none" xmlns="http://www.w3.org/2000/svg">
<g filter="url(#filter0_d_769_8665)">
<path d="M30 59C30 52.3726 35.3726 47 42 47H390V176C390 182.627 384.627 188 378 188H42C35.3726 188 30 182.627 30 176V59Z" fill="white"/>
<path d="M28 47C28 44.7909 29.7909 43 32 43V131C29.7909 131 28 129.209 28 127V47Z" fill="url(#paint0_linear_769_8665)"/>
<path d="M30 40C30 33.3726 35.3726 28 42 28H378C384.627 28 390 33.3726 390 40V47H32C30.8954 47 30 46.1046 30 45V40Z" fill="white"/>
<path d="M30 129C30 127.895 30.8954 127 32 127H390V134C390 140.627 384.627 146 378 146H42C35.3726 146 30 140.627 30 134V129Z" fill="white"/>
<path d="M30 47H322C328.627 47 334 52.3726 334 59V115C334 121.627 328.627 127 322 127H30V47Z" fill="url(#paint1_linear_769_8665)"/>
<path d="M105.96 98V77.84H113.884C115.163 77.84 116.236 78.1013 117.104 78.624C117.972 79.1467 118.625 79.8233 119.064 80.654C119.503 81.4753 119.722 82.3433 119.722 83.258C119.722 84.3687 119.447 85.3207 118.896 86.114C118.355 86.9073 117.622 87.4487 116.698 87.738L116.67 87.052C117.958 87.3693 118.947 87.99 119.638 88.914C120.329 89.8287 120.674 90.8973 120.674 92.12C120.674 93.3053 120.436 94.3367 119.96 95.214C119.493 96.0913 118.807 96.7773 117.902 97.272C117.006 97.7573 115.919 98 114.64 98H105.96ZM108.928 95.214H114.192C114.855 95.214 115.447 95.088 115.97 94.836C116.502 94.584 116.917 94.2247 117.216 93.758C117.524 93.282 117.678 92.7173 117.678 92.064C117.678 91.4573 117.543 90.9113 117.272 90.426C117.011 89.9313 116.628 89.544 116.124 89.264C115.629 88.9747 115.046 88.83 114.374 88.83H108.928V95.214ZM108.928 86.072H113.842C114.383 86.072 114.869 85.9647 115.298 85.75C115.737 85.526 116.082 85.2087 116.334 84.798C116.595 84.378 116.726 83.874 116.726 83.286C116.726 82.502 116.465 81.858 115.942 81.354C115.419 80.85 114.719 80.598 113.842 80.598H108.928V86.072ZM123.74 80.402V77.56H126.666V80.402H123.74ZM123.74 98V82.88H126.666V98H123.74ZM137.436 98.42C135.924 98.42 134.613 98.0793 133.502 97.398C132.391 96.7167 131.533 95.7787 130.926 94.584C130.329 93.38 130.03 91.994 130.03 90.426C130.03 88.8487 130.338 87.4627 130.954 86.268C131.57 85.064 132.433 84.1307 133.544 83.468C134.655 82.796 135.952 82.46 137.436 82.46C138.948 82.46 140.259 82.8007 141.37 83.482C142.481 84.1633 143.339 85.1013 143.946 86.296C144.553 87.4907 144.856 88.8673 144.856 90.426C144.856 92.0033 144.548 93.394 143.932 94.598C143.325 95.7927 142.467 96.7307 141.356 97.412C140.245 98.084 138.939 98.42 137.436 98.42ZM137.436 95.662C138.883 95.662 139.961 95.1767 140.67 94.206C141.389 93.226 141.748 91.966 141.748 90.426C141.748 88.8487 141.384 87.5887 140.656 86.646C139.937 85.694 138.864 85.218 137.436 85.218C136.456 85.218 135.649 85.442 135.014 85.89C134.379 86.3287 133.908 86.94 133.6 87.724C133.292 88.4987 133.138 89.3993 133.138 90.426C133.138 92.0127 133.502 93.282 134.23 94.234C134.958 95.186 136.027 95.662 137.436 95.662ZM153.441 98.406C151.603 98.406 150.105 98 148.947 97.188C147.79 96.376 147.081 95.2327 146.819 93.758L149.815 93.296C150.002 94.08 150.431 94.7007 151.103 95.158C151.785 95.606 152.629 95.83 153.637 95.83C154.552 95.83 155.266 95.6433 155.779 95.27C156.302 94.8967 156.563 94.3833 156.563 93.73C156.563 93.3473 156.47 93.0393 156.283 92.806C156.106 92.5633 155.728 92.3347 155.149 92.12C154.571 91.9053 153.689 91.6393 152.503 91.322C151.206 90.986 150.175 90.6267 149.409 90.244C148.653 89.852 148.112 89.3993 147.785 88.886C147.468 88.3633 147.309 87.7333 147.309 86.996C147.309 86.0813 147.552 85.2833 148.037 84.602C148.523 83.9207 149.204 83.3933 150.081 83.02C150.968 82.6467 152.004 82.46 153.189 82.46C154.347 82.46 155.378 82.642 156.283 83.006C157.189 83.37 157.921 83.888 158.481 84.56C159.041 85.2227 159.377 86.002 159.489 86.898L156.493 87.444C156.391 86.716 156.05 86.142 155.471 85.722C154.893 85.302 154.141 85.0733 153.217 85.036C152.331 84.9987 151.612 85.148 151.061 85.484C150.511 85.8107 150.235 86.2633 150.235 86.842C150.235 87.178 150.338 87.4627 150.543 87.696C150.758 87.9293 151.169 88.1533 151.775 88.368C152.382 88.5827 153.278 88.8393 154.463 89.138C155.733 89.4647 156.741 89.8287 157.487 90.23C158.234 90.622 158.766 91.0933 159.083 91.644C159.41 92.1853 159.573 92.8433 159.573 93.618C159.573 95.1113 159.027 96.2827 157.935 97.132C156.853 97.9813 155.355 98.406 153.441 98.406ZM173.283 98V90.566C173.283 89.978 173.232 89.376 173.129 88.76C173.036 88.1347 172.849 87.556 172.569 87.024C172.298 86.492 171.911 86.0627 171.407 85.736C170.912 85.4093 170.264 85.246 169.461 85.246C168.938 85.246 168.444 85.3347 167.977 85.512C167.51 85.68 167.1 85.9553 166.745 86.338C166.4 86.7207 166.124 87.2247 165.919 87.85C165.723 88.4753 165.625 89.236 165.625 90.132L163.805 89.446C163.805 88.074 164.062 86.8653 164.575 85.82C165.088 84.7653 165.826 83.944 166.787 83.356C167.748 82.768 168.91 82.474 170.273 82.474C171.318 82.474 172.196 82.642 172.905 82.978C173.614 83.314 174.188 83.7573 174.627 84.308C175.075 84.8493 175.416 85.442 175.649 86.086C175.882 86.73 176.041 87.36 176.125 87.976C176.209 88.592 176.251 89.1333 176.251 89.6V98H173.283ZM162.657 98V77.84H165.275V88.718H165.625V98H162.657ZM186.604 98.42C185.101 98.42 183.78 98.0933 182.642 97.44C181.512 96.7773 180.63 95.858 179.995 94.682C179.37 93.4967 179.058 92.1247 179.058 90.566C179.058 88.914 179.366 87.4813 179.982 86.268C180.607 85.0547 181.475 84.1167 182.586 83.454C183.696 82.7913 184.989 82.46 186.464 82.46C188.004 82.46 189.315 82.8193 190.398 83.538C191.48 84.2473 192.288 85.26 192.82 86.576C193.361 87.892 193.576 89.4553 193.464 91.266H190.538V90.202C190.519 88.4473 190.183 87.15 189.53 86.31C188.886 85.47 187.901 85.05 186.576 85.05C185.11 85.05 184.009 85.512 183.272 86.436C182.534 87.36 182.166 88.6947 182.166 90.44C182.166 92.1013 182.534 93.3893 183.272 94.304C184.009 95.2093 185.073 95.662 186.464 95.662C187.378 95.662 188.167 95.4567 188.83 95.046C189.502 94.626 190.024 94.0287 190.398 93.254L193.268 94.164C192.68 95.5173 191.788 96.5673 190.594 97.314C189.399 98.0513 188.069 98.42 186.604 98.42ZM181.214 91.266V88.984H192.007V91.266H181.214ZM206.806 98V90.566C206.806 89.978 206.755 89.376 206.652 88.76C206.559 88.1347 206.372 87.556 206.092 87.024C205.822 86.492 205.434 86.0627 204.93 85.736C204.436 85.4093 203.787 85.246 202.984 85.246C202.462 85.246 201.967 85.3347 201.5 85.512C201.034 85.68 200.623 85.9553 200.268 86.338C199.923 86.7207 199.648 87.2247 199.442 87.85C199.246 88.4753 199.148 89.236 199.148 90.132L197.328 89.446C197.328 88.074 197.585 86.8653 198.098 85.82C198.612 84.7653 199.349 83.944 200.31 83.356C201.272 82.768 202.434 82.474 203.796 82.474C204.842 82.474 205.719 82.642 206.428 82.978C207.138 83.314 207.712 83.7573 208.15 84.308C208.598 84.8493 208.939 85.442 209.172 86.086C209.406 86.73 209.564 87.36 209.648 87.976C209.732 88.592 209.774 89.1333 209.774 89.6V98H206.806ZM196.18 98V82.88H198.798V87.248H199.148V98H196.18ZM219.651 105.14C218.839 105.14 218.05 105.014 217.285 104.762C216.529 104.51 215.838 104.137 215.213 103.642C214.588 103.157 214.07 102.555 213.659 101.836L216.361 100.464C216.688 101.108 217.154 101.579 217.761 101.878C218.368 102.177 219.007 102.326 219.679 102.326C220.51 102.326 221.219 102.177 221.807 101.878C222.395 101.589 222.838 101.15 223.137 100.562C223.445 99.974 223.594 99.246 223.585 98.378V94.15H223.935V82.88H226.525V98.406C226.525 98.8073 226.511 99.19 226.483 99.554C226.455 99.918 226.404 100.282 226.329 100.646C226.114 101.663 225.704 102.503 225.097 103.166C224.5 103.829 223.734 104.323 222.801 104.65C221.877 104.977 220.827 105.14 219.651 105.14ZM219.427 98.42C218.018 98.42 216.8 98.07 215.773 97.37C214.756 96.67 213.967 95.718 213.407 94.514C212.856 93.3007 212.581 91.938 212.581 90.426C212.581 88.9047 212.861 87.5467 213.421 86.352C213.981 85.148 214.774 84.2007 215.801 83.51C216.837 82.81 218.064 82.46 219.483 82.46C220.911 82.46 222.11 82.81 223.081 83.51C224.061 84.2007 224.798 85.148 225.293 86.352C225.797 87.556 226.049 88.914 226.049 90.426C226.049 91.938 225.797 93.296 225.293 94.5C224.789 95.704 224.047 96.6607 223.067 97.37C222.087 98.07 220.874 98.42 219.427 98.42ZM219.833 95.774C220.794 95.774 221.578 95.5453 222.185 95.088C222.792 94.6307 223.235 94.0007 223.515 93.198C223.795 92.3953 223.935 91.4713 223.935 90.426C223.935 89.3807 223.79 88.4567 223.501 87.654C223.221 86.8513 222.782 86.226 222.185 85.778C221.597 85.33 220.846 85.106 219.931 85.106C218.96 85.106 218.162 85.344 217.537 85.82C216.912 86.296 216.445 86.9353 216.137 87.738C215.838 88.5407 215.689 89.4367 215.689 90.426C215.689 91.4247 215.838 92.33 216.137 93.142C216.445 93.9447 216.902 94.584 217.509 95.06C218.125 95.536 218.9 95.774 219.833 95.774ZM234.662 98L241.214 77.84H245.428L251.98 98H248.942L242.908 79.604H243.664L237.7 98H234.662ZM238.064 93.45V90.706H248.592V93.45H238.064ZM254.771 98V77.84H257.697V98H254.771Z" fill="white"/>
<path d="M121.892 163.36C120.164 163.36 118.692 162.984 117.476 162.232C116.26 161.472 115.328 160.416 114.68 159.064C114.04 157.712 113.72 156.144 113.72 154.36C113.72 152.576 114.04 151.008 114.68 149.656C115.328 148.304 116.26 147.252 117.476 146.5C118.692 145.74 120.164 145.36 121.892 145.36C123.884 145.36 125.532 145.864 126.836 146.872C128.148 147.88 129.06 149.236 129.572 150.94L127.028 151.624C126.692 150.416 126.092 149.468 125.228 148.78C124.372 148.092 123.26 147.748 121.892 147.748C120.668 147.748 119.648 148.024 118.832 148.576C118.016 149.128 117.4 149.9 116.984 150.892C116.576 151.884 116.372 153.04 116.372 154.36C116.364 155.68 116.564 156.836 116.972 157.828C117.388 158.82 118.004 159.592 118.82 160.144C119.644 160.696 120.668 160.972 121.892 160.972C123.26 160.972 124.372 160.628 125.228 159.94C126.092 159.244 126.692 158.296 127.028 157.096L129.572 157.78C129.06 159.484 128.148 160.84 126.836 161.848C125.532 162.856 123.884 163.36 121.892 163.36ZM141.307 163V156.628C141.307 156.124 141.263 155.608 141.175 155.08C141.095 154.544 140.935 154.048 140.695 153.592C140.463 153.136 140.131 152.768 139.699 152.488C139.275 152.208 138.719 152.068 138.031 152.068C137.583 152.068 137.159 152.144 136.759 152.296C136.359 152.44 136.007 152.676 135.703 153.004C135.407 153.332 135.171 153.764 134.995 154.3C134.827 154.836 134.743 155.488 134.743 156.256L133.183 155.668C133.183 154.492 133.403 153.456 133.843 152.56C134.283 151.656 134.915 150.952 135.739 150.448C136.563 149.944 137.559 149.692 138.727 149.692C139.623 149.692 140.375 149.836 140.983 150.124C141.591 150.412 142.083 150.792 142.459 151.264C142.843 151.728 143.135 152.236 143.335 152.788C143.535 153.34 143.671 153.88 143.743 154.408C143.815 154.936 143.851 155.4 143.851 155.8V163H141.307ZM132.199 163V145.72H134.443V155.044H134.743V163H132.199ZM147.217 147.916V145.48H149.725V147.916H147.217ZM147.217 163V150.04H149.725V163H147.217ZM162.424 163V156.628C162.424 156.124 162.38 155.608 162.292 155.08C162.212 154.544 162.052 154.048 161.812 153.592C161.58 153.136 161.248 152.768 160.816 152.488C160.392 152.208 159.836 152.068 159.148 152.068C158.7 152.068 158.276 152.144 157.876 152.296C157.476 152.44 157.124 152.676 156.82 153.004C156.524 153.332 156.288 153.764 156.112 154.3C155.944 154.836 155.86 155.488 155.86 156.256L154.3 155.668C154.3 154.492 154.52 153.456 154.96 152.56C155.4 151.656 156.032 150.952 156.856 150.448C157.68 149.944 158.676 149.692 159.844 149.692C160.74 149.692 161.492 149.836 162.1 150.124C162.708 150.412 163.2 150.792 163.576 151.264C163.96 151.728 164.252 152.236 164.452 152.788C164.652 153.34 164.788 153.88 164.86 154.408C164.932 154.936 164.968 155.4 164.968 155.8V163H162.424ZM153.316 163V150.04H155.56V153.784H155.86V163H153.316ZM171.754 163.36C170.794 163.36 169.99 163.184 169.342 162.832C168.694 162.472 168.202 162 167.866 161.416C167.538 160.824 167.374 160.176 167.374 159.472C167.374 158.816 167.49 158.24 167.722 157.744C167.954 157.248 168.298 156.828 168.754 156.484C169.21 156.132 169.77 155.848 170.434 155.632C171.01 155.464 171.662 155.316 172.39 155.188C173.118 155.06 173.882 154.94 174.682 154.828C175.49 154.716 176.29 154.604 177.082 154.492L176.17 154.996C176.186 153.98 175.97 153.228 175.522 152.74C175.082 152.244 174.322 151.996 173.242 151.996C172.562 151.996 171.938 152.156 171.37 152.476C170.802 152.788 170.406 153.308 170.182 154.036L167.842 153.316C168.162 152.204 168.77 151.32 169.666 150.664C170.57 150.008 171.77 149.68 173.266 149.68C174.426 149.68 175.434 149.88 176.29 150.28C177.154 150.672 177.786 151.296 178.186 152.152C178.394 152.576 178.522 153.024 178.57 153.496C178.618 153.968 178.642 154.476 178.642 155.02V163H176.422V160.036L176.854 160.42C176.318 161.412 175.634 162.152 174.802 162.64C173.978 163.12 172.962 163.36 171.754 163.36ZM172.198 161.308C172.91 161.308 173.522 161.184 174.034 160.936C174.546 160.68 174.958 160.356 175.27 159.964C175.582 159.572 175.786 159.164 175.882 158.74C176.018 158.356 176.094 157.924 176.11 157.444C176.134 156.964 176.146 156.58 176.146 156.292L176.962 156.592C176.17 156.712 175.45 156.82 174.802 156.916C174.154 157.012 173.566 157.108 173.038 157.204C172.518 157.292 172.054 157.4 171.646 157.528C171.302 157.648 170.994 157.792 170.722 157.96C170.458 158.128 170.246 158.332 170.086 158.572C169.934 158.812 169.858 159.104 169.858 159.448C169.858 159.784 169.942 160.096 170.11 160.384C170.278 160.664 170.534 160.888 170.878 161.056C171.222 161.224 171.662 161.308 172.198 161.308ZM192.827 163.36C191.587 163.36 190.467 163.148 189.467 162.724C188.475 162.292 187.655 161.68 187.007 160.888C186.367 160.088 185.951 159.14 185.759 158.044L188.375 157.648C188.639 158.704 189.191 159.528 190.031 160.12C190.871 160.704 191.851 160.996 192.971 160.996C193.667 160.996 194.307 160.888 194.891 160.672C195.475 160.448 195.943 160.132 196.295 159.724C196.655 159.308 196.835 158.812 196.835 158.236C196.835 157.924 196.779 157.648 196.667 157.408C196.563 157.168 196.415 156.96 196.223 156.784C196.039 156.6 195.811 156.444 195.539 156.316C195.275 156.18 194.983 156.064 194.663 155.968L190.235 154.66C189.803 154.532 189.363 154.368 188.915 154.168C188.467 153.96 188.055 153.692 187.679 153.364C187.311 153.028 187.011 152.616 186.779 152.128C186.547 151.632 186.431 151.032 186.431 150.328C186.431 149.264 186.703 148.364 187.247 147.628C187.799 146.884 188.543 146.324 189.479 145.948C190.415 145.564 191.463 145.372 192.623 145.372C193.791 145.388 194.835 145.596 195.755 145.996C196.683 146.396 197.451 146.972 198.059 147.724C198.675 148.468 199.099 149.372 199.331 150.436L196.643 150.892C196.523 150.244 196.267 149.688 195.875 149.224C195.483 148.752 195.003 148.392 194.435 148.144C193.867 147.888 193.251 147.756 192.587 147.748C191.947 147.732 191.359 147.828 190.823 148.036C190.295 148.244 189.871 148.536 189.551 148.912C189.239 149.288 189.083 149.72 189.083 150.208C189.083 150.688 189.223 151.076 189.503 151.372C189.783 151.668 190.127 151.904 190.535 152.08C190.951 152.248 191.363 152.388 191.771 152.5L194.963 153.4C195.363 153.512 195.815 153.664 196.319 153.856C196.831 154.04 197.323 154.3 197.795 154.636C198.275 154.972 198.671 155.42 198.983 155.98C199.295 156.532 199.451 157.228 199.451 158.068C199.451 158.94 199.275 159.708 198.923 160.372C198.571 161.028 198.087 161.58 197.471 162.028C196.863 162.468 196.159 162.8 195.359 163.024C194.559 163.248 193.715 163.36 192.827 163.36ZM206.892 163.348C205.996 163.348 205.244 163.204 204.636 162.916C204.028 162.628 203.532 162.252 203.148 161.788C202.772 161.316 202.484 160.804 202.284 160.252C202.084 159.7 201.948 159.16 201.876 158.632C201.804 158.104 201.768 157.64 201.768 157.24V150.04H204.312V156.412C204.312 156.916 204.352 157.436 204.432 157.972C204.52 158.5 204.68 158.992 204.912 159.448C205.152 159.904 205.484 160.272 205.908 160.552C206.34 160.832 206.9 160.972 207.588 160.972C208.036 160.972 208.46 160.9 208.86 160.756C209.26 160.604 209.608 160.364 209.904 160.036C210.208 159.708 210.444 159.276 210.612 158.74C210.788 158.204 210.876 157.552 210.876 156.784L212.436 157.372C212.436 158.548 212.216 159.588 211.776 160.492C211.336 161.388 210.704 162.088 209.88 162.592C209.056 163.096 208.06 163.348 206.892 163.348ZM211.176 163V159.256H210.876V150.04H213.408V163H211.176ZM222.858 163.36C221.618 163.36 220.578 163.06 219.738 162.46C218.898 161.852 218.262 161.032 217.83 160C217.398 158.968 217.182 157.804 217.182 156.508C217.182 155.212 217.394 154.048 217.818 153.016C218.25 151.984 218.882 151.172 219.714 150.58C220.554 149.98 221.586 149.68 222.81 149.68C224.026 149.68 225.074 149.98 225.954 150.58C226.842 151.172 227.526 151.984 228.006 153.016C228.486 154.04 228.726 155.204 228.726 156.508C228.726 157.804 228.486 158.972 228.006 160.012C227.534 161.044 226.858 161.86 225.978 162.46C225.106 163.06 224.066 163.36 222.858 163.36ZM216.762 163V145.72H219.282V153.676H218.994V163H216.762ZM222.51 161.092C223.31 161.092 223.97 160.888 224.49 160.48C225.018 160.072 225.41 159.524 225.666 158.836C225.93 158.14 226.062 157.364 226.062 156.508C226.062 155.66 225.93 154.892 225.666 154.204C225.41 153.516 225.014 152.968 224.478 152.56C223.942 152.152 223.258 151.948 222.426 151.948C221.642 151.948 220.994 152.14 220.482 152.524C219.978 152.908 219.602 153.444 219.354 154.132C219.114 154.82 218.994 155.612 218.994 156.508C218.994 157.404 219.114 158.196 219.354 158.884C219.594 159.572 219.974 160.112 220.494 160.504C221.014 160.896 221.686 161.092 222.51 161.092ZM236.097 163.348C234.521 163.348 233.237 163 232.245 162.304C231.253 161.608 230.645 160.628 230.421 159.364L232.989 158.968C233.149 159.64 233.517 160.172 234.093 160.564C234.677 160.948 235.401 161.14 236.265 161.14C237.049 161.14 237.661 160.98 238.101 160.66C238.549 160.34 238.773 159.9 238.773 159.34C238.773 159.012 238.693 158.748 238.533 158.548C238.381 158.34 238.057 158.144 237.561 157.96C237.065 157.776 236.309 157.548 235.293 157.276C234.181 156.988 233.297 156.68 232.641 156.352C231.993 156.016 231.529 155.628 231.249 155.188C230.977 154.74 230.841 154.2 230.841 153.568C230.841 152.784 231.049 152.1 231.465 151.516C231.881 150.932 232.465 150.48 233.217 150.16C233.977 149.84 234.865 149.68 235.881 149.68C236.873 149.68 237.757 149.836 238.533 150.148C239.309 150.46 239.937 150.904 240.417 151.48C240.897 152.048 241.185 152.716 241.281 153.484L238.713 153.952C238.625 153.328 238.333 152.836 237.837 152.476C237.341 152.116 236.697 151.92 235.905 151.888C235.145 151.856 234.529 151.984 234.057 152.272C233.585 152.552 233.349 152.94 233.349 153.436C233.349 153.724 233.437 153.968 233.613 154.168C233.797 154.368 234.149 154.56 234.669 154.744C235.189 154.928 235.957 155.148 236.973 155.404C238.061 155.684 238.925 155.996 239.565 156.34C240.205 156.676 240.661 157.08 240.933 157.552C241.213 158.016 241.353 158.58 241.353 159.244C241.353 160.524 240.885 161.528 239.949 162.256C239.021 162.984 237.737 163.348 236.097 163.348ZM244.248 147.916V145.48H246.756V147.916H244.248ZM244.248 163V150.04H246.756V163H244.248ZM255.508 163.36C254.3 163.36 253.256 163.06 252.376 162.46C251.504 161.86 250.828 161.044 250.348 160.012C249.876 158.972 249.64 157.804 249.64 156.508C249.64 155.204 249.88 154.04 250.36 153.016C250.84 151.984 251.52 151.172 252.4 150.58C253.288 149.98 254.34 149.68 255.556 149.68C256.78 149.68 257.808 149.98 258.64 150.58C259.48 151.172 260.112 151.984 260.536 153.016C260.968 154.048 261.184 155.212 261.184 156.508C261.184 157.804 260.968 158.968 260.536 160C260.104 161.032 259.468 161.852 258.628 162.46C257.788 163.06 256.748 163.36 255.508 163.36ZM255.856 161.092C256.68 161.092 257.352 160.896 257.872 160.504C258.392 160.112 258.772 159.572 259.012 158.884C259.252 158.196 259.372 157.404 259.372 156.508C259.372 155.612 259.248 154.82 259 154.132C258.76 153.444 258.384 152.908 257.872 152.524C257.368 152.14 256.724 151.948 255.94 151.948C255.108 151.948 254.424 152.152 253.888 152.56C253.352 152.968 252.952 153.516 252.688 154.204C252.432 154.892 252.304 155.66 252.304 156.508C252.304 157.364 252.432 158.14 252.688 158.836C252.952 159.524 253.344 160.072 253.864 160.48C254.392 160.888 255.056 161.092 255.856 161.092ZM259.372 163V153.676H259.084V145.72H261.604V163H259.372ZM265.201 147.916V145.48H267.709V147.916H265.201ZM265.201 163V150.04H267.709V163H265.201ZM274.973 163.36C274.013 163.36 273.209 163.184 272.561 162.832C271.913 162.472 271.421 162 271.085 161.416C270.757 160.824 270.593 160.176 270.593 159.472C270.593 158.816 270.709 158.24 270.941 157.744C271.173 157.248 271.517 156.828 271.973 156.484C272.429 156.132 272.989 155.848 273.653 155.632C274.229 155.464 274.881 155.316 275.609 155.188C276.337 155.06 277.101 154.94 277.901 154.828C278.709 154.716 279.509 154.604 280.301 154.492L279.389 154.996C279.405 153.98 279.189 153.228 278.741 152.74C278.301 152.244 277.541 151.996 276.461 151.996C275.781 151.996 275.157 152.156 274.589 152.476C274.021 152.788 273.625 153.308 273.401 154.036L271.061 153.316C271.381 152.204 271.989 151.32 272.885 150.664C273.789 150.008 274.989 149.68 276.485 149.68C277.645 149.68 278.653 149.88 279.509 150.28C280.373 150.672 281.005 151.296 281.405 152.152C281.613 152.576 281.741 153.024 281.789 153.496C281.837 153.968 281.861 154.476 281.861 155.02V163H279.641V160.036L280.073 160.42C279.537 161.412 278.853 162.152 278.021 162.64C277.197 163.12 276.181 163.36 274.973 163.36ZM275.417 161.308C276.129 161.308 276.741 161.184 277.253 160.936C277.765 160.68 278.177 160.356 278.489 159.964C278.801 159.572 279.005 159.164 279.101 158.74C279.237 158.356 279.313 157.924 279.329 157.444C279.353 156.964 279.365 156.58 279.365 156.292L280.181 156.592C279.389 156.712 278.669 156.82 278.021 156.916C277.373 157.012 276.785 157.108 276.257 157.204C275.737 157.292 275.273 157.4 274.865 157.528C274.521 157.648 274.213 157.792 273.941 157.96C273.677 158.128 273.465 158.332 273.305 158.572C273.153 158.812 273.077 159.104 273.077 159.448C273.077 159.784 273.161 160.096 273.329 160.384C273.497 160.664 273.753 160.888 274.097 161.056C274.441 161.224 274.881 161.308 275.417 161.308ZM284.977 163V150.04H287.209V153.184L286.897 152.776C287.057 152.36 287.265 151.98 287.521 151.636C287.777 151.284 288.073 150.996 288.409 150.772C288.737 150.532 289.101 150.348 289.501 150.22C289.909 150.084 290.325 150.004 290.749 149.98C291.173 149.948 291.581 149.968 291.973 150.04V152.392C291.549 152.28 291.077 152.248 290.557 152.296C290.045 152.344 289.573 152.508 289.141 152.788C288.733 153.052 288.409 153.372 288.169 153.748C287.937 154.124 287.769 154.544 287.665 155.008C287.561 155.464 287.509 155.948 287.509 156.46V163H284.977ZM295.682 168.76L298.19 161.932L298.226 163.948L292.574 150.04H295.19L299.414 160.78H298.646L302.678 150.04H305.222L298.07 168.76H295.682Z" fill="#333333"/>
</g>
<defs>
<filter id="filter0_d_769_8665" x="0" y="0" width="422" height="220" filterUnits="userSpaceOnUse" color-interpolation-filters="sRGB">
<feFlood flood-opacity="0" result="BackgroundImageFix"/>
<feColorMatrix in="SourceAlpha" type="matrix" values="0 0 0 0 0 0 0 0 0 0 0 0 0 0 0 0 0 0 127 0" result="hardAlpha"/>
<feOffset dx="2" dy="2"/>
<feGaussianBlur stdDeviation="15"/>
<feComposite in2="hardAlpha" operator="out"/>
<feColorMatrix type="matrix" values="0 0 0 0 0.11692 0 0 0 0 0.726544 0 0 0 0 0.641997 0 0 0 0.25 0"/>
<feBlend mode="normal" in2="BackgroundImageFix" result="effect1_dropShadow_769_8665"/>
<feBlend mode="normal" in="SourceGraphic" in2="effect1_dropShadow_769_8665" result="shape"/>
</filter>
<linearGradient id="paint0_linear_769_8665" x1="30" y1="43" x2="30" y2="131" gradientUnits="userSpaceOnUse">
<stop stop-color="#45D0BD"/>
<stop offset="1" stop-color="#45C9C9"/>
</linearGradient>
<linearGradient id="paint1_linear_769_8665" x1="37.0601" y1="49.8875" x2="154.562" y2="236.224" gradientUnits="userSpaceOnUse">
<stop stop-color="#45D0BD"/>
<stop offset="1" stop-color="#44B6E9"/>
</linearGradient>
</defs>
</svg>
