<svg width="422" height="220" viewBox="0 0 422 220" fill="none" xmlns="http://www.w3.org/2000/svg">
<g filter="url(#filter0_d_769_8649)">
<path d="M30 59C30 52.3726 35.3726 47 42 47H390V176C390 182.627 384.627 188 378 188H42C35.3726 188 30 182.627 30 176V59Z" fill="white"/>
<path d="M28 47C28 44.7909 29.7909 43 32 43V131C29.7909 131 28 129.209 28 127V47Z" fill="url(#paint0_linear_769_8649)"/>
<path d="M30 40C30 33.3726 35.3726 28 42 28H378C384.627 28 390 33.3726 390 40V47H32C30.8954 47 30 46.1046 30 45V40Z" fill="white"/>
<path d="M30 129C30 127.895 30.8954 127 32 127H390V134C390 140.627 384.627 146 378 146H42C35.3726 146 30 140.627 30 134V129Z" fill="white"/>
<path d="M30 47H322C328.627 47 334 52.3726 334 59V115C334 121.627 328.627 127 322 127H30V47Z" fill="url(#paint1_linear_769_8649)"/>
<path d="M49.96 98V77.84H57.884C59.1627 77.84 60.236 78.1013 61.104 78.624C61.972 79.1467 62.6253 79.8233 63.064 80.654C63.5027 81.4753 63.722 82.3433 63.722 83.258C63.722 84.3687 63.4467 85.3207 62.896 86.114C62.3547 86.9073 61.622 87.4487 60.698 87.738L60.67 87.052C61.958 87.3693 62.9473 87.99 63.638 88.914C64.3287 89.8287 64.674 90.8973 64.674 92.12C64.674 93.3053 64.436 94.3367 63.96 95.214C63.4933 96.0913 62.8073 96.7773 61.902 97.272C61.006 97.7573 59.9187 98 58.64 98H49.96ZM52.928 95.214H58.192C58.8547 95.214 59.4473 95.088 59.97 94.836C60.502 94.584 60.9173 94.2247 61.216 93.758C61.524 93.282 61.678 92.7173 61.678 92.064C61.678 91.4573 61.5427 90.9113 61.272 90.426C61.0107 89.9313 60.628 89.544 60.124 89.264C59.6293 88.9747 59.046 88.83 58.374 88.83H52.928V95.214ZM52.928 86.072H57.842C58.3833 86.072 58.8687 85.9647 59.298 85.75C59.7367 85.526 60.082 85.2087 60.334 84.798C60.5953 84.378 60.726 83.874 60.726 83.286C60.726 82.502 60.4647 81.858 59.942 81.354C59.4193 80.85 58.7193 80.598 57.842 80.598H52.928V86.072ZM67.74 80.402V77.56H70.666V80.402H67.74ZM67.74 98V82.88H70.666V98H67.74ZM81.4362 98.42C79.9242 98.42 78.6128 98.0793 77.5022 97.398C76.3915 96.7167 75.5328 95.7787 74.9262 94.584C74.3288 93.38 74.0302 91.994 74.0302 90.426C74.0302 88.8487 74.3382 87.4627 74.9542 86.268C75.5702 85.064 76.4335 84.1307 77.5442 83.468C78.6548 82.796 79.9522 82.46 81.4362 82.46C82.9482 82.46 84.2595 82.8007 85.3702 83.482C86.4808 84.1633 87.3395 85.1013 87.9462 86.296C88.5528 87.4907 88.8562 88.8673 88.8562 90.426C88.8562 92.0033 88.5482 93.394 87.9322 94.598C87.3255 95.7927 86.4668 96.7307 85.3562 97.412C84.2455 98.084 82.9388 98.42 81.4362 98.42ZM81.4362 95.662C82.8828 95.662 83.9608 95.1767 84.6702 94.206C85.3888 93.226 85.7482 91.966 85.7482 90.426C85.7482 88.8487 85.3842 87.5887 84.6562 86.646C83.9375 85.694 82.8642 85.218 81.4362 85.218C80.4562 85.218 79.6488 85.442 79.0142 85.89C78.3795 86.3287 77.9082 86.94 77.6002 87.724C77.2922 88.4987 77.1382 89.3993 77.1382 90.426C77.1382 92.0127 77.5022 93.282 78.2302 94.234C78.9582 95.186 80.0268 95.662 81.4362 95.662ZM97.4412 98.406C95.6026 98.406 94.1046 98 92.9472 97.188C91.7899 96.376 91.0806 95.2327 90.8192 93.758L93.8152 93.296C94.0019 94.08 94.4312 94.7007 95.1032 95.158C95.7846 95.606 96.6292 95.83 97.6372 95.83C98.5519 95.83 99.2659 95.6433 99.7792 95.27C100.302 94.8967 100.563 94.3833 100.563 93.73C100.563 93.3473 100.47 93.0393 100.283 92.806C100.106 92.5633 99.7279 92.3347 99.1492 92.12C98.5706 91.9053 97.6886 91.6393 96.5032 91.322C95.2059 90.986 94.1746 90.6267 93.4092 90.244C92.6532 89.852 92.1119 89.3993 91.7852 88.886C91.4679 88.3633 91.3092 87.7333 91.3092 86.996C91.3092 86.0813 91.5519 85.2833 92.0372 84.602C92.5226 83.9207 93.2039 83.3933 94.0812 83.02C94.9679 82.6467 96.0039 82.46 97.1892 82.46C98.3466 82.46 99.3779 82.642 100.283 83.006C101.189 83.37 101.921 83.888 102.481 84.56C103.041 85.2227 103.377 86.002 103.489 86.898L100.493 87.444C100.391 86.716 100.05 86.142 99.4712 85.722C98.8926 85.302 98.1412 85.0733 97.2172 85.036C96.3306 84.9987 95.6119 85.148 95.0612 85.484C94.5106 85.8107 94.2352 86.2633 94.2352 86.842C94.2352 87.178 94.3379 87.4627 94.5432 87.696C94.7579 87.9293 95.1686 88.1533 95.7752 88.368C96.3819 88.5827 97.2779 88.8393 98.4632 89.138C99.7326 89.4647 100.741 89.8287 101.487 90.23C102.234 90.622 102.766 91.0933 103.083 91.644C103.41 92.1853 103.573 92.8433 103.573 93.618C103.573 95.1113 103.027 96.2827 101.935 97.132C100.853 97.9813 99.3546 98.406 97.4412 98.406ZM115.323 98C114.371 98.1867 113.438 98.266 112.523 98.238C111.608 98.21 110.792 98.0327 110.073 97.706C109.354 97.3793 108.813 96.866 108.449 96.166C108.122 95.5407 107.945 94.906 107.917 94.262C107.898 93.6087 107.889 92.8713 107.889 92.05V78.68H110.829V91.91C110.829 92.5167 110.834 93.044 110.843 93.492C110.862 93.94 110.96 94.318 111.137 94.626C111.473 95.2047 112.005 95.536 112.733 95.62C113.47 95.6947 114.334 95.662 115.323 95.522V98ZM104.991 85.232V82.88H115.323V85.232H104.991ZM122.781 98.42C121.661 98.42 120.723 98.2147 119.967 97.804C119.211 97.384 118.637 96.8333 118.245 96.152C117.862 95.4613 117.671 94.7053 117.671 93.884C117.671 93.1187 117.806 92.4467 118.077 91.868C118.347 91.2893 118.749 90.7993 119.281 90.398C119.813 89.9873 120.466 89.656 121.241 89.404C121.913 89.208 122.673 89.0353 123.523 88.886C124.372 88.7367 125.263 88.5967 126.197 88.466C127.139 88.3353 128.073 88.2047 128.997 88.074L127.933 88.662C127.951 87.4767 127.699 86.5993 127.177 86.03C126.663 85.4513 125.777 85.162 124.517 85.162C123.723 85.162 122.995 85.3487 122.333 85.722C121.67 86.086 121.208 86.6927 120.947 87.542L118.217 86.702C118.59 85.4047 119.299 84.3733 120.345 83.608C121.399 82.8427 122.799 82.46 124.545 82.46C125.898 82.46 127.074 82.6933 128.073 83.16C129.081 83.6173 129.818 84.3453 130.285 85.344C130.527 85.8387 130.677 86.3613 130.733 86.912C130.789 87.4627 130.817 88.0553 130.817 88.69V98H128.227V94.542L128.731 94.99C128.105 96.1473 127.307 97.0107 126.337 97.58C125.375 98.14 124.19 98.42 122.781 98.42ZM123.299 96.026C124.129 96.026 124.843 95.8813 125.441 95.592C126.038 95.2933 126.519 94.9153 126.883 94.458C127.247 94.0007 127.485 93.5247 127.597 93.03C127.755 92.582 127.844 92.078 127.863 91.518C127.891 90.958 127.905 90.51 127.905 90.174L128.857 90.524C127.933 90.664 127.093 90.79 126.337 90.902C125.581 91.014 124.895 91.126 124.279 91.238C123.672 91.3407 123.131 91.4667 122.655 91.616C122.253 91.756 121.894 91.924 121.577 92.12C121.269 92.316 121.021 92.554 120.835 92.834C120.657 93.114 120.569 93.4547 120.569 93.856C120.569 94.248 120.667 94.612 120.863 94.948C121.059 95.2747 121.357 95.536 121.759 95.732C122.16 95.928 122.673 96.026 123.299 96.026ZM143.104 98C142.152 98.1867 141.219 98.266 140.304 98.238C139.39 98.21 138.573 98.0327 137.854 97.706C137.136 97.3793 136.594 96.866 136.23 96.166C135.904 95.5407 135.726 94.906 135.698 94.262C135.68 93.6087 135.67 92.8713 135.67 92.05V78.68H138.61V91.91C138.61 92.5167 138.615 93.044 138.624 93.492C138.643 93.94 138.741 94.318 138.918 94.626C139.254 95.2047 139.786 95.536 140.514 95.62C141.252 95.6947 142.115 95.662 143.104 95.522V98ZM132.772 85.232V82.88H143.104V85.232H132.772ZM152.314 98.42C150.812 98.42 149.491 98.0933 148.352 97.44C147.223 96.7773 146.341 95.858 145.706 94.682C145.081 93.4967 144.768 92.1247 144.768 90.566C144.768 88.914 145.076 87.4813 145.692 86.268C146.318 85.0547 147.186 84.1167 148.296 83.454C149.407 82.7913 150.7 82.46 152.174 82.46C153.714 82.46 155.026 82.8193 156.108 83.538C157.191 84.2473 157.998 85.26 158.53 86.576C159.072 87.892 159.286 89.4553 159.174 91.266H156.248V90.202C156.23 88.4473 155.894 87.15 155.24 86.31C154.596 85.47 153.612 85.05 152.286 85.05C150.821 85.05 149.72 85.512 148.982 86.436C148.245 87.36 147.876 88.6947 147.876 90.44C147.876 92.1013 148.245 93.3893 148.982 94.304C149.72 95.2093 150.784 95.662 152.174 95.662C153.089 95.662 153.878 95.4567 154.54 95.046C155.212 94.626 155.735 94.0287 156.108 93.254L158.978 94.164C158.39 95.5173 157.499 96.5673 156.304 97.314C155.11 98.0513 153.78 98.42 152.314 98.42ZM146.924 91.266V88.984H157.718V91.266H146.924ZM166.521 98L173.073 77.84H177.287L183.839 98H180.801L174.767 79.604H175.523L169.559 98H166.521ZM169.923 93.45V90.706H180.451V93.45H169.923ZM186.631 98V77.84H189.557V98H186.631ZM206.492 103.222C205.41 101.962 204.476 100.539 203.692 98.952C202.908 97.3747 202.311 95.718 201.9 93.982C201.49 92.2367 201.298 90.496 201.326 88.76C201.298 87.024 201.49 85.288 201.9 83.552C202.311 81.8067 202.908 80.1453 203.692 78.568C204.476 76.9813 205.41 75.558 206.492 74.298L208.676 75.922C207.556 77.2473 206.656 78.61 205.974 80.01C205.293 81.4007 204.794 82.8287 204.476 84.294C204.159 85.75 204 87.2387 204 88.76C204 90.272 204.159 91.7607 204.476 93.226C204.794 94.6913 205.293 96.124 205.974 97.524C206.665 98.924 207.566 100.282 208.676 101.598L206.492 103.222ZM216.834 98V80.598H210.128V77.84H226.466V80.598H219.76V98H216.834ZM233.03 98.42C231.518 98.42 230.207 98.0793 229.096 97.398C227.985 96.7167 227.127 95.7787 226.52 94.584C225.923 93.38 225.624 91.994 225.624 90.426C225.624 88.8487 225.932 87.4627 226.548 86.268C227.164 85.064 228.027 84.1307 229.138 83.468C230.249 82.796 231.546 82.46 233.03 82.46C234.542 82.46 235.853 82.8007 236.964 83.482C238.075 84.1633 238.933 85.1013 239.54 86.296C240.147 87.4907 240.45 88.8673 240.45 90.426C240.45 92.0033 240.142 93.394 239.526 94.598C238.919 95.7927 238.061 96.7307 236.95 97.412C235.839 98.084 234.533 98.42 233.03 98.42ZM233.03 95.662C234.477 95.662 235.555 95.1767 236.264 94.206C236.983 93.226 237.342 91.966 237.342 90.426C237.342 88.8487 236.978 87.5887 236.25 86.646C235.531 85.694 234.458 85.218 233.03 85.218C232.05 85.218 231.243 85.442 230.608 85.89C229.973 86.3287 229.502 86.94 229.194 87.724C228.886 88.4987 228.732 89.3993 228.732 90.426C228.732 92.0127 229.096 93.282 229.824 94.234C230.552 95.186 231.621 95.662 233.03 95.662ZM250.624 98.42C249.178 98.42 247.964 98.07 246.984 97.37C246.004 96.6607 245.262 95.704 244.758 94.5C244.254 93.296 244.002 91.938 244.002 90.426C244.002 88.914 244.25 87.556 244.744 86.352C245.248 85.148 245.986 84.2007 246.956 83.51C247.936 82.81 249.14 82.46 250.568 82.46C251.987 82.46 253.21 82.81 254.236 83.51C255.272 84.2007 256.07 85.148 256.63 86.352C257.19 87.5467 257.47 88.9047 257.47 90.426C257.47 91.938 257.19 93.3007 256.63 94.514C256.08 95.718 255.291 96.67 254.264 97.37C253.247 98.07 252.034 98.42 250.624 98.42ZM243.512 104.72V82.88H246.116V93.758H246.452V104.72H243.512ZM250.218 95.774C251.152 95.774 251.922 95.536 252.528 95.06C253.144 94.584 253.602 93.9447 253.9 93.142C254.208 92.33 254.362 91.4247 254.362 90.426C254.362 89.4367 254.208 88.5407 253.9 87.738C253.602 86.9353 253.14 86.296 252.514 85.82C251.889 85.344 251.091 85.106 250.12 85.106C249.206 85.106 248.45 85.33 247.852 85.778C247.264 86.226 246.826 86.8513 246.536 87.654C246.256 88.4567 246.116 89.3807 246.116 90.426C246.116 91.4713 246.256 92.3953 246.536 93.198C246.816 94.0007 247.26 94.6307 247.866 95.088C248.473 95.5453 249.257 95.774 250.218 95.774ZM268.976 98.42C266.96 98.42 265.242 97.9813 263.824 97.104C262.405 96.2173 261.318 94.9853 260.562 93.408C259.815 91.8307 259.442 90.0013 259.442 87.92C259.442 85.8387 259.815 84.0093 260.562 82.432C261.318 80.8547 262.405 79.6273 263.824 78.75C265.242 77.8633 266.96 77.42 268.976 77.42C271.3 77.42 273.222 78.008 274.744 79.184C276.274 80.36 277.338 81.942 277.936 83.93L274.968 84.728C274.576 83.3187 273.876 82.2127 272.868 81.41C271.869 80.6073 270.572 80.206 268.976 80.206C267.548 80.206 266.358 80.528 265.406 81.172C264.454 81.816 263.735 82.7167 263.25 83.874C262.774 85.0313 262.536 86.38 262.536 87.92C262.526 89.46 262.76 90.8087 263.236 91.966C263.721 93.1233 264.44 94.024 265.392 94.668C266.353 95.312 267.548 95.634 268.976 95.634C270.572 95.634 271.869 95.2327 272.868 94.43C273.876 93.618 274.576 92.512 274.968 91.112L277.936 91.91C277.338 93.898 276.274 95.48 274.744 96.656C273.222 97.832 271.3 98.42 268.976 98.42ZM287.581 98.42C286.069 98.42 284.757 98.0793 283.647 97.398C282.536 96.7167 281.677 95.7787 281.071 94.584C280.473 93.38 280.175 91.994 280.175 90.426C280.175 88.8487 280.483 87.4627 281.099 86.268C281.715 85.064 282.578 84.1307 283.689 83.468C284.799 82.796 286.097 82.46 287.581 82.46C289.093 82.46 290.404 82.8007 291.515 83.482C292.625 84.1633 293.484 85.1013 294.091 86.296C294.697 87.4907 295.001 88.8673 295.001 90.426C295.001 92.0033 294.693 93.394 294.077 94.598C293.47 95.7927 292.611 96.7307 291.501 97.412C290.39 98.084 289.083 98.42 287.581 98.42ZM287.581 95.662C289.027 95.662 290.105 95.1767 290.815 94.206C291.533 93.226 291.893 91.966 291.893 90.426C291.893 88.8487 291.529 87.5887 290.801 86.646C290.082 85.694 289.009 85.218 287.581 85.218C286.601 85.218 285.793 85.442 285.159 85.89C284.524 86.3287 284.053 86.94 283.745 87.724C283.437 88.4987 283.283 89.3993 283.283 90.426C283.283 92.0127 283.647 93.282 284.375 94.234C285.103 95.186 286.171 95.662 287.581 95.662ZM298.342 103.222L296.158 101.598C297.269 100.282 298.165 98.924 298.846 97.524C299.537 96.124 300.041 94.6913 300.358 93.226C300.675 91.7607 300.834 90.272 300.834 88.76C300.834 87.2387 300.675 85.75 300.358 84.294C300.041 82.8287 299.541 81.4007 298.86 80.01C298.179 78.61 297.278 77.2473 296.158 75.922L298.342 74.298C299.425 75.558 300.358 76.9813 301.142 78.568C301.926 80.1453 302.523 81.8067 302.934 83.552C303.345 85.288 303.536 87.024 303.508 88.76C303.536 90.496 303.345 92.2367 302.934 93.982C302.523 95.718 301.926 97.3747 301.142 98.952C300.358 100.539 299.425 101.962 298.342 103.222Z" fill="white"/>
<path d="M138.568 163.36C137.216 163.36 136.02 163.084 134.98 162.532C133.948 161.972 133.14 161.192 132.556 160.192C131.972 159.184 131.68 158 131.68 156.64V145.732L134.224 145.72V156.508C134.224 157.244 134.348 157.892 134.596 158.452C134.844 159.012 135.176 159.48 135.592 159.856C136.008 160.232 136.472 160.516 136.984 160.708C137.504 160.9 138.032 160.996 138.568 160.996C139.112 160.996 139.64 160.9 140.152 160.708C140.672 160.508 141.14 160.22 141.556 159.844C141.972 159.468 142.3 159 142.54 158.44C142.788 157.88 142.912 157.236 142.912 156.508V145.72H145.456V156.64C145.456 157.992 145.164 159.172 144.58 160.18C143.996 161.188 143.184 161.972 142.144 162.532C141.112 163.084 139.92 163.36 138.568 163.36ZM157.909 163V156.628C157.909 156.124 157.865 155.608 157.777 155.08C157.697 154.544 157.537 154.048 157.297 153.592C157.065 153.136 156.733 152.768 156.301 152.488C155.877 152.208 155.321 152.068 154.633 152.068C154.185 152.068 153.761 152.144 153.361 152.296C152.961 152.44 152.609 152.676 152.305 153.004C152.009 153.332 151.773 153.764 151.597 154.3C151.429 154.836 151.345 155.488 151.345 156.256L149.785 155.668C149.785 154.492 150.005 153.456 150.445 152.56C150.885 151.656 151.517 150.952 152.341 150.448C153.165 149.944 154.161 149.692 155.329 149.692C156.225 149.692 156.977 149.836 157.585 150.124C158.193 150.412 158.685 150.792 159.061 151.264C159.445 151.728 159.737 152.236 159.937 152.788C160.137 153.34 160.273 153.88 160.345 154.408C160.417 154.936 160.453 155.4 160.453 155.8V163H157.909ZM148.801 163V150.04H151.045V153.784H151.345V163H148.801ZM163.818 147.916V145.48H166.326V147.916H163.818ZM163.818 163V150.04H166.326V163H163.818ZM177.346 163C176.53 163.16 175.73 163.228 174.946 163.204C174.162 163.18 173.462 163.028 172.846 162.748C172.23 162.468 171.766 162.028 171.454 161.428C171.174 160.892 171.022 160.348 170.998 159.796C170.982 159.236 170.974 158.604 170.974 157.9V146.44H173.494V157.78C173.494 158.3 173.498 158.752 173.506 159.136C173.522 159.52 173.606 159.844 173.758 160.108C174.046 160.604 174.502 160.888 175.126 160.96C175.758 161.024 176.498 160.996 177.346 160.876V163ZM168.49 152.056V150.04H177.346V152.056H168.49ZM185.241 163.36C183.953 163.36 182.821 163.08 181.845 162.52C180.877 161.952 180.121 161.164 179.576 160.156C179.041 159.14 178.773 157.964 178.773 156.628C178.773 155.212 179.037 153.984 179.565 152.944C180.101 151.904 180.845 151.1 181.797 150.532C182.749 149.964 183.857 149.68 185.121 149.68C186.441 149.68 187.565 149.988 188.493 150.604C189.421 151.212 190.113 152.08 190.569 153.208C191.033 154.336 191.217 155.676 191.121 157.228H188.613V156.316C188.597 154.812 188.309 153.7 187.749 152.98C187.197 152.26 186.353 151.9 185.217 151.9C183.961 151.9 183.017 152.296 182.385 153.088C181.753 153.88 181.437 155.024 181.437 156.52C181.437 157.944 181.753 159.048 182.385 159.832C183.017 160.608 183.929 160.996 185.121 160.996C185.905 160.996 186.581 160.82 187.149 160.468C187.725 160.108 188.173 159.596 188.493 158.932L190.953 159.712C190.449 160.872 189.685 161.772 188.661 162.412C187.637 163.044 186.497 163.36 185.241 163.36ZM180.621 157.228V155.272H189.872V157.228H180.621ZM198.961 163.36C197.753 163.36 196.709 163.06 195.829 162.46C194.957 161.86 194.281 161.044 193.801 160.012C193.329 158.972 193.093 157.804 193.093 156.508C193.093 155.204 193.333 154.04 193.813 153.016C194.293 151.984 194.973 151.172 195.853 150.58C196.741 149.98 197.793 149.68 199.009 149.68C200.233 149.68 201.261 149.98 202.093 150.58C202.933 151.172 203.565 151.984 203.989 153.016C204.421 154.048 204.637 155.212 204.637 156.508C204.637 157.804 204.421 158.968 203.989 160C203.557 161.032 202.921 161.852 202.081 162.46C201.241 163.06 200.201 163.36 198.961 163.36ZM199.309 161.092C200.133 161.092 200.805 160.896 201.325 160.504C201.845 160.112 202.225 159.572 202.465 158.884C202.705 158.196 202.825 157.404 202.825 156.508C202.825 155.612 202.701 154.82 202.453 154.132C202.213 153.444 201.837 152.908 201.325 152.524C200.821 152.14 200.177 151.948 199.393 151.948C198.561 151.948 197.877 152.152 197.341 152.56C196.805 152.968 196.405 153.516 196.141 154.204C195.885 154.892 195.757 155.66 195.757 156.508C195.757 157.364 195.885 158.14 196.141 158.836C196.405 159.524 196.797 160.072 197.317 160.48C197.845 160.888 198.509 161.092 199.309 161.092ZM202.825 163V153.676H202.537V145.72H205.057V163H202.825ZM219.483 163.36C218.243 163.36 217.123 163.148 216.123 162.724C215.131 162.292 214.311 161.68 213.663 160.888C213.023 160.088 212.607 159.14 212.415 158.044L215.031 157.648C215.295 158.704 215.847 159.528 216.687 160.12C217.527 160.704 218.507 160.996 219.627 160.996C220.323 160.996 220.963 160.888 221.547 160.672C222.131 160.448 222.599 160.132 222.951 159.724C223.311 159.308 223.491 158.812 223.491 158.236C223.491 157.924 223.435 157.648 223.323 157.408C223.219 157.168 223.071 156.96 222.879 156.784C222.695 156.6 222.467 156.444 222.195 156.316C221.931 156.18 221.639 156.064 221.319 155.968L216.891 154.66C216.459 154.532 216.019 154.368 215.571 154.168C215.123 153.96 214.711 153.692 214.335 153.364C213.967 153.028 213.667 152.616 213.435 152.128C213.203 151.632 213.087 151.032 213.087 150.328C213.087 149.264 213.359 148.364 213.903 147.628C214.455 146.884 215.199 146.324 216.135 145.948C217.071 145.564 218.119 145.372 219.279 145.372C220.447 145.388 221.491 145.596 222.411 145.996C223.339 146.396 224.107 146.972 224.715 147.724C225.331 148.468 225.755 149.372 225.987 150.436L223.299 150.892C223.179 150.244 222.923 149.688 222.531 149.224C222.139 148.752 221.659 148.392 221.091 148.144C220.523 147.888 219.907 147.756 219.243 147.748C218.603 147.732 218.015 147.828 217.479 148.036C216.951 148.244 216.527 148.536 216.207 148.912C215.895 149.288 215.739 149.72 215.739 150.208C215.739 150.688 215.879 151.076 216.159 151.372C216.439 151.668 216.783 151.904 217.191 152.08C217.607 152.248 218.019 152.388 218.427 152.5L221.619 153.4C222.019 153.512 222.471 153.664 222.975 153.856C223.487 154.04 223.979 154.3 224.451 154.636C224.931 154.972 225.327 155.42 225.639 155.98C225.951 156.532 226.107 157.228 226.107 158.068C226.107 158.94 225.931 159.708 225.579 160.372C225.227 161.028 224.743 161.58 224.127 162.028C223.519 162.468 222.815 162.8 222.015 163.024C221.215 163.248 220.371 163.36 219.483 163.36ZM236.08 163C235.264 163.16 234.464 163.228 233.68 163.204C232.896 163.18 232.196 163.028 231.58 162.748C230.964 162.468 230.5 162.028 230.188 161.428C229.908 160.892 229.756 160.348 229.732 159.796C229.716 159.236 229.708 158.604 229.708 157.9V146.44H232.228V157.78C232.228 158.3 232.232 158.752 232.24 159.136C232.256 159.52 232.34 159.844 232.492 160.108C232.78 160.604 233.236 160.888 233.86 160.96C234.492 161.024 235.232 160.996 236.08 160.876V163ZM227.224 152.056V150.04H236.08V152.056H227.224ZM242.473 163.36C241.513 163.36 240.709 163.184 240.061 162.832C239.413 162.472 238.921 162 238.585 161.416C238.257 160.824 238.093 160.176 238.093 159.472C238.093 158.816 238.209 158.24 238.441 157.744C238.673 157.248 239.017 156.828 239.473 156.484C239.929 156.132 240.489 155.848 241.153 155.632C241.729 155.464 242.381 155.316 243.109 155.188C243.837 155.06 244.601 154.94 245.401 154.828C246.209 154.716 247.009 154.604 247.801 154.492L246.889 154.996C246.905 153.98 246.689 153.228 246.241 152.74C245.801 152.244 245.041 151.996 243.961 151.996C243.281 151.996 242.657 152.156 242.089 152.476C241.521 152.788 241.125 153.308 240.901 154.036L238.561 153.316C238.881 152.204 239.489 151.32 240.385 150.664C241.289 150.008 242.489 149.68 243.985 149.68C245.145 149.68 246.153 149.88 247.009 150.28C247.873 150.672 248.505 151.296 248.905 152.152C249.113 152.576 249.241 153.024 249.289 153.496C249.337 153.968 249.361 154.476 249.361 155.02V163H247.141V160.036L247.573 160.42C247.037 161.412 246.353 162.152 245.521 162.64C244.697 163.12 243.681 163.36 242.473 163.36ZM242.917 161.308C243.629 161.308 244.241 161.184 244.753 160.936C245.265 160.68 245.677 160.356 245.989 159.964C246.301 159.572 246.505 159.164 246.601 158.74C246.737 158.356 246.813 157.924 246.829 157.444C246.853 156.964 246.865 156.58 246.865 156.292L247.681 156.592C246.889 156.712 246.169 156.82 245.521 156.916C244.873 157.012 244.285 157.108 243.757 157.204C243.237 157.292 242.773 157.4 242.365 157.528C242.021 157.648 241.713 157.792 241.441 157.96C241.177 158.128 240.965 158.332 240.805 158.572C240.653 158.812 240.577 159.104 240.577 159.448C240.577 159.784 240.661 160.096 240.829 160.384C240.997 160.664 241.253 160.888 241.597 161.056C241.941 161.224 242.381 161.308 242.917 161.308ZM259.893 163C259.077 163.16 258.277 163.228 257.493 163.204C256.709 163.18 256.009 163.028 255.393 162.748C254.777 162.468 254.313 162.028 254.001 161.428C253.721 160.892 253.569 160.348 253.545 159.796C253.529 159.236 253.521 158.604 253.521 157.9V146.44H256.041V157.78C256.041 158.3 256.045 158.752 256.053 159.136C256.069 159.52 256.153 159.844 256.305 160.108C256.593 160.604 257.049 160.888 257.673 160.96C258.305 161.024 259.045 160.996 259.893 160.876V163ZM251.037 152.056V150.04H259.893V152.056H251.037ZM267.787 163.36C266.499 163.36 265.367 163.08 264.391 162.52C263.423 161.952 262.667 161.164 262.123 160.156C261.587 159.14 261.319 157.964 261.319 156.628C261.319 155.212 261.583 153.984 262.111 152.944C262.647 151.904 263.391 151.1 264.343 150.532C265.295 149.964 266.403 149.68 267.667 149.68C268.987 149.68 270.111 149.988 271.039 150.604C271.967 151.212 272.659 152.08 273.115 153.208C273.579 154.336 273.763 155.676 273.667 157.228H271.159V156.316C271.143 154.812 270.855 153.7 270.295 152.98C269.743 152.26 268.899 151.9 267.763 151.9C266.507 151.9 265.563 152.296 264.931 153.088C264.299 153.88 263.983 155.024 263.983 156.52C263.983 157.944 264.299 159.048 264.931 159.832C265.563 160.608 266.475 160.996 267.667 160.996C268.451 160.996 269.127 160.82 269.695 160.468C270.271 160.108 270.719 159.596 271.039 158.932L273.499 159.712C272.995 160.872 272.231 161.772 271.207 162.412C270.183 163.044 269.043 163.36 267.787 163.36ZM263.167 157.228V155.272H272.419V157.228H263.167ZM281.316 163.348C279.74 163.348 278.456 163 277.464 162.304C276.472 161.608 275.864 160.628 275.64 159.364L278.208 158.968C278.368 159.64 278.736 160.172 279.312 160.564C279.896 160.948 280.62 161.14 281.484 161.14C282.268 161.14 282.88 160.98 283.32 160.66C283.768 160.34 283.992 159.9 283.992 159.34C283.992 159.012 283.912 158.748 283.752 158.548C283.6 158.34 283.276 158.144 282.78 157.96C282.284 157.776 281.528 157.548 280.512 157.276C279.4 156.988 278.516 156.68 277.86 156.352C277.212 156.016 276.748 155.628 276.468 155.188C276.196 154.74 276.06 154.2 276.06 153.568C276.06 152.784 276.268 152.1 276.684 151.516C277.1 150.932 277.684 150.48 278.436 150.16C279.196 149.84 280.084 149.68 281.1 149.68C282.092 149.68 282.976 149.836 283.752 150.148C284.528 150.46 285.156 150.904 285.636 151.48C286.116 152.048 286.404 152.716 286.5 153.484L283.932 153.952C283.844 153.328 283.552 152.836 283.056 152.476C282.56 152.116 281.916 151.92 281.124 151.888C280.364 151.856 279.748 151.984 279.276 152.272C278.804 152.552 278.568 152.94 278.568 153.436C278.568 153.724 278.656 153.968 278.832 154.168C279.016 154.368 279.368 154.56 279.888 154.744C280.408 154.928 281.176 155.148 282.192 155.404C283.28 155.684 284.144 155.996 284.784 156.34C285.424 156.676 285.88 157.08 286.152 157.552C286.432 158.016 286.572 158.58 286.572 159.244C286.572 160.524 286.104 161.528 285.168 162.256C284.24 162.984 282.956 163.348 281.316 163.348Z" fill="#333333"/>
</g>
<defs>
<filter id="filter0_d_769_8649" x="0" y="0" width="422" height="220" filterUnits="userSpaceOnUse" color-interpolation-filters="sRGB">
<feFlood flood-opacity="0" result="BackgroundImageFix"/>
<feColorMatrix in="SourceAlpha" type="matrix" values="0 0 0 0 0 0 0 0 0 0 0 0 0 0 0 0 0 0 127 0" result="hardAlpha"/>
<feOffset dx="2" dy="2"/>
<feGaussianBlur stdDeviation="15"/>
<feComposite in2="hardAlpha" operator="out"/>
<feColorMatrix type="matrix" values="0 0 0 0 0.11692 0 0 0 0 0.726544 0 0 0 0 0.641997 0 0 0 0.25 0"/>
<feBlend mode="normal" in2="BackgroundImageFix" result="effect1_dropShadow_769_8649"/>
<feBlend mode="normal" in="SourceGraphic" in2="effect1_dropShadow_769_8649" result="shape"/>
</filter>
<linearGradient id="paint0_linear_769_8649" x1="30" y1="43" x2="30" y2="131" gradientUnits="userSpaceOnUse">
<stop stop-color="#45D0BD"/>
<stop offset="1" stop-color="#45C9C9"/>
</linearGradient>
<linearGradient id="paint1_linear_769_8649" x1="37.0601" y1="49.8875" x2="154.562" y2="236.224" gradientUnits="userSpaceOnUse">
<stop stop-color="#45D0BD"/>
<stop offset="1" stop-color="#44B6E9"/>
</linearGradient>
</defs>
</svg>
