<svg width="222" height="222" viewBox="0 0 222 222" fill="none" xmlns="http://www.w3.org/2000/svg">
<mask id="mask0_56_108" style="mask-type:alpha" maskUnits="userSpaceOnUse" x="0" y="0" width="222" height="222">
<path d="M19.7085 135.498C21.103 133.202 24.0942 132.472 26.3896 133.866L61.9835 155.487C65.2629 145.932 74.3313 139.042 84.9847 139.042H114.164C122.209 139.042 128.754 132.497 128.754 124.452C128.754 116.408 122.209 109.863 114.166 109.863L102.946 109.868C102.066 109.868 101.201 109.629 100.445 109.176L94.4146 105.565L86.0822 119.432C84.6943 121.742 81.6933 122.479 79.3946 121.087C79.2412 120.995 77.6133 120.017 75.1555 118.54L67.6943 130.957C66.3089 133.263 63.3163 134.001 61.0209 132.621L44.3464 122.602C42.0441 121.219 41.2994 118.231 42.6825 115.929L50.1437 103.511C47.6544 102.016 46.0599 101.058 46.0599 101.058C43.7576 99.6742 43.0129 96.6865 44.396 94.3843C44.5121 94.1907 79.4948 35.9604 79.6225 35.7746C81.0783 33.6555 83.932 33.0356 86.1357 34.36L90.3045 36.8649L97.8189 24.3589C99.2013 22.0583 102.19 21.3116 104.492 22.695L121.167 32.714C123.468 34.0964 124.214 37.0854 122.831 39.3873L115.317 51.8934L119.485 54.3983C121.787 55.7817 122.532 58.7694 121.149 61.0716L111.009 77.9474L115.56 80.6997C139.052 81.437 157.934 100.781 157.934 124.453C157.934 148.588 138.299 168.223 114.164 168.223H109.301V178.273H123.891C126.577 178.273 128.754 180.451 128.754 183.137C128.754 185.823 126.577 188 123.891 188H46.0787C43.3929 188 41.2154 185.823 41.2154 183.137C41.2154 180.451 43.3929 178.273 46.0787 178.273H60.6685V166.069L21.34 142.18C19.0445 140.785 18.314 137.794 19.7085 135.498ZM53.5247 116.77L61.8619 121.78L66.8182 113.531C64.0883 111.89 61.2044 110.157 58.481 108.521L53.5247 116.77ZM111.989 38.5463L103.651 33.5368L98.6417 41.8741L106.979 46.8836L111.989 38.5463ZM110.307 60.2306L85.2953 45.2019L55.2385 95.2253C69.0158 103.504 76.3388 107.904 80.2486 110.257L86.0705 100.568L83.9732 99.3117C76.2704 94.6988 73.8135 84.707 78.4988 77.0481C83.1185 69.4967 93.0393 67.081 100.613 71.6606L102.687 72.9143L110.307 60.2306ZM148.207 124.453C148.207 105.678 132.937 90.4039 114.168 90.4039C113.281 90.4039 112.411 90.161 111.652 89.7023C109.953 88.6748 97.294 81.0201 95.5798 79.9835C92.5704 78.1643 88.6299 79.1244 86.7955 82.1234C84.9377 85.1593 85.9039 89.1303 88.97 90.9667L104.288 100.14L114.164 100.136C127.572 100.136 138.481 111.045 138.481 124.452C138.481 137.86 127.572 148.769 114.164 148.769H104.424C106.553 151.598 108.08 154.904 108.811 158.495H114.164C132.936 158.496 148.207 143.224 148.207 124.453ZM99.5745 178.273V163.359C99.5745 155.314 93.0295 148.769 84.9847 148.769C76.9399 148.769 70.395 155.314 70.395 163.359V178.273H99.5745Z" fill="url(#paint0_linear_56_108)" fill-opacity="0.4"/>
<path d="M84.9844 168.222C82.2985 168.222 80.1211 166.045 80.1211 163.359C80.1211 160.673 82.2985 158.496 84.9844 158.496C87.6703 158.496 89.8477 160.673 89.8477 163.359C89.8477 166.045 87.6703 168.222 84.9844 168.222Z" fill="url(#paint1_linear_56_108)" fill-opacity="0.4"/>
</mask>
<g mask="url(#mask0_56_108)">
<rect x="-1196" y="17" width="1364" height="168" rx="25" fill="url(#paint2_linear_56_108)"/>
</g>
<defs>
<linearGradient id="paint0_linear_56_108" x1="156.642" y1="22" x2="-5.72131" y2="50.7095" gradientUnits="userSpaceOnUse">
<stop stop-color="#8258C8"/>
<stop offset="1" stop-color="#2C84C8"/>
</linearGradient>
<linearGradient id="paint1_linear_56_108" x1="89.7573" y1="158.496" x2="78.5358" y2="160.866" gradientUnits="userSpaceOnUse">
<stop stop-color="#8258C8"/>
<stop offset="1" stop-color="#2C84C8"/>
</linearGradient>
<linearGradient id="paint2_linear_56_108" x1="-1164.32" y1="23.0637" x2="-1015.84" y2="526.149" gradientUnits="userSpaceOnUse">
<stop stop-color="#45D0BD"/>
<stop offset="1" stop-color="#44B6E9"/>
</linearGradient>
</defs>
</svg>
