<svg width="48" height="48" viewBox="0 0 48 48" fill="none" xmlns="http://www.w3.org/2000/svg">
<g clip-path="url(#clip0_56_1603)">
<path d="M13.3428 33.9846V27.683C13.3428 27.2163 13.7211 26.8379 14.1878 26.8379H15.064C15.8169 26.8379 16.194 25.9277 15.6616 25.3953L10.053 19.7868C9.72295 19.4568 9.18785 19.4568 8.85785 19.7868L3.24923 25.3953C2.71683 25.9277 3.0939 26.8379 3.84678 26.8379H4.72296C5.1897 26.8379 5.56804 27.2163 5.56804 27.683V45.0002H13.3428V36.9424" stroke="#3580C7" stroke-width="2" stroke-miterlimit="10" stroke-linecap="round" stroke-linejoin="round"/>
<path d="M23.4017 10.913L17.7932 16.5216C17.2608 17.054 17.6378 17.9642 18.3907 17.9642H19.2668C19.7336 17.9642 20.1119 18.3426 20.1119 18.8093V44.9998H27.8866V18.8093C27.8866 18.3426 28.265 17.9642 28.7317 17.9642H29.6078C30.3607 17.9642 30.7377 17.054 30.2054 16.5216L24.5968 10.913C24.2668 10.583 23.7317 10.583 23.4017 10.913Z" stroke="#3580C7" stroke-width="2" stroke-miterlimit="10" stroke-linecap="round" stroke-linejoin="round"/>
<path d="M34.657 19.4188V44.9999H42.4317V11.1435C42.4317 10.6768 42.8101 10.2985 43.2768 10.2985H44.1529C44.9058 10.2985 45.2828 9.38823 44.7504 8.85584L39.1418 3.24726C38.8118 2.91726 38.2767 2.91726 37.9467 3.24726L32.3381 8.85584C31.8057 9.38823 32.1828 10.2985 32.9356 10.2985H33.8118C34.2786 10.2985 34.6569 10.6768 34.6569 11.1435V16.4612" stroke="#3580C7" stroke-width="2" stroke-miterlimit="10" stroke-linecap="round" stroke-linejoin="round"/>
<path d="M3 45H45.0004" stroke="#3580C7" stroke-width="2" stroke-miterlimit="10" stroke-linecap="round" stroke-linejoin="round"/>
</g>
<defs>
<clipPath id="clip0_56_1603">
<rect width="48" height="48" fill="white" transform="matrix(-1 0 0 1 48 0)"/>
</clipPath>
</defs>
</svg>
