<svg width="48" height="48" viewBox="0 0 48 48" fill="none" xmlns="http://www.w3.org/2000/svg">
<g clip-path="url(#clip0_56_1336)">
<path d="M41.4434 0.0251537H8.55657C5.48914 0.0251537 3 2.51537 3 5.58413C3 6.91727 3.47771 8.20011 4.33257 9.20626L17.3314 24.374C17.8091 24.9525 18.0857 25.6819 18.0857 26.4114V40.5981C18.0857 42.1325 18.8651 43.5411 20.1726 44.346C20.8766 44.7736 21.6811 45 22.4857 45C23.1646 45 23.8183 44.8491 24.4469 44.5221L29.4754 42.0067C30.984 41.2521 31.9143 39.7429 31.9143 38.0576V26.3862C31.9143 25.6316 32.1909 24.9022 32.6686 24.3488L45.6674 9.18111C46.5223 8.17496 47 6.89212 47 5.55897C47 2.49022 44.5109 0 41.4434 0V0.0251537ZM42.8011 6.7412L29.8023 21.9089C28.7211 23.1666 28.1429 24.7513 28.1429 26.4114V38.0827C28.1429 38.3343 28.0171 38.5355 27.7909 38.6361L22.7623 41.1515C22.4857 41.3024 22.2594 41.2018 22.1589 41.1263C22.0583 41.0509 21.8571 40.8999 21.8571 40.5981V26.4114C21.8571 24.7513 21.2789 23.1666 20.1977 21.9089L7.19886 6.7412C6.92229 6.4142 6.77143 6.01174 6.77143 5.58413C6.77143 4.60313 7.576 3.79821 8.55657 3.79821H41.4434C42.424 3.79821 43.2286 4.60313 43.2286 5.58413C43.2286 6.01174 43.0777 6.4142 42.8011 6.7412Z" fill="#3580C7"/>
</g>
<defs>
<clipPath id="clip0_56_1336">
<rect width="48" height="48" fill="white" transform="matrix(-1 0 0 1 48 0)"/>
</clipPath>
</defs>
</svg>
