<svg width="48" height="48" viewBox="0 0 48 48" fill="none" xmlns="http://www.w3.org/2000/svg">
<g clip-path="url(#clip0_56_1058)">
<path d="M43.9921 5.50219C43.9897 5.4775 43.9851 5.4536 43.9816 5.4293C43.9773 5.39985 43.9739 5.37032 43.9681 5.34102C43.9626 5.31305 43.9549 5.28594 43.948 5.25852C43.9416 5.23328 43.9361 5.20789 43.9285 5.18289C43.9204 5.15594 43.9102 5.12993 43.9008 5.1036C43.8918 5.07867 43.8836 5.05352 43.8734 5.02891C43.8633 5.0043 43.8512 4.98078 43.84 4.9568C43.828 4.93149 43.8168 4.90594 43.8035 4.8811C43.7912 4.85813 43.7772 4.83625 43.7638 4.81391C43.7493 4.78961 43.7355 4.765 43.7197 4.74125C43.7032 4.71656 43.6848 4.69336 43.667 4.66961C43.6522 4.64985 43.6384 4.62953 43.6226 4.61024C43.588 4.56813 43.5516 4.52758 43.5131 4.48906C43.5128 4.48875 43.5126 4.48844 43.5123 4.48813C43.5119 4.48781 43.5116 4.48766 43.5114 4.48735C43.4728 4.44883 43.4323 4.41234 43.3901 4.37774C43.3708 4.36188 43.3505 4.34813 43.3307 4.33328C43.307 4.31555 43.2838 4.29719 43.2591 4.2807C43.2354 4.26484 43.2108 4.25109 43.1864 4.23656C43.164 4.2232 43.1423 4.20922 43.1193 4.19688C43.0944 4.18359 43.069 4.17234 43.0436 4.16039C43.0196 4.14906 42.996 4.13711 42.9715 4.12688C42.9469 4.11672 42.9217 4.10844 42.8967 4.09953C42.8704 4.09008 42.8444 4.08 42.8176 4.07188C42.7926 4.0643 42.7671 4.05875 42.7419 4.05242C42.7144 4.04547 42.6873 4.03781 42.6594 4.03227C42.6301 4.02648 42.6006 4.02297 42.5712 4.01875C42.5469 4.01531 42.523 4.01063 42.4983 4.0082C42.4435 4.00289 42.3887 4 42.3337 4H30.667C29.7465 4 29.0003 4.74617 29.0003 5.66665C29.0003 6.58712 29.7465 7.33329 30.667 7.33329H38.31L26.1551 19.4882C25.5043 20.139 25.5043 21.1943 26.1551 21.8452C26.806 22.4961 27.8613 22.4961 28.5122 21.8452L40.667 9.69041V17.3334C40.667 18.2539 41.4132 19 42.3337 19C43.2541 19 44.0004 18.2539 44.0004 17.3334V5.6668C44.0004 5.6118 43.9975 5.55688 43.9921 5.50219Z" fill="#3580C7"/>
<path d="M19.4882 26.155L7.33338 38.3098V30.6668C7.33338 29.7463 6.5872 29.0001 5.66673 29.0001C4.74618 29.0001 4 29.7463 4 30.6668V42.3335C4 42.3884 4.00289 42.4432 4.00828 42.4979C4.0107 42.5225 4.01531 42.5464 4.01883 42.5708C4.02305 42.6003 4.02648 42.6299 4.03234 42.6591C4.03789 42.687 4.04555 42.7141 4.0525 42.7415C4.05883 42.7668 4.06438 42.7922 4.07195 42.8172C4.08008 42.8441 4.09016 42.8701 4.09961 42.8963C4.10859 42.9213 4.1168 42.9465 4.12695 42.9711C4.13711 42.9957 4.14914 43.0192 4.16047 43.0432C4.17242 43.0685 4.18367 43.0941 4.19695 43.1189C4.2093 43.1419 4.22328 43.1637 4.23664 43.186C4.25117 43.2103 4.26492 43.235 4.28078 43.2588C4.29727 43.2835 4.31563 43.3066 4.33336 43.3303C4.3482 43.3502 4.36195 43.3705 4.37781 43.3898C4.41242 43.432 4.44891 43.4725 4.48742 43.511C4.48774 43.5113 4.48789 43.5117 4.48821 43.5119C4.48852 43.5122 4.48883 43.5124 4.48914 43.5128C4.52766 43.5512 4.56821 43.5877 4.61032 43.6223C4.62961 43.6381 4.64992 43.6519 4.66969 43.6667C4.69344 43.6844 4.71664 43.7028 4.74133 43.7193C4.765 43.7352 4.78961 43.7489 4.81399 43.7635C4.83633 43.7768 4.85813 43.7908 4.88118 43.8031C4.90602 43.8164 4.93157 43.8277 4.95688 43.8396C4.98086 43.851 5.00446 43.8629 5.02899 43.8731C5.0536 43.8832 5.07868 43.8914 5.10368 43.9004C5.13001 43.9099 5.15602 43.9199 5.18297 43.9281C5.20797 43.9357 5.23337 43.9413 5.2586 43.9476C5.28602 43.9546 5.31313 43.9622 5.3411 43.9678C5.3704 43.9735 5.39993 43.977 5.42938 43.9812C5.45368 43.9846 5.47766 43.9893 5.50227 43.9917C5.55696 43.9971 5.6118 44 5.66665 44H17.3334C18.2539 44 19.0001 43.2538 19.0001 42.3334C19.0001 41.4129 18.2539 40.6667 17.3334 40.6667H9.69042L21.8453 28.5119C22.4962 27.861 22.4962 26.8057 21.8453 26.1548C21.1945 25.504 20.1391 25.5041 19.4882 26.155Z" fill="#3580C7"/>
</g>
<defs>
<clipPath id="clip0_56_1058">
<rect width="48" height="48" fill="white" transform="matrix(-1 0 0 1 48 0)"/>
</clipPath>
</defs>
</svg>
