<svg width="55" height="55" viewBox="0 0 55 55" fill="none" xmlns="http://www.w3.org/2000/svg">
<path d="M44.4434 4.02515H11.5566C8.48914 4.02515 6 6.51537 6 9.58413C6 10.9173 6.47771 12.2001 7.33257 13.2063L20.3314 28.374C20.8091 28.9525 21.0857 29.6819 21.0857 30.4114V44.5981C21.0857 46.1325 21.8651 47.5411 23.1726 48.346C23.8766 48.7736 24.6811 49 25.4857 49C26.1646 49 26.8183 48.8491 27.4469 48.5221L32.4754 46.0067C33.984 45.2521 34.9143 43.7429 34.9143 42.0576V30.3862C34.9143 29.6316 35.1909 28.9022 35.6686 28.3488L48.6674 13.1811C49.5223 12.175 50 10.8921 50 9.55897C50 6.49022 47.5109 4 44.4434 4V4.02515ZM45.8011 10.7412L32.8023 25.9089C31.7211 27.1666 31.1429 28.7513 31.1429 30.4114V42.0827C31.1429 42.3343 31.0171 42.5355 30.7909 42.6361L25.7623 45.1515C25.4857 45.3024 25.2594 45.2018 25.1589 45.1263C25.0583 45.0509 24.8571 44.8999 24.8571 44.5981V30.4114C24.8571 28.7513 24.2789 27.1666 23.1977 25.9089L10.1989 10.7412C9.92229 10.4142 9.77143 10.0117 9.77143 9.58413C9.77143 8.60313 10.576 7.79821 11.5566 7.79821H44.4434C45.424 7.79821 46.2286 8.60313 46.2286 9.58413C46.2286 10.0117 46.0777 10.4142 45.8011 10.7412Z" fill="#909090"/>
</svg>
