<svg width="653" height="700" viewBox="0 0 653 700" fill="none" xmlns="http://www.w3.org/2000/svg">
<mask id="mask0_263_4264" style="mask-type:alpha" maskUnits="userSpaceOnUse" x="0" y="0" width="653" height="700">
<rect x="0.000976562" width="652.347" height="700" rx="25" fill="#F0F2F4"/>
</mask>
<g mask="url(#mask0_263_4264)">
<rect x="-11.0068" y="-46.5898" width="440.234" height="764.06" fill="white"/>
<rect x="-12.0068" y="-16.3086" width="675.359" height="733.777" fill="white"/>
<rect x="0.000976562" y="513.645" width="693.369" height="189.85" fill="url(#paint0_linear_263_4264)"/>
</g>
<path d="M156.222 83.72C153.694 83.72 151.414 83.28 149.382 82.4C147.366 81.52 145.702 80.264 144.39 78.632C143.094 76.984 142.27 75.032 141.918 72.776L147.918 71.864C148.43 73.912 149.478 75.496 151.062 76.616C152.662 77.736 154.502 78.296 156.582 78.296C157.814 78.296 158.974 78.104 160.062 77.72C161.15 77.336 162.03 76.776 162.702 76.04C163.39 75.304 163.734 74.4 163.734 73.328C163.734 72.848 163.654 72.408 163.494 72.008C163.334 71.592 163.094 71.224 162.774 70.904C162.47 70.584 162.07 70.296 161.574 70.04C161.094 69.768 160.534 69.536 159.894 69.344L150.966 66.704C150.198 66.48 149.366 66.184 148.47 65.816C147.59 65.432 146.75 64.912 145.95 64.256C145.166 63.584 144.518 62.736 144.006 61.712C143.51 60.672 143.262 59.392 143.262 57.872C143.262 55.648 143.822 53.784 144.942 52.28C146.078 50.76 147.598 49.624 149.502 48.872C151.422 48.12 153.55 47.752 155.886 47.768C158.254 47.784 160.366 48.192 162.222 48.992C164.078 49.776 165.63 50.92 166.878 52.424C168.126 53.928 169.006 55.744 169.518 57.872L163.302 58.952C163.046 57.736 162.55 56.704 161.814 55.856C161.094 54.992 160.206 54.336 159.15 53.888C158.11 53.44 156.998 53.2 155.814 53.168C154.662 53.152 153.59 53.328 152.598 53.696C151.622 54.048 150.83 54.56 150.222 55.232C149.63 55.904 149.334 56.688 149.334 57.584C149.334 58.432 149.59 59.128 150.102 59.672C150.614 60.2 151.246 60.624 151.998 60.944C152.766 61.248 153.542 61.504 154.326 61.712L160.518 63.44C161.366 63.664 162.318 63.968 163.374 64.352C164.43 64.736 165.446 65.272 166.422 65.96C167.398 66.648 168.198 67.552 168.822 68.672C169.462 69.792 169.782 71.216 169.782 72.944C169.782 74.736 169.406 76.312 168.654 77.672C167.918 79.016 166.918 80.136 165.654 81.032C164.39 81.928 162.942 82.6 161.31 83.048C159.694 83.496 157.998 83.72 156.222 83.72ZM184.697 83.744C182.777 83.744 181.193 83.424 179.945 82.784C178.697 82.144 177.705 81.328 176.969 80.336C176.233 79.344 175.689 78.288 175.337 77.168C174.985 76.048 174.753 74.992 174.641 74C174.545 72.992 174.497 72.176 174.497 71.552V57.08H180.353V69.56C180.353 70.36 180.409 71.264 180.521 72.272C180.633 73.264 180.889 74.224 181.289 75.152C181.705 76.064 182.313 76.816 183.113 77.408C183.929 78 185.025 78.296 186.401 78.296C187.137 78.296 187.865 78.176 188.585 77.936C189.305 77.696 189.953 77.288 190.529 76.712C191.121 76.12 191.593 75.312 191.945 74.288C192.297 73.264 192.473 71.968 192.473 70.4L195.905 71.864C195.905 74.072 195.473 76.072 194.609 77.864C193.761 79.656 192.505 81.088 190.841 82.16C189.177 83.216 187.129 83.744 184.697 83.744ZM193.169 83V74.96H192.473V57.08H198.281V83H193.169ZM217.48 83.72C214.952 83.72 212.832 83.12 211.12 81.92C209.408 80.72 208.12 79.088 207.256 77.024C206.392 74.944 205.96 72.616 205.96 70.04C205.96 67.432 206.392 65.096 207.256 63.032C208.12 60.968 209.384 59.344 211.048 58.16C212.728 56.96 214.8 56.36 217.264 56.36C219.712 56.36 221.832 56.96 223.624 58.16C225.432 59.344 226.832 60.968 227.824 63.032C228.816 65.08 229.312 67.416 229.312 70.04C229.312 72.632 228.824 74.96 227.848 77.024C226.872 79.088 225.496 80.72 223.72 81.92C221.944 83.12 219.864 83.72 217.48 83.72ZM204.976 94.52V57.08H210.088V75.272H210.808V94.52H204.976ZM216.592 78.536C218.096 78.536 219.336 78.16 220.312 77.408C221.288 76.656 222.008 75.64 222.472 74.36C222.952 73.064 223.192 71.624 223.192 70.04C223.192 68.472 222.952 67.048 222.472 65.768C221.992 64.472 221.248 63.448 220.24 62.696C219.232 61.928 217.952 61.544 216.4 61.544C214.928 61.544 213.728 61.904 212.8 62.624C211.872 63.328 211.184 64.32 210.736 65.6C210.304 66.864 210.088 68.344 210.088 70.04C210.088 71.72 210.304 73.2 210.736 74.48C211.184 75.76 211.88 76.76 212.824 77.48C213.784 78.184 215.04 78.536 216.592 78.536ZM246.386 83.72C243.762 83.72 241.458 83.152 239.474 82.016C237.49 80.88 235.938 79.304 234.818 77.288C233.714 75.272 233.162 72.952 233.162 70.328C233.162 67.496 233.706 65.04 234.794 62.96C235.882 60.864 237.394 59.24 239.33 58.088C241.266 56.936 243.506 56.36 246.05 56.36C248.738 56.36 251.018 56.992 252.89 58.256C254.778 59.504 256.178 61.272 257.09 63.56C258.002 65.848 258.346 68.544 258.122 71.648H252.386V69.536C252.37 66.72 251.874 64.664 250.898 63.368C249.922 62.072 248.386 61.424 246.29 61.424C243.922 61.424 242.162 62.16 241.01 63.632C239.858 65.088 239.282 67.224 239.282 70.04C239.282 72.664 239.858 74.696 241.01 76.136C242.162 77.576 243.842 78.296 246.05 78.296C247.474 78.296 248.698 77.984 249.722 77.36C250.762 76.72 251.562 75.8 252.122 74.6L257.834 76.328C256.842 78.664 255.306 80.48 253.226 81.776C251.162 83.072 248.882 83.72 246.386 83.72ZM237.458 71.648V67.28H255.29V71.648H237.458ZM263.477 83V57.08H268.589V63.392L267.965 62.576C268.285 61.712 268.709 60.928 269.237 60.224C269.781 59.504 270.429 58.912 271.181 58.448C271.821 58.016 272.525 57.68 273.293 57.44C274.077 57.184 274.877 57.032 275.693 56.984C276.509 56.92 277.301 56.952 278.069 57.08V62.48C277.301 62.256 276.413 62.184 275.405 62.264C274.413 62.344 273.517 62.624 272.717 63.104C271.917 63.536 271.261 64.088 270.749 64.76C270.253 65.432 269.885 66.2 269.645 67.064C269.405 67.912 269.285 68.832 269.285 69.824V83H263.477ZM283.129 53.144V47.84H288.913V53.144H283.129ZM283.129 83V57.08H288.913V83H283.129ZM307.55 83.72C304.958 83.72 302.694 83.136 300.758 81.968C298.822 80.8 297.318 79.192 296.246 77.144C295.19 75.08 294.662 72.712 294.662 70.04C294.662 67.32 295.206 64.936 296.294 62.888C297.382 60.84 298.894 59.24 300.83 58.088C302.766 56.936 305.006 56.36 307.55 56.36C310.158 56.36 312.43 56.944 314.366 58.112C316.302 59.28 317.806 60.896 318.878 62.96C319.95 65.008 320.486 67.368 320.486 70.04C320.486 72.728 319.942 75.104 318.854 77.168C317.782 79.216 316.278 80.824 314.342 81.992C312.406 83.144 310.142 83.72 307.55 83.72ZM307.55 78.296C309.854 78.296 311.566 77.528 312.686 75.992C313.806 74.456 314.366 72.472 314.366 70.04C314.366 67.528 313.798 65.528 312.662 64.04C311.526 62.536 309.822 61.784 307.55 61.784C305.998 61.784 304.718 62.136 303.71 62.84C302.718 63.528 301.982 64.496 301.502 65.744C301.022 66.976 300.782 68.408 300.782 70.04C300.782 72.552 301.35 74.56 302.486 76.064C303.638 77.552 305.326 78.296 307.55 78.296ZM325.774 83V57.08H330.886V63.392L330.262 62.576C330.582 61.712 331.006 60.928 331.534 60.224C332.078 59.504 332.726 58.912 333.478 58.448C334.118 58.016 334.822 57.68 335.59 57.44C336.374 57.184 337.174 57.032 337.99 56.984C338.806 56.92 339.598 56.952 340.366 57.08V62.48C339.598 62.256 338.71 62.184 337.702 62.264C336.71 62.344 335.814 62.624 335.014 63.104C334.214 63.536 333.558 64.088 333.046 64.76C332.55 65.432 332.182 66.2 331.942 67.064C331.702 67.912 331.582 68.832 331.582 69.824V83H325.774ZM364.947 83.72C362.563 83.72 360.483 83.12 358.707 81.92C356.931 80.72 355.555 79.088 354.579 77.024C353.603 74.96 353.115 72.632 353.115 70.04C353.115 67.416 353.603 65.08 354.579 63.032C355.571 60.968 356.971 59.344 358.779 58.16C360.587 56.96 362.715 56.36 365.163 56.36C367.627 56.36 369.691 56.96 371.355 58.16C373.035 59.344 374.307 60.968 375.171 63.032C376.035 65.096 376.467 67.432 376.467 70.04C376.467 72.616 376.035 74.944 375.171 77.024C374.307 79.088 373.019 80.72 371.307 81.92C369.595 83.12 367.475 83.72 364.947 83.72ZM365.835 78.536C367.387 78.536 368.635 78.184 369.579 77.48C370.539 76.76 371.235 75.76 371.667 74.48C372.115 73.2 372.339 71.72 372.339 70.04C372.339 68.344 372.115 66.864 371.667 65.6C371.235 64.32 370.555 63.328 369.627 62.624C368.699 61.904 367.499 61.544 366.027 61.544C364.475 61.544 363.195 61.928 362.187 62.696C361.179 63.448 360.435 64.472 359.955 65.768C359.475 67.048 359.235 68.472 359.235 70.04C359.235 71.624 359.467 73.064 359.931 74.36C360.411 75.64 361.139 76.656 362.115 77.408C363.091 78.16 364.331 78.536 365.835 78.536ZM371.619 94.52V75.272H372.339V57.08H377.451V94.52H371.619ZM393.9 83.744C391.98 83.744 390.396 83.424 389.148 82.784C387.9 82.144 386.908 81.328 386.172 80.336C385.436 79.344 384.892 78.288 384.54 77.168C384.188 76.048 383.956 74.992 383.844 74C383.748 72.992 383.7 72.176 383.7 71.552V57.08H389.556V69.56C389.556 70.36 389.612 71.264 389.724 72.272C389.836 73.264 390.092 74.224 390.492 75.152C390.908 76.064 391.516 76.816 392.316 77.408C393.132 78 394.228 78.296 395.604 78.296C396.34 78.296 397.068 78.176 397.788 77.936C398.508 77.696 399.156 77.288 399.732 76.712C400.324 76.12 400.796 75.312 401.148 74.288C401.5 73.264 401.676 71.968 401.676 70.4L405.108 71.864C405.108 74.072 404.676 76.072 403.812 77.864C402.964 79.656 401.708 81.088 400.044 82.16C398.38 83.216 396.332 83.744 393.9 83.744ZM402.372 83V74.96H401.676V57.08H407.484V83H402.372ZM421.475 83.72C419.603 83.72 418.019 83.368 416.723 82.664C415.427 81.944 414.443 80.992 413.771 79.808C413.115 78.624 412.787 77.32 412.787 75.896C412.787 74.648 412.995 73.528 413.411 72.536C413.827 71.528 414.467 70.664 415.331 69.944C416.195 69.208 417.315 68.608 418.691 68.144C419.731 67.808 420.947 67.504 422.339 67.232C423.747 66.96 425.267 66.712 426.899 66.488C428.547 66.248 430.267 65.992 432.059 65.72L429.995 66.896C430.011 65.104 429.611 63.784 428.795 62.936C427.979 62.088 426.603 61.664 424.667 61.664C423.499 61.664 422.371 61.936 421.283 62.48C420.195 63.024 419.435 63.96 419.003 65.288L413.723 63.632C414.363 61.44 415.579 59.68 417.371 58.352C419.179 57.024 421.611 56.36 424.667 56.36C426.971 56.36 428.995 56.736 430.739 57.488C432.499 58.24 433.803 59.472 434.651 61.184C435.115 62.096 435.395 63.032 435.491 63.992C435.587 64.936 435.635 65.968 435.635 67.088V83H430.571V77.384L431.411 78.296C430.243 80.168 428.875 81.544 427.307 82.424C425.755 83.288 423.811 83.72 421.475 83.72ZM422.627 79.112C423.939 79.112 425.059 78.88 425.987 78.416C426.915 77.952 427.651 77.384 428.195 76.712C428.755 76.04 429.131 75.408 429.323 74.816C429.627 74.08 429.795 73.24 429.827 72.296C429.875 71.336 429.899 70.56 429.899 69.968L431.675 70.496C429.931 70.768 428.435 71.008 427.187 71.216C425.939 71.424 424.867 71.624 423.971 71.816C423.075 71.992 422.283 72.192 421.595 72.416C420.923 72.656 420.355 72.936 419.891 73.256C419.427 73.576 419.067 73.944 418.811 74.36C418.571 74.776 418.451 75.264 418.451 75.824C418.451 76.464 418.611 77.032 418.931 77.528C419.251 78.008 419.715 78.392 420.323 78.68C420.947 78.968 421.715 79.112 422.627 79.112ZM442.363 83V47.72H448.147V83H442.363ZM455.817 53.144V47.84H461.601V53.144H455.817ZM455.817 83V57.08H461.601V83H455.817ZM483.982 83C482.27 83.32 480.59 83.456 478.942 83.408C477.31 83.376 475.846 83.08 474.55 82.52C473.254 81.944 472.27 81.04 471.598 79.808C471.006 78.688 470.694 77.544 470.662 76.376C470.63 75.208 470.614 73.888 470.614 72.416V49.88H476.374V72.08C476.374 73.12 476.382 74.032 476.398 74.816C476.43 75.6 476.598 76.24 476.902 76.736C477.478 77.696 478.398 78.232 479.662 78.344C480.926 78.456 482.366 78.392 483.982 78.152V83ZM465.91 61.616V57.08H483.982V61.616H465.91ZM492.26 94.52L497.252 80.816L497.348 84.848L486.044 57.08H492.068L500.084 77.624H498.548L506.348 57.08H512.132L497.684 94.52H492.26Z" fill="#333333"/>
<path d="M63.0156 548.76L39.9756 548.76L39.9756 545.88L57.9756 533.864L39.9756 533.864L39.9756 530.984L63.0156 530.984L63.0156 533.864L44.9996 545.88L63.0156 545.88L63.0156 548.76ZM63.4636 519.95C63.4636 521.059 63.2876 522.014 62.9356 522.814C62.5836 523.603 62.1143 524.259 61.5276 524.782C60.941 525.305 60.2903 525.715 59.5756 526.014C58.861 526.313 58.1303 526.526 57.3836 526.654C56.637 526.771 55.9383 526.83 55.2876 526.83L45.7356 526.83L45.7356 523.95L54.3916 523.95C55.2023 523.95 55.9863 523.875 56.7436 523.726C57.501 523.577 58.1836 523.326 58.7916 522.974C59.3996 522.611 59.8796 522.131 60.2316 521.534C60.5836 520.926 60.7596 520.169 60.7596 519.262C60.7596 518.547 60.637 517.897 60.3916 517.31C60.1463 516.723 59.7836 516.222 59.3036 515.806C58.813 515.39 58.1943 515.07 57.4476 514.846C56.701 514.622 55.8316 514.51 54.8396 514.51L55.4156 512.638C57.0796 512.638 58.5143 512.942 59.7196 513.55C60.925 514.147 61.853 514.995 62.5036 516.094C63.1436 517.182 63.4636 518.467 63.4636 519.95ZM63.0156 514.19L58.3916 514.19L58.3916 514.51L45.7356 514.51L45.7356 511.646L63.0156 511.646L63.0156 514.19ZM63.0156 486.51L51.9596 486.494C50.669 486.494 49.661 486.841 48.9356 487.534C48.1996 488.217 47.8316 489.108 47.8316 490.206C47.8316 490.846 47.981 491.454 48.2796 492.03C48.5676 492.606 49.0263 493.076 49.6556 493.438C50.2743 493.801 51.069 493.982 52.0396 493.982L51.4316 495.486C50.205 495.508 49.133 495.257 48.2156 494.734C47.2876 494.201 46.5676 493.476 46.0556 492.558C45.5436 491.641 45.2876 490.606 45.2876 489.454C45.2876 487.652 45.837 486.233 46.9356 485.198C48.0236 484.164 49.4903 483.646 51.3356 483.646L63.0156 483.662L63.0156 486.51ZM63.0156 507.182L45.7356 507.182L45.7356 504.638L50.3596 504.638L50.3596 504.318L63.0156 504.318L63.0156 507.182ZM63.0156 496.83L52.0716 496.814C50.749 496.814 49.7143 497.156 48.9676 497.838C48.2103 498.521 47.8316 499.428 47.8316 500.558C47.8316 501.678 48.2156 502.585 48.9836 503.278C49.7516 503.972 50.7703 504.318 52.0396 504.318L51.1436 505.822C50.0236 505.822 49.021 505.556 48.1356 505.022C47.2503 504.489 46.557 503.764 46.0556 502.846C45.5436 501.929 45.2876 500.889 45.2876 499.726C45.2876 498.564 45.533 497.55 46.0236 496.686C46.5143 495.822 47.2183 495.156 48.1356 494.686C49.0423 494.217 50.125 493.982 51.3836 493.982L63.0156 493.998L63.0156 496.83ZM63.4956 471.543C63.4956 473.164 63.0956 474.529 62.2956 475.639C61.485 476.748 60.3916 477.591 59.0156 478.167C57.629 478.732 56.077 479.015 54.3596 479.015C52.621 479.015 51.0636 478.732 49.6876 478.167C48.3116 477.591 47.229 476.748 46.4396 475.639C45.6503 474.519 45.2556 473.148 45.2556 471.527C45.2556 469.927 45.6556 468.551 46.4556 467.399C47.245 466.236 48.3276 465.345 49.7036 464.727C51.0796 464.108 52.6316 463.799 54.3596 463.799C56.0876 463.799 57.6396 464.108 59.0156 464.727C60.3916 465.345 61.485 466.236 62.2956 467.399C63.0956 468.551 63.4956 469.932 63.4956 471.543ZM63.0156 479.495L39.9756 479.495L39.9756 476.631L50.2956 476.631L50.2956 476.951L63.0156 476.951L63.0156 479.495ZM60.8876 471.895C60.8876 470.753 60.5996 469.809 60.0236 469.063C59.4476 468.316 58.669 467.756 57.6876 467.383C56.6956 467.009 55.5863 466.823 54.3596 466.823C53.1436 466.823 52.045 467.009 51.0636 467.383C50.0823 467.745 49.3036 468.311 48.7276 469.079C48.1516 469.836 47.8636 470.801 47.8636 471.975C47.8636 473.095 48.141 474.023 48.6956 474.759C49.2396 475.495 50.0023 476.044 50.9836 476.407C51.9543 476.769 53.0796 476.951 54.3596 476.951C55.6183 476.951 56.7436 476.775 57.7356 476.423C58.717 476.06 59.4903 475.505 60.0556 474.759C60.6103 474.012 60.8876 473.057 60.8876 471.895ZM63.4956 452.803C63.4956 454.499 63.1223 455.982 62.3756 457.251C61.6183 458.51 60.5676 459.491 59.2236 460.195C57.869 460.899 56.2903 461.251 54.4876 461.251C52.5996 461.251 50.9676 460.905 49.5916 460.211C48.205 459.518 47.1383 458.553 46.3916 457.315C45.6343 456.067 45.2556 454.606 45.2556 452.931C45.2556 451.193 45.6556 449.715 46.4556 448.499C47.2556 447.273 48.397 446.355 49.8796 445.747C51.3623 445.129 53.1276 444.862 55.1756 444.947L55.1756 447.827L54.1516 447.827C52.029 447.859 50.445 448.291 49.3996 449.123C48.3436 449.955 47.8156 451.193 47.8156 452.835C47.8156 454.595 48.381 455.934 49.5116 456.851C50.6423 457.769 52.2636 458.227 54.3756 458.227C56.413 458.227 57.9916 457.769 59.1116 456.851C60.2316 455.934 60.7916 454.627 60.7916 452.931C60.7916 451.79 60.5303 450.798 60.0076 449.955C59.485 449.113 58.733 448.451 57.7516 447.971L58.6956 445.235C60.221 445.907 61.405 446.921 62.2476 448.275C63.0796 449.619 63.4956 451.129 63.4956 452.803ZM55.1756 459.187L52.8876 459.187L52.8876 446.419L55.1756 446.419L55.1756 459.187ZM63.0156 441.385L45.7356 441.385L45.7356 438.841L49.9116 438.841L49.3676 439.257C48.8343 439.054 48.3436 438.793 47.8956 438.473C47.4476 438.142 47.0796 437.774 46.7916 437.369C46.429 436.921 46.1516 436.414 45.9596 435.849C45.7676 435.284 45.6556 434.708 45.6236 434.121C45.581 433.534 45.6183 432.985 45.7356 432.473L48.4076 432.473C48.2476 433.07 48.205 433.726 48.2796 434.441C48.3543 435.156 48.6156 435.817 49.0636 436.425C49.4583 436.98 49.9383 437.412 50.5036 437.721C51.069 438.02 51.6823 438.228 52.3436 438.345C52.9943 438.462 53.661 438.521 54.3436 438.521L63.0156 438.521L63.0156 441.385ZM63.4956 415.681C63.4956 417.399 63.1063 418.881 62.3276 420.129C61.549 421.367 60.4716 422.321 59.0956 422.993C57.7196 423.665 56.141 424.001 54.3596 424.001C52.5463 424.001 50.957 423.66 49.5916 422.977C48.2263 422.295 47.165 421.329 46.4076 420.081C45.6396 418.833 45.2556 417.367 45.2556 415.681C45.2556 413.953 45.645 412.465 46.4236 411.217C47.1916 409.969 48.2636 409.015 49.6396 408.353C51.005 407.681 52.5783 407.345 54.3596 407.345C56.1623 407.345 57.7516 407.681 59.1276 408.353C60.493 409.025 61.565 409.985 62.3436 411.233C63.1116 412.481 63.4956 413.964 63.4956 415.681ZM60.7916 415.681C60.7916 413.889 60.1943 412.556 58.9996 411.681C57.805 410.807 56.2583 410.369 54.3596 410.369C52.4076 410.369 50.8556 410.812 49.7036 411.697C48.541 412.583 47.9596 413.911 47.9596 415.681C47.9596 416.887 48.2316 417.879 48.7756 418.657C49.3196 419.436 50.0716 420.017 51.0316 420.401C51.9916 420.785 53.101 420.977 54.3596 420.977C56.301 420.977 57.8583 420.529 59.0316 419.633C60.205 418.737 60.7916 417.42 60.7916 415.681ZM63.0156 402.174L44.7916 402.174C44.3436 402.174 43.8903 402.153 43.4316 402.11C42.9623 402.068 42.509 401.972 42.0716 401.822C41.6236 401.673 41.213 401.428 40.8396 401.086C40.4023 400.692 40.093 400.26 39.9116 399.79C39.7196 399.321 39.6023 398.846 39.5596 398.366C39.517 397.876 39.4956 397.412 39.4956 396.974L39.4956 394.782L41.8636 394.782L41.8636 396.814C41.8636 397.657 42.0716 398.286 42.4876 398.702C42.893 399.118 43.5116 399.326 44.3436 399.326L63.0156 399.326L63.0156 402.174ZM48.0876 405.102L45.7356 405.102L45.7356 394.782L48.0876 394.782L48.0876 405.102ZM71.1756 378.83C71.1756 379.737 71.037 380.622 70.7596 381.486C70.4823 382.35 70.061 383.145 69.4956 383.87C68.941 384.585 68.237 385.182 67.3836 385.662L66.0076 383.054C66.8503 382.628 67.4636 382.025 67.8476 381.246C68.2316 380.457 68.4236 379.646 68.4236 378.814C68.4236 377.716 68.221 376.804 67.8156 376.078C67.421 375.353 66.829 374.82 66.0396 374.478C65.2503 374.126 64.269 373.956 63.0956 373.966L58.3756 373.966L58.3756 373.63L45.7356 373.63L45.7356 371.102L63.1276 371.102C63.597 371.102 64.0503 371.118 64.4876 371.15C64.925 371.172 65.357 371.225 65.7836 371.31C67.0103 371.534 68.0183 371.977 68.8076 372.638C69.6076 373.3 70.1996 374.153 70.5836 375.198C70.9783 376.244 71.1756 377.454 71.1756 378.83ZM63.4956 379.038C63.4956 380.649 63.0956 382.03 62.2956 383.182C61.485 384.334 60.3916 385.225 59.0156 385.854C57.6396 386.473 56.0876 386.782 54.3596 386.782C52.6316 386.782 51.0796 386.473 49.7036 385.854C48.3276 385.225 47.245 384.334 46.4556 383.182C45.6556 382.03 45.2556 380.654 45.2556 379.054C45.2556 377.422 45.6503 376.052 46.4396 374.942C47.2289 373.833 48.3116 372.996 49.6876 372.43C51.0636 371.854 52.6209 371.566 54.3596 371.566C56.077 371.566 57.629 371.854 59.0156 372.43C60.3916 372.996 61.485 373.833 62.2956 374.942C63.0956 376.052 63.4956 377.417 63.4956 379.038ZM60.8876 378.686C60.8876 377.524 60.6103 376.569 60.0556 375.822C59.4903 375.076 58.717 374.526 57.7356 374.174C56.7436 373.812 55.6183 373.63 54.3596 373.63C53.0796 373.63 51.9543 373.812 50.9836 374.174C50.0023 374.526 49.2396 375.07 48.6956 375.806C48.141 376.542 47.8636 377.476 47.8636 378.606C47.8636 379.78 48.1516 380.75 48.7276 381.518C49.3036 382.276 50.0823 382.841 51.0636 383.214C52.045 383.577 53.1436 383.758 54.3596 383.758C55.5863 383.758 56.6956 383.572 57.6876 383.198C58.669 382.825 59.4476 382.265 60.0236 381.518C60.5996 380.761 60.8876 379.817 60.8876 378.686ZM63.4956 359.147C63.4956 360.843 63.1223 362.326 62.3756 363.595C61.6183 364.854 60.5676 365.835 59.2236 366.539C57.8689 367.243 56.2903 367.595 54.4876 367.595C52.5996 367.595 50.9676 367.248 49.5916 366.555C48.2049 365.862 47.1383 364.896 46.3916 363.659C45.6343 362.411 45.2556 360.95 45.2556 359.275C45.2556 357.536 45.6556 356.059 46.4556 354.843C47.2556 353.616 48.3969 352.699 49.8796 352.091C51.3623 351.472 53.1276 351.206 55.1756 351.291L55.1756 354.171L54.1516 354.171C52.0289 354.203 50.4449 354.635 49.3996 355.467C48.3436 356.299 47.8156 357.536 47.8156 359.179C47.8156 360.939 48.3809 362.278 49.5116 363.195C50.6423 364.112 52.2636 364.571 54.3756 364.571C56.4129 364.571 57.9916 364.112 59.1116 363.195C60.2316 362.278 60.7916 360.971 60.7916 359.275C60.7916 358.134 60.5303 357.142 60.0076 356.299C59.4849 355.456 58.7329 354.795 57.7516 354.315L58.6956 351.579C60.2209 352.251 61.4049 353.264 62.2476 354.619C63.0796 355.963 63.4956 357.472 63.4956 359.147ZM55.1756 365.531L52.8876 365.531L52.8876 352.763L55.1756 352.763L55.1756 365.531ZM63.0156 335.893L54.3596 335.893C53.5383 335.893 52.7489 335.968 51.9916 336.117C51.2343 336.256 50.5569 336.507 49.9596 336.869C49.3516 337.221 48.8716 337.701 48.5196 338.309C48.1676 338.907 47.9916 339.664 47.9916 340.581C47.9916 341.296 48.1143 341.947 48.3596 342.533C48.5943 343.109 48.9569 343.605 49.4476 344.021C49.9383 344.437 50.5569 344.763 51.3036 344.997C52.0396 345.221 52.9089 345.333 53.9116 345.333L53.3356 347.205C51.6609 347.205 50.2263 346.907 49.0316 346.309C47.8263 345.701 46.9036 344.853 46.2636 343.765C45.6129 342.667 45.2876 341.376 45.2876 339.893C45.2876 338.773 45.4636 337.819 45.8156 337.029C46.1676 336.24 46.6369 335.584 47.2236 335.061C47.7996 334.539 48.4503 334.128 49.1756 333.829C49.8903 333.531 50.6209 333.323 51.3676 333.205C52.1036 333.077 52.8023 333.013 53.4636 333.013L63.0156 333.013L63.0156 335.893ZM63.0156 348.213L45.7356 348.213L45.7356 345.653L50.3596 345.653L50.3596 345.333L63.0156 345.333L63.0156 348.213ZM63.4956 321.522C63.4956 323.218 63.1223 324.701 62.3756 325.97C61.6183 327.229 60.5676 328.21 59.2236 328.914C57.8689 329.618 56.2903 329.97 54.4876 329.97C52.5996 329.97 50.9676 329.623 49.5916 328.93C48.2049 328.237 47.1383 327.271 46.3916 326.034C45.6343 324.786 45.2556 323.325 45.2556 321.65C45.2556 319.911 45.6556 318.434 46.4556 317.218C47.2556 315.991 48.3969 315.074 49.8796 314.466C51.3623 313.847 53.1276 313.581 55.1756 313.666L55.1756 316.546L54.1516 316.546C52.0289 316.578 50.4449 317.01 49.3996 317.842C48.3436 318.674 47.8156 319.911 47.8156 321.554C47.8156 323.314 48.3809 324.653 49.5116 325.57C50.6423 326.487 52.2636 326.946 54.3756 326.946C56.4129 326.946 57.9916 326.487 59.1116 325.57C60.2316 324.653 60.7916 323.346 60.7916 321.65C60.7916 320.509 60.5303 319.517 60.0076 318.674C59.4849 317.831 58.7329 317.17 57.7516 316.69L58.6956 313.954C60.2209 314.626 61.4049 315.639 62.2476 316.994C63.0796 318.338 63.4956 319.847 63.4956 321.522ZM55.1756 327.906L52.8876 327.906L52.8876 315.138L55.1756 315.138L55.1756 327.906ZM63.0156 305.617L54.2796 299.009L45.7356 305.473L45.7356 302.081L52.0716 297.345L45.7356 292.657L45.7356 289.265L54.2796 295.729L63.0156 289.105L63.0156 292.513L56.4876 297.345L63.0156 302.209L63.0156 305.617ZM63.0156 282.525L43.1276 282.525L45.7516 286.861L42.5676 286.861L39.9756 282.525L39.9756 279.629L63.0156 279.629L63.0156 282.525ZM63.4956 265.765C63.4956 267.259 63.1596 268.592 62.4876 269.765C61.8049 270.928 60.8823 271.851 59.7196 272.533C58.5463 273.205 57.2129 273.541 55.7196 273.541L47.2716 273.541C45.7783 273.541 44.4449 273.205 43.2716 272.533C42.0983 271.851 41.1756 270.928 40.5036 269.765C39.8316 268.592 39.4956 267.259 39.4956 265.765C39.4956 264.272 39.8316 262.939 40.5036 261.765C41.1756 260.592 42.0983 259.669 43.2716 258.997C44.4449 258.325 45.7783 257.989 47.2716 257.989L55.7196 257.989C57.2129 257.989 58.5463 258.325 59.7196 258.997C60.8823 259.669 61.8049 260.592 62.4876 261.765C63.1596 262.939 63.4956 264.272 63.4956 265.765ZM60.7596 265.765C60.7596 264.859 60.5409 264.037 60.1036 263.301C59.6663 262.565 59.0796 261.979 58.3436 261.541C57.5969 261.104 56.7756 260.885 55.8796 260.885L47.0956 260.885C46.1889 260.885 45.3676 261.104 44.6316 261.541C43.8956 261.979 43.3089 262.565 42.8716 263.301C42.4343 264.037 42.2156 264.859 42.2156 265.765C42.2156 266.661 42.4343 267.483 42.8716 268.229C43.3089 268.965 43.8956 269.552 44.6316 269.989C45.3676 270.427 46.1889 270.645 47.0956 270.645L55.8796 270.645C56.7756 270.645 57.5969 270.427 58.3436 269.989C59.0796 269.552 59.6663 268.965 60.1036 268.229C60.5409 267.483 60.7596 266.661 60.7596 265.765ZM63.4956 245.734C63.4956 247.227 63.1596 248.561 62.4876 249.734C61.8049 250.897 60.8823 251.819 59.7196 252.502C58.5463 253.174 57.2129 253.51 55.7196 253.51L47.2716 253.51C45.7783 253.51 44.4449 253.174 43.2716 252.502C42.0983 251.819 41.1756 250.897 40.5036 249.734C39.8316 248.561 39.4956 247.227 39.4956 245.734C39.4956 244.241 39.8316 242.907 40.5036 241.734C41.1756 240.561 42.0983 239.638 43.2716 238.966C44.4449 238.294 45.7783 237.958 47.2716 237.958L55.7196 237.958C57.2129 237.958 58.5463 238.294 59.7196 238.966C60.8823 239.638 61.8049 240.561 62.4876 241.734C63.1596 242.907 63.4956 244.241 63.4956 245.734ZM60.7596 245.734C60.7596 244.827 60.5409 244.006 60.1036 243.27C59.6663 242.534 59.0796 241.947 58.3436 241.51C57.5969 241.073 56.7756 240.854 55.8796 240.854L47.0956 240.854C46.1889 240.854 45.3676 241.073 44.6316 241.51C43.8956 241.947 43.3089 242.534 42.8716 243.27C42.4343 244.006 42.2156 244.827 42.2156 245.734C42.2156 246.63 42.4343 247.451 42.8716 248.198C43.3089 248.934 43.8956 249.521 44.6316 249.958C45.3676 250.395 46.1889 250.614 47.0956 250.614L55.8796 250.614C56.7756 250.614 57.5969 250.395 58.3436 249.958C59.0796 249.521 59.6663 248.934 60.1036 248.198C60.5409 247.451 60.7596 246.63 60.7596 245.734ZM63.4956 225.703C63.4956 227.196 63.1596 228.529 62.4876 229.703C61.8049 230.865 60.8823 231.788 59.7196 232.471C58.5463 233.143 57.2129 233.479 55.7196 233.479L47.2716 233.479C45.7783 233.479 44.4449 233.143 43.2716 232.471C42.0983 231.788 41.1756 230.865 40.5036 229.703C39.8316 228.529 39.4956 227.196 39.4956 225.703C39.4956 224.209 39.8316 222.876 40.5036 221.703C41.1756 220.529 42.0983 219.607 43.2716 218.935C44.4449 218.263 45.7783 217.927 47.2716 217.927L55.7196 217.927C57.2129 217.927 58.5463 218.263 59.7196 218.935C60.8823 219.607 61.8049 220.529 62.4876 221.703C63.1596 222.876 63.4956 224.209 63.4956 225.703ZM60.7596 225.703C60.7596 224.796 60.5409 223.975 60.1036 223.239C59.6663 222.503 59.0796 221.916 58.3436 221.479C57.5969 221.041 56.7756 220.823 55.8796 220.823L47.0956 220.823C46.1889 220.823 45.3676 221.041 44.6316 221.479C43.8956 221.916 43.3089 222.503 42.8716 223.239C42.4343 223.975 42.2156 224.796 42.2156 225.703C42.2156 226.599 42.4343 227.42 42.8716 228.167C43.3089 228.903 43.8956 229.489 44.6316 229.927C45.3676 230.364 46.1889 230.583 47.0956 230.583L55.8796 230.583C56.7756 230.583 57.5969 230.364 58.3436 229.927C59.0796 229.489 59.6663 228.903 60.1036 228.167C60.5409 227.42 60.7596 226.599 60.7596 225.703Z" fill="#333333"/>
<path d="M217.249 162V146.748H211.357V144.72H225.277V146.748H219.385V162H217.249ZM230.786 162.36C229.498 162.36 228.386 162.068 227.45 161.484C226.522 160.9 225.806 160.092 225.302 159.06C224.798 158.028 224.546 156.844 224.546 155.508C224.546 154.148 224.802 152.956 225.314 151.932C225.826 150.908 226.55 150.112 227.486 149.544C228.422 148.968 229.522 148.68 230.786 148.68C232.082 148.68 233.198 148.972 234.134 149.556C235.07 150.132 235.786 150.936 236.282 151.968C236.786 152.992 237.038 154.172 237.038 155.508C237.038 156.86 236.786 158.052 236.282 159.084C235.778 160.108 235.058 160.912 234.122 161.496C233.186 162.072 232.074 162.36 230.786 162.36ZM230.786 160.332C232.13 160.332 233.13 159.884 233.786 158.988C234.442 158.092 234.77 156.932 234.77 155.508C234.77 154.044 234.438 152.88 233.774 152.016C233.11 151.144 232.114 150.708 230.786 150.708C229.882 150.708 229.138 150.912 228.554 151.32C227.97 151.728 227.534 152.292 227.246 153.012C226.958 153.732 226.814 154.564 226.814 155.508C226.814 156.964 227.15 158.132 227.822 159.012C228.494 159.892 229.482 160.332 230.786 160.332ZM246.916 162C246.148 162.152 245.388 162.212 244.636 162.18C243.892 162.156 243.228 162.008 242.644 161.736C242.06 161.456 241.616 161.024 241.312 160.44C241.056 159.928 240.916 159.412 240.892 158.892C240.876 158.364 240.868 157.768 240.868 157.104V145.44H243.004V157.008C243.004 157.536 243.008 157.988 243.016 158.364C243.032 158.74 243.116 159.064 243.268 159.336C243.556 159.848 244.012 160.148 244.636 160.236C245.268 160.324 246.028 160.3 246.916 160.164V162ZM238.24 150.804V149.04H246.916V150.804H238.24ZM253.231 162.36C252.263 162.36 251.451 162.184 250.795 161.832C250.147 161.472 249.655 161 249.319 160.416C248.991 159.832 248.827 159.192 248.827 158.496C248.827 157.816 248.955 157.228 249.211 156.732C249.475 156.228 249.843 155.812 250.315 155.484C250.787 155.148 251.351 154.884 252.007 154.692C252.623 154.524 253.311 154.38 254.071 154.26C254.839 154.132 255.615 154.016 256.399 153.912C257.183 153.808 257.915 153.708 258.595 153.612L257.827 154.056C257.851 152.904 257.619 152.052 257.131 151.5C256.651 150.948 255.819 150.672 254.635 150.672C253.851 150.672 253.163 150.852 252.571 151.212C251.987 151.564 251.575 152.14 251.335 152.94L249.307 152.328C249.619 151.192 250.223 150.3 251.119 149.652C252.015 149.004 253.195 148.68 254.659 148.68C255.835 148.68 256.843 148.892 257.683 149.316C258.531 149.732 259.139 150.364 259.507 151.212C259.691 151.612 259.807 152.048 259.855 152.52C259.903 152.984 259.927 153.472 259.927 153.984V162H258.031V158.892L258.475 159.18C257.987 160.228 257.303 161.02 256.423 161.556C255.551 162.092 254.487 162.36 253.231 162.36ZM253.555 160.572C254.323 160.572 254.987 160.436 255.547 160.164C256.115 159.884 256.571 159.52 256.915 159.072C257.259 158.616 257.483 158.12 257.587 157.584C257.707 157.184 257.771 156.74 257.779 156.252C257.795 155.756 257.803 155.376 257.803 155.112L258.547 155.436C257.851 155.532 257.167 155.624 256.495 155.712C255.823 155.8 255.187 155.896 254.587 156C253.987 156.096 253.447 156.212 252.967 156.348C252.615 156.46 252.283 156.604 251.971 156.78C251.667 156.956 251.419 157.184 251.227 157.464C251.043 157.736 250.951 158.076 250.951 158.484C250.951 158.836 251.039 159.172 251.215 159.492C251.399 159.812 251.679 160.072 252.055 160.272C252.439 160.472 252.939 160.572 253.555 160.572ZM263.287 162V144.36H265.423V162H263.287ZM273.828 162V144.72H280.656C280.824 144.72 281.024 144.728 281.256 144.744C281.488 144.752 281.712 144.776 281.928 144.816C282.864 144.96 283.648 145.28 284.28 145.776C284.92 146.272 285.4 146.9 285.72 147.66C286.04 148.412 286.2 149.248 286.2 150.168C286.2 151.504 285.852 152.664 285.156 153.648C284.46 154.624 283.44 155.236 282.096 155.484L281.28 155.616H275.964V162H273.828ZM284.112 162L280.704 154.968L282.816 154.32L286.56 162H284.112ZM275.964 153.588H280.584C280.736 153.588 280.908 153.58 281.1 153.564C281.3 153.548 281.488 153.52 281.664 153.48C282.216 153.352 282.664 153.12 283.008 152.784C283.36 152.44 283.616 152.04 283.776 151.584C283.936 151.12 284.016 150.648 284.016 150.168C284.016 149.688 283.936 149.22 283.776 148.764C283.616 148.3 283.36 147.896 283.008 147.552C282.664 147.208 282.216 146.976 281.664 146.856C281.488 146.808 281.3 146.78 281.1 146.772C280.908 146.756 280.736 146.748 280.584 146.748H275.964V153.588ZM289.203 162V144.72H291.363L300.375 158.22V144.72L302.535 144.72V162H300.375L291.363 148.488V162H289.203ZM304.691 162L310.475 144.72H313.451L319.235 162H317.015L311.603 145.968H312.275L306.911 162H304.691ZM307.475 157.956V155.952L316.451 155.952V157.956L307.475 157.956Z" fill="#333333"/>
<path d="M300.844 193V175.72H307.672C307.84 175.72 308.04 175.728 308.272 175.744C308.504 175.752 308.728 175.776 308.944 175.816C309.88 175.96 310.664 176.28 311.296 176.776C311.936 177.272 312.416 177.9 312.736 178.66C313.056 179.412 313.216 180.248 313.216 181.168C313.216 182.504 312.868 183.664 312.172 184.648C311.476 185.624 310.456 186.236 309.112 186.484L308.296 186.616H302.98V193H300.844ZM311.128 193L307.72 185.968L309.832 185.32L313.576 193H311.128ZM302.98 184.588H307.6C307.752 184.588 307.924 184.58 308.116 184.564C308.316 184.548 308.504 184.52 308.68 184.48C309.232 184.352 309.68 184.12 310.024 183.784C310.376 183.44 310.632 183.04 310.792 182.584C310.952 182.12 311.032 181.648 311.032 181.168C311.032 180.688 310.952 180.22 310.792 179.764C310.632 179.3 310.376 178.896 310.024 178.552C309.68 178.208 309.232 177.976 308.68 177.856C308.504 177.808 308.316 177.78 308.116 177.772C307.924 177.756 307.752 177.748 307.6 177.748H302.98V184.588ZM316.219 193V175.72H318.379L327.391 189.22V175.72H329.551V193H327.391L318.379 179.488V193H316.219ZM336.591 193.36C335.623 193.36 334.811 193.184 334.155 192.832C333.507 192.472 333.015 192 332.679 191.416C332.351 190.832 332.187 190.192 332.187 189.496C332.187 188.816 332.315 188.228 332.571 187.732C332.835 187.228 333.203 186.812 333.675 186.484C334.147 186.148 334.711 185.884 335.367 185.692C335.983 185.524 336.671 185.38 337.431 185.26C338.199 185.132 338.975 185.016 339.759 184.912C340.543 184.808 341.275 184.708 341.955 184.612L341.187 185.056C341.211 183.904 340.979 183.052 340.491 182.5C340.011 181.948 339.179 181.672 337.995 181.672C337.211 181.672 336.523 181.852 335.931 182.212C335.347 182.564 334.935 183.14 334.695 183.94L332.667 183.328C332.979 182.192 333.583 181.3 334.479 180.652C335.375 180.004 336.555 179.68 338.019 179.68C339.195 179.68 340.203 179.892 341.043 180.316C341.891 180.732 342.499 181.364 342.867 182.212C343.051 182.612 343.167 183.048 343.215 183.52C343.263 183.984 343.287 184.472 343.287 184.984V193H341.391V189.892L341.835 190.18C341.347 191.228 340.663 192.02 339.783 192.556C338.911 193.092 337.847 193.36 336.591 193.36ZM336.915 191.572C337.683 191.572 338.347 191.436 338.907 191.164C339.475 190.884 339.931 190.52 340.275 190.072C340.619 189.616 340.843 189.12 340.947 188.584C341.067 188.184 341.131 187.74 341.139 187.252C341.155 186.756 341.163 186.376 341.163 186.112L341.907 186.436C341.211 186.532 340.527 186.624 339.855 186.712C339.183 186.8 338.547 186.896 337.947 187C337.347 187.096 336.807 187.212 336.327 187.348C335.975 187.46 335.643 187.604 335.331 187.78C335.027 187.956 334.779 188.184 334.587 188.464C334.403 188.736 334.311 189.076 334.311 189.484C334.311 189.836 334.399 190.172 334.575 190.492C334.759 190.812 335.039 191.072 335.415 191.272C335.799 191.472 336.299 191.572 336.915 191.572ZM351.303 193.348C349.759 193.348 348.491 193.012 347.499 192.34C346.515 191.66 345.911 190.712 345.687 189.496L347.871 189.148C348.047 189.852 348.451 190.412 349.083 190.828C349.715 191.236 350.499 191.44 351.435 191.44C352.323 191.44 353.019 191.256 353.523 190.888C354.027 190.52 354.279 190.02 354.279 189.388C354.279 189.02 354.195 188.724 354.027 188.5C353.859 188.268 353.511 188.052 352.983 187.852C352.463 187.652 351.675 187.412 350.619 187.132C349.475 186.828 348.575 186.512 347.919 186.184C347.263 185.856 346.795 185.476 346.515 185.044C346.235 184.612 346.095 184.088 346.095 183.472C346.095 182.712 346.303 182.048 346.719 181.48C347.135 180.904 347.715 180.46 348.459 180.148C349.211 179.836 350.083 179.68 351.075 179.68C352.059 179.68 352.939 179.836 353.715 180.148C354.491 180.46 355.115 180.904 355.587 181.48C356.067 182.048 356.351 182.712 356.439 183.472L354.255 183.868C354.151 183.172 353.815 182.624 353.247 182.224C352.687 181.824 351.963 181.612 351.075 181.588C350.235 181.556 349.551 181.704 349.023 182.032C348.503 182.36 348.243 182.804 348.243 183.364C348.243 183.676 348.339 183.944 348.531 184.168C348.731 184.392 349.095 184.604 349.623 184.804C350.159 185.004 350.935 185.232 351.951 185.488C353.095 185.776 353.995 186.092 354.651 186.436C355.315 186.772 355.787 187.172 356.067 187.636C356.347 188.092 356.487 188.656 356.487 189.328C356.487 190.576 356.027 191.56 355.107 192.28C354.187 192.992 352.919 193.348 351.303 193.348ZM364.749 193.36C363.477 193.36 362.365 193.08 361.413 192.52C360.469 191.952 359.733 191.164 359.205 190.156C358.677 189.14 358.413 187.956 358.413 186.604C358.413 185.188 358.673 183.964 359.193 182.932C359.713 181.892 360.437 181.092 361.365 180.532C362.301 179.964 363.397 179.68 364.653 179.68C365.957 179.68 367.065 179.98 367.977 180.58C368.897 181.18 369.585 182.036 370.041 183.148C370.505 184.26 370.705 185.584 370.641 187.12H368.481V186.352C368.457 184.76 368.133 183.572 367.509 182.788C366.885 181.996 365.957 181.6 364.725 181.6C363.405 181.6 362.401 182.024 361.713 182.872C361.025 183.72 360.681 184.936 360.681 186.52C360.681 188.048 361.025 189.232 361.713 190.072C362.401 190.912 363.381 191.332 364.653 191.332C365.509 191.332 366.253 191.136 366.885 190.744C367.517 190.352 368.013 189.788 368.373 189.052L370.425 189.76C369.921 190.904 369.161 191.792 368.145 192.424C367.137 193.048 366.005 193.36 364.749 193.36ZM359.961 187.12V185.404H369.537V187.12H359.961ZM378.118 193V175.72H380.254V183.34H389.35V175.72L391.486 175.72V193H389.35V185.368H380.254V193H378.118Z" fill="#333333"/>
<path d="M402.375 219L402.387 210.708C402.387 209.74 402.127 208.984 401.607 208.44C401.095 207.888 400.427 207.612 399.603 207.612C399.123 207.612 398.667 207.724 398.235 207.948C397.803 208.164 397.451 208.508 397.179 208.98C396.907 209.444 396.771 210.04 396.771 210.768L395.643 210.312C395.627 209.392 395.815 208.588 396.207 207.9C396.607 207.204 397.151 206.664 397.839 206.28C398.527 205.896 399.303 205.704 400.167 205.704C401.519 205.704 402.583 206.116 403.359 206.94C404.135 207.756 404.523 208.856 404.523 210.24L404.511 219H402.375ZM386.871 219V206.04H388.779V209.508H389.019V219H386.871ZM394.635 219L394.647 210.792C394.647 209.8 394.391 209.024 393.879 208.464C393.367 207.896 392.687 207.612 391.839 207.612C390.999 207.612 390.319 207.9 389.799 208.476C389.279 209.052 389.019 209.816 389.019 210.768L387.891 210.096C387.891 209.256 388.091 208.504 388.491 207.84C388.891 207.176 389.435 206.656 390.123 206.28C390.811 205.896 391.591 205.704 392.463 205.704C393.335 205.704 394.095 205.888 394.743 206.256C395.391 206.624 395.891 207.152 396.243 207.84C396.595 208.52 396.771 209.332 396.771 210.276L396.759 219H394.635ZM407.649 219V201.72H414.477C414.645 201.72 414.845 201.728 415.077 201.744C415.309 201.752 415.533 201.776 415.749 201.816C416.685 201.96 417.469 202.28 418.101 202.776C418.741 203.272 419.221 203.9 419.541 204.66C419.861 205.412 420.021 206.248 420.021 207.168C420.021 208.504 419.673 209.664 418.977 210.648C418.281 211.624 417.261 212.236 415.917 212.484L415.101 212.616H409.785V219H407.649ZM417.933 219L414.525 211.968L416.637 211.32L420.381 219H417.933ZM409.785 210.588H414.405C414.557 210.588 414.729 210.58 414.921 210.564C415.121 210.548 415.309 210.52 415.485 210.48C416.037 210.352 416.485 210.12 416.829 209.784C417.181 209.44 417.437 209.04 417.597 208.584C417.757 208.12 417.837 207.648 417.837 207.168C417.837 206.688 417.757 206.22 417.597 205.764C417.437 205.3 417.181 204.896 416.829 204.552C416.485 204.208 416.037 203.976 415.485 203.856C415.309 203.808 415.121 203.78 414.921 203.772C414.729 203.756 414.557 203.748 414.405 203.748H409.785V210.588ZM423.024 219V201.72H425.184L434.196 215.22V201.72H436.356V219H434.196L425.184 205.488V219H423.024ZM438.511 219L444.295 201.72H447.271L453.055 219H450.835L445.423 202.968H446.095L440.731 219H438.511ZM441.295 214.956V212.952H450.271V214.956H441.295Z" fill="#333333"/>
<path d="M457.922 255V237.72H464.774C465.942 237.72 466.898 237.956 467.642 238.428C468.394 238.892 468.95 239.488 469.31 240.216C469.678 240.944 469.862 241.696 469.862 242.472C469.862 243.424 469.634 244.232 469.178 244.896C468.73 245.56 468.118 246.008 467.342 246.24V245.64C468.43 245.888 469.254 246.404 469.814 247.188C470.382 247.972 470.666 248.864 470.666 249.864C470.666 250.888 470.47 251.784 470.078 252.552C469.686 253.32 469.102 253.92 468.326 254.352C467.558 254.784 466.606 255 465.47 255H457.922ZM460.85 252.276H465.11C465.614 252.276 466.066 252.176 466.466 251.976C466.866 251.768 467.178 251.48 467.402 251.112C467.634 250.736 467.75 250.292 467.75 249.78C467.75 249.316 467.65 248.9 467.45 248.532C467.25 248.164 466.958 247.872 466.574 247.656C466.19 247.432 465.73 247.32 465.194 247.32H460.85V252.276ZM460.85 244.62H464.738C465.154 244.62 465.526 244.54 465.854 244.38C466.182 244.22 466.442 243.984 466.634 243.672C466.826 243.36 466.922 242.976 466.922 242.52C466.922 241.92 466.73 241.42 466.346 241.02C465.962 240.62 465.426 240.42 464.738 240.42H460.85V244.62ZM473.303 255V237.72H476.195V255H473.303ZM479.789 255V237.72H486.929C487.097 237.72 487.313 237.728 487.577 237.744C487.841 237.752 488.085 237.776 488.309 237.816C489.309 237.968 490.133 238.3 490.781 238.812C491.437 239.324 491.921 239.972 492.233 240.756C492.553 241.532 492.713 242.396 492.713 243.348C492.713 244.756 492.357 245.968 491.645 246.984C490.933 247.992 489.841 248.616 488.369 248.856L487.133 248.964H482.681V255H479.789ZM489.713 255L486.305 247.968L489.245 247.32L492.989 255H489.713ZM482.681 246.264H486.809C486.969 246.264 487.149 246.256 487.349 246.24C487.549 246.224 487.733 246.192 487.901 246.144C488.381 246.024 488.757 245.812 489.029 245.508C489.309 245.204 489.505 244.86 489.617 244.476C489.737 244.092 489.797 243.716 489.797 243.348C489.797 242.98 489.737 242.604 489.617 242.22C489.505 241.828 489.309 241.48 489.029 241.176C488.757 240.872 488.381 240.66 487.901 240.54C487.733 240.492 487.549 240.464 487.349 240.456C487.149 240.44 486.969 240.432 486.809 240.432H482.681V246.264ZM499.785 255V240.432H494.193V237.72H508.269V240.432H502.677V255H499.785ZM518.322 251.784V247.488H514.026V245.22H518.322V240.936H520.59V245.22H524.862V247.488H520.59V251.784H518.322ZM532.782 255V237.72H539.922C540.09 237.72 540.306 237.728 540.57 237.744C540.834 237.752 541.078 237.776 541.302 237.816C542.302 237.968 543.126 238.3 543.774 238.812C544.43 239.324 544.914 239.972 545.226 240.756C545.546 241.532 545.706 242.396 545.706 243.348C545.706 244.292 545.546 245.156 545.226 245.94C544.906 246.716 544.418 247.36 543.762 247.872C543.114 248.384 542.294 248.716 541.302 248.868C541.078 248.9 540.83 248.924 540.558 248.94C540.294 248.956 540.082 248.964 539.922 248.964H535.674V255H532.782ZM535.674 246.264H539.802C539.962 246.264 540.142 246.256 540.342 246.24C540.542 246.224 540.726 246.192 540.894 246.144C541.374 246.024 541.75 245.812 542.022 245.508C542.302 245.204 542.498 244.86 542.61 244.476C542.73 244.092 542.79 243.716 542.79 243.348C542.79 242.98 542.73 242.604 542.61 242.22C542.498 241.828 542.302 241.48 542.022 241.176C541.75 240.872 541.374 240.66 540.894 240.54C540.726 240.492 540.542 240.464 540.342 240.456C540.142 240.44 539.962 240.432 539.802 240.432H535.674V246.264ZM548.11 255V237.72H559.27V240.432H551.002V244.692H557.83V247.404L551.002 247.404V252.288L559.27 252.288V255L548.11 255ZM562.149 255V237.72H569.289C569.457 237.72 569.673 237.728 569.937 237.744C570.201 237.752 570.445 237.776 570.669 237.816C571.669 237.968 572.493 238.3 573.141 238.812C573.797 239.324 574.281 239.972 574.593 240.756C574.913 241.532 575.073 242.396 575.073 243.348C575.073 244.756 574.717 245.968 574.005 246.984C573.293 247.992 572.201 248.616 570.729 248.856L569.493 248.964H565.041V255H562.149ZM572.073 255L568.665 247.968L571.605 247.32L575.349 255H572.073ZM565.041 246.264H569.169C569.329 246.264 569.509 246.256 569.709 246.24C569.909 246.224 570.093 246.192 570.261 246.144C570.741 246.024 571.117 245.812 571.389 245.508C571.669 245.204 571.865 244.86 571.977 244.476C572.097 244.092 572.157 243.716 572.157 243.348C572.157 242.98 572.097 242.604 571.977 242.22C571.865 241.828 571.669 241.48 571.389 241.176C571.117 240.872 570.741 240.66 570.261 240.54C570.093 240.492 569.909 240.464 569.709 240.456C569.509 240.44 569.329 240.432 569.169 240.432H565.041V246.264ZM577.993 255V237.72H583.501C583.645 237.72 583.929 237.724 584.353 237.732C584.785 237.74 585.201 237.768 585.601 237.816C586.969 237.992 588.125 238.48 589.069 239.28C590.021 240.072 590.741 241.084 591.229 242.316C591.717 243.548 591.961 244.896 591.961 246.36C591.961 247.824 591.717 249.172 591.229 250.404C590.741 251.636 590.021 252.652 589.069 253.452C588.125 254.244 586.969 254.728 585.601 254.904C585.209 254.952 584.797 254.98 584.365 254.988C583.933 254.996 583.645 255 583.501 255H577.993ZM580.933 252.276H583.501C583.741 252.276 584.045 252.268 584.413 252.252C584.789 252.236 585.121 252.2 585.409 252.144C586.225 251.992 586.889 251.628 587.401 251.052C587.913 250.476 588.289 249.776 588.529 248.952C588.777 248.128 588.901 247.264 588.901 246.36C588.901 245.424 588.777 244.544 588.529 243.72C588.281 242.896 587.897 242.204 587.377 241.644C586.865 241.084 586.209 240.728 585.409 240.576C585.121 240.512 584.789 240.476 584.413 240.468C584.045 240.452 583.741 240.444 583.501 240.444H580.933V252.276Z" fill="#49C9B2"/>
<line x1="152.079" y1="661.5" x2="585.31" y2="661.5" stroke="#111111"/>
<line x1="157.079" y1="597" x2="169.085" y2="597" stroke="#111111" stroke-width="2"/>
<line x1="153.079" y1="533" x2="169.088" y2="533" stroke="#111111" stroke-width="2"/>
<line x1="157.079" y1="469" x2="169.085" y2="469" stroke="#111111" stroke-width="2"/>
<line x1="153.079" y1="405" x2="169.088" y2="405" stroke="#111111" stroke-width="2"/>
<line x1="157.079" y1="341" x2="169.085" y2="341" stroke="#111111" stroke-width="2"/>
<line x1="153.079" y1="277" x2="169.088" y2="277" stroke="#111111" stroke-width="2"/>
<line x1="168.587" y1="661" x2="168.587" y2="277" stroke="#111111"/>
<path d="M115.312 674V653.584L110.976 656.192V653.552L115.312 650.96H117.696V674H115.312ZM131.284 674.48C129.866 674.48 128.586 674.149 127.444 673.488C126.314 672.827 125.418 671.931 124.756 670.8C124.095 669.659 123.764 668.379 123.764 666.96V658C123.764 656.581 124.095 655.307 124.756 654.176C125.418 653.035 126.314 652.133 127.444 651.472C128.586 650.811 129.866 650.48 131.284 650.48C132.703 650.48 133.978 650.811 135.108 651.472C136.25 652.133 137.151 653.035 137.812 654.176C138.474 655.307 138.804 656.581 138.804 658V666.96C138.804 668.379 138.474 669.659 137.812 670.8C137.151 671.931 136.25 672.827 135.108 673.488C133.978 674.149 132.703 674.48 131.284 674.48ZM131.284 672.208C132.234 672.208 133.098 671.979 133.876 671.52C134.655 671.051 135.274 670.427 135.732 669.648C136.191 668.869 136.42 668.011 136.42 667.072V657.888C136.42 656.939 136.191 656.075 135.732 655.296C135.274 654.517 134.655 653.899 133.876 653.44C133.098 652.971 132.234 652.736 131.284 652.736C130.335 652.736 129.471 652.971 128.692 653.44C127.914 653.899 127.295 654.517 126.836 655.296C126.378 656.075 126.148 656.939 126.148 657.888V667.072C126.148 668.011 126.378 668.869 126.836 669.648C127.295 670.427 127.914 671.051 128.692 671.52C129.471 671.979 130.335 672.208 131.284 672.208Z" fill="#333333"/>
<path d="M115.312 545V524.584L110.976 527.192V524.552L115.312 521.96H117.696V545H115.312ZM123.124 544.984L123.14 542.84L133.556 533.432C134.452 532.621 135.044 531.853 135.332 531.128C135.631 530.392 135.78 529.624 135.78 528.824C135.78 527.875 135.556 527.016 135.108 526.248C134.66 525.48 134.058 524.872 133.3 524.424C132.543 523.965 131.695 523.736 130.756 523.736C129.775 523.736 128.9 523.971 128.132 524.44C127.364 524.909 126.756 525.528 126.308 526.296C125.871 527.064 125.658 527.901 125.668 528.808H123.268C123.268 527.411 123.599 526.157 124.26 525.048C124.922 523.939 125.818 523.069 126.948 522.44C128.079 521.8 129.359 521.48 130.788 521.48C132.186 521.48 133.439 521.811 134.548 522.472C135.668 523.123 136.548 524.008 137.188 525.128C137.839 526.237 138.164 527.475 138.164 528.84C138.164 529.8 138.047 530.648 137.812 531.384C137.588 532.109 137.231 532.787 136.74 533.416C136.26 534.035 135.647 534.675 134.9 535.336L125.652 543.688L125.284 542.728H138.164V544.984H123.124Z" fill="#333333"/>
<path d="M115.312 419V398.584L110.976 401.192V398.552L115.312 395.96H117.696V419H115.312ZM133.908 419V414.536H123.124V412.296L130.836 395.96H133.476L125.764 412.296H133.908V405.576H136.276V412.296H138.788V414.536H136.276V419H133.908Z" fill="#333333"/>
<path d="M115.312 290V269.584L110.976 272.192V269.552L115.312 266.96H117.696V290H115.312ZM131.556 290.48C130.116 290.48 128.804 290.133 127.62 289.44C126.447 288.736 125.508 287.787 124.804 286.592C124.111 285.387 123.764 284.032 123.764 282.528V274.544C123.764 272.997 124.111 271.621 124.804 270.416C125.498 269.2 126.442 268.245 127.636 267.552C128.842 266.848 130.207 266.496 131.732 266.496C133.044 266.496 134.26 266.784 135.38 267.36C136.511 267.936 137.434 268.741 138.148 269.776L136.34 271.264C135.85 270.496 135.199 269.883 134.388 269.424C133.578 268.965 132.692 268.736 131.732 268.736C130.655 268.736 129.695 268.997 128.852 269.52C128.01 270.043 127.348 270.731 126.868 271.584C126.388 272.427 126.148 273.344 126.148 274.336V279.36L125.556 278.688C126.228 277.632 127.108 276.779 128.196 276.128C129.295 275.477 130.49 275.152 131.78 275.152C133.21 275.152 134.495 275.493 135.636 276.176C136.778 276.848 137.684 277.76 138.356 278.912C139.028 280.064 139.364 281.355 139.364 282.784C139.364 284.203 139.007 285.493 138.292 286.656C137.588 287.819 136.644 288.747 135.46 289.44C134.287 290.133 132.986 290.48 131.556 290.48ZM131.556 288.192C132.559 288.192 133.471 287.952 134.292 287.472C135.124 286.992 135.78 286.341 136.26 285.52C136.751 284.699 136.996 283.787 136.996 282.784C136.996 281.781 136.751 280.869 136.26 280.048C135.78 279.216 135.13 278.56 134.308 278.08C133.487 277.589 132.575 277.344 131.572 277.344C130.57 277.344 129.658 277.589 128.836 278.08C128.015 278.56 127.359 279.216 126.868 280.048C126.388 280.869 126.148 281.781 126.148 282.784C126.148 283.776 126.388 284.683 126.868 285.504C127.348 286.325 127.999 286.981 128.82 287.472C129.642 287.952 130.554 288.192 131.556 288.192Z" fill="#333333"/>
<rect x="200.103" y="413" width="60.0319" height="248" fill="#E0E0E0"/>
<rect x="223.118" y="409" width="16.0085" height="8" fill="#333333"/>
<rect x="292.149" y="341" width="60.0319" height="320" fill="#E0E0E0"/>
<rect x="384.204" y="330" width="60.0319" height="331" fill="#E0E0E0"/>
<rect x="406.212" y="327" width="16.0085" height="8" fill="#333333"/>
<rect x="476.251" y="298" width="60.0319" height="363" fill="url(#paint1_linear_263_4264)"/>
<rect x="498.259" y="295" width="16.0085" height="8" fill="#333333"/>
<rect x="315.165" y="338" width="16.0085" height="8" fill="#333333"/>
<line x1="231.618" y1="411" x2="231.618" y2="175" stroke="#111111"/>
<line x1="323.673" y1="343" x2="323.673" y2="205" stroke="#111111"/>
<line x1="413.72" y1="328" x2="413.72" y2="229" stroke="#111111"/>
<line x1="506.767" y1="300" x2="506.767" y2="261" stroke="#111111"/>
<defs>
<linearGradient id="paint0_linear_263_4264" x1="427.299" y1="703.495" x2="427.299" y2="513.645" gradientUnits="userSpaceOnUse">
<stop stop-color="white" stop-opacity="0.2"/>
<stop offset="1" stop-color="white" stop-opacity="0"/>
</linearGradient>
<linearGradient id="paint1_linear_263_4264" x1="477.645" y1="311.102" x2="558.814" y2="316.704" gradientUnits="userSpaceOnUse">
<stop stop-color="#45D0BD"/>
<stop offset="1" stop-color="#44B6E9"/>
</linearGradient>
</defs>
</svg>
