<svg width="55" height="55" viewBox="0 0 55 55" fill="none" xmlns="http://www.w3.org/2000/svg">
<g clip-path="url(#clip0_56_1217)">
<path d="M47.9921 8.50219C47.9897 8.4775 47.9851 8.4536 47.9816 8.4293C47.9773 8.39985 47.9739 8.37032 47.9681 8.34102C47.9626 8.31305 47.9549 8.28594 47.948 8.25852C47.9416 8.23328 47.9361 8.20789 47.9285 8.18289C47.9204 8.15594 47.9102 8.12993 47.9008 8.1036C47.8918 8.07867 47.8836 8.05352 47.8734 8.02891C47.8633 8.0043 47.8512 7.98078 47.84 7.9568C47.828 7.93149 47.8168 7.90594 47.8035 7.8811C47.7912 7.85813 47.7772 7.83625 47.7638 7.81391C47.7493 7.78961 47.7355 7.765 47.7197 7.74125C47.7032 7.71656 47.6848 7.69336 47.667 7.66961C47.6522 7.64985 47.6384 7.62953 47.6226 7.61024C47.588 7.56813 47.5516 7.52758 47.5131 7.48906C47.5128 7.48875 47.5126 7.48844 47.5123 7.48813C47.5119 7.48781 47.5116 7.48766 47.5114 7.48735C47.4728 7.44883 47.4323 7.41234 47.3901 7.37774C47.3708 7.36188 47.3505 7.34813 47.3307 7.33328C47.307 7.31555 47.2838 7.29719 47.2591 7.2807C47.2354 7.26484 47.2108 7.25109 47.1864 7.23656C47.164 7.2232 47.1423 7.20922 47.1193 7.19688C47.0944 7.18359 47.069 7.17234 47.0436 7.16039C47.0196 7.14906 46.996 7.13711 46.9715 7.12688C46.9469 7.11672 46.9217 7.10844 46.8967 7.09953C46.8704 7.09008 46.8444 7.08 46.8176 7.07188C46.7926 7.0643 46.7671 7.05875 46.7419 7.05242C46.7144 7.04547 46.6873 7.03781 46.6594 7.03227C46.6301 7.02648 46.6006 7.02297 46.5712 7.01875C46.5469 7.01531 46.523 7.01063 46.4983 7.0082C46.4435 7.00289 46.3887 7 46.3337 7H34.667C33.7465 7 33.0003 7.74617 33.0003 8.66665C33.0003 9.58712 33.7465 10.3333 34.667 10.3333H42.31L30.1551 22.4882C29.5043 23.139 29.5043 24.1943 30.1551 24.8452C30.806 25.4961 31.8613 25.4961 32.5122 24.8452L44.667 12.6904V20.3334C44.667 21.2539 45.4132 22 46.3337 22C47.2541 22 48.0004 21.2539 48.0004 20.3334V8.6668C48.0004 8.6118 47.9975 8.55688 47.9921 8.50219Z" fill="#909090"/>
<path d="M23.4882 29.155L11.3334 41.3098V33.6668C11.3334 32.7463 10.5872 32.0001 9.66673 32.0001C8.74618 32.0001 8 32.7463 8 33.6668V45.3335C8 45.3884 8.00289 45.4432 8.00828 45.4979C8.0107 45.5225 8.01531 45.5464 8.01883 45.5708C8.02305 45.6003 8.02648 45.6299 8.03234 45.6591C8.03789 45.687 8.04555 45.7141 8.0525 45.7415C8.05883 45.7668 8.06438 45.7922 8.07195 45.8172C8.08008 45.8441 8.09016 45.8701 8.09961 45.8963C8.10859 45.9213 8.1168 45.9465 8.12695 45.9711C8.13711 45.9957 8.14914 46.0192 8.16047 46.0432C8.17242 46.0685 8.18367 46.0941 8.19695 46.1189C8.2093 46.1419 8.22328 46.1637 8.23664 46.186C8.25117 46.2103 8.26492 46.235 8.28078 46.2588C8.29727 46.2835 8.31563 46.3066 8.33336 46.3303C8.3482 46.3502 8.36195 46.3705 8.37781 46.3898C8.41242 46.432 8.44891 46.4725 8.48742 46.511C8.48774 46.5113 8.48789 46.5117 8.48821 46.5119C8.48852 46.5122 8.48883 46.5124 8.48914 46.5128C8.52766 46.5512 8.56821 46.5877 8.61032 46.6223C8.62961 46.6381 8.64992 46.6519 8.66969 46.6667C8.69344 46.6844 8.71664 46.7028 8.74133 46.7193C8.765 46.7352 8.78961 46.7489 8.81399 46.7635C8.83633 46.7768 8.85813 46.7908 8.88118 46.8031C8.90602 46.8164 8.93157 46.8277 8.95688 46.8396C8.98086 46.851 9.00446 46.8629 9.02899 46.8731C9.0536 46.8832 9.07868 46.8914 9.10368 46.9004C9.13001 46.9099 9.15602 46.9199 9.18297 46.9281C9.20797 46.9357 9.23337 46.9413 9.2586 46.9476C9.28602 46.9546 9.31313 46.9622 9.3411 46.9678C9.3704 46.9735 9.39993 46.977 9.42938 46.9812C9.45368 46.9846 9.47766 46.9893 9.50227 46.9917C9.55696 46.9971 9.6118 47 9.66665 47H21.3334C22.2539 47 23.0001 46.2538 23.0001 45.3334C23.0001 44.4129 22.2539 43.6667 21.3334 43.6667H13.6904L25.8453 31.5119C26.4962 30.861 26.4962 29.8057 25.8453 29.1548C25.1945 28.504 24.1391 28.5041 23.4882 29.155Z" fill="#909090"/>
</g>
<defs>
<clipPath id="clip0_56_1217">
<rect width="48" height="48" fill="white" transform="matrix(-1 0 0 1 52 3)"/>
</clipPath>
</defs>
</svg>
