<svg width="146" height="76" viewBox="0 0 146 76" fill="none" xmlns="http://www.w3.org/2000/svg">
<mask id="path-1-outside-1_217_1067" maskUnits="userSpaceOnUse" x="-0.512207" y="-0.903809" width="147" height="77" fill="black">
<rect fill="white" x="-0.512207" y="-0.903809" width="147" height="77"/>
<path d="M36.7118 74.9202C30.3758 74.9202 24.9358 73.8002 20.3918 71.5602C15.8478 69.3202 12.1358 66.4082 9.25579 62.8242C6.43979 59.2402 4.35979 55.3362 3.01579 51.1122C1.67179 46.8882 0.999793 42.8242 0.999793 38.9202V36.8082C0.999793 32.4562 1.67179 28.1682 3.01579 23.9442C4.42379 19.7202 6.56779 15.8802 9.44779 12.4242C12.3278 8.96819 15.9758 6.21619 20.3918 4.16819C24.8718 2.05619 30.1518 1.00019 36.2318 1.00019C42.5678 1.00019 48.0718 2.15219 52.7438 4.45619C57.4798 6.69619 61.2558 9.89619 64.0718 14.0562C66.8878 18.1522 68.5838 22.9522 69.1598 28.4562H55.4318C54.9198 25.2562 53.7678 22.5682 51.9758 20.3922C50.2478 18.1522 48.0398 16.4882 45.3518 15.4002C42.6638 14.2482 39.6238 13.6722 36.2318 13.6722C32.7758 13.6722 29.7038 14.2802 27.0158 15.4962C24.3278 16.6482 22.0878 18.3122 20.2958 20.4882C18.5038 22.6642 17.1278 25.2242 16.1678 28.1682C15.2718 31.1122 14.8238 34.3762 14.8238 37.9602C14.8238 41.4162 15.2718 44.6162 16.1678 47.5602C17.1278 50.5042 18.5358 53.0962 20.3918 55.3362C22.2478 57.5122 24.5198 59.2082 27.2078 60.4242C29.9598 61.6402 33.1278 62.2482 36.7118 62.2482C41.9598 62.2482 46.3758 60.9682 49.9598 58.4082C53.6078 55.7842 55.8158 52.1362 56.5838 47.4642H70.3118C69.6718 52.4562 67.9758 57.0322 65.2238 61.1922C62.4718 65.3522 58.6958 68.6802 53.8958 71.1762C49.0958 73.6722 43.3678 74.9202 36.7118 74.9202ZM78.9353 73.0962V3.01619H101.303L130.775 61.7682H133.943L132.023 63.4962V3.01619H144.887V73.0962H122.423L92.9513 14.3442H89.6873L91.6073 12.6162V73.0962H78.9353Z"/>
</mask>
<path d="M9.25579 62.8242L8.46943 63.4421L8.47628 63.4506L9.25579 62.8242ZM3.01579 51.1122L3.96872 50.809V50.809L3.01579 51.1122ZM3.01579 23.9442L2.06702 23.6279L2.06287 23.641L3.01579 23.9442ZM20.3918 4.16819L20.8125 5.07539L20.8182 5.07271L20.3918 4.16819ZM52.7438 4.45619L52.3015 5.35306L52.3088 5.35668L52.3162 5.36017L52.7438 4.45619ZM64.0718 14.0562L63.2437 14.6168L63.2478 14.6227L64.0718 14.0562ZM69.1598 28.4562V29.4562H70.2699L70.1544 28.3521L69.1598 28.4562ZM55.4318 28.4562L54.4444 28.6142L54.5791 29.4562H55.4318V28.4562ZM51.9758 20.3922L51.184 21.003L51.1937 21.0156L51.2039 21.0279L51.9758 20.3922ZM45.3518 15.4002L44.9579 16.3193L44.9672 16.3233L44.9766 16.3271L45.3518 15.4002ZM27.0158 15.4962L27.4097 16.4153L27.4189 16.4114L27.428 16.4073L27.0158 15.4962ZM20.2958 20.4882L19.5239 19.8525L19.5239 19.8525L20.2958 20.4882ZM16.1678 28.1682L15.2171 27.8582L15.214 27.8676L15.2111 27.877L16.1678 28.1682ZM16.1678 47.5602L15.2111 47.8514L15.214 47.8608L15.2171 47.8702L16.1678 47.5602ZM20.3918 55.3362L19.6218 55.9742L19.6263 55.9797L19.631 55.9851L20.3918 55.3362ZM27.2078 60.4242L26.7956 61.3353L26.8036 61.3389L27.2078 60.4242ZM49.9598 58.4082L50.541 59.2219L50.5437 59.22L49.9598 58.4082ZM56.5838 47.4642V46.4642H55.7348L55.597 47.302L56.5838 47.4642ZM70.3118 47.4642L71.3037 47.5914L71.4482 46.4642H70.3118V47.4642ZM65.2238 61.1922L64.3898 60.6405V60.6405L65.2238 61.1922ZM53.8958 71.1762L54.3572 72.0634V72.0634L53.8958 71.1762ZM36.7118 74.9202V73.9202C30.4916 73.9202 25.2103 72.8206 20.8339 70.6632L20.3918 71.5602L19.9496 72.4571C24.6613 74.7798 30.26 75.9202 36.7118 75.9202V74.9202ZM20.3918 71.5602L20.8339 70.6632C16.4073 68.4811 12.815 65.6569 10.0353 62.1978L9.25579 62.8242L8.47628 63.4506C11.4566 67.1594 15.2883 70.1593 19.9496 72.4571L20.3918 71.5602ZM9.25579 62.8242L10.0421 62.2064C7.29789 58.7137 5.27542 54.9158 3.96872 50.809L3.01579 51.1122L2.06287 51.4154C3.44417 55.7566 5.58169 59.7667 8.46947 63.442L9.25579 62.8242ZM3.01579 51.1122L3.96872 50.809C2.65176 46.67 1.99979 42.7084 1.99979 38.9202H0.999793H-0.000206947C-0.000206947 42.9399 0.691827 47.1064 2.06287 51.4154L3.01579 51.1122ZM0.999793 38.9202H1.99979V36.8082H0.999793H-0.000206947V38.9202H0.999793ZM0.999793 36.8082H1.99979C1.99979 32.561 2.65533 28.3752 3.96872 24.2474L3.01579 23.9442L2.06287 23.641C0.688257 27.9612 -0.000206947 32.3514 -0.000206947 36.8082H0.999793ZM3.01579 23.9442L3.96448 24.2604C5.33263 20.156 7.41499 16.4256 10.216 13.0644L9.44779 12.4242L8.67957 11.784C5.7206 15.3348 3.51496 19.2844 2.06711 23.628L3.01579 23.9442ZM9.44779 12.4242L10.216 13.0644C12.9938 9.73108 16.5195 7.06635 20.8125 5.07537L20.3918 4.16819L19.9711 3.261C15.4321 5.36602 11.6618 8.2053 8.67957 11.784L9.44779 12.4242ZM20.3918 4.16819L20.8182 5.07271C25.138 3.03623 30.2664 2.00019 36.2318 2.00019V1.00019V0.00018692C30.0372 0.00018692 24.6056 1.07615 19.9654 3.26366L20.3918 4.16819ZM36.2318 1.00019V2.00019C42.4471 2.00019 47.7936 3.13 52.3015 5.35306L52.7438 4.45619L53.1861 3.55932C48.3499 1.17437 42.6885 0.00018692 36.2318 0.00018692V1.00019ZM52.7438 4.45619L52.3162 5.36017C56.8976 7.52705 60.5325 10.6115 63.2437 14.6168L64.0718 14.0562L64.8999 13.4956C61.9791 9.18085 58.062 5.86532 53.1714 3.5522L52.7438 4.45619ZM64.0718 14.0562L63.2478 14.6227C65.9589 18.5662 67.6046 23.2031 68.1652 28.5603L69.1598 28.4562L70.1544 28.3521C69.563 22.7013 67.8167 17.7382 64.8958 13.4897L64.0718 14.0562ZM69.1598 28.4562V27.4562H55.4318V28.4562V29.4562H69.1598V28.4562ZM55.4318 28.4562L56.4192 28.2982C55.8834 24.9493 54.6688 22.0892 52.7477 19.7565L51.9758 20.3922L51.2039 21.0279C52.8668 23.0472 53.9562 25.5631 54.4444 28.6142L55.4318 28.4562ZM51.9758 20.3922L52.7676 19.7814C50.9284 17.3973 48.5751 15.6261 45.727 14.4732L45.3518 15.4002L44.9766 16.3271C47.5045 17.3503 49.5672 18.9071 51.184 21.003L51.9758 20.3922ZM45.3518 15.4002L45.7457 14.481C42.9149 13.2679 39.7378 12.6722 36.2318 12.6722V13.6722V14.6722C39.5098 14.6722 42.4127 15.2285 44.9579 16.3193L45.3518 15.4002ZM36.2318 13.6722V12.6722C32.6578 12.6722 29.4415 13.3013 26.6036 14.5851L27.0158 15.4962L27.428 16.4073C29.9661 15.2591 32.8938 14.6722 36.2318 14.6722V13.6722ZM27.0158 15.4962L26.6219 14.577C23.7927 15.7895 21.4213 17.5485 19.5239 19.8525L20.2958 20.4882L21.0677 21.1239C22.7543 19.0759 24.8629 17.5068 27.4097 16.4153L27.0158 15.4962ZM20.2958 20.4882L19.5239 19.8525C17.645 22.134 16.212 24.8071 15.2171 27.8582L16.1678 28.1682L17.1185 28.4782C18.0436 25.6413 19.3626 23.1944 21.0677 21.1239L20.2958 20.4882ZM16.1678 28.1682L15.2111 27.877C14.2821 30.9295 13.8238 34.2934 13.8238 37.9602H14.8238H15.8238C15.8238 34.459 16.2615 31.2949 17.1245 28.4594L16.1678 28.1682ZM14.8238 37.9602H13.8238C13.8238 41.5029 14.2831 44.8022 15.2111 47.8514L16.1678 47.5602L17.1245 47.269C16.2605 44.4302 15.8238 41.3295 15.8238 37.9602H14.8238ZM16.1678 47.5602L15.2171 47.8702C16.2136 50.9261 17.6803 53.6311 19.6218 55.9742L20.3918 55.3362L21.1618 54.6982C19.3912 52.5613 18.042 50.0822 17.1185 47.2502L16.1678 47.5602ZM20.3918 55.3362L19.631 55.9851C21.5855 58.2767 23.9779 60.0606 26.7956 61.3353L27.2078 60.4242L27.62 59.5131C25.0617 58.3558 22.9101 56.7477 21.1526 54.6872L20.3918 55.3362ZM27.2078 60.4242L26.8036 61.3389C29.7049 62.6208 33.0148 63.2482 36.7118 63.2482V62.2482V61.2482C33.2408 61.2482 30.2147 60.6595 27.612 59.5095L27.2078 60.4242ZM36.7118 62.2482V63.2482C42.1273 63.2482 46.7569 61.9249 50.541 59.2219L49.9598 58.4082L49.3786 57.5945C45.9947 60.0115 41.7923 61.2482 36.7118 61.2482V62.2482ZM49.9598 58.4082L50.5437 59.22C54.4192 56.4324 56.7622 52.5442 57.5706 47.6264L56.5838 47.4642L55.597 47.302C54.8694 51.7282 52.7964 55.136 49.3759 57.5964L49.9598 58.4082ZM56.5838 47.4642V48.4642H70.3118V47.4642V46.4642H56.5838V47.4642ZM70.3118 47.4642L69.3199 47.337C68.6992 52.1787 67.0566 56.6092 64.3898 60.6405L65.2238 61.1922L66.0578 61.7439C68.895 57.4552 70.6444 52.7337 71.3037 47.5914L70.3118 47.4642ZM65.2238 61.1922L64.3898 60.6405C61.7393 64.647 58.0969 67.8645 53.4344 70.289L53.8958 71.1762L54.3572 72.0634C59.2947 69.4959 63.2043 66.0574 66.0578 61.7439L65.2238 61.1922ZM53.8958 71.1762L53.4344 70.289C48.8061 72.6957 43.2436 73.9202 36.7118 73.9202V74.9202V75.9202C43.492 75.9202 49.3855 74.6487 54.3572 72.0634L53.8958 71.1762ZM78.9353 73.0962H77.9353V74.0962H78.9353V73.0962ZM78.9353 3.01619V2.01619H77.9353V3.01619H78.9353ZM101.303 3.01619L102.197 2.56781L101.92 2.01619H101.303V3.01619ZM130.775 61.7682L129.881 62.2166L130.158 62.7682H130.775V61.7682ZM133.943 61.7682L134.612 62.5115L136.549 60.7682H133.943V61.7682ZM132.023 63.4962H131.023V65.7416L132.692 64.2395L132.023 63.4962ZM132.023 3.01619V2.01619H131.023V3.01619H132.023ZM144.887 3.01619H145.887V2.01619H144.887V3.01619ZM144.887 73.0962V74.0962H145.887V73.0962H144.887ZM122.423 73.0962L121.529 73.5446L121.806 74.0962H122.423V73.0962ZM92.9513 14.3442L93.8451 13.8958L93.5684 13.3442H92.9513V14.3442ZM89.6873 14.3442L89.0183 13.6009L87.0813 15.3442H89.6873V14.3442ZM91.6073 12.6162H92.6073V10.3708L90.9383 11.8729L91.6073 12.6162ZM91.6073 73.0962V74.0962H92.6073V73.0962H91.6073ZM78.9353 73.0962H79.9353V3.01619H78.9353H77.9353V73.0962H78.9353ZM78.9353 3.01619V4.01619H101.303V3.01619V2.01619H78.9353V3.01619ZM101.303 3.01619L100.409 3.46457L129.881 62.2166L130.775 61.7682L131.669 61.3198L102.197 2.56781L101.303 3.01619ZM130.775 61.7682V62.7682H133.943V61.7682V60.7682H130.775V61.7682ZM133.943 61.7682L133.274 61.0249L131.354 62.7529L132.023 63.4962L132.692 64.2395L134.612 62.5115L133.943 61.7682ZM132.023 63.4962H133.023V3.01619H132.023H131.023V63.4962H132.023ZM132.023 3.01619V4.01619H144.887V3.01619V2.01619H132.023V3.01619ZM144.887 3.01619H143.887V73.0962H144.887H145.887V3.01619H144.887ZM144.887 73.0962V72.0962H122.423V73.0962V74.0962H144.887V73.0962ZM122.423 73.0962L123.317 72.6478L93.8451 13.8958L92.9513 14.3442L92.0575 14.7926L121.529 73.5446L122.423 73.0962ZM92.9513 14.3442V13.3442H89.6873V14.3442V15.3442H92.9513V14.3442ZM89.6873 14.3442L90.3563 15.0875L92.2763 13.3595L91.6073 12.6162L90.9383 11.8729L89.0183 13.6009L89.6873 14.3442ZM91.6073 12.6162H90.6073V73.0962H91.6073H92.6073V12.6162H91.6073ZM91.6073 73.0962V72.0962H78.9353V73.0962V74.0962H91.6073V73.0962Z" fill="url(#paint0_linear_217_1067)" mask="url(#path-1-outside-1_217_1067)"/>
<defs>
<linearGradient id="paint0_linear_217_1067" x1="75.6719" y1="-0.966308" x2="75.6126" y2="64.4399" gradientUnits="userSpaceOnUse">
<stop stop-color="#8258C8"/>
<stop offset="0.71568" stop-color="#2C84C8"/>
<stop offset="0.968837" stop-color="#FEFEFE" stop-opacity="0.6"/>
</linearGradient>
</defs>
</svg>
