<svg width="48" height="48" viewBox="0 0 48 48" fill="none" xmlns="http://www.w3.org/2000/svg">
<g clip-path="url(#clip0_1133_5829)">
<path d="M40.9999 17.5196L40.0585 18.4617C39.9316 18.5874 39.8058 18.6972 39.6805 18.7984C40.7644 21.226 41.3731 23.9115 41.3731 26.7376C41.3731 37.511 32.6078 46.2756 21.834 46.2756C11.0595 46.2756 2.29428 37.511 2.29428 26.7376C2.29428 15.9653 11.0596 7.20138 21.834 7.20138C24.0782 7.20138 26.2325 7.58669 28.2418 8.28569V8.28504C28.4332 7.98091 28.6567 7.678 28.9627 7.36985L29.4462 6.88563C27.0819 5.9785 24.5171 5.47656 21.8345 5.47656C10.0923 5.47731 0.570312 14.9964 0.570312 26.7369C0.570312 38.4793 10.0923 47.9984 21.8341 47.9984C33.5775 47.9984 43.0973 38.4792 43.0973 26.7369C43.0972 23.4353 42.3445 20.3079 40.9999 17.5196Z" fill="url(#paint0_linear_1133_5829)"/>
<path d="M34.8688 20.119H32.9362C33.9193 21.9167 34.479 23.9769 34.479 26.1656C34.479 33.1364 28.8074 38.8075 21.8364 38.8075C14.865 38.8075 9.19338 33.1364 9.19338 26.1656C9.19329 19.1956 14.8649 13.5247 21.8364 13.5247C23.796 13.5247 25.6538 13.9728 27.3108 14.7726V12.884C25.6233 12.1878 23.7748 11.8008 21.8364 11.8008C13.9012 11.8008 7.46875 18.2327 7.46875 26.1657C7.46875 34.0986 13.9011 40.5316 21.8364 40.5316C29.77 40.5316 36.2036 34.0986 36.2036 26.1657C36.2037 24.0048 35.7229 21.9573 34.8688 20.119Z" fill="url(#paint1_linear_1133_5829)"/>
<path d="M47.2924 7.10571C47.158 6.84499 46.9408 6.66274 46.7259 6.55286C46.5093 6.44196 46.288 6.38992 46.0617 6.36658L41.958 5.95727C41.8745 5.95099 41.743 5.89324 41.6402 5.78814C41.535 5.6852 41.4772 5.55377 41.4715 5.47033L41.0605 1.36501C41.0285 1.06491 40.949 0.766507 40.7399 0.488725C40.6358 0.351475 40.4935 0.223506 40.3214 0.134349C40.1498 0.0451927 39.9521 -0.000557376 39.7658 5.12465e-06C39.5263 0.000661376 39.3137 0.067974 39.1348 0.160037C38.9558 0.253787 38.8039 0.373787 38.6666 0.510381L30.3839 8.79312C30.0472 9.13437 29.8077 9.5448 29.6236 9.98374C29.4441 10.4245 29.3223 10.8847 29.3189 11.3642V16.0944C29.32 16.4185 29.4035 16.7204 29.5401 16.9913L25.9761 20.6616C24.8214 19.7916 23.3908 19.2686 21.8336 19.2686C18.0242 19.2686 14.9375 22.3564 14.9375 26.164C14.9375 29.9716 18.0242 33.0594 21.8336 33.0594C25.6411 33.0594 28.7297 29.9716 28.7297 26.164C28.7297 24.5349 28.161 23.0401 27.2155 21.8597L30.907 18.059C31.0442 18.0882 31.1849 18.1053 31.3311 18.1059H36.0641C36.5436 18.1025 37.0039 17.9813 37.4439 17.8018C37.8835 17.6171 38.2939 17.3776 38.6357 17.041L46.9167 8.76049C47.0533 8.62324 47.1728 8.47127 47.2666 8.29183C47.3587 8.11286 47.4266 7.90033 47.4266 7.66136C47.4284 7.47555 47.3827 7.27727 47.2924 7.10571ZM21.8336 31.3362C18.9812 31.3362 16.6609 29.0165 16.6609 26.1647C16.6609 23.3134 18.9811 20.9931 21.8336 20.9931C22.9215 20.9931 23.9309 21.3327 24.7648 21.9088L21.215 25.5648C20.8834 25.9061 20.8915 26.452 21.2328 26.7835C21.5741 27.1151 22.1205 27.107 22.4521 26.7657L25.9996 23.113C26.6289 23.9694 27.0056 25.0223 27.0056 26.1645C27.0056 29.0165 24.6854 31.3362 21.8336 31.3362ZM31.0441 15.4446V11.365C31.0407 11.2129 31.1029 10.9151 31.2179 10.6441C31.3271 10.3721 31.494 10.1176 31.6043 10.0124L39.4138 2.2036L39.7574 5.64302C39.7814 5.87449 39.8477 6.08889 39.9357 6.28952L31.0441 15.4446ZM37.417 15.823C37.3107 15.9328 37.0574 16.0991 36.7853 16.2094C36.5144 16.3244 36.2166 16.3866 36.0645 16.3832H32.5353L41.1605 7.50143C41.3559 7.58496 41.5623 7.64833 41.7869 7.67233L45.2246 8.01527L37.417 15.823Z" fill="url(#paint2_linear_1133_5829)"/>
</g>
<defs>
<linearGradient id="paint0_linear_1133_5829" x1="0.965547" y1="5.47655" x2="50.0281" y2="15.8433" gradientUnits="userSpaceOnUse">
<stop stop-color="#8258C8"/>
<stop offset="1" stop-color="#2C84C8"/>
</linearGradient>
<linearGradient id="paint1_linear_1133_5829" x1="7.7358" y1="11.8008" x2="40.8866" y2="18.8055" gradientUnits="userSpaceOnUse">
<stop stop-color="#8258C8"/>
<stop offset="1" stop-color="#2C84C8"/>
</linearGradient>
<linearGradient id="paint2_linear_1133_5829" x1="15.2394" y1="-6.03359e-06" x2="52.7769" y2="7.79378" gradientUnits="userSpaceOnUse">
<stop stop-color="#8258C8"/>
<stop offset="1" stop-color="#2C84C8"/>
</linearGradient>
<clipPath id="clip0_1133_5829">
<rect width="48" height="48" fill="white"/>
</clipPath>
</defs>
</svg>
