<svg width="613" height="637" viewBox="0 0 613 637" fill="none" xmlns="http://www.w3.org/2000/svg">
<rect width="613" height="637" rx="25" fill="url(#paint0_linear_1139_5798)"/>
<mask id="mask0_1139_5798" style="mask-type:alpha" maskUnits="userSpaceOnUse" x="0" y="0" width="613" height="637">
<rect width="613" height="637" rx="25" fill="url(#paint1_linear_1139_5798)"/>
</mask>
<g mask="url(#mask0_1139_5798)">
<g opacity="0.5">
<path d="M366.208 451.92C465.183 309.708 430.132 114.187 287.919 15.2114C145.706 -83.764 -49.815 -48.7138 -148.79 93.4983C-247.765 235.71 -212.714 431.232 -70.501 530.207C71.7118 629.182 267.233 594.132 366.208 451.92Z" stroke="white" stroke-opacity="0.3" stroke-miterlimit="10"/>
<path d="M278.294 17.2139C291.378 26.026 303.637 35.2635 314.982 45.3933C343.045 70.511 365.663 100.836 381.478 134.011C391.823 155.794 399.597 178.316 405.573 201.057C411.597 224.067 415.001 247.547 415.246 271.767C415.488 300.044 411.483 328.599 402.811 356.258C396.888 375.069 388.996 393.333 379.233 410.824C373.011 421.959 365.927 432.729 358.23 443.367C347.767 457.724 336.373 471.14 324.237 483.511C317.2 490.667 309.968 497.512 302.477 503.884C266.455 534.618 224.606 557.004 179.351 567.141C165.087 570.327 150.615 572.544 135.998 573.956C118.58 575.593 101.092 576.065 83.6988 575.133C66.4127 574.216 49.21 571.828 32.1698 568.025C17.9809 564.854 3.9355 560.547 -9.73739 555.03C-30.0608 546.825 -49.6872 535.929 -68.2447 522.485C-82.8863 511.942 -96.2737 500.272 -108.71 487.912C-143.172 453.579 -169.325 414.149 -184.878 370.042C-195.62 339.456 -200.92 307.13 -200.998 274.734C-201.056 242.646 -195.972 210.431 -185.93 179.198C-176.515 149.88 -162.751 121.238 -144.702 94.4595C-114.965 50.2957 -75.4985 16.7251 -30.9028 -5.80766C14.2457 -28.5437 64.5646 -39.6253 114.994 -37.6931C171.736 -35.5427 227.965 -16.6963 278.413 17.2966L278.294 17.2139Z" stroke="white" stroke-opacity="0.3" stroke-miterlimit="10"/>
<path d="M268.647 19.2632C281.632 27.7119 293.933 36.214 305.315 45.7823C333.446 69.536 356.423 99.3456 371.933 132.368C382.104 154.147 389.671 176.291 396.329 198.389C402.999 220.555 407.255 242.98 408.029 266.864C408.895 294.751 405.094 323.095 396.042 350.372C389.925 368.872 381.708 386.674 371.65 403.49C365.21 414.179 357.974 424.491 350.165 434.698C339.661 448.439 328.369 461.455 316.478 473.643C309.63 480.697 302.588 487.438 295.339 493.801C260.58 524.238 220.333 547.446 175.674 556.645C161.697 559.501 147.524 561.457 133.165 562.753C116.082 564.331 98.9226 565.09 82.0169 564.555C65.1783 564.009 48.5143 562.114 31.8906 558.894C17.9598 556.197 4.18791 552.257 -9.20784 546.933C-29.1233 539.07 -48.24 528.117 -66.193 514.564C-80.2577 503.952 -93.2181 492.345 -105.39 480.111C-139.123 446.167 -166.034 409.091 -181.763 365.743C-192.558 335.826 -197.556 303.828 -197.167 272.11C-196.808 240.605 -191.26 209.243 -181.11 178.615C-171.547 149.929 -158.071 121.615 -140.859 95.1954C-112.72 51.9773 -74.9001 19.0836 -31.7544 -3.2234C11.877 -25.7216 60.8166 -36.7635 109.839 -34.752C165.08 -32.4706 219.128 -13.0246 268.596 19.1685L268.647 19.2632Z" stroke="white" stroke-opacity="0.3" stroke-miterlimit="10"/>
<path d="M258.997 21.3083C271.921 29.4211 284.264 37.1878 295.684 46.1946C323.951 68.5721 347.23 97.9461 362.424 130.748C372.421 152.524 379.754 174.328 387.15 195.705C394.466 217.026 399.545 238.437 400.808 261.955C402.297 289.454 398.674 317.627 389.309 344.51C382.97 362.737 374.415 380.011 364.103 396.179C357.484 406.45 350.046 416.209 342.149 426.12C331.644 439.272 320.386 451.901 308.807 463.894C302.109 470.816 295.307 477.549 288.287 483.836C254.86 513.965 216.161 538.073 172.084 546.266C158.367 548.834 144.482 550.46 130.431 551.736C113.672 553.186 96.8809 554.26 80.4623 554.123C64.0833 554.014 47.946 552.545 31.7267 549.842C18.0419 547.55 4.55567 544.045 -8.52336 538.941C-28.0705 531.393 -46.6379 520.412 -63.9745 506.817C-77.557 496.188 -89.9681 484.551 -101.902 472.482C-134.974 438.939 -162.508 404.194 -178.468 361.685C-189.357 332.409 -193.975 300.793 -193.196 269.698C-192.382 238.805 -186.381 208.228 -176.11 178.272C-166.44 150.19 -153.2 122.3 -136.837 96.1717C-110.363 53.9112 -74.1504 21.7221 -32.3995 -0.438429C9.71472 -22.6989 57.3146 -33.6735 104.93 -31.5827C158.669 -29.1703 210.538 -9.12473 259.024 21.2686L258.997 21.3083Z" stroke="white" stroke-opacity="0.3" stroke-miterlimit="10"/>
<path d="M249.343 23.3523C262.234 31.0897 274.551 38.133 286.05 46.6059C314.384 67.6194 338.062 96.5058 352.911 129.127C362.734 150.9 369.821 172.297 377.899 193.031C385.861 213.509 391.752 233.838 393.556 257.086C395.629 284.167 392.251 312.158 382.505 338.659C375.972 356.574 367.092 373.387 356.485 388.879C349.7 398.799 342.058 408.005 334.089 417.513C323.543 430.048 312.427 442.305 301.025 454.128C294.477 460.919 287.904 467.577 281.165 473.882C249.002 503.715 211.918 528.712 168.423 535.899C154.994 538.137 141.437 539.463 127.614 540.662C111.191 542.052 94.7959 543.402 78.8248 543.635C62.8933 543.897 47.2948 542.919 31.4919 540.8C18.0651 538.983 4.85248 535.844 -7.90983 530.96C-27.049 523.756 -45.1343 512.757 -61.8664 499.053C-74.8996 488.395 -86.8957 476.753 -98.5249 464.837C-130.896 431.723 -159.092 399.281 -175.323 357.583C-186.305 328.947 -190.543 297.713 -189.309 267.23C-188.066 236.988 -181.625 207.13 -171.194 177.872C-161.415 150.396 -148.384 122.89 -132.858 97.1193C-107.983 55.8045 -73.4044 24.3596 -33.1155 2.35759C7.49359 -19.5979 53.7297 -30.6395 99.911 -28.4298C152.148 -25.8864 201.864 -5.28097 249.343 23.3523Z" stroke="white" stroke-opacity="0.3" stroke-miterlimit="10"/>
<path d="M239.681 25.3307C252.513 32.7322 264.871 39.0401 276.408 46.9515C304.81 66.6009 328.846 94.9723 343.391 127.44C353.04 149.209 359.921 170.228 368.68 190.32C377.249 209.926 384.004 229.268 386.336 252.178C389.033 278.87 385.859 306.651 375.773 332.797C369.045 350.401 359.84 366.751 348.94 381.569C341.975 391.07 334.103 399.763 326.034 408.907C315.487 420.854 304.433 432.684 293.276 444.324C286.877 450.984 280.546 457.633 274.035 463.863C243.203 493.387 207.694 519.245 164.755 525.466C151.614 527.375 138.356 528.439 124.829 529.551C108.742 530.88 92.7034 532.478 77.1918 533.149C61.7474 533.808 46.648 533.296 31.2615 531.761C18.0928 530.416 5.15383 527.644 -7.29175 522.981C-25.9955 516.08 -43.5985 505.063 -59.6866 491.279C-72.2101 480.564 -83.6845 468.932 -95.0761 457.182C-126.787 424.469 -155.7 394.408 -172.04 353.458C-183.182 325.475 -187.04 294.624 -185.349 264.752C-183.69 235.094 -176.757 206.048 -166.246 177.435C-156.359 150.563 -143.563 123.48 -128.886 98.0013C-105.637 57.6718 -72.757 26.8091 -33.8114 5.04832C5.22894 -16.7641 50.1374 -27.6713 94.9514 -25.3547C145.687 -22.6803 193.25 -1.51492 239.721 25.3582L239.681 25.3307Z" stroke="white" stroke-opacity="0.3" stroke-miterlimit="10"/>
<path d="M230.031 27.3746C242.803 34.4403 255.191 39.9456 266.778 47.3627C295.303 65.5688 319.655 93.5716 333.855 125.859C343.33 147.624 349.937 168.276 359.434 187.646C368.61 206.381 376.255 224.697 379.076 247.242C382.397 273.544 379.388 301.088 368.989 326.839C362 344.143 352.536 360.02 341.342 374.163C334.198 383.245 326.163 391.413 317.995 400.194C307.406 411.524 296.454 422.954 285.581 434.439C279.305 441.008 273.23 447.542 266.961 453.763C237.393 482.991 203.499 509.737 161.114 514.992C148.26 516.572 135.263 517.346 122.005 518.41C106.214 519.651 90.5713 521.525 75.5073 522.566C60.55 523.623 45.9221 523.615 30.9676 522.557C18.0173 521.659 5.4191 519.242 -6.76489 514.878C-25.0727 508.252 -42.142 497.314 -57.6652 483.393C-69.6394 472.649 -80.6592 461.04 -91.7857 449.415C-122.796 417.131 -152.399 389.412 -168.982 349.234C-180.245 321.931 -183.695 291.422 -181.576 262.202C-179.461 233.155 -172.075 204.895 -161.444 176.953C-151.421 150.646 -138.861 123.987 -125.022 98.8662C-103.399 59.5219 -72.1373 29.2966 -34.6417 7.76162C2.92114 -13.7855 46.4383 -24.7202 89.8179 -22.2846C139.052 -19.4792 184.462 2.24609 229.925 27.3591L230.031 27.3746Z" stroke="white" stroke-opacity="0.3" stroke-miterlimit="10"/>
<path d="M220.378 29.4173C233.117 36.1075 245.52 40.917 257.145 47.7726C285.777 64.6422 310.448 92.1026 324.343 124.236C333.633 145.931 339.939 166.256 350.225 184.999C360.007 202.862 368.515 220.191 371.865 242.398C375.769 268.284 372.978 295.685 362.226 321.014C355.015 338.046 345.214 353.394 333.793 366.85C326.47 375.514 318.244 383.196 309.937 391.586C299.347 402.327 288.429 413.369 277.829 424.632C271.742 431.098 265.868 437.595 259.828 443.741C231.552 472.633 199.284 500.335 157.442 504.556C144.849 505.847 132.179 506.32 119.217 507.295C103.762 508.476 88.5152 510.625 73.8987 512.037C59.3614 513.504 45.2998 513.949 30.7617 513.475C18.0695 513.05 5.74488 511 -6.12238 506.857C-24.0223 500.574 -40.5818 489.578 -55.4886 475.616C-66.9806 464.854 -77.4511 453.216 -88.3677 441.796C-118.716 409.913 -148.97 384.565 -165.729 345.146C-177.086 318.484 -180.195 288.33 -177.647 259.76C-175.076 231.325 -167.238 203.85 -156.486 176.58C-146.316 150.905 -134.032 124.642 -121.041 99.8124C-100.977 61.4414 -71.4295 31.9052 -35.3288 10.5166C0.716892 -10.7927 42.8547 -21.6876 84.8671 -19.1452C132.599 -16.2087 175.885 6.03683 220.311 29.4293L220.378 29.4173Z" stroke="white" stroke-opacity="0.3" stroke-miterlimit="10"/>
<path d="M210.73 31.4664C223.409 37.8208 235.814 41.8673 247.477 48.1614C276.205 63.6273 301.246 90.6398 314.797 122.593C323.912 144.285 329.972 164.203 341.008 182.291C351.357 199.255 360.728 215.597 364.647 237.494C369.147 263.031 366.588 290.181 355.495 315.155C348.09 331.876 337.964 346.763 326.248 359.543C318.707 367.761 310.358 374.945 301.951 382.972C291.359 393.124 280.543 403.767 270.148 414.819C264.211 421.155 258.566 427.576 252.795 433.673C225.77 462.202 195.13 490.86 153.87 494.075C141.565 495.037 129.222 495.208 116.462 496.148C101.303 497.241 86.452 499.665 72.295 501.514C58.2448 503.379 44.6547 504.329 30.5606 504.399C18.1265 504.448 6.07545 502.764 -5.47508 498.842C-22.967 492.901 -39.0444 481.888 -53.3467 467.818C-64.2894 457.027 -74.3053 445.411 -84.9568 434.117C-114.605 402.663 -145.561 379.589 -162.551 341.009C-174.001 314.988 -176.729 285.216 -173.765 257.23C-170.805 229.418 -162.487 202.689 -151.615 176.091C-141.337 151.02 -129.289 125.181 -117.148 100.643C-98.6697 63.2847 -70.7805 34.3583 -36.1297 13.1955C-1.60124 -7.87602 39.1573 -18.7313 79.7628 -16.1095C125.994 -13.042 167.181 9.68421 210.545 31.3958L210.73 31.4664Z" stroke="white" stroke-opacity="0.3" stroke-miterlimit="10"/>
<path d="M201.078 33.5087C213.724 39.4876 226.143 42.8383 237.844 48.571C266.64 62.6728 292.106 89.1582 305.285 120.97C314.267 142.686 319.974 162.182 331.759 179.616C342.687 195.748 352.976 211.024 357.384 232.556C362.508 257.703 360.154 284.643 348.681 309.235C341.014 325.656 330.563 340.081 318.66 352.202C310.912 360.041 302.399 366.7 293.892 374.363C283.3 383.926 272.546 394.142 262.395 405.012C256.608 411.216 251.205 417.629 245.702 423.678C219.941 451.91 190.955 481.484 150.239 483.666C138.221 484.299 126.138 484.181 113.714 485.06C98.8909 486.093 84.396 488.766 70.7261 491.012C57.1234 493.247 44.0445 494.729 30.422 495.304C18.2063 495.799 6.46847 494.51 -4.76534 490.808C-21.8889 485.182 -37.4446 474.18 -51.0753 459.989C-61.5083 449.141 -71.0024 437.535 -81.4163 426.406C-110.376 395.314 -142.01 374.65 -159.176 336.83C-170.719 311.449 -173.094 282.099 -169.675 254.725C-166.259 227.524 -157.488 201.58 -146.496 175.654C-136.109 151.188 -124.258 125.8 -112.966 101.553C-96.0742 65.2072 -69.8712 36.9302 -36.6428 15.9536C-3.63142 -4.88014 35.7754 -15.7353 74.986 -12.967C119.676 -9.79609 158.845 13.4659 201.105 33.4691L201.078 33.5087Z" stroke="white" stroke-opacity="0.3" stroke-miterlimit="10"/>
<path d="M191.388 35.5271C204.002 41.1305 216.395 43.7579 228.174 48.9566C257.037 61.6944 282.902 87.6924 295.737 119.323C304.504 141.008 309.91 160.177 322.539 176.905C334.007 192.177 345.227 206.454 350.163 227.649C355.871 252.379 353.762 279.137 341.948 303.374C334.086 319.483 323.31 333.447 311.113 344.892C303.187 352.313 294.51 358.446 285.864 365.719C275.297 374.653 264.551 384.521 254.712 395.196C249.075 401.27 243.9 407.606 238.639 413.647C214.17 441.543 186.81 472.073 146.676 473.249C134.946 473.553 123.163 473.173 110.996 473.937C96.5085 474.91 82.3699 477.83 69.1871 480.475C56.0715 483.107 43.4642 485.094 30.2461 486.185C18.2609 487.194 6.82427 486.232 -4.09281 482.75C-20.8085 477.467 -35.8149 466.435 -48.9083 452.148C-58.8195 441.31 -67.8315 429.687 -77.9803 418.684C-106.239 388.02 -138.535 369.66 -155.933 332.678C-167.569 307.938 -169.604 278.943 -165.756 252.219C-161.884 225.63 -152.661 200.472 -141.615 175.229C-131.081 151.395 -119.466 126.431 -109.034 102.407C-93.6899 67.1025 -69.2125 39.4474 -37.379 18.6172C-5.88478 -1.97874 32.1428 -12.7942 69.9465 -9.94657C113.107 -6.60504 150.234 17.0584 191.403 35.4203L191.388 35.5271Z" stroke="white" stroke-opacity="0.3" stroke-miterlimit="10"/>
<path d="M181.737 37.571C194.318 42.799 206.686 44.7029 218.543 49.3677C247.474 60.7414 273.709 86.2916 286.227 117.702C294.821 139.384 299.914 158.158 313.332 174.259C325.339 188.672 337.516 201.91 342.954 222.807C349.286 247.148 347.382 273.695 335.187 297.55C327.131 313.348 315.99 326.822 303.539 337.62C295.433 344.622 286.566 350.27 277.82 357.179C267.252 365.524 256.568 374.965 246.973 385.458C241.525 391.428 236.58 397.689 231.52 403.693C208.343 431.253 182.61 462.739 143.019 462.882C131.589 462.924 120.093 462.215 108.194 462.931C94.0311 463.776 80.2728 467.078 67.5376 470.093C54.8419 473.136 42.7733 475.615 29.9992 477.25C18.272 478.732 7.10899 478.137 -3.51893 474.916C-19.7991 469.936 -34.3509 458.926 -46.8002 444.558C-56.2018 433.664 -64.692 422.051 -74.5637 411.24C-102.162 380.978 -135.081 364.948 -152.749 328.777C-164.478 304.678 -166.133 276.065 -161.856 249.993C-157.595 224.027 -147.852 199.642 -136.687 175.071C-126.044 151.841 -114.626 127.328 -105.044 103.596C-91.2458 69.3315 -68.4666 42.2586 -38.083 21.6542C-8.13353 1.33565 28.5699 -9.5193 64.9788 -6.52517C106.638 -3.05264 141.734 21.0794 181.773 37.7725L181.737 37.571Z" stroke="white" stroke-opacity="0.3" stroke-miterlimit="10"/>
<path d="M172.113 39.5777C184.662 44.4303 197.044 45.6384 208.939 49.7418C237.938 59.7514 264.531 84.7866 276.717 116.083C285.137 137.761 289.889 156.181 304.084 171.588C316.63 185.141 329.738 197.381 335.665 217.912C342.581 241.836 340.922 268.201 328.386 291.701C320.108 307.227 308.67 320.2 295.924 330.323C287.64 336.906 278.582 342.069 269.736 348.614C259.206 356.398 248.584 365.412 239.194 375.694C233.896 381.533 229.153 387.758 224.361 393.714C202.408 420.951 178.342 453.42 139.321 452.489C128.179 452.202 116.971 451.164 105.381 451.859C91.5531 452.644 78.1512 456.195 65.903 459.607C53.6945 463.048 42.0975 466.032 29.7949 468.172C18.2586 470.139 7.43635 469.899 -2.87485 466.898C-18.7867 462.233 -32.8168 451.234 -44.6341 436.718C-53.5139 425.833 -61.534 414.136 -71.1285 403.519C-98.0258 373.685 -131.635 359.997 -149.479 324.586C-161.302 301.127 -162.603 272.937 -157.883 247.408C-153.166 222.054 -143.01 198.427 -131.685 174.555C-120.934 151.93 -109.685 127.829 -101.019 104.4C-88.7281 71.203 -67.7141 44.7244 -38.6858 24.294C-10.2139 4.24086 25.0706 -6.60192 60.0727 -3.52847C100.23 0.0750775 133.284 24.6086 172.204 39.7L172.113 39.5777Z" stroke="white" stroke-opacity="0.3" stroke-miterlimit="10"/>
<path d="M162.462 41.6239C174.979 46.1009 187.335 46.5857 199.268 50.1276C228.402 58.7611 255.326 83.3209 267.129 114.409C275.375 136.084 279.786 154.149 294.825 168.849C307.883 181.583 321.937 192.717 328.432 212.938C335.971 236.473 334.517 262.628 321.629 285.706C313.156 300.92 301.353 313.404 288.353 322.879C279.89 329.044 270.668 333.681 261.683 339.835C251.152 347.03 240.592 355.617 231.487 365.744C226.311 371.492 221.864 377.629 217.273 383.549C196.612 410.449 174.185 443.941 135.695 441.91C124.813 441.334 113.932 439.995 102.571 440.614C89.0394 441.311 76.0334 445.137 64.2724 448.948C52.5114 452.758 41.4375 456.341 29.5273 458.931C18.2215 461.412 7.66082 461.471 -2.29406 458.718C-17.798 454.396 -31.3459 443.38 -42.5191 428.782C-50.8892 417.841 -58.4151 406.194 -67.7445 395.702C-93.9808 366.27 -128.213 354.912 -146.327 320.312C-158.244 297.494 -159.205 269.658 -154.056 244.781C-148.922 220.01 -138.274 197.196 -126.869 173.968C-116.01 151.948 -104.917 128.326 -97.1792 105.132C-86.3959 73.0037 -67.1472 47.1195 -39.5413 26.8752C-12.5865 7.05979 21.3187 -3.74328 54.9811 -0.602564C93.6367 3.13198 124.648 28.067 162.45 41.5567L162.462 41.6239Z" stroke="white" stroke-opacity="0.3" stroke-miterlimit="10"/>
<path d="M152.814 43.6676C165.325 47.7296 177.668 47.5581 189.639 50.5386C218.842 57.808 246.097 81.8924 257.622 112.788C265.694 134.459 269.736 152.209 285.619 166.203C299.15 178.09 314.201 188.212 321.226 208.096C329.388 231.241 328.139 257.186 314.91 279.909C306.215 294.851 294.114 306.834 280.82 315.634C272.151 321.42 262.805 325.559 253.681 331.323C243.188 337.956 232.623 346.128 223.79 356.033C218.764 361.65 214.518 367.751 210.236 373.65C190.827 400.187 170.038 434.702 132.119 431.598C121.537 430.76 110.944 429.092 99.8786 429.623C86.683 430.259 74.0729 434.361 62.6922 438.554C51.4183 442.762 40.816 446.85 29.3498 449.984C18.2745 452.978 8.015 453.365 -1.66274 450.804C-16.7587 446.825 -29.7849 435.819 -40.3933 421.085C-48.2416 410.154 -55.2578 398.45 -64.3497 388.124C-89.8854 359.121 -124.779 350.065 -143.098 316.265C-155.108 294.088 -155.688 266.634 -150.111 242.408C-144.521 218.249 -133.421 196.22 -121.895 173.663C-110.888 152.275 -100.032 129.076 -93.1428 106.174C-83.8668 75.1137 -66.3438 49.8514 -40.1723 29.726C-14.7347 10.1484 17.8188 -0.654559 50.0863 2.63266C87.2404 6.49821 116.265 31.7554 152.854 43.6951L152.814 43.6676Z" stroke="white" stroke-opacity="0.3" stroke-miterlimit="10"/>
<path d="M143.12 45.6854C155.626 49.3323 167.916 48.4772 179.965 50.9237C209.235 56.829 236.888 80.426 248.069 111.141C255.967 132.808 259.602 150.216 276.357 163.464C290.371 174.57 306.436 183.575 313.961 203.16C322.708 225.889 321.675 251.691 308.094 273.992C299.205 288.622 286.739 300.116 273.19 308.269C264.302 313.609 254.806 317.29 245.609 322.65C235.154 328.722 224.612 336.439 216.023 346.162C211.148 351.648 207.131 357.673 203.117 363.524C185 389.725 165.85 425.263 128.462 421.058C118.167 419.891 107.834 417.933 97.0651 418.377C84.2054 418.953 71.9516 423.303 61.0581 427.893C50.2041 432.512 40.1526 437.159 29.1459 440.73C18.3407 444.265 8.34273 444.951 -1.01829 442.612C-15.7063 438.975 -28.2503 427.952 -38.1871 413.097C-45.5533 402.149 -52.0478 390.455 -60.8745 380.255C-85.7492 351.653 -121.294 344.967 -139.855 311.938C-151.958 290.402 -152.158 263.331 -146.192 239.728C-140.174 216.22 -128.594 194.936 -116.948 173.052C-105.833 152.268 -95.0936 129.576 -89.1726 106.882C-81.3366 76.8774 -65.6185 52.1819 -40.897 32.2822C-16.9645 13.0096 14.1977 2.17918 45.0583 5.54572C80.7108 9.54228 107.748 35.1217 143.191 45.4994L143.12 45.6854Z" stroke="white" stroke-opacity="0.3" stroke-miterlimit="10"/>
<path d="M133.474 47.7323C145.975 50.9641 158.252 49.4527 170.339 51.3378C199.677 55.879 227.633 79.0403 238.564 109.523C246.248 131.159 249.527 148.318 267.154 160.821C281.652 171.147 298.702 179.073 306.745 198.254C316.115 220.593 315.287 246.185 301.365 268.132C292.254 282.49 279.451 293.455 265.648 300.96C256.581 305.881 246.96 309.065 237.558 314.046C227.141 319.557 216.621 326.819 208.317 336.387C203.631 341.769 199.815 347.758 196.031 353.533C179.138 379.41 161.694 415.959 124.836 410.654C114.841 409.225 104.824 406.899 94.296 407.333C81.7325 407.822 69.8747 412.447 59.4682 417.436C49.1014 422.452 39.5334 427.671 28.9587 431.719C18.3839 435.767 8.6872 436.781 -0.384664 434.701C-14.7044 431.38 -26.7267 420.366 -36.059 405.404C-42.8758 394.426 -48.8882 382.715 -57.505 372.719C-81.6514 344.506 -117.886 340.164 -136.651 307.934C-148.847 287.038 -148.734 260.361 -142.245 237.358C-135.81 214.433 -123.778 193.935 -112.011 172.723C-100.788 152.543 -90.206 130.33 -85.2132 107.872C-78.8053 78.9905 -64.9316 54.8342 -41.605 35.0811C-19.1896 16.0462 10.6208 5.21593 40.0866 8.72898C74.2375 12.8565 99.2874 38.7581 133.556 47.6134L133.474 47.7323Z" stroke="white" stroke-opacity="0.3" stroke-miterlimit="10"/>
<path d="M123.819 49.7727C136.315 52.5895 148.511 50.434 160.704 51.7455C190.149 54.9502 218.424 77.5689 229.05 107.898C236.561 129.531 239.471 146.375 257.969 158.132C272.952 167.678 290.988 174.526 299.559 193.369C309.525 215.359 308.97 240.728 294.628 262.265C285.322 276.311 272.154 286.787 258.096 293.645C248.851 298.147 239.079 300.873 229.565 305.424C219.186 310.373 208.729 317.208 200.629 326.566C196.093 331.817 192.506 337.73 188.963 343.497C173.322 369.01 157.489 406.621 121.23 400.203C111.495 398.485 101.805 395.858 91.5338 396.177C79.3061 396.605 67.8045 401.478 57.8576 406.904C47.9383 412.291 38.8935 418.109 28.7111 422.607C18.4065 427.196 8.97131 428.509 0.216178 426.65C-13.6956 423.671 -25.2357 412.641 -33.924 397.597C-40.2587 386.602 -45.7493 374.901 -54.1009 365.031C-77.5864 337.22 -114.443 335.207 -133.479 303.789C-145.769 283.533 -145.276 257.239 -138.397 234.859C-131.507 212.546 -119.022 192.833 -107.135 172.292C-95.8038 152.717 -85.2719 130.998 -81.2746 108.789C-76.2671 80.9905 -64.2259 57.4405 -42.3612 37.846C-21.4234 19.0765 6.96814 8.25829 35.0271 11.8507C67.6764 16.1092 90.727 42.2659 123.834 49.6659L123.819 49.7727Z" stroke="white" stroke-opacity="0.3" stroke-miterlimit="10"/>
<path d="M114.17 51.821C126.649 54.1555 138.844 51.411 151.035 52.1334C180.548 53.9741 209.221 76.1053 219.503 106.254C226.84 127.883 229.366 144.519 248.684 155.435C264.191 164.228 283.161 169.903 292.273 188.476C302.823 210.049 302.512 235.236 287.829 256.418C278.262 270.164 264.836 280.167 250.484 286.349C241.06 290.433 231.137 292.701 221.443 296.833C211.075 301.26 200.64 307.641 192.786 316.816C188.399 321.937 185.014 327.813 181.74 333.532C167.351 358.682 153.168 397.383 117.468 389.825C108.032 387.845 98.5908 384.861 88.6275 385.159C76.6961 385.5 65.63 390.676 56.1306 396.472C46.6708 402.296 38.1647 408.607 28.4144 413.582C18.3522 418.751 9.17864 420.364 0.7678 418.685C-12.7361 416.05 -23.8216 405.041 -31.8503 389.81C-37.6632 378.826 -42.6441 367.068 -50.7582 357.363C-73.543 329.98 -111.063 330.271 -130.33 299.691C-142.673 280.104 -141.839 254.164 -134.532 232.435C-127.213 210.773 -114.276 191.846 -102.281 171.909C-90.8412 152.939 -80.3991 131.687 -77.3971 109.725C-73.7229 82.9982 -63.6209 60.0392 -43.1787 40.6307C-23.746 22.1662 3.28177 11.2809 29.9459 15.0198C61.0264 19.4215 82.1724 45.7815 114.091 51.7659L114.17 51.821Z" stroke="white" stroke-opacity="0.3" stroke-miterlimit="10"/>
<path d="M104.479 53.8384C116.942 55.6907 129.135 52.3572 141.364 52.5181C170.957 53.0619 199.949 74.6506 209.926 104.646C217.049 126.244 219.219 142.632 239.409 152.802C255.4 160.815 275.355 165.412 284.956 183.62C296.13 204.803 296.064 229.808 280.961 250.58C271.239 264.042 257.409 273.528 242.842 279.09C233.199 282.728 223.164 284.565 213.359 288.267C203.069 292.16 192.617 298.058 185.047 307.078C180.81 312.068 177.654 317.869 174.621 323.579C161.484 348.366 148.925 388.196 113.81 379.458C104.635 377.189 95.5206 373.904 85.8139 374.087C74.2458 374.327 63.5085 379.791 54.4962 385.985C45.484 392.179 37.501 399.09 28.1826 404.541C18.3905 410.252 9.47856 412.164 1.38446 410.706C-11.7115 408.413 -22.3148 397.387 -29.6995 382.075C-35.0303 371.073 -39.4894 359.326 -47.3384 349.747C-69.4622 322.765 -107.604 325.386 -127.115 295.578C-139.551 276.631 -138.376 251.046 -130.641 229.968C-122.906 208.89 -109.476 190.776 -97.3614 171.511C-85.774 153.173 -75.3941 132.347 -73.4151 110.674C-71.1018 85.0578 -62.8718 62.6776 -43.864 43.3881C-25.9485 25.1613 -0.260418 14.3434 24.9572 18.134C54.5361 22.6667 73.6985 49.175 104.44 53.8109L104.479 53.8384Z" stroke="white" stroke-opacity="0.3" stroke-miterlimit="10"/>
<path d="M94.8562 55.8451C107.302 57.2151 119.454 53.265 131.761 52.892C161.421 52.0718 190.811 73.173 200.444 102.987C207.394 124.583 209.18 140.762 230.257 150.08C246.744 157.379 267.7 160.791 277.83 178.661C289.588 199.428 289.766 224.25 274.35 244.627C264.406 257.818 250.239 266.775 235.417 271.689C225.595 274.909 215.382 276.327 205.465 279.599C195.185 282.97 184.784 288.374 177.458 297.211C173.383 302.137 170.456 307.863 167.692 313.524C155.739 337.959 144.871 378.908 110.342 368.99C101.467 366.459 92.6679 362.805 83.2023 362.979C71.97 363.159 61.5614 368.911 53.0362 375.503C44.5111 382.095 37.0514 389.604 28.1253 395.506C18.6033 401.757 9.95292 403.969 2.17554 402.731C-10.5125 400.781 -20.6337 389.738 -27.4139 374.317C-32.2625 363.298 -36.2119 351.494 -43.7838 342.108C-65.207 315.555 -103.917 320.426 -123.753 291.509C-136.255 273.164 -134.755 248.04 -126.576 227.506C-118.385 207.04 -104.503 189.71 -92.2676 171.117C-80.5719 153.384 -70.1751 133.041 -69.2982 111.6C-68.2511 87.0429 -61.9879 65.2932 -44.4421 46.1622C-28.0042 28.2008 -3.73493 17.395 20.1154 21.2926C48.1928 25.9562 65.3713 52.6128 94.9354 55.9002L94.8562 55.8451Z" stroke="white" stroke-opacity="0.3" stroke-miterlimit="10"/>
<path d="M85.2063 57.886C97.6348 58.7738 109.785 54.2347 122.13 53.3003C151.859 51.1159 181.647 71.7297 190.936 101.363C197.711 122.955 199.113 138.926 221.011 147.403C237.994 153.99 259.924 156.256 270.582 173.789C282.963 194.166 283.347 218.778 267.55 238.773C257.412 251.652 242.88 260.119 227.804 264.387C217.803 267.188 207.478 268.176 197.371 270.961C187.101 273.811 176.762 278.787 169.668 287.375C165.743 292.17 163.046 297.82 160.55 303.433C149.85 327.505 140.604 369.583 106.634 358.525C98.0189 355.704 89.5076 351.721 80.3382 351.808C69.4021 351.9 59.3895 357.927 51.3514 364.917C43.2738 371.879 36.3768 380.016 27.8312 386.299C18.5912 393.158 10.1904 395.603 2.70216 394.625C-9.57791 393.017 -19.2445 381.997 -25.3255 366.416C-29.6645 355.34 -33.1197 343.586 -40.4265 334.325C-61.1886 308.174 -100.549 315.415 -120.601 287.23C-133.196 269.525 -131.355 244.757 -122.708 224.901C-114.089 205.085 -99.7658 188.475 -87.4106 170.553C-75.6068 153.424 -65.1929 133.563 -65.3907 112.315C-65.6097 88.8177 -61.2737 67.7261 -45.2019 48.6865C-30.2295 31.0576 -7.36359 20.1572 15.0523 24.1737C41.6281 28.9683 56.7833 55.7456 85.2098 57.7121L85.2063 57.886Z" stroke="white" stroke-opacity="0.3" stroke-miterlimit="10"/>
<path d="M3.35847 386.675C10.53 387.433 18.7088 384.716 27.639 377.289C35.8199 370.516 42.1386 361.859 49.7567 354.46C57.3748 347.06 66.964 340.797 77.5642 340.765C86.4374 340.766 94.6609 345.078 102.976 348.161C136.305 360.478 143.915 317.203 153.431 293.482C155.686 287.878 158.154 282.304 161.929 277.64C168.739 269.207 179.067 264.752 189.326 262.425C199.545 260.07 210.022 259.54 220.229 257.118C235.599 253.526 250.429 245.559 260.789 232.953C276.927 213.312 276.338 188.91 263.333 168.922C252.146 151.728 229.243 150.606 211.803 144.76C189.018 137.136 188 121.373 181.399 99.7846C172.414 70.3046 142.308 50.2334 112.472 53.7543C100.088 55.2501 87.9548 60.2715 75.5553 59.9332C48.2543 59.2204 35.1344 32.3896 10.0602 27.464C-10.9884 23.3406 -32.4354 34.2289 -45.9303 51.5924C-60.5796 70.4458 -62.8817 90.8949 -61.4241 113.373C-60.0691 134.309 -70.5275 153.727 -82.5066 170.264C-94.9545 187.474 -109.769 203.272 -118.805 222.504C-127.841 241.736 -130.063 266.122 -117.374 283.186C-97.0908 310.533 -57.0682 300.988 -37.0066 326.711C-29.9374 335.806 -27.0315 347.59 -23.1747 358.683C-17.7378 374.345 -8.55326 385.383 3.35847 386.675Z" stroke="white" stroke-opacity="0.3" stroke-miterlimit="10"/>
</g>
</g>
<defs>
<linearGradient id="paint0_linear_1139_5798" x1="306.5" y1="0" x2="306.5" y2="637" gradientUnits="userSpaceOnUse">
<stop stop-color="#DD648D"/>
<stop offset="1" stop-color="#DEA750"/>
</linearGradient>
<linearGradient id="paint1_linear_1139_5798" x1="306.5" y1="0" x2="306.5" y2="637" gradientUnits="userSpaceOnUse">
<stop stop-color="#DD648D"/>
<stop offset="1" stop-color="#DEA750"/>
</linearGradient>
</defs>
</svg>
