<svg width="95" height="100" viewBox="0 0 95 100" fill="none" xmlns="http://www.w3.org/2000/svg">
<g clip-path="url(#clip0_102_11)">
<g opacity="0.9">
<path d="M38.2654 34.142C43.2285 31.2766 44.9292 24.9307 42.0641 19.9682C39.1989 15.0056 32.8529 13.3056 27.8898 16.171C22.9267 19.0365 21.226 25.3823 24.0911 30.3449C26.9562 35.3074 33.3023 37.0075 38.2654 34.142Z" stroke="url(#paint0_linear_102_11)" stroke-width="0.6" stroke-miterlimit="10"/>
<path d="M39.427 36.1538C44.6955 33.1121 46.501 26.3759 43.4597 21.1082C40.4184 15.8406 33.682 14.0361 28.4135 17.0778C23.145 20.1196 21.3395 26.8558 24.3808 32.1234C27.4221 37.3911 34.1585 39.1956 39.427 36.1538Z" stroke="url(#paint1_linear_102_11)" stroke-width="0.6" stroke-miterlimit="10"/>
<path d="M40.6319 38.2415C46.2496 34.9981 48.1749 27.8155 44.9321 22.1988C41.6893 16.5822 34.5064 14.6583 28.8887 17.9017C23.2709 21.1451 21.3456 28.3276 24.5884 33.9443C27.8312 39.561 35.0141 41.4849 40.6319 38.2415Z" stroke="url(#paint2_linear_102_11)" stroke-width="0.6" stroke-miterlimit="10"/>
<path d="M41.8955 40.3872C47.8955 36.9105 49.9418 29.2293 46.4659 23.2307C42.99 17.2321 35.3083 15.1877 29.3083 18.6644C23.3083 22.1411 21.2621 29.8223 24.7379 35.8209C28.2138 41.8194 35.8955 43.8638 41.8955 40.3872Z" stroke="url(#paint3_linear_102_11)" stroke-width="0.6" stroke-miterlimit="10"/>
<path d="M43.1544 42.6081C49.5768 38.9001 51.7781 30.6892 48.0712 24.2686C44.3642 17.848 36.1527 15.6489 29.7303 19.3569C23.3079 23.0649 21.1066 31.2757 24.8136 37.6964C28.5205 44.117 36.732 46.316 43.1544 42.6081Z" stroke="url(#paint4_linear_102_11)" stroke-width="0.6" stroke-miterlimit="10"/>
<path d="M44.4569 44.8643C51.3201 40.9019 53.6717 32.1263 49.7094 25.2635C45.7472 18.4007 36.9715 16.0495 30.1084 20.0119C23.2453 23.9743 20.8937 32.7499 24.8559 39.6127C28.8181 46.4755 37.5938 48.8267 44.4569 44.8643Z" stroke="url(#paint5_linear_102_11)" stroke-width="0.6" stroke-miterlimit="10"/>
<path d="M45.7817 47.1611C53.1075 42.9316 55.6178 33.5647 51.3887 26.2397C47.1595 18.9146 37.7924 16.4052 30.4666 20.6347C23.1409 24.8642 20.6305 34.2311 24.8597 41.5562C29.0888 48.8813 38.4559 51.3907 45.7817 47.1611Z" stroke="url(#paint6_linear_102_11)" stroke-width="0.6" stroke-miterlimit="10"/>
<path d="M47.1247 49.4837C54.9296 44.9775 57.6043 34.9984 53.0988 27.1946C48.5932 19.3908 38.6137 16.7175 30.8088 21.2237C23.0039 25.7298 20.3292 35.709 24.8347 43.5128C29.3402 51.3166 39.3198 53.9899 47.1247 49.4837Z" stroke="url(#paint7_linear_102_11)" stroke-width="0.6" stroke-miterlimit="10"/>
<path d="M48.4795 51.8316C56.7763 47.0415 59.6188 36.4321 54.8285 28.135C50.0382 19.8379 39.4289 16.995 31.1321 21.7851C22.8353 26.5753 19.9927 37.1846 24.7831 45.4818C29.5734 53.7789 40.1826 56.6218 48.4795 51.8316Z" stroke="url(#paint8_linear_102_11)" stroke-width="0.6" stroke-miterlimit="10"/>
<path d="M49.8461 54.2005C58.6477 49.119 61.6634 37.8646 56.5819 29.0632C51.5004 20.2618 40.246 17.2462 31.4444 22.3278C22.6429 27.4094 19.6272 38.6638 24.7087 47.4652C29.7902 56.2666 41.0446 59.2821 49.8461 54.2005Z" stroke="url(#paint9_linear_102_11)" stroke-width="0.6" stroke-miterlimit="10"/>
<path d="M51.225 56.5866C60.5404 51.2084 63.7324 39.2973 58.3545 29.9824C52.9766 20.6676 41.0653 17.4763 31.7498 22.8546C22.4344 28.2328 19.2425 40.1439 24.6204 49.4588C29.9983 58.7736 41.9096 61.9649 51.225 56.5866Z" stroke="url(#paint10_linear_102_11)" stroke-width="0.6" stroke-miterlimit="10"/>
<path d="M52.6123 58.9909C62.4507 53.3106 65.822 40.7311 60.1424 30.8937C54.4628 21.0563 41.8829 17.6862 32.0445 23.3664C22.2061 29.0466 18.8347 41.6262 24.5144 51.4636C30.194 61.301 42.7738 64.6711 52.6123 58.9909Z" stroke="url(#paint11_linear_102_11)" stroke-width="0.6" stroke-miterlimit="10"/>
<path d="M64.6976 45.1463C63.311 57.0365 52.5449 65.5505 40.6568 64.1609C28.7655 62.7731 20.2519 52.0112 21.6437 40.1224C23.0303 28.2322 33.7964 19.7182 45.6845 21.1079C57.5759 22.4956 66.0894 33.2576 64.6976 45.1463Z" stroke="url(#paint12_linear_102_11)" stroke-width="0.6" stroke-miterlimit="10"/>
<path d="M66.5833 47.242C64.8406 59.7083 53.3213 68.4013 40.8558 66.6613C28.3902 64.9214 19.6943 53.4001 21.437 40.9338C23.1797 28.4675 34.6989 19.7745 47.1645 21.5145C59.632 23.2578 68.326 34.7757 66.5833 47.242Z" stroke="url(#paint13_linear_102_11)" stroke-width="0.6" stroke-miterlimit="10"/>
<path d="M68.4706 49.3415C66.3718 62.3839 54.098 71.2611 41.0544 69.1623C28.0127 67.0668 19.135 54.7948 21.2319 41.7491C23.3307 28.7067 35.6045 19.8295 48.6481 21.9283C61.6917 24.0271 70.5675 36.2958 68.4706 49.3415Z" stroke="url(#paint14_linear_102_11)" stroke-width="0.6" stroke-miterlimit="10"/>
<path d="M70.3577 51.4377C67.9047 65.0595 54.8759 74.1124 41.2548 71.6633C27.6337 69.2142 18.5789 56.1843 21.0285 42.5643C23.4815 28.9424 36.5103 19.8896 50.1314 22.3387C63.7526 24.7878 72.8074 37.8177 70.3577 51.4377Z" stroke="url(#paint15_linear_102_11)" stroke-width="0.6" stroke-miterlimit="10"/>
<path d="M72.2449 53.5372C69.4391 67.7332 55.6524 76.9722 41.4552 74.1676C27.258 71.363 18.0194 57.579 20.8285 43.381C23.6343 29.1849 37.421 19.9459 51.6182 22.7505C65.8154 25.5551 75.054 39.3392 72.2449 53.5372Z" stroke="url(#paint16_linear_102_11)" stroke-width="0.6" stroke-miterlimit="10"/>
<path d="M74.1259 55.6353C70.9659 70.4108 56.4242 79.8254 41.6475 76.6672C26.8709 73.509 17.4572 58.9703 20.6171 44.1948C23.777 29.4193 38.3188 20.0046 53.0954 23.1629C67.8721 26.3211 77.2858 40.8598 74.1259 55.6353Z" stroke="url(#paint17_linear_102_11)" stroke-width="0.6" stroke-miterlimit="10"/>
<path d="M76.0151 57.7343C72.499 73.0859 57.2027 82.6848 41.85 79.171C26.4972 75.6573 16.9031 60.3626 20.4172 45.0077C23.9332 29.656 39.2262 20.0591 54.5823 23.5709C69.935 27.0847 79.5325 42.3774 76.0165 57.7291L76.0151 57.7343Z" stroke="url(#paint18_linear_102_11)" stroke-width="0.6" stroke-miterlimit="10"/>
<path d="M77.9011 59.8304C74.0309 75.7615 57.9814 85.5393 42.0525 81.6701C26.1204 77.8027 16.3425 61.7539 20.2127 45.8229C24.0829 29.8918 40.1324 20.1139 56.0612 23.9832C71.9901 27.8525 81.768 43.9012 77.9011 59.8304Z" stroke="url(#paint19_linear_102_11)" stroke-width="0.6" stroke-miterlimit="10"/>
<path d="M79.7876 61.9299C75.5646 78.4352 58.7587 88.394 42.2504 84.1711C25.7422 79.9482 15.7839 63.1434 20.0102 46.6362C24.2332 30.131 41.0391 20.1722 57.5474 24.3951C74.0557 28.618 84.014 45.4227 79.7876 61.9299Z" stroke="url(#paint20_linear_102_11)" stroke-width="0.6" stroke-miterlimit="10"/>
<path d="M81.6696 64.028C77.0924 81.1127 59.53 91.2523 42.4456 86.6739C25.3612 82.0955 15.2244 64.5381 19.8016 47.4533C24.3788 30.3686 41.9411 20.229 59.0255 24.8074C76.1099 29.3858 86.2467 46.9432 81.6696 64.028Z" stroke="url(#paint21_linear_102_11)" stroke-width="0.6" stroke-miterlimit="10"/>
</g>
</g>
<defs>
<linearGradient id="paint0_linear_102_11" x1="19.0704" y1="21.2629" x2="42.3349" y2="13.6727" gradientUnits="userSpaceOnUse">
<stop stop-color="#8258C8"/>
<stop offset="0.315" stop-color="#6766C8"/>
<stop offset="1" stop-color="#2C84C8"/>
</linearGradient>
<linearGradient id="paint1_linear_102_11" x1="19.0513" y1="22.4831" x2="43.7475" y2="14.426" gradientUnits="userSpaceOnUse">
<stop stop-color="#8258C8"/>
<stop offset="0.315" stop-color="#6766C8"/>
<stop offset="1" stop-color="#2C84C8"/>
</linearGradient>
<linearGradient id="paint2_linear_102_11" x1="18.9059" y1="23.6653" x2="45.2393" y2="15.0743" gradientUnits="userSpaceOnUse">
<stop stop-color="#8258C8"/>
<stop offset="0.315" stop-color="#6766C8"/>
<stop offset="1" stop-color="#2C84C8"/>
</linearGradient>
<linearGradient id="paint3_linear_102_11" x1="18.6463" y1="24.8425" x2="46.7826" y2="15.6147" gradientUnits="userSpaceOnUse">
<stop stop-color="#8258C8"/>
<stop offset="0.315" stop-color="#6766C8"/>
<stop offset="1" stop-color="#2C84C8"/>
</linearGradient>
<linearGradient id="paint4_linear_102_11" x1="18.3177" y1="25.946" x2="48.4229" y2="16.1251" gradientUnits="userSpaceOnUse">
<stop stop-color="#8258C8"/>
<stop offset="0.315" stop-color="#6766C8"/>
<stop offset="1" stop-color="#2C84C8"/>
</linearGradient>
<linearGradient id="paint5_linear_102_11" x1="17.9126" y1="27.0532" x2="50.0835" y2="16.5568" gradientUnits="userSpaceOnUse">
<stop stop-color="#8258C8"/>
<stop offset="0.315" stop-color="#6766C8"/>
<stop offset="1" stop-color="#2C84C8"/>
</linearGradient>
<linearGradient id="paint6_linear_102_11" x1="17.4487" y1="28.1506" x2="51.7884" y2="16.947" gradientUnits="userSpaceOnUse">
<stop stop-color="#8258C8"/>
<stop offset="0.315" stop-color="#6766C8"/>
<stop offset="1" stop-color="#2C84C8"/>
</linearGradient>
<linearGradient id="paint7_linear_102_11" x1="16.9394" y1="29.2311" x2="53.525" y2="17.2952" gradientUnits="userSpaceOnUse">
<stop stop-color="#8258C8"/>
<stop offset="0.315" stop-color="#6766C8"/>
<stop offset="1" stop-color="#2C84C8"/>
</linearGradient>
<linearGradient id="paint8_linear_102_11" x1="16.3886" y1="30.2973" x2="55.2799" y2="17.6075" gradientUnits="userSpaceOnUse">
<stop stop-color="#8258C8"/>
<stop offset="0.315" stop-color="#6766C8"/>
<stop offset="1" stop-color="#2C84C8"/>
</linearGradient>
<linearGradient id="paint9_linear_102_11" x1="15.804" y1="31.3578" x2="57.0613" y2="17.8965" gradientUnits="userSpaceOnUse">
<stop stop-color="#8258C8"/>
<stop offset="0.315" stop-color="#6766C8"/>
<stop offset="1" stop-color="#2C84C8"/>
</linearGradient>
<linearGradient id="paint10_linear_102_11" x1="15.1963" y1="32.4118" x2="58.8624" y2="18.165" gradientUnits="userSpaceOnUse">
<stop stop-color="#8258C8"/>
<stop offset="0.315" stop-color="#6766C8"/>
<stop offset="1" stop-color="#2C84C8"/>
</linearGradient>
<linearGradient id="paint11_linear_102_11" x1="14.5616" y1="33.4602" x2="60.6793" y2="18.4139" gradientUnits="userSpaceOnUse">
<stop stop-color="#8258C8"/>
<stop offset="0.315" stop-color="#6766C8"/>
<stop offset="1" stop-color="#2C84C8"/>
</linearGradient>
<linearGradient id="paint12_linear_102_11" x1="13.9095" y1="34.5007" x2="62.5094" y2="18.6447" gradientUnits="userSpaceOnUse">
<stop stop-color="#8258C8"/>
<stop offset="0.315" stop-color="#6766C8"/>
<stop offset="1" stop-color="#2C84C8"/>
</linearGradient>
<linearGradient id="paint13_linear_102_11" x1="13.2409" y1="35.5342" x2="64.3446" y2="18.8609" gradientUnits="userSpaceOnUse">
<stop stop-color="#8258C8"/>
<stop offset="0.315" stop-color="#6766C8"/>
<stop offset="1" stop-color="#2C84C8"/>
</linearGradient>
<linearGradient id="paint14_linear_102_11" x1="12.5579" y1="36.5677" x2="66.1927" y2="19.0684" gradientUnits="userSpaceOnUse">
<stop stop-color="#8258C8"/>
<stop offset="0.315" stop-color="#6766C8"/>
<stop offset="1" stop-color="#2C84C8"/>
</linearGradient>
<linearGradient id="paint15_linear_102_11" x1="11.8643" y1="37.5972" x2="68.05" y2="19.266" gradientUnits="userSpaceOnUse">
<stop stop-color="#8258C8"/>
<stop offset="0.315" stop-color="#6766C8"/>
<stop offset="1" stop-color="#2C84C8"/>
</linearGradient>
<linearGradient id="paint16_linear_102_11" x1="11.1602" y1="38.6265" x2="69.9184" y2="19.4571" gradientUnits="userSpaceOnUse">
<stop stop-color="#8258C8"/>
<stop offset="0.315" stop-color="#6766C8"/>
<stop offset="1" stop-color="#2C84C8"/>
</linearGradient>
<linearGradient id="paint17_linear_102_11" x1="10.4385" y1="39.6495" x2="71.7814" y2="19.6365" gradientUnits="userSpaceOnUse">
<stop stop-color="#8258C8"/>
<stop offset="0.315" stop-color="#6766C8"/>
<stop offset="1" stop-color="#2C84C8"/>
</linearGradient>
<linearGradient id="paint18_linear_102_11" x1="9.71789" y1="40.6695" x2="73.6618" y2="19.8078" gradientUnits="userSpaceOnUse">
<stop stop-color="#8258C8"/>
<stop offset="0.315" stop-color="#6766C8"/>
<stop offset="1" stop-color="#2C84C8"/>
</linearGradient>
<linearGradient id="paint19_linear_102_11" x1="8.98659" y1="41.6875" x2="75.5351" y2="19.9744" gradientUnits="userSpaceOnUse">
<stop stop-color="#8258C8"/>
<stop offset="0.315" stop-color="#6766C8"/>
<stop offset="1" stop-color="#2C84C8"/>
</linearGradient>
<linearGradient id="paint20_linear_102_11" x1="8.25055" y1="42.7059" x2="77.4241" y2="20.1375" gradientUnits="userSpaceOnUse">
<stop stop-color="#8258C8"/>
<stop offset="0.315" stop-color="#6766C8"/>
<stop offset="1" stop-color="#2C84C8"/>
</linearGradient>
<linearGradient id="paint21_linear_102_11" x1="7.5038" y1="43.7219" x2="79.3055" y2="20.2951" gradientUnits="userSpaceOnUse">
<stop stop-color="#8258C8"/>
<stop offset="0.315" stop-color="#6766C8"/>
<stop offset="1" stop-color="#2C84C8"/>
</linearGradient>
<clipPath id="clip0_102_11">
<rect width="64.2827" height="77.9428" fill="white" transform="translate(0 32.1416) rotate(-30)"/>
</clipPath>
</defs>
</svg>
