<svg width="95" height="100" viewBox="0 0 95 100" fill="none" xmlns="http://www.w3.org/2000/svg">
<g opacity="0.9">
<path d="M38.1101 33.9848C43.0732 31.1194 44.7739 24.7735 41.9088 19.811C39.0437 14.8484 32.6976 13.1484 27.7345 16.0138C22.7714 18.8792 21.0707 25.2251 23.9358 30.1877C26.801 35.1502 33.147 36.8503 38.1101 33.9848Z" stroke="url(#paint0_linear_104_660)" stroke-width="0.6" stroke-miterlimit="10"/>
<path d="M39.2717 35.9966C44.5402 32.9549 46.3457 26.2187 43.3044 20.951C40.2631 15.6833 33.5267 13.8789 28.2582 16.9206C22.9897 19.9624 21.1842 26.6985 24.2255 31.9662C27.2668 37.2339 34.0032 39.0384 39.2717 35.9966Z" stroke="url(#paint1_linear_104_660)" stroke-width="0.6" stroke-miterlimit="10"/>
<path d="M40.4776 38.0842C46.0953 34.8408 48.0206 27.6583 44.7778 22.0416C41.535 16.4249 34.3521 14.501 28.7344 17.7445C23.1166 20.9879 21.1913 28.1704 24.4341 33.7871C27.6769 39.4038 34.8598 41.3277 40.4776 38.0842Z" stroke="url(#paint2_linear_104_660)" stroke-width="0.6" stroke-miterlimit="10"/>
<path d="M41.7403 40.2299C47.7403 36.7533 49.7865 29.0721 46.3106 23.0735C42.8348 17.0749 35.153 15.0305 29.153 18.5072C23.153 21.9838 21.1068 29.6651 24.5827 35.6636C28.0585 41.6622 35.7403 43.7066 41.7403 40.2299Z" stroke="url(#paint3_linear_104_660)" stroke-width="0.6" stroke-miterlimit="10"/>
<path d="M42.9991 42.4508C49.4215 38.7429 51.6228 30.532 47.9159 24.1114C44.2089 17.6908 35.9975 15.4917 29.5751 19.1997C23.1527 22.9077 20.9514 31.1185 24.6583 37.5391C28.3653 43.9598 36.5767 46.1588 42.9991 42.4508Z" stroke="url(#paint4_linear_104_660)" stroke-width="0.6" stroke-miterlimit="10"/>
<path d="M44.3017 44.7071C51.1648 40.7447 53.5164 31.9691 49.5542 25.1063C45.5919 18.2435 36.8163 15.8923 29.9531 19.8547C23.09 23.8171 20.7384 32.5927 24.7006 39.4555C28.6629 46.3183 37.4386 48.6695 44.3017 44.7071Z" stroke="url(#paint5_linear_104_660)" stroke-width="0.6" stroke-miterlimit="10"/>
<path d="M45.6274 47.0039C52.9532 42.7744 55.4635 33.4075 51.2344 26.0824C47.0052 18.7574 37.6381 16.2479 30.3123 20.4775C22.9866 24.707 20.4762 34.0739 24.7054 41.399C28.9345 48.724 38.3016 51.2334 45.6274 47.0039Z" stroke="url(#paint6_linear_104_660)" stroke-width="0.6" stroke-miterlimit="10"/>
<path d="M46.9694 49.3265C54.7743 44.8203 57.449 34.8411 52.9435 27.0373C48.438 19.2336 38.4584 16.5603 30.6535 21.0665C22.8486 25.5726 20.1739 35.5518 24.6794 43.3556C29.185 51.1594 39.1645 53.8326 46.9694 49.3265Z" stroke="url(#paint7_linear_104_660)" stroke-width="0.6" stroke-miterlimit="10"/>
<path d="M48.3242 51.6744C56.621 46.8842 59.4636 36.2749 54.6732 27.9778C49.8829 19.6807 39.2736 16.8377 30.9768 21.6279C22.68 26.4181 19.8374 37.0274 24.6278 45.3245C29.4181 53.6216 40.0274 56.4646 48.3242 51.6744Z" stroke="url(#paint8_linear_104_660)" stroke-width="0.6" stroke-miterlimit="10"/>
<path d="M49.6918 54.0433C58.4934 48.9617 61.5091 37.7074 56.4276 28.9059C51.3461 20.1045 40.0917 17.089 31.2901 22.1706C22.4886 27.2522 19.4729 38.5065 24.5544 47.3079C29.6359 56.1094 40.8903 59.1249 49.6918 54.0433Z" stroke="url(#paint9_linear_104_660)" stroke-width="0.6" stroke-miterlimit="10"/>
<path d="M51.0698 56.4294C60.3852 51.0511 63.5771 39.14 58.1992 29.8252C52.8213 20.5103 40.91 17.3191 31.5946 22.6974C22.2792 28.0756 19.0872 39.9867 24.4651 49.3016C29.8431 58.6164 41.7544 61.8076 51.0698 56.4294Z" stroke="url(#paint10_linear_104_660)" stroke-width="0.6" stroke-miterlimit="10"/>
<path d="M52.457 58.8336C62.2954 53.1534 65.6667 40.5739 59.9871 30.7365C54.3075 20.8991 41.7276 17.529 31.8892 23.2092C22.0508 28.8894 18.6794 41.4689 24.3591 51.3063C30.0387 61.1438 42.6186 64.5138 52.457 58.8336Z" stroke="url(#paint11_linear_104_660)" stroke-width="0.6" stroke-miterlimit="10"/>
<path d="M64.5423 44.9891C63.1557 56.8793 52.3896 65.3933 40.5016 64.0036C28.6102 62.6159 20.0966 51.854 21.4885 39.9652C22.8751 28.075 33.6411 19.561 45.5292 20.9507C57.4206 22.3384 65.9342 33.1003 64.5423 44.9891Z" stroke="url(#paint12_linear_104_660)" stroke-width="0.6" stroke-miterlimit="10"/>
<path d="M66.428 47.0848C64.6853 59.5511 53.1661 68.2441 40.7005 66.5041C28.2349 64.7641 19.539 53.2429 21.2817 40.7766C23.0244 28.3103 34.5436 19.6173 47.0092 21.3573C59.4767 23.1006 68.1707 34.6185 66.428 47.0848Z" stroke="url(#paint13_linear_104_660)" stroke-width="0.6" stroke-miterlimit="10"/>
<path d="M68.3163 49.1843C66.2175 62.2267 53.9437 71.1039 40.9001 69.0051C27.8584 66.9096 18.9807 54.6376 21.0776 41.5919C23.1764 28.5494 35.4502 19.6722 48.4938 21.771C61.5374 23.8698 70.4132 36.1386 68.3163 49.1843Z" stroke="url(#paint14_linear_104_660)" stroke-width="0.6" stroke-miterlimit="10"/>
<path d="M70.2024 51.2804C67.7495 64.9023 54.7206 73.9552 41.0995 71.5061C27.4784 69.057 18.4236 56.027 20.8732 42.4071C23.3262 28.7852 36.3551 19.7323 49.9762 22.1815C63.5973 24.6306 72.6521 37.6605 70.2024 51.2804Z" stroke="url(#paint15_linear_104_660)" stroke-width="0.6" stroke-miterlimit="10"/>
<path d="M72.0906 53.3799C69.2848 67.576 55.4981 76.815 41.3009 74.0104C27.1037 71.2058 17.8651 57.4217 20.6742 43.2237C23.48 29.0277 37.2667 19.7887 51.4639 22.5933C65.6611 25.3979 74.8997 39.1819 72.0906 53.3799Z" stroke="url(#paint16_linear_104_660)" stroke-width="0.6" stroke-miterlimit="10"/>
<path d="M73.9716 55.478C70.8116 70.2536 56.2699 79.6682 41.4932 76.51C26.7166 73.3517 17.3029 58.8131 20.4628 44.0376C23.6228 29.2621 38.1645 19.8474 52.9412 23.0056C67.7178 26.1639 77.1315 40.7025 73.9716 55.478Z" stroke="url(#paint17_linear_104_660)" stroke-width="0.6" stroke-miterlimit="10"/>
<path d="M75.8598 57.5771C72.3438 72.9287 57.0475 82.5276 41.6947 79.0138C26.3419 75.5001 16.7478 60.2054 20.2619 44.8505C23.7779 29.4988 39.0709 19.9019 54.427 23.4137C69.7798 26.9275 79.3772 42.2202 75.8612 57.5718L75.8598 57.5771Z" stroke="url(#paint18_linear_104_660)" stroke-width="0.6" stroke-miterlimit="10"/>
<path d="M77.7458 59.6732C73.8756 75.6042 57.8261 85.3821 41.8973 81.5128C25.9651 77.6455 16.1872 61.5967 20.0574 45.6656C23.9276 29.7346 39.9771 19.9567 55.906 23.826C71.8348 27.6953 81.6127 43.744 77.7458 59.6732Z" stroke="url(#paint19_linear_104_660)" stroke-width="0.6" stroke-miterlimit="10"/>
<path d="M79.6324 61.7727C75.4094 78.278 58.6035 88.2368 42.0952 84.0139C25.5869 79.791 15.6286 62.9862 19.8549 46.479C24.0779 29.9737 40.8838 20.015 57.3921 24.2379C73.9004 28.4607 83.8587 45.2655 79.6324 61.7727Z" stroke="url(#paint20_linear_104_660)" stroke-width="0.6" stroke-miterlimit="10"/>
<path d="M81.5153 63.8707C76.9381 80.9555 59.3757 91.0951 42.2913 86.5167C25.2069 81.9383 15.0701 64.3808 19.6473 47.2961C24.2245 30.2114 41.7868 20.0717 58.8712 24.6501C75.9556 29.2286 86.0924 46.786 81.5153 63.8707Z" stroke="url(#paint21_linear_104_660)" stroke-width="0.6" stroke-miterlimit="10"/>
</g>
<defs>
<linearGradient id="paint0_linear_104_660" x1="18.9151" y1="21.1057" x2="42.1797" y2="13.5155" gradientUnits="userSpaceOnUse">
<stop stop-color="#8258C8"/>
<stop offset="0.315" stop-color="#6766C8"/>
<stop offset="1" stop-color="#2C84C8"/>
</linearGradient>
<linearGradient id="paint1_linear_104_660" x1="18.8961" y1="22.3258" x2="43.5922" y2="14.2688" gradientUnits="userSpaceOnUse">
<stop stop-color="#8258C8"/>
<stop offset="0.315" stop-color="#6766C8"/>
<stop offset="1" stop-color="#2C84C8"/>
</linearGradient>
<linearGradient id="paint2_linear_104_660" x1="18.7516" y1="23.508" x2="45.085" y2="14.9171" gradientUnits="userSpaceOnUse">
<stop stop-color="#8258C8"/>
<stop offset="0.315" stop-color="#6766C8"/>
<stop offset="1" stop-color="#2C84C8"/>
</linearGradient>
<linearGradient id="paint3_linear_104_660" x1="18.491" y1="24.6852" x2="46.6273" y2="15.4574" gradientUnits="userSpaceOnUse">
<stop stop-color="#8258C8"/>
<stop offset="0.315" stop-color="#6766C8"/>
<stop offset="1" stop-color="#2C84C8"/>
</linearGradient>
<linearGradient id="paint4_linear_104_660" x1="18.1624" y1="25.7888" x2="48.2677" y2="15.9679" gradientUnits="userSpaceOnUse">
<stop stop-color="#8258C8"/>
<stop offset="0.315" stop-color="#6766C8"/>
<stop offset="1" stop-color="#2C84C8"/>
</linearGradient>
<linearGradient id="paint5_linear_104_660" x1="17.7573" y1="26.8959" x2="49.9283" y2="16.3995" gradientUnits="userSpaceOnUse">
<stop stop-color="#8258C8"/>
<stop offset="0.315" stop-color="#6766C8"/>
<stop offset="1" stop-color="#2C84C8"/>
</linearGradient>
<linearGradient id="paint6_linear_104_660" x1="17.2944" y1="27.9934" x2="51.6341" y2="16.7898" gradientUnits="userSpaceOnUse">
<stop stop-color="#8258C8"/>
<stop offset="0.315" stop-color="#6766C8"/>
<stop offset="1" stop-color="#2C84C8"/>
</linearGradient>
<linearGradient id="paint7_linear_104_660" x1="16.7842" y1="29.0739" x2="53.3698" y2="17.1379" gradientUnits="userSpaceOnUse">
<stop stop-color="#8258C8"/>
<stop offset="0.315" stop-color="#6766C8"/>
<stop offset="1" stop-color="#2C84C8"/>
</linearGradient>
<linearGradient id="paint8_linear_104_660" x1="16.2333" y1="30.14" x2="55.1247" y2="17.4503" gradientUnits="userSpaceOnUse">
<stop stop-color="#8258C8"/>
<stop offset="0.315" stop-color="#6766C8"/>
<stop offset="1" stop-color="#2C84C8"/>
</linearGradient>
<linearGradient id="paint9_linear_104_660" x1="15.6497" y1="31.2006" x2="56.907" y2="17.7393" gradientUnits="userSpaceOnUse">
<stop stop-color="#8258C8"/>
<stop offset="0.315" stop-color="#6766C8"/>
<stop offset="1" stop-color="#2C84C8"/>
</linearGradient>
<linearGradient id="paint10_linear_104_660" x1="15.0411" y1="32.2545" x2="58.7071" y2="18.0077" gradientUnits="userSpaceOnUse">
<stop stop-color="#8258C8"/>
<stop offset="0.315" stop-color="#6766C8"/>
<stop offset="1" stop-color="#2C84C8"/>
</linearGradient>
<linearGradient id="paint11_linear_104_660" x1="14.4063" y1="33.303" x2="60.524" y2="18.2567" gradientUnits="userSpaceOnUse">
<stop stop-color="#8258C8"/>
<stop offset="0.315" stop-color="#6766C8"/>
<stop offset="1" stop-color="#2C84C8"/>
</linearGradient>
<linearGradient id="paint12_linear_104_660" x1="13.7542" y1="34.3435" x2="62.3542" y2="18.4875" gradientUnits="userSpaceOnUse">
<stop stop-color="#8258C8"/>
<stop offset="0.315" stop-color="#6766C8"/>
<stop offset="1" stop-color="#2C84C8"/>
</linearGradient>
<linearGradient id="paint13_linear_104_660" x1="13.0857" y1="35.377" x2="64.1893" y2="18.7036" gradientUnits="userSpaceOnUse">
<stop stop-color="#8258C8"/>
<stop offset="0.315" stop-color="#6766C8"/>
<stop offset="1" stop-color="#2C84C8"/>
</linearGradient>
<linearGradient id="paint14_linear_104_660" x1="12.4036" y1="36.4105" x2="66.0384" y2="18.9111" gradientUnits="userSpaceOnUse">
<stop stop-color="#8258C8"/>
<stop offset="0.315" stop-color="#6766C8"/>
<stop offset="1" stop-color="#2C84C8"/>
</linearGradient>
<linearGradient id="paint15_linear_104_660" x1="11.7091" y1="37.4399" x2="67.8947" y2="19.1087" gradientUnits="userSpaceOnUse">
<stop stop-color="#8258C8"/>
<stop offset="0.315" stop-color="#6766C8"/>
<stop offset="1" stop-color="#2C84C8"/>
</linearGradient>
<linearGradient id="paint16_linear_104_660" x1="11.0059" y1="38.4693" x2="69.7641" y2="19.2999" gradientUnits="userSpaceOnUse">
<stop stop-color="#8258C8"/>
<stop offset="0.315" stop-color="#6766C8"/>
<stop offset="1" stop-color="#2C84C8"/>
</linearGradient>
<linearGradient id="paint17_linear_104_660" x1="10.2842" y1="39.4923" x2="71.6271" y2="19.4793" gradientUnits="userSpaceOnUse">
<stop stop-color="#8258C8"/>
<stop offset="0.315" stop-color="#6766C8"/>
<stop offset="1" stop-color="#2C84C8"/>
</linearGradient>
<linearGradient id="paint18_linear_104_660" x1="9.56262" y1="40.5123" x2="73.5066" y2="19.6506" gradientUnits="userSpaceOnUse">
<stop stop-color="#8258C8"/>
<stop offset="0.315" stop-color="#6766C8"/>
<stop offset="1" stop-color="#2C84C8"/>
</linearGradient>
<linearGradient id="paint19_linear_104_660" x1="8.83132" y1="41.5303" x2="75.3798" y2="19.8172" gradientUnits="userSpaceOnUse">
<stop stop-color="#8258C8"/>
<stop offset="0.315" stop-color="#6766C8"/>
<stop offset="1" stop-color="#2C84C8"/>
</linearGradient>
<linearGradient id="paint20_linear_104_660" x1="8.09528" y1="42.5487" x2="77.2688" y2="19.9803" gradientUnits="userSpaceOnUse">
<stop stop-color="#8258C8"/>
<stop offset="0.315" stop-color="#6766C8"/>
<stop offset="1" stop-color="#2C84C8"/>
</linearGradient>
<linearGradient id="paint21_linear_104_660" x1="7.3495" y1="43.5647" x2="79.1512" y2="20.1378" gradientUnits="userSpaceOnUse">
<stop stop-color="#8258C8"/>
<stop offset="0.315" stop-color="#6766C8"/>
<stop offset="1" stop-color="#2C84C8"/>
</linearGradient>
</defs>
</svg>
