<svg width="85" height="85" viewBox="0 0 85 85" fill="none" xmlns="http://www.w3.org/2000/svg">
<g opacity="0.9">
<path d="M42.3599 84.2246C65.4784 84.2246 84.2197 65.4822 84.2197 42.3623C84.2197 19.2424 65.4784 0.5 42.3599 0.5C19.2413 0.5 0.5 19.2424 0.5 42.3623C0.5 65.4822 19.2413 84.2246 42.3599 84.2246Z" stroke="url(#paint0_linear_193_11286)" stroke-miterlimit="10"/>
<path d="M83.259 41.4579C83.2911 43.5614 83.213 45.6051 82.9695 47.6213C82.3583 52.6089 80.7591 57.3945 78.3327 61.6565C76.738 64.4535 74.8631 67.0208 72.8227 69.4044C70.7594 71.8201 68.4525 73.9787 65.8193 75.8525C62.7449 78.0386 59.3075 79.7747 55.6174 80.9274C53.1083 81.7174 50.5073 82.2409 47.8465 82.5027C46.1508 82.668 44.4367 82.7186 42.6858 82.6818C40.3146 82.6313 37.9801 82.4063 35.6962 82.0205C34.3773 81.7954 33.0768 81.5245 31.8038 81.1892C25.6919 79.5864 20.0533 76.7067 15.49 72.5274C14.0516 71.2093 12.7052 69.7948 11.4414 68.2975C9.93413 66.5156 8.54631 64.6372 7.32392 62.6577C6.10613 60.6921 5.05837 58.6299 4.17604 56.4714C3.44077 54.6757 2.84336 52.811 2.4068 50.8867C1.75425 48.0346 1.45554 45.054 1.51528 41.9998C1.55664 39.5933 1.80939 37.2372 2.21839 34.9317C3.35346 28.5433 5.67416 22.6692 9.32294 17.6035C11.855 14.0993 14.9937 11.0498 18.5322 8.57889C22.0431 6.1264 25.9538 4.22962 30.1449 2.94827C34.074 1.74498 38.2604 1.06986 42.5664 1.00097C49.6709 0.890744 56.3573 2.65433 62.221 5.82329C68.1538 9.03357 73.1996 13.7043 76.83 19.3671C80.9199 25.7463 83.1395 33.338 83.2636 41.4579H83.259Z" stroke="url(#paint1_linear_193_11286)" stroke-miterlimit="10"/>
<path d="M82.3084 40.5588C82.3727 42.6255 82.3819 44.6233 82.1981 46.5982C81.7432 51.494 80.2267 56.2795 77.7957 60.491C76.1873 63.265 74.3353 65.7818 72.4282 68.193C70.5073 70.6133 68.375 72.7856 65.82 74.6916C62.8329 76.9145 59.4369 78.6551 55.7605 79.7436C53.2698 80.4876 50.6918 80.9376 48.0861 81.1214C46.4226 81.2316 44.7453 81.2224 43.0312 81.1489C40.7243 81.0479 38.4357 80.8045 36.1977 80.4279C34.9018 80.212 33.6289 79.9594 32.3789 79.6517C26.4003 78.1637 20.7846 75.5275 16.373 71.3389C14.9898 70.0254 13.6985 68.6201 12.4623 67.1504C10.9918 65.4006 9.59934 63.5819 8.36776 61.6851C7.14078 59.8021 6.08382 57.8319 5.16933 55.7606C4.40649 54.0291 3.7861 52.2242 3.34954 50.3504C2.69239 47.5672 2.43504 44.6417 2.54993 41.6427C2.63724 39.2912 2.92216 36.9857 3.33575 34.7215C4.48002 28.4387 6.49282 22.6703 10.0359 17.6413C12.4899 14.1738 15.6148 11.1932 19.1165 8.81876C22.5952 6.45812 26.4554 4.67157 30.5775 3.45451C34.4515 2.31093 38.5736 1.6358 42.7784 1.50721C49.6532 1.29135 56.1374 2.93094 61.8725 5.95293C67.6627 9.01625 72.6028 13.5354 76.1183 19.0559C80.0796 25.2835 82.0648 32.6777 82.313 40.5542L82.3084 40.5588Z" stroke="url(#paint2_linear_193_11286)" stroke-miterlimit="10"/>
<path d="M81.3426 39.6523C81.4391 41.6869 81.531 43.6296 81.4161 45.5677C81.1174 50.367 79.679 55.1572 77.2434 59.3228C75.6212 62.0784 73.7968 64.5401 72.0138 66.9788C70.24 69.4083 68.2823 71.5898 65.7962 73.5233C62.9011 75.7784 59.5372 77.5328 55.8792 78.5523C53.4023 79.2504 50.8564 79.627 48.3013 79.7281C46.67 79.7878 45.034 79.7189 43.3521 79.6041C41.1095 79.4525 38.8715 79.1861 36.6703 78.8279C35.402 78.6212 34.1474 78.387 32.9204 78.1023C27.0704 76.7382 21.4824 74.3362 17.227 70.1339C15.9035 68.825 14.6673 67.4334 13.4587 65.9868C12.0204 64.2645 10.6279 62.5101 9.38716 60.696C8.15558 58.8957 7.08025 57.0172 6.13819 55.0332C5.34318 53.3615 4.70441 51.6163 4.26325 49.7976C3.6015 47.0833 3.38552 44.2128 3.55555 41.2735C3.68882 38.9772 4.0105 36.7268 4.42409 34.5039C5.57295 28.3268 7.28245 22.664 10.7198 17.6717C13.0957 14.2456 16.2068 11.3338 19.6718 9.05127C23.1137 6.78708 26.9234 5.11075 30.9857 3.95339C34.7999 2.86952 38.8623 2.19899 42.9706 2.0015C49.6156 1.68001 55.9022 3.1956 61.5086 6.07521C67.1518 8.99157 71.9908 13.3638 75.3869 18.7372C79.2195 24.8088 80.9749 32.0101 81.3426 39.6431V39.6523Z" stroke="url(#paint3_linear_193_11286)" stroke-miterlimit="10"/>
<path d="M80.3807 38.7524C80.514 40.7548 80.684 42.6424 80.6334 44.5438C80.491 49.2467 79.1353 54.0415 76.6906 58.1565C75.0592 60.8937 73.2532 63.3003 71.5988 65.7666C69.9674 68.1961 68.1844 70.396 65.7764 72.3617C62.9686 74.6534 59.6461 76.417 56.0019 77.3677C53.5433 78.0198 51.025 78.3276 48.5205 78.3459C46.9213 78.3551 45.3267 78.2219 43.6769 78.075C41.4987 77.8775 39.3112 77.5881 37.1514 77.2437C35.906 77.0462 34.679 76.8349 33.475 76.5732C27.7583 75.3285 22.1932 73.17 18.0895 68.9539C16.8212 67.6542 15.6401 66.2718 14.4591 64.848C13.0529 63.1533 11.6605 61.4632 10.4105 59.7272C9.16976 58.0049 8.08523 56.223 7.111 54.3262C6.28842 52.7188 5.62667 51.0332 5.18551 49.2651C4.51917 46.6197 4.34454 43.7998 4.56972 40.9248C4.74435 38.6835 5.10739 36.4882 5.52098 34.3021C6.67903 28.2306 8.08064 22.6734 11.4169 17.7179C13.7146 14.3285 16.812 11.4857 20.2448 9.29954C23.6546 7.1272 27.4137 5.5611 31.4117 4.47263C35.1708 3.44846 39.1734 2.77793 43.176 2.51615C49.5958 2.09362 55.6756 3.48061 61.158 6.21785C66.6587 8.99183 71.3874 13.2125 74.6686 18.439C78.3725 24.3544 79.9028 31.3674 80.3899 38.7524H80.3807Z" stroke="url(#paint4_linear_193_11286)" stroke-miterlimit="10"/>
<path d="M79.4295 37.8479C79.5949 39.8181 79.8477 41.6506 79.8615 43.5153C79.8752 48.1263 78.5977 52.9165 76.1483 56.9856C74.5032 59.6999 72.7201 62.0559 71.1945 64.5451C69.7055 66.9793 68.0971 69.1929 65.7672 71.1908C63.0467 73.5192 59.7656 75.292 56.1352 76.1738C53.6904 76.7801 51.2043 77.0189 48.7503 76.9546C47.1787 76.9132 45.63 76.7203 44.0124 76.532C41.8985 76.284 39.7616 75.9763 37.6385 75.6457C36.4208 75.4528 35.2122 75.2645 34.0311 75.0256C28.4477 73.8958 22.9056 71.9853 18.9535 67.7554C17.7449 66.4603 16.6144 65.0917 15.461 63.6909C14.0869 62.0284 12.6945 60.398 11.4354 58.7446C10.1854 57.105 9.08708 55.4149 8.08987 53.6054C7.23512 52.0576 6.5504 50.4318 6.10924 48.7142C5.4383 46.1377 5.30044 43.3729 5.58536 40.5576C5.80594 38.3714 6.20115 36.2267 6.61933 34.0819C7.78657 28.1206 8.8711 22.6599 12.1109 17.7457C14.3259 14.3931 17.414 11.6191 20.81 9.5294C24.1831 7.45351 27.8962 5.99763 31.8253 4.96886C35.5246 4.0044 39.4629 3.33846 43.3737 3.00779C49.5637 2.47963 55.4505 3.72884 60.795 6.33748C66.1578 8.95531 70.7763 13.0336 73.9379 18.1177C77.5132 23.8769 78.8183 30.6971 79.4203 37.8387L79.4295 37.8479Z" stroke="url(#paint5_linear_193_11286)" stroke-miterlimit="10"/>
<path d="M78.4674 36.9478C78.6696 38.886 79.005 40.6633 79.0785 42.4958C79.2578 47.0104 78.0492 51.8052 75.5952 55.8238C73.9362 58.5197 72.1762 60.816 70.7792 63.3374C69.4281 65.7715 67.9989 68.0036 65.7472 70.0335C63.1186 72.3988 59.8742 74.1715 56.2576 74.9936C53.8312 75.5448 51.368 75.7193 48.9692 75.5769C47.4298 75.4851 45.9224 75.2325 44.337 75.0028C42.2875 74.7089 40.2011 74.3782 38.1194 74.0613C36.9246 73.8776 35.7435 73.7123 34.5855 73.4964C29.1307 72.4814 23.6162 70.8143 19.8157 66.5752C18.6623 65.2893 17.587 63.9253 16.4611 62.5566C15.1192 60.9217 13.7222 59.3555 12.463 57.7849C11.2039 56.2233 10.0964 54.6251 9.06701 52.9074C8.18009 51.424 7.48158 49.8579 7.03582 48.1907C6.36489 45.6831 6.26379 42.9734 6.60385 40.2178C6.86579 38.0868 7.30236 35.9972 7.72055 33.8937C8.89238 28.038 9.67361 22.683 12.8077 17.8055C14.94 14.4896 18.0189 11.7891 21.3782 9.79131C24.7191 7.80727 28.377 6.46162 32.2464 5.49715C35.886 4.5924 39.7646 3.93105 43.5742 3.53149C49.5345 2.90229 55.2236 4.0229 60.4394 6.48917C65.6645 8.95544 70.1726 12.8914 73.2148 17.8285C76.6613 23.4316 77.7413 30.0634 78.4582 36.957L78.4674 36.9478Z" stroke="url(#paint6_linear_193_11286)" stroke-miterlimit="10"/>
<path d="M77.5113 36.044C77.7457 37.95 78.1684 39.6723 78.3017 41.468C78.6372 45.8862 77.5113 50.6855 75.0527 54.6536C73.38 57.3265 71.6429 59.5678 70.3746 62.1213C69.166 64.5508 67.916 66.8058 65.7378 68.8679C63.1965 71.2699 59.9889 73.0519 56.3907 73.8051C53.978 74.3103 51.5471 74.4113 49.2034 74.1863C47.6961 74.0439 46.2301 73.727 44.6769 73.4606C42.6916 73.1208 40.6559 72.7671 38.6109 72.464C37.4391 72.2895 36.281 72.1425 35.1505 71.9496C29.829 71.0541 24.3375 69.6303 20.6887 65.3729C19.5904 64.0916 18.5702 62.7413 17.4765 61.3956C16.1714 59.7928 14.7698 58.2864 13.5014 56.7938C12.2377 55.3149 11.1118 53.8085 10.0548 52.1781C9.13574 50.7544 8.41885 49.248 7.9685 47.636C7.29297 45.1973 7.23323 42.5427 7.62844 39.8468C7.93633 37.7709 8.40507 35.7363 8.82785 33.6696C10.0089 27.9196 10.4776 22.6702 13.5152 17.8295C15.5694 14.5503 18.6345 11.9187 21.9616 10.0173C25.2703 8.12972 28.8778 6.89429 32.6828 5.99412C36.2672 5.14907 40.0814 4.49691 43.7946 4.02386C49.5251 3.29822 55.012 4.28105 60.1038 6.60495C65.1863 8.92425 69.5888 12.7132 72.5161 17.5034C75.8294 22.9549 76.6979 29.3892 77.5205 36.0394L77.5113 36.044Z" stroke="url(#paint7_linear_193_11286)" stroke-miterlimit="10"/>
<path d="M76.555 35.1413C76.8262 37.0151 77.3271 38.6823 77.5247 40.4413C78.0164 44.763 76.9686 49.567 74.5055 53.4845C72.8235 56.1391 71.1049 58.316 69.9652 60.9017C68.8944 63.3312 67.8237 65.6046 65.7236 67.6943C63.2742 70.133 60.1034 71.9241 56.5189 72.613C54.1247 73.0723 51.7167 73.0999 49.4282 72.7967C47.953 72.5992 46.5284 72.2272 45.0073 71.9241C43.091 71.5383 41.0966 71.1617 39.0976 70.8678C37.9533 70.6979 36.8183 70.5739 35.7062 70.4085C30.5179 69.6278 25.0493 68.4567 21.5522 64.1809C20.5091 62.9087 19.5486 61.5676 18.4779 60.2449C17.2049 58.6696 15.8033 57.2275 14.5258 55.8176C13.2529 54.4168 12.1086 53.0069 11.0287 51.4683C10.0728 50.1089 9.34213 48.6622 8.89178 47.1007C8.21165 44.7309 8.18867 42.1314 8.64362 39.4952C8.99288 37.4698 9.50297 35.4904 9.92575 33.465C11.1114 27.8206 11.2768 22.6768 14.2087 17.8729C16.1847 14.635 19.2361 12.0677 22.5264 10.2628C25.7984 8.46704 29.3599 7.34183 33.096 6.50596C36.6207 5.72061 40.3751 5.07305 43.9872 4.53111C49.4879 3.70902 54.7773 4.55867 59.7403 6.74019C64.6804 8.91253 68.9772 12.5499 71.785 17.2023C74.9696 22.4977 75.6222 28.7437 76.5504 35.1459L76.555 35.1413Z" stroke="url(#paint8_linear_193_11286)" stroke-miterlimit="10"/>
<path d="M75.5929 34.2366C75.9008 36.0783 76.4798 37.6903 76.7464 39.4126C77.3943 43.6425 76.4339 48.451 73.9569 52.3134C72.2658 54.9496 70.5609 57.0669 69.5545 59.6847C68.6216 62.1096 67.7301 64.406 65.7081 66.5278C63.346 69.0033 60.2166 70.799 56.6459 71.4236C54.2655 71.8369 51.8896 71.791 49.6516 71.4098C48.2041 71.1618 46.8254 70.7301 45.3365 70.3857C43.4846 69.9539 41.5407 69.5544 39.5784 69.2742C38.4571 69.1135 37.345 69.0078 36.2605 68.8655C31.2055 68.1995 25.7599 67.2764 22.4191 62.9868C21.431 61.7193 20.5257 60.3874 19.4826 59.0922C18.2418 57.5491 16.8402 56.1667 15.5535 54.8394C14.2713 53.5213 13.1133 52.2032 12.0104 50.7519C11.0224 49.4522 10.2687 48.0652 9.81836 46.5542C9.12904 44.2533 9.15202 41.7089 9.66211 39.1324C10.0527 37.1622 10.5996 35.2379 11.027 33.2538C12.2218 27.715 12.0793 22.6769 14.9055 17.9097C16.8034 14.7086 19.841 12.2147 23.0946 10.5017C26.3344 8.80237 29.8453 7.78739 33.517 7.01122C36.9866 6.28558 40.6721 5.6472 44.1923 5.03178C49.4586 4.11324 54.555 4.82511 59.3848 6.86885C64.1824 8.89422 68.3735 12.3847 71.0618 16.8901C74.1178 22.0293 74.5589 28.087 75.5929 34.2412V34.2366Z" stroke="url(#paint9_linear_193_11286)" stroke-miterlimit="10"/>
<path d="M74.6387 33.3376C74.9833 35.1471 75.6405 36.704 75.9713 38.3896C76.7755 42.523 75.8978 47.3361 73.4117 51.148C71.7068 53.7659 70.0202 55.8142 69.1471 58.4734C68.3521 60.8937 67.6444 63.2084 65.6959 65.367C63.4258 67.8792 60.3331 69.6841 56.7762 70.2398C54.4141 70.6072 52.0659 70.4878 49.8784 70.024C48.463 69.7254 47.1258 69.234 45.669 68.8482C43.8814 68.3706 41.9881 67.9481 40.0672 67.6817C38.9735 67.5301 37.8843 67.4475 36.8228 67.328C31.9011 66.7769 26.4739 66.1064 23.2892 61.7985C22.3609 60.5401 21.5062 59.2174 20.4906 57.9452C19.282 56.4296 17.8804 55.1115 16.5845 53.8623C15.2932 52.6223 14.1213 51.396 12.9908 50.0366C11.9661 48.8012 11.1986 47.4739 10.7483 46.0134C10.0544 43.7814 10.1141 41.2921 10.6839 38.7753C11.1159 36.8602 11.7041 34.991 12.1315 33.0437C13.3355 27.6105 12.8851 22.678 15.6102 17.9475C17.43 14.7878 20.4538 12.3582 23.6752 10.7416C26.8783 9.13417 30.3386 8.22941 33.9506 7.52214C37.3605 6.8562 40.9863 6.227 44.4053 5.54269C49.4419 4.5323 54.336 5.10638 59.0417 7.00775C63.6923 8.88616 67.7823 12.225 70.3511 16.5881C73.2784 21.5712 73.5128 27.4406 74.6433 33.3468L74.6387 33.3376Z" stroke="url(#paint10_linear_193_11286)" stroke-miterlimit="10"/>
<path d="M73.6805 32.4343C74.0665 34.2116 74.8018 35.7135 75.1924 37.3622C76.1528 41.3992 75.3532 46.2169 72.8671 49.9783C71.1484 52.5732 69.4803 54.5618 68.7404 57.2531C68.0786 59.6643 67.5548 62.0066 65.6844 64.1973C63.5016 66.7462 60.4502 68.5603 56.9071 69.0471C54.5589 69.3686 52.2382 69.1757 50.1059 68.6338C48.7227 68.2802 47.4267 67.7382 46.0022 67.3065C44.2789 66.7875 42.4361 66.3375 40.552 66.0849C39.4812 65.9379 38.4197 65.8782 37.3765 65.7817C32.5881 65.3408 27.1792 64.9275 24.1508 60.5966C23.2777 59.3474 22.4781 58.0339 21.4901 56.7847C20.3136 55.3013 18.912 54.0429 17.6069 52.8763C16.3064 51.719 15.1162 50.5846 13.9627 49.3124C12.9058 48.1413 12.12 46.8691 11.665 45.4637C10.9665 43.3006 11.063 40.8664 11.6926 38.4094C12.1659 36.5493 12.7955 34.7306 13.2229 32.8247C14.4315 27.4971 13.6778 22.6702 16.2972 17.9765C18.0389 14.8535 21.0489 12.4929 24.2335 10.9727C27.4044 9.46168 30.8142 8.66715 34.3573 8.01958C37.712 7.41335 41.2688 6.79334 44.5959 6.03554C49.4028 4.93789 54.0993 5.36501 58.6764 7.12401C63.1845 8.85545 67.1687 12.0474 69.6181 16.2634C72.4167 21.0904 72.4443 26.7715 73.6713 32.4297L73.6805 32.4343Z" stroke="url(#paint11_linear_193_11286)" stroke-miterlimit="10"/>
<path d="M72.7137 31.5323C73.1364 33.2775 73.9498 34.7242 74.4048 36.3362C75.5215 40.2767 74.8046 45.0944 72.3093 48.8099C70.5814 51.3864 68.9224 53.3107 68.3204 56.0388C67.7919 58.4454 67.4519 60.8106 65.6551 63.0289C63.5641 65.6099 60.5495 67.4378 57.0202 67.8558C54.6903 68.1313 52.3972 67.865 50.3155 67.2449C48.9644 66.8408 47.7099 66.2391 46.3175 65.7707C44.6631 65.2104 42.8663 64.7327 41.0235 64.4939C39.9757 64.3561 38.9372 64.3148 37.9216 64.2459C33.2664 63.9198 27.876 63.7591 25.0038 59.4098C24.1858 58.1698 23.4414 56.8655 22.4855 55.6438C21.3458 54.1879 19.9396 52.9939 18.6253 51.91C17.3202 50.8307 16.107 49.7973 14.9306 48.6078C13.8369 47.4964 13.0373 46.2885 12.5823 44.9291C11.8792 42.8348 12.0171 40.4558 12.7018 38.0584C13.2211 36.2535 13.8828 34.4899 14.3194 32.6253C15.5372 27.4034 14.4756 22.6822 16.9894 18.0252C18.6575 14.9435 21.6491 12.6471 24.797 11.2234C27.9357 9.80427 31.295 9.11996 34.7737 8.53669C38.0686 7.99016 41.5658 7.38393 44.7918 6.54806C49.3642 5.36315 53.8632 5.64789 58.3116 7.26452C62.6772 8.85359 66.5558 11.8939 68.8903 15.9631C71.5556 20.6384 71.3902 26.1221 72.7045 31.5368L72.7137 31.5323Z" stroke="url(#paint12_linear_193_11286)" stroke-miterlimit="10"/>
<path d="M71.7503 30.6335C72.2144 32.3465 73.1014 33.7381 73.6206 35.3134C74.8936 39.1575 74.2548 43.9798 71.7549 47.6494C70.0132 50.2029 68.3635 52.0629 67.9039 54.8323C67.5041 57.2297 67.3525 59.6225 65.6338 61.8729C63.6301 64.4907 60.6523 66.3278 57.1414 66.6768C54.8253 66.9065 52.5643 66.5666 50.5331 65.8639C49.2097 65.4047 48.0011 64.7525 46.6454 64.2381C45.0554 63.6365 43.3091 63.1313 41.5031 62.9062C40.4829 62.7776 39.4673 62.7547 38.4701 62.7088C33.9528 62.4975 28.5761 62.5893 25.8602 58.2217C25.0928 56.9909 24.4081 55.6911 23.4798 54.497C22.3723 53.0733 20.9615 51.9389 19.6472 50.9377C18.3329 49.9411 17.0967 48.9996 15.9065 47.8974C14.7714 46.8502 13.9626 45.6975 13.5031 44.3931C12.7954 42.3678 12.97 40.0439 13.7145 37.7062C14.2751 35.9564 14.9782 34.2479 15.4148 32.42C16.6372 27.3038 15.2723 22.6881 17.6849 18.0679C19.275 15.0229 22.2528 12.8001 25.3685 11.4682C28.4704 10.1455 31.7791 9.57142 35.1982 9.05244C38.4379 8.56562 41.8661 7.97316 45.0002 7.05922C49.3429 5.79164 53.6443 5.92942 57.964 7.40367C62.1872 8.84577 65.96 11.7346 68.175 15.6613C70.7117 20.1805 70.3487 25.4759 71.7503 30.6426V30.6335Z" stroke="url(#paint13_linear_193_11286)" stroke-miterlimit="10"/>
<path d="M70.7995 29.7283C71.3096 31.4092 72.2655 32.7456 72.8537 34.2842C74.2829 38.0364 73.7222 42.8587 71.2177 46.4778C69.4622 49.0129 67.8263 50.8087 67.5046 53.6148C67.2334 56.003 67.2748 58.4233 65.6296 60.7059C63.7133 63.3605 60.7769 65.2067 57.2797 65.4869C54.982 65.6706 52.744 65.2572 50.768 64.4765C49.4767 63.9667 48.3094 63.2594 46.9859 62.6991C45.4603 62.0561 43.7645 61.5234 41.9999 61.3075C41.0027 61.1881 40.0101 61.1835 39.0404 61.1652C34.6564 61.0641 29.2935 61.4178 26.7384 57.0272C26.0261 55.8055 25.4012 54.515 24.4959 53.3438C23.4205 51.9476 22.0097 50.8776 20.6862 49.9544C19.3627 49.0405 18.1082 48.1908 16.895 47.1759C15.7232 46.193 14.896 45.1 14.441 43.8462C13.7287 41.8897 13.9401 39.6209 14.7443 37.3429C15.3463 35.6482 16.0862 33.9903 16.5274 32.2037C17.7589 27.1977 16.0862 22.6877 18.3931 18.0996C19.905 15.096 22.8691 12.9374 25.948 11.702C29.0178 10.4757 32.2759 10.0073 35.626 9.5526C38.8061 9.12548 42.1745 8.55139 45.2075 7.55478C49.3204 6.20453 53.4196 6.19535 57.6152 7.52722C61.6959 8.82236 65.3631 11.5642 67.4586 15.344C69.8666 19.707 69.3106 24.8141 70.7995 29.7328V29.7283Z" stroke="url(#paint14_linear_193_11286)" stroke-miterlimit="10"/>
<path d="M69.8362 28.828C70.3876 30.4768 71.417 31.7581 72.0695 33.2599C73.6504 36.9157 73.177 41.7426 70.6679 45.3111C68.8987 47.8233 67.2673 49.5548 67.0927 52.3976C66.9456 54.7812 67.18 57.2246 65.6129 59.5393C63.7886 62.2306 60.8888 64.086 57.4055 64.2973C55.1261 64.4351 52.9157 63.9482 50.9903 63.0894C49.7311 62.5245 48.6052 61.7667 47.3139 61.1605C45.8525 60.4762 44.2028 59.9113 42.4841 59.7138C41.5145 59.599 40.5448 59.6173 39.5982 59.6219C35.3474 59.6311 29.9983 60.2465 27.6087 55.833C26.9515 54.6205 26.3817 53.3391 25.5039 52.191C24.4608 50.8224 23.05 49.8166 21.7173 48.9761C20.3846 48.1402 19.1117 47.3916 17.8755 46.4593C16.6669 45.5454 15.8259 44.5028 15.3664 43.3041C14.6449 41.4165 14.8977 39.2029 15.7662 36.9846C16.405 35.345 17.1908 33.7422 17.632 31.9969C18.8727 27.0966 16.8921 22.6922 19.0933 18.1408C20.5271 15.174 23.4774 13.0843 26.5195 11.9453C29.5525 10.8109 32.7647 10.4573 36.0505 10.0623C39.1754 9.69488 42.4795 9.13917 45.4114 8.05989C49.2945 6.63156 53.1961 6.47082 57.263 7.66032C61.2013 8.80849 64.7628 11.4034 66.7388 15.0362C69.0182 19.2431 68.2737 24.1572 69.8407 28.8326L69.8362 28.828Z" stroke="url(#paint15_linear_193_11286)" stroke-miterlimit="10"/>
<path d="M68.8802 27.9233C69.4776 29.5353 70.5759 30.7662 71.2928 32.2358C73.0299 35.7951 72.63 40.6175 70.1209 44.1446C68.3333 46.6339 66.7111 48.3056 66.6835 51.1852C66.6606 53.5596 67.0879 56.0305 65.599 58.3774C63.8619 61.1054 61.0036 62.97 57.5386 63.1124C55.2731 63.2089 53.0948 62.644 51.2199 61.7025C49.9929 61.087 48.9084 60.2741 47.6492 59.6266C46.2522 58.9055 44.653 58.3085 42.9711 58.1248C42.0244 58.0191 41.0778 58.0605 40.1541 58.0834C36.0366 58.2028 30.6967 59.08 28.4725 54.6389C27.8659 53.4356 27.3558 52.1589 26.5102 51.0383C25.4992 49.7018 24.0884 48.7557 22.7465 47.9979C21.4093 47.2447 20.1088 46.5925 18.8588 45.7429C17.6088 44.8932 16.7587 43.9104 16.2991 42.7577C15.5731 40.9389 15.8626 38.7804 16.7909 36.6218C17.471 35.0374 18.2982 33.4896 18.7393 31.7811C19.9847 26.9864 17.7053 22.6876 19.8009 18.173C21.1565 15.2475 24.093 13.2267 27.0984 12.1796C30.0992 11.1416 33.2563 10.8936 36.4823 10.5629C39.5475 10.2552 42.7919 9.72248 45.6272 8.55594C49.2806 7.05414 52.9799 6.73724 56.9182 7.77978C60.7095 8.78558 64.1652 11.2243 66.0264 14.7147C68.1771 18.7655 67.2488 23.4868 68.8894 27.9141L68.8802 27.9233Z" stroke="url(#paint16_linear_193_11286)" stroke-miterlimit="10"/>
<path d="M67.92 27.022C68.5633 28.6018 69.7306 29.7776 70.5118 31.2105C72.4005 34.678 72.0835 39.5003 69.5697 42.9769C67.7729 45.4478 66.1461 47.0506 66.2702 49.9716C66.3713 52.3414 66.9963 54.8352 65.5809 57.2097C63.9357 59.9745 61.1141 61.8483 57.663 61.9218C55.4158 61.9723 53.2605 61.3339 51.4407 60.3143C50.2413 59.6438 49.1982 58.7804 47.9758 58.0869C46.6385 57.3291 45.0944 56.6999 43.4539 56.5299C42.5302 56.4335 41.6111 56.4932 40.7104 56.5437C36.7261 56.7734 31.4 57.9123 29.3367 53.4483C28.7852 52.2542 28.3303 50.9866 27.5123 49.8889C26.538 48.58 25.1227 47.6982 23.7716 47.0185C22.4251 46.3434 21.1016 45.7922 19.8333 45.0253C18.542 44.2445 17.678 43.3168 17.2185 42.2145C16.4878 40.4647 16.8095 38.3613 17.8021 36.2624C18.5236 34.7331 19.3875 33.2359 19.8333 31.5687C21.0879 26.8796 18.5006 22.6911 20.4904 18.2086C21.7726 15.3198 24.6907 13.3679 27.6639 12.4172C30.628 11.4711 33.7391 11.3379 36.8962 11.0716C39.9016 10.8236 43.0862 10.3138 45.8205 9.06456C49.2487 7.49386 52.7412 7.01622 56.5555 7.91639C60.2042 8.77981 63.5543 11.067 65.3006 14.4104C67.318 18.3096 66.2151 22.8288 67.9246 27.0174L67.92 27.022Z" stroke="url(#paint17_linear_193_11286)" stroke-miterlimit="10"/>
<path d="M66.9673 26.118C67.6612 27.6612 68.8928 28.7864 69.7383 30.1825C71.7833 33.5536 71.5443 38.3805 69.026 41.8066C67.2154 44.2545 65.5886 45.8022 65.8644 48.7507C66.085 51.116 66.9075 53.6328 65.5703 56.0393C64.0124 58.8409 61.2322 60.7239 57.7948 60.7285C55.5614 60.7285 53.4383 60.0166 51.6691 58.9235C50.5018 58.2025 49.4954 57.2885 48.3098 56.5445C47.0369 55.75 45.5433 55.0887 43.9395 54.9325C43.0434 54.8406 42.1473 54.9233 41.2696 54.9968C37.4186 55.3367 32.0971 56.7374 30.2038 52.2504C29.7029 51.0655 29.3076 49.8071 28.5172 48.737C27.5752 47.4602 26.1598 46.6381 24.7995 46.0411C23.4439 45.4486 22.0974 44.9985 20.8107 44.3096C19.478 43.5978 18.6049 42.7206 18.1453 41.6734C17.4101 39.9925 17.7685 37.9442 18.8209 35.905C19.5837 34.4262 20.489 32.9887 20.9348 31.3629C22.1939 26.7794 19.308 22.6965 21.1875 18.2507C22.3915 15.4033 25.2958 13.5157 28.2323 12.6615C31.1642 11.8118 34.2248 11.7843 37.3175 11.5822C40.2678 11.3939 43.3927 10.9162 46.0259 9.57058C49.2289 7.93558 52.5192 7.2972 56.2048 8.0504C59.7111 8.76686 62.9555 10.9025 64.5822 14.1036C66.471 17.8466 65.1934 22.1683 66.9673 26.118Z" stroke="url(#paint18_linear_193_11286)" stroke-miterlimit="10"/>
<path d="M66.0018 25.2175C66.7463 26.7239 68.0422 27.8032 68.9567 29.1581C71.1487 32.4372 71.0016 37.2641 68.4742 40.6398C66.6498 43.0693 65.023 44.5527 65.4504 47.538C65.7904 49.8986 66.8106 52.4384 65.5515 54.8771C64.0855 57.7154 61.3374 59.6121 57.9184 59.5432C55.7034 59.5065 53.6079 58.712 51.8892 57.5408C50.7541 56.7647 49.7891 55.8048 48.6356 55.0103C47.4224 54.179 45.9841 53.4855 44.4216 53.3385C43.5485 53.2559 42.6754 53.3523 41.8206 53.4579C38.1029 53.908 32.786 55.5706 31.0627 51.0606C30.6123 49.8848 30.2815 48.6356 29.514 47.5885C28.6041 46.3393 27.1887 45.5815 25.8193 45.0671C24.4544 44.5527 23.085 44.2083 21.7799 43.5974C20.4058 42.9591 19.5235 42.1324 19.0594 41.1312C18.3149 39.5191 18.7147 37.5213 19.8268 35.5419C20.6264 34.1182 21.5731 32.7312 22.0234 31.1467C23.2918 26.6688 20.098 22.6916 21.8718 18.2826C23.0023 15.4765 25.8882 13.6578 28.7879 12.8954C31.6877 12.1376 34.6977 12.2248 37.7261 12.0825C40.6166 11.9539 43.6864 11.5038 46.2138 10.0663C49.1963 8.36698 52.2752 7.56326 55.8321 8.17409C59.1914 8.74817 62.3347 10.7322 63.842 13.7863C65.602 17.3732 64.1544 21.4929 65.988 25.2083L66.0018 25.2175Z" stroke="url(#paint19_linear_193_11286)" stroke-miterlimit="10"/>
<path d="M65.0444 24.3138C65.8394 25.7834 67.1996 26.8122 68.1784 28.1303C70.5267 31.3176 70.4578 36.1445 67.9303 39.4696C66.0921 41.8762 64.4607 43.3045 65.0444 46.3219C65.5039 48.6826 66.7217 51.2361 65.5407 53.7115C64.162 56.5866 61.4553 58.4925 58.0501 58.3547C55.8489 58.2721 53.7855 57.3995 52.122 56.1503C51.0191 55.319 50.0908 54.3132 48.9741 53.4727C47.8206 52.6047 46.4374 51.8791 44.9117 51.7459C44.0662 51.6724 43.216 51.7872 42.3842 51.9158C38.7998 52.4715 33.4875 54.4004 31.9342 49.8629C31.5344 48.6963 31.2633 47.4517 30.528 46.4321C29.6503 45.2151 28.2303 44.517 26.8608 44.0807C25.4868 43.649 24.099 43.4056 22.7755 42.8728C21.3647 42.3079 20.464 41.5272 20.0044 40.5811C19.2554 39.0379 19.6874 37.0952 20.8638 35.1755C21.7048 33.8069 22.6928 32.475 23.1431 30.9272C24.4207 26.555 20.9327 22.688 22.5917 18.3111C23.6532 15.5464 26.5162 13.7919 29.3837 13.126C32.2467 12.4647 35.2062 12.6576 38.1702 12.5841C41.0056 12.5152 44.0202 12.1018 46.442 10.5633C49.2085 8.8043 52.0714 7.83524 55.5042 8.2991C58.721 8.73081 61.7586 10.5633 63.1464 13.4705C64.7778 16.9012 63.1602 20.8142 65.0581 24.3L65.0444 24.3138Z" stroke="url(#paint20_linear_193_11286)" stroke-miterlimit="10"/>
<path d="M64.0858 23.4125C64.9406 24.8409 66.356 25.8237 67.3991 27.1051C69.9036 30.1959 69.9174 35.0274 67.3807 38.302C65.5288 40.6902 63.8928 42.0588 64.6327 45.1038C65.2071 47.4644 66.6317 50.0363 65.5196 52.5439C64.2329 55.4511 61.5629 57.3708 58.1715 57.1642C55.9887 57.0356 53.9529 56.0895 52.3399 54.7622C51.2691 53.8804 50.373 52.8241 49.2977 51.9331C48.204 51.0284 46.8713 50.2706 45.3916 50.1512C44.569 50.0869 43.7418 50.22 42.933 50.3762C39.4818 51.0375 34.1649 53.2374 32.7955 48.6723C32.4462 47.515 32.2348 46.2795 31.5271 45.2829C30.6816 44.0934 29.2616 43.4596 27.8829 43.106C26.5043 42.7523 25.0889 42.6146 23.747 42.1599C22.2949 41.6685 21.385 40.9382 20.9208 40.0427C20.1626 38.573 20.6313 36.6762 21.8721 34.8208C22.7498 33.5027 23.7792 32.2305 24.2342 30.7241C25.5163 26.4575 21.7251 22.7007 23.2783 18.356C24.2617 15.628 27.1109 13.9424 29.9417 13.3729C32.7725 12.8035 35.6814 13.1112 38.5811 13.0974C41.3568 13.0882 44.33 12.7116 46.6323 11.072C49.1874 9.25331 51.8298 8.12351 55.1385 8.43122C58.2128 8.72974 61.1447 10.3969 62.4131 13.1617C63.9158 16.4363 62.1374 20.138 64.0858 23.3988V23.4125Z" stroke="url(#paint21_linear_193_11286)" stroke-miterlimit="10"/>
<path d="M21.8504 39.5057C22.3099 40.3507 23.2382 41.0351 24.7271 41.4484C26.092 41.8296 27.5258 41.8617 28.9136 42.1327C30.3014 42.4037 31.726 42.9778 32.5348 44.1351C33.2149 45.1042 33.3666 46.335 33.6653 47.4832C34.8601 52.0713 40.1724 49.605 43.4949 48.838C44.2807 48.6589 45.0803 48.5028 45.88 48.5625C47.3229 48.6681 48.5959 49.458 49.6344 50.3995C50.6684 51.341 51.5323 52.4433 52.5709 53.3802C54.1334 54.7855 56.1416 55.8051 58.306 55.9796C61.6837 56.2506 64.3123 54.3263 65.5117 51.3824C66.5456 48.8472 64.9189 46.2569 64.2295 43.8963C63.3288 40.8238 64.974 39.5057 66.8398 37.1405C69.381 33.9118 69.2891 29.0803 66.6284 26.0859C65.5209 24.8413 64.0457 23.8998 63.1358 22.5174C61.1322 19.4724 63.0715 15.9912 61.7021 12.8727C60.5486 10.2503 57.7224 8.73472 54.7905 8.57857C51.6105 8.41323 49.1933 9.71755 46.8404 11.5914C44.653 13.3366 41.7257 13.6673 39.0052 13.6213C36.1698 13.5708 33.3114 13.1529 30.5128 13.6305C27.7188 14.1036 24.8834 15.7202 23.9781 18.4115C22.5305 22.7194 26.6297 26.3706 25.3383 30.5316C24.8834 31.9967 23.8126 33.2183 22.8936 34.4813C21.593 36.2724 21.0875 38.1187 21.8504 39.5195V39.5057Z" stroke="url(#paint22_linear_193_11286)" stroke-miterlimit="10"/>
</g>
<defs>
<linearGradient id="paint0_linear_193_11286" x1="1.27807" y1="0.499985" x2="97.8655" y2="20.9049" gradientUnits="userSpaceOnUse">
<stop stop-color="#8258C8"/>
<stop offset="0.315" stop-color="#6766C8"/>
<stop offset="1" stop-color="#2C84C8"/>
</linearGradient>
<linearGradient id="paint1_linear_193_11286" x1="2.26765" y1="0.996079" x2="96.5854" y2="20.9376" gradientUnits="userSpaceOnUse">
<stop stop-color="#8258C8"/>
<stop offset="0.315" stop-color="#6766C8"/>
<stop offset="1" stop-color="#2C84C8"/>
</linearGradient>
<linearGradient id="paint2_linear_193_11286" x1="3.26533" y1="1.48827" x2="95.3502" y2="20.9702" gradientUnits="userSpaceOnUse">
<stop stop-color="#8258C8"/>
<stop offset="0.315" stop-color="#6766C8"/>
<stop offset="1" stop-color="#2C84C8"/>
</linearGradient>
<linearGradient id="paint3_linear_193_11286" x1="4.22463" y1="1.95897" x2="94.16" y2="21.0033" gradientUnits="userSpaceOnUse">
<stop stop-color="#8258C8"/>
<stop offset="0.315" stop-color="#6766C8"/>
<stop offset="1" stop-color="#2C84C8"/>
</linearGradient>
<linearGradient id="paint4_linear_193_11286" x1="5.18443" y1="2.44139" x2="93.0308" y2="21.0646" gradientUnits="userSpaceOnUse">
<stop stop-color="#8258C8"/>
<stop offset="0.315" stop-color="#6766C8"/>
<stop offset="1" stop-color="#2C84C8"/>
</linearGradient>
<linearGradient id="paint5_linear_193_11286" x1="6.13692" y1="2.88866" x2="91.9567" y2="21.1032" gradientUnits="userSpaceOnUse">
<stop stop-color="#8258C8"/>
<stop offset="0.315" stop-color="#6766C8"/>
<stop offset="1" stop-color="#2C84C8"/>
</linearGradient>
<linearGradient id="paint6_linear_193_11286" x1="7.08955" y1="3.35936" x2="90.9008" y2="21.1684" gradientUnits="userSpaceOnUse">
<stop stop-color="#8258C8"/>
<stop offset="0.315" stop-color="#6766C8"/>
<stop offset="1" stop-color="#2C84C8"/>
</linearGradient>
<linearGradient id="paint7_linear_193_11286" x1="8.04245" y1="3.78905" x2="89.8816" y2="21.1936" gradientUnits="userSpaceOnUse">
<stop stop-color="#8258C8"/>
<stop offset="0.315" stop-color="#6766C8"/>
<stop offset="1" stop-color="#2C84C8"/>
</linearGradient>
<linearGradient id="paint8_linear_193_11286" x1="8.98006" y1="4.22264" x2="88.886" y2="21.2354" gradientUnits="userSpaceOnUse">
<stop stop-color="#8258C8"/>
<stop offset="0.315" stop-color="#6766C8"/>
<stop offset="1" stop-color="#2C84C8"/>
</linearGradient>
<linearGradient id="paint9_linear_193_11286" x1="9.91782" y1="4.63671" x2="87.9122" y2="21.256" gradientUnits="userSpaceOnUse">
<stop stop-color="#8258C8"/>
<stop offset="0.315" stop-color="#6766C8"/>
<stop offset="1" stop-color="#2C84C8"/>
</linearGradient>
<linearGradient id="paint10_linear_193_11286" x1="10.8557" y1="5.05077" x2="86.9597" y2="21.2801" gradientUnits="userSpaceOnUse">
<stop stop-color="#8258C8"/>
<stop offset="0.315" stop-color="#6766C8"/>
<stop offset="1" stop-color="#2C84C8"/>
</linearGradient>
<linearGradient id="paint11_linear_193_11286" x1="11.7783" y1="5.43358" x2="86.0208" y2="21.2757" gradientUnits="userSpaceOnUse">
<stop stop-color="#8258C8"/>
<stop offset="0.315" stop-color="#6766C8"/>
<stop offset="1" stop-color="#2C84C8"/>
</linearGradient>
<linearGradient id="paint12_linear_193_11286" x1="12.7008" y1="5.82225" x2="85.0862" y2="21.277" gradientUnits="userSpaceOnUse">
<stop stop-color="#8258C8"/>
<stop offset="0.315" stop-color="#6766C8"/>
<stop offset="1" stop-color="#2C84C8"/>
</linearGradient>
<linearGradient id="paint13_linear_193_11286" x1="13.6235" y1="6.1953" x2="84.1685" y2="21.2596" gradientUnits="userSpaceOnUse">
<stop stop-color="#8258C8"/>
<stop offset="0.315" stop-color="#6766C8"/>
<stop offset="1" stop-color="#2C84C8"/>
</linearGradient>
<linearGradient id="paint14_linear_193_11286" x1="14.5619" y1="6.53515" x2="83.2803" y2="21.2067" gradientUnits="userSpaceOnUse">
<stop stop-color="#8258C8"/>
<stop offset="0.315" stop-color="#6766C8"/>
<stop offset="1" stop-color="#2C84C8"/>
</linearGradient>
<linearGradient id="paint15_linear_193_11286" x1="15.4847" y1="6.86718" x2="82.384" y2="21.1449" gradientUnits="userSpaceOnUse">
<stop stop-color="#8258C8"/>
<stop offset="0.315" stop-color="#6766C8"/>
<stop offset="1" stop-color="#2C84C8"/>
</linearGradient>
<linearGradient id="paint16_linear_193_11286" x1="16.4154" y1="7.16991" x2="81.5056" y2="21.0469" gradientUnits="userSpaceOnUse">
<stop stop-color="#8258C8"/>
<stop offset="0.315" stop-color="#6766C8"/>
<stop offset="1" stop-color="#2C84C8"/>
</linearGradient>
<linearGradient id="paint17_linear_193_11286" x1="17.3306" y1="7.46483" x2="80.6299" y2="20.9475" gradientUnits="userSpaceOnUse">
<stop stop-color="#8258C8"/>
<stop offset="0.315" stop-color="#6766C8"/>
<stop offset="1" stop-color="#2C84C8"/>
</linearGradient>
<linearGradient id="paint18_linear_193_11286" x1="18.2537" y1="7.73632" x2="79.772" y2="20.8222" gradientUnits="userSpaceOnUse">
<stop stop-color="#8258C8"/>
<stop offset="0.315" stop-color="#6766C8"/>
<stop offset="1" stop-color="#2C84C8"/>
</linearGradient>
<linearGradient id="paint19_linear_193_11286" x1="19.1612" y1="7.97069" x2="78.9143" y2="20.6533" gradientUnits="userSpaceOnUse">
<stop stop-color="#8258C8"/>
<stop offset="0.315" stop-color="#6766C8"/>
<stop offset="1" stop-color="#2C84C8"/>
</linearGradient>
<linearGradient id="paint20_linear_193_11286" x1="20.0998" y1="8.18358" x2="78.0679" y2="20.4486" gradientUnits="userSpaceOnUse">
<stop stop-color="#8258C8"/>
<stop offset="0.315" stop-color="#6766C8"/>
<stop offset="1" stop-color="#2C84C8"/>
</linearGradient>
<linearGradient id="paint21_linear_193_11286" x1="21.0075" y1="8.38085" x2="77.2293" y2="20.2412" gradientUnits="userSpaceOnUse">
<stop stop-color="#8258C8"/>
<stop offset="0.315" stop-color="#6766C8"/>
<stop offset="1" stop-color="#2C84C8"/>
</linearGradient>
<linearGradient id="paint22_linear_193_11286" x1="21.9308" y1="8.56444" x2="76.4027" y2="20.013" gradientUnits="userSpaceOnUse">
<stop stop-color="#8258C8"/>
<stop offset="0.315" stop-color="#6766C8"/>
<stop offset="1" stop-color="#2C84C8"/>
</linearGradient>
</defs>
</svg>
