<svg width="79" height="70" viewBox="0 0 79 70" fill="none" xmlns="http://www.w3.org/2000/svg">
<g clip-path="url(#clip0_102_269)">
<g opacity="0.9">
<path d="M78.7625 45.3982C79.4837 35.387 62.4885 25.999 40.8025 24.4295C19.1166 22.8601 0.951981 29.7035 0.230735 39.7148C-0.49051 49.7261 16.5047 59.1141 38.1907 60.6835C59.8766 62.253 78.0412 55.4095 78.7625 45.3982Z" stroke="url(#paint0_linear_102_269)" stroke-width="0.8" stroke-miterlimit="10"/>
<path d="M77.3193 43.3088C77.6023 33.5209 60.6408 25.0869 39.4346 24.4709C18.2285 23.855 0.808156 31.2903 0.525141 41.0782C0.242125 50.8661 17.2036 59.3001 38.4098 59.9161C59.6159 60.532 77.0362 53.0967 77.3193 43.3088Z" stroke="url(#paint1_linear_102_269)" stroke-width="0.8" stroke-miterlimit="10"/>
<path d="M38.6435 59.1576C59.3663 58.8205 76.0398 50.7925 75.8849 41.2266C75.73 31.6607 58.8052 24.1793 38.0825 24.5165C17.3597 24.8536 0.686143 32.8816 0.841074 42.4475C0.996004 52.0134 17.9207 59.4948 38.6435 59.1576Z" stroke="url(#paint2_linear_102_269)" stroke-width="0.8" stroke-miterlimit="10"/>
<path d="M38.8669 58.3927C59.1086 57.1021 75.0369 48.4812 74.4439 39.1374C73.8508 29.7935 56.9609 23.2651 36.7192 24.5557C16.4775 25.8463 0.549134 34.4673 1.1422 43.8111C1.73526 53.1549 18.6252 59.6833 38.8669 58.3927Z" stroke="url(#paint3_linear_102_269)" stroke-width="0.8" stroke-miterlimit="10"/>
<path d="M39.0875 57.6312C58.8505 55.3884 74.0363 46.1766 73.006 37.0562C71.9756 27.9357 55.1193 22.3603 35.3563 24.6031C15.5933 26.8459 0.407532 36.0577 1.43788 45.1781C2.46824 54.2986 19.3246 59.874 39.0875 57.6312Z" stroke="url(#paint4_linear_102_269)" stroke-width="0.8" stroke-miterlimit="10"/>
<path d="M39.3028 56.8757C58.5834 53.68 73.0231 43.8744 71.5546 34.9742C70.0861 26.074 53.2656 21.4497 33.985 24.6453C14.7043 27.841 0.264655 37.6467 1.73313 46.5468C3.20161 55.447 20.0221 60.0714 39.3028 56.8757Z" stroke="url(#paint5_linear_102_269)" stroke-width="0.8" stroke-miterlimit="10"/>
<path d="M39.529 56.1111C58.3297 51.9613 72.0252 41.5639 70.1188 32.8881C68.2124 24.2122 51.4261 20.5431 32.6255 24.693C13.8249 28.8429 0.129391 39.2402 2.03575 47.9161C3.9421 56.592 20.7284 60.261 39.529 56.1111Z" stroke="url(#paint6_linear_102_269)" stroke-width="0.8" stroke-miterlimit="10"/>
<path d="M39.7491 55.3522C58.0672 50.2503 71.0165 39.2599 68.6722 30.8046C66.3279 22.3493 49.5777 19.6308 31.2596 24.7328C12.9415 29.8347 -0.00776516 40.8251 2.33654 49.2804C4.68085 57.7358 21.431 60.4542 39.7491 55.3522Z" stroke="url(#paint7_linear_102_269)" stroke-width="0.8" stroke-miterlimit="10"/>
<path d="M39.9754 54.582C57.8108 48.5244 70.0131 36.9409 67.2301 28.7097C64.4471 20.4784 47.7326 18.7163 29.8973 24.7739C12.0619 30.8315 -0.140413 42.4149 2.64259 50.6462C5.4256 58.8775 22.1401 60.6396 39.9754 54.582Z" stroke="url(#paint8_linear_102_269)" stroke-width="0.8" stroke-miterlimit="10"/>
<path d="M40.1995 53.8234C57.5551 46.8129 69.0138 34.6368 65.7932 26.6273C62.5726 18.6177 45.8922 17.8078 28.5366 24.8182C11.1809 31.8286 -0.277841 44.0048 2.94278 52.0143C6.1634 60.0239 22.8438 60.8338 40.1995 53.8234Z" stroke="url(#paint9_linear_102_269)" stroke-width="0.8" stroke-miterlimit="10"/>
<path d="M40.4223 53.0679C57.2968 45.1058 68.0103 32.3367 64.3516 24.5474C60.6929 16.7582 44.0475 16.8984 27.1731 24.8605C10.2986 32.8227 -0.414907 45.5918 3.24378 53.381C6.90247 61.1703 23.5479 61.0301 40.4223 53.0679Z" stroke="url(#paint10_linear_102_269)" stroke-width="0.8" stroke-miterlimit="10"/>
<path d="M40.6486 52.301C57.0409 43.3842 67.0079 30.0217 62.9105 22.455C58.8132 14.8883 42.2031 15.9828 25.8108 24.8996C9.41847 33.8164 -0.548559 47.1789 3.54879 54.7456C7.64614 62.3123 24.2563 61.2178 40.6486 52.301Z" stroke="url(#paint11_linear_102_269)" stroke-width="0.8" stroke-miterlimit="10"/>
<path d="M40.8682 51.5394C56.78 41.6704 66.0038 27.7171 61.4699 20.3739C56.9361 13.0306 40.3616 15.0781 24.4497 24.9471C8.5378 34.816 -0.685927 48.7693 3.84791 56.1126C8.38175 63.4558 24.9563 61.4083 40.8682 51.5394Z" stroke="url(#paint12_linear_102_269)" stroke-width="0.8" stroke-miterlimit="10"/>
<path d="M41.095 50.7721C56.5252 39.9472 65.0029 25.3999 60.0304 18.2797C55.058 11.1596 38.5184 14.1628 23.0882 24.9877C7.65805 35.8126 -0.81964 50.3599 4.15279 57.4801C9.12521 64.6002 25.6648 61.5969 41.095 50.7721Z" stroke="url(#paint13_linear_102_269)" stroke-width="0.8" stroke-miterlimit="10"/>
<path d="M41.3118 50.0043C56.2611 38.2263 63.9934 23.0854 58.5823 16.186C53.1713 9.28674 36.6659 13.2417 21.7166 25.0197C6.76726 36.7977 -0.965027 51.9387 4.44604 58.838C9.85711 65.7373 26.3625 61.7823 41.3118 50.0043Z" stroke="url(#paint14_linear_102_269)" stroke-width="0.8" stroke-miterlimit="10"/>
<path d="M41.5277 49.2469C55.997 36.5153 62.9862 20.7823 57.1386 14.1062C51.2909 7.43009 34.8207 12.339 20.3514 25.0705C5.88205 37.8021 -1.10717 53.5351 4.74051 60.2112C10.5882 66.8873 27.0584 61.9784 41.5277 49.2469Z" stroke="url(#paint15_linear_102_269)" stroke-width="0.8" stroke-miterlimit="10"/>
<path d="M41.752 48.4837C55.7381 34.7994 61.9809 18.4748 55.6957 12.0217C49.4105 5.56855 32.9773 11.4306 18.9911 25.1149C5.005 38.7992 -1.23783 55.1239 5.0474 61.577C11.3326 68.0301 27.7658 62.168 41.752 48.4837Z" stroke="url(#paint16_linear_102_269)" stroke-width="0.8" stroke-miterlimit="10"/>
<path d="M41.9764 47.7225C55.4818 33.0844 60.9794 16.166 54.2556 9.93433C47.5318 3.70262 31.1328 10.5174 17.6275 25.1555C4.1221 39.7936 -1.37547 56.712 5.34831 62.9437C12.0721 69.1754 28.4711 62.3606 41.9764 47.7225Z" stroke="url(#paint17_linear_102_269)" stroke-width="0.8" stroke-miterlimit="10"/>
<path d="M42.196 46.958C55.2209 31.3671 59.9753 13.8571 52.8152 7.84821C45.6552 1.83935 29.2921 9.60711 16.2672 25.198C3.24234 40.7888 -1.51205 58.2989 5.648 64.3077C12.808 70.3166 29.1711 62.5488 42.196 46.958Z" stroke="url(#paint18_linear_102_269)" stroke-width="0.8" stroke-miterlimit="10"/>
<path d="M42.4185 46.1924C54.9613 29.6483 58.9699 11.5458 51.372 5.7593C43.7741 -0.0272087 27.4469 8.69353 14.9041 25.2376C2.3613 41.7817 -1.64733 59.8843 5.95056 65.6708C13.5484 71.4573 29.8757 62.7365 42.4185 46.1924Z" stroke="url(#paint19_linear_102_269)" stroke-width="0.8" stroke-miterlimit="10"/>
<path d="M42.6404 45.4288C54.7011 27.9323 57.964 9.23782 49.9284 3.67352C41.8928 -1.89078 25.6015 7.78219 13.5409 25.2787C1.48022 42.7752 -1.78272 61.4697 6.25288 67.034C14.2885 72.5984 30.5797 62.9254 42.6404 45.4288Z" stroke="url(#paint20_linear_102_269)" stroke-width="0.8" stroke-miterlimit="10"/>
<path d="M42.8651 44.6802C54.4478 26.2311 56.9682 6.94285 48.4946 1.59871C40.0209 -3.74542 23.762 6.87826 12.1794 25.3274C0.596659 43.7765 -1.92372 63.0647 6.54993 68.4088C15.0236 73.753 31.2824 63.1293 42.8651 44.6802Z" stroke="url(#paint21_linear_102_269)" stroke-width="0.8" stroke-miterlimit="10"/>
</g>
</g>
<defs>
<linearGradient id="paint0_linear_102_269" x1="-1.05094" y1="57.5049" x2="6.30209" y2="14.5315" gradientUnits="userSpaceOnUse">
<stop stop-color="#45D0BD"/>
<stop offset="0.315" stop-color="#44C3C5"/>
<stop offset="1" stop-color="#44B6E9"/>
</linearGradient>
<linearGradient id="paint1_linear_102_269" x1="0.0222064" y1="58.4714" x2="5.37757" y2="16.2762" gradientUnits="userSpaceOnUse">
<stop stop-color="#45D0BD"/>
<stop offset="0.315" stop-color="#44C3C5"/>
<stop offset="1" stop-color="#44B6E9"/>
</linearGradient>
<linearGradient id="paint2_linear_102_269" x1="1.25798" y1="25.1156" x2="76.5888" y2="58.1272" gradientUnits="userSpaceOnUse">
<stop stop-color="#45D0BD"/>
<stop offset="0.315" stop-color="#44C3C5"/>
<stop offset="1" stop-color="#44B6E9"/>
</linearGradient>
<linearGradient id="paint3_linear_102_269" x1="0.749605" y1="26.8491" x2="75.9078" y2="55.6371" gradientUnits="userSpaceOnUse">
<stop stop-color="#45D0BD"/>
<stop offset="0.315" stop-color="#44C3C5"/>
<stop offset="1" stop-color="#44B6E9"/>
</linearGradient>
<linearGradient id="paint4_linear_102_269" x1="0.237399" y1="28.5886" x2="75.2244" y2="53.1692" gradientUnits="userSpaceOnUse">
<stop stop-color="#45D0BD"/>
<stop offset="0.315" stop-color="#44C3C5"/>
<stop offset="1" stop-color="#44B6E9"/>
</linearGradient>
<linearGradient id="paint5_linear_102_269" x1="-0.27688" y1="30.3241" x2="74.5396" y2="50.678" gradientUnits="userSpaceOnUse">
<stop stop-color="#45D0BD"/>
<stop offset="0.315" stop-color="#44C3C5"/>
<stop offset="1" stop-color="#44B6E9"/>
</linearGradient>
<linearGradient id="paint6_linear_102_269" x1="-0.783271" y1="32.0674" x2="73.8628" y2="48.2089" gradientUnits="userSpaceOnUse">
<stop stop-color="#45D0BD"/>
<stop offset="0.315" stop-color="#44C3C5"/>
<stop offset="1" stop-color="#44B6E9"/>
</linearGradient>
<linearGradient id="paint7_linear_102_269" x1="-1.2917" y1="33.799" x2="73.1839" y2="45.7187" gradientUnits="userSpaceOnUse">
<stop stop-color="#45D0BD"/>
<stop offset="0.315" stop-color="#44C3C5"/>
<stop offset="1" stop-color="#44B6E9"/>
</linearGradient>
<linearGradient id="paint8_linear_102_269" x1="-1.79623" y1="35.5383" x2="72.5086" y2="43.2343" gradientUnits="userSpaceOnUse">
<stop stop-color="#45D0BD"/>
<stop offset="0.315" stop-color="#44C3C5"/>
<stop offset="1" stop-color="#44B6E9"/>
</linearGradient>
<linearGradient id="paint9_linear_102_269" x1="-2.30456" y1="37.2758" x2="71.8401" y2="40.7611" gradientUnits="userSpaceOnUse">
<stop stop-color="#45D0BD"/>
<stop offset="0.315" stop-color="#44C3C5"/>
<stop offset="1" stop-color="#44B6E9"/>
</linearGradient>
<linearGradient id="paint10_linear_102_269" x1="-2.81294" y1="39.0094" x2="71.1698" y2="38.2782" gradientUnits="userSpaceOnUse">
<stop stop-color="#45D0BD"/>
<stop offset="0.315" stop-color="#44C3C5"/>
<stop offset="1" stop-color="#44B6E9"/>
</linearGradient>
<linearGradient id="paint11_linear_102_269" x1="-3.31843" y1="40.7448" x2="70.5027" y2="35.7914" gradientUnits="userSpaceOnUse">
<stop stop-color="#45D0BD"/>
<stop offset="0.315" stop-color="#44C3C5"/>
<stop offset="1" stop-color="#44B6E9"/>
</linearGradient>
<linearGradient id="paint12_linear_102_269" x1="-3.82581" y1="42.4843" x2="69.8359" y2="33.3267" gradientUnits="userSpaceOnUse">
<stop stop-color="#45D0BD"/>
<stop offset="0.315" stop-color="#44C3C5"/>
<stop offset="1" stop-color="#44B6E9"/>
</linearGradient>
<linearGradient id="paint13_linear_102_269" x1="-4.33128" y1="44.2236" x2="69.1762" y2="30.8423" gradientUnits="userSpaceOnUse">
<stop stop-color="#45D0BD"/>
<stop offset="0.315" stop-color="#44C3C5"/>
<stop offset="1" stop-color="#44B6E9"/>
</linearGradient>
<linearGradient id="paint14_linear_102_269" x1="-4.84844" y1="45.9493" x2="68.5071" y2="28.3466" gradientUnits="userSpaceOnUse">
<stop stop-color="#45D0BD"/>
<stop offset="0.315" stop-color="#44C3C5"/>
<stop offset="1" stop-color="#44B6E9"/>
</linearGradient>
<linearGradient id="paint15_linear_102_269" x1="-5.36069" y1="47.6946" x2="67.8459" y2="25.8814" gradientUnits="userSpaceOnUse">
<stop stop-color="#45D0BD"/>
<stop offset="0.315" stop-color="#44C3C5"/>
<stop offset="1" stop-color="#44B6E9"/>
</linearGradient>
<linearGradient id="paint16_linear_102_269" x1="-5.8623" y1="49.432" x2="67.1855" y2="23.3971" gradientUnits="userSpaceOnUse">
<stop stop-color="#45D0BD"/>
<stop offset="0.315" stop-color="#44C3C5"/>
<stop offset="1" stop-color="#44B6E9"/>
</linearGradient>
<linearGradient id="paint17_linear_102_269" x1="-6.37165" y1="51.1675" x2="66.5288" y2="20.9069" gradientUnits="userSpaceOnUse">
<stop stop-color="#45D0BD"/>
<stop offset="0.315" stop-color="#44C3C5"/>
<stop offset="1" stop-color="#44B6E9"/>
</linearGradient>
<linearGradient id="paint18_linear_102_269" x1="-6.87805" y1="52.903" x2="65.8748" y2="18.4279" gradientUnits="userSpaceOnUse">
<stop stop-color="#45D0BD"/>
<stop offset="0.315" stop-color="#44C3C5"/>
<stop offset="1" stop-color="#44B6E9"/>
</linearGradient>
<linearGradient id="paint19_linear_102_269" x1="-7.38451" y1="54.6366" x2="65.2165" y2="15.9343" gradientUnits="userSpaceOnUse">
<stop stop-color="#45D0BD"/>
<stop offset="0.315" stop-color="#44C3C5"/>
<stop offset="1" stop-color="#44B6E9"/>
</linearGradient>
<linearGradient id="paint20_linear_102_269" x1="-7.89097" y1="56.3701" x2="64.5567" y2="13.4409" gradientUnits="userSpaceOnUse">
<stop stop-color="#45D0BD"/>
<stop offset="0.315" stop-color="#44C3C5"/>
<stop offset="1" stop-color="#44B6E9"/>
</linearGradient>
<linearGradient id="paint21_linear_102_269" x1="-8.40315" y1="58.1115" x2="63.9062" y2="10.9593" gradientUnits="userSpaceOnUse">
<stop stop-color="#45D0BD"/>
<stop offset="0.315" stop-color="#44C3C5"/>
<stop offset="1" stop-color="#44B6E9"/>
</linearGradient>
<clipPath id="clip0_102_269">
<rect width="79" height="70" fill="white"/>
</clipPath>
</defs>
</svg>
