<svg width="68" height="73" viewBox="0 0 68 73" fill="none" xmlns="http://www.w3.org/2000/svg">
<g clip-path="url(#clip0_1024_20737)">
<path d="M34.9893 43.7992C30.9273 43.7992 27.625 40.5257 27.625 36.4992C27.625 32.4727 30.9273 29.1992 34.9893 29.1992C39.0514 29.1992 42.3537 32.4727 42.3537 36.4992C42.3537 40.5257 39.0514 43.7992 34.9893 43.7992ZM34.9893 31.5045C32.2141 31.5045 29.9506 33.7483 29.9506 36.4992C29.9506 39.2502 32.2141 41.494 34.9893 41.494C37.7645 41.494 40.0281 39.2502 40.0281 36.4992C40.0281 33.7483 37.7645 31.5045 34.9893 31.5045Z" fill="#A4AFBA"/>
<path d="M34.9948 73C25.646 73 18.3281 56.9707 18.3281 36.5C18.3281 16.0293 25.646 0 34.9948 0C37.1808 0 39.3049 0.876 41.2739 2.59726C41.7545 3.01221 41.801 3.74989 41.3824 4.22632C40.9638 4.70274 40.2196 4.74884 39.739 4.33389C38.1886 2.99684 36.5917 2.32063 34.9948 2.32063C27.2273 2.32063 20.6537 17.9811 20.6537 36.5154C20.6537 55.0497 27.2273 70.7101 34.9948 70.7101C42.7622 70.7101 49.3359 55.0497 49.3359 36.5154C49.3359 25.6499 47.1808 15.6451 43.4289 9.052C43.1188 8.49874 43.3049 7.79179 43.863 7.48442C44.4212 7.17705 45.1343 7.36147 45.4444 7.91474C49.3824 14.8305 51.646 25.2657 51.646 36.5154C51.646 56.9861 44.3281 73.0154 34.9793 73.0154L34.9948 73Z" fill="#A4AFBA"/>
<path d="M42.7479 9.98974C40.3914 9.98974 38.4844 8.09942 38.4844 5.76342C38.4844 3.42743 40.3914 1.53711 42.7479 1.53711C45.1045 1.53711 47.0115 3.42743 47.0115 5.76342C47.0115 8.09942 45.1045 9.98974 42.7479 9.98974ZM42.7479 3.84237C41.6782 3.84237 40.81 4.703 40.81 5.76342C40.81 6.82385 41.6782 7.68448 42.7479 7.68448C43.8177 7.68448 44.6859 6.82385 44.6859 5.76342C44.6859 4.703 43.8177 3.84237 42.7479 3.84237Z" fill="#A4AFBA"/>
<path d="M54.7586 59.782C46.7431 59.7051 36.5106 56.4317 26.6811 50.8068C18.2935 46.0119 11.2238 40.0797 6.75865 34.1014C2.09199 27.8618 0.805164 22.2216 3.13075 18.2565C5.44082 14.2761 11.0222 12.5702 18.7897 13.4616C26.247 14.3068 34.9602 17.4112 43.3478 22.2062C61.2238 32.4416 71.5804 46.7342 66.8982 54.7565C65.7974 56.6315 63.9835 58.0146 61.4873 58.8599C60.8827 59.0597 60.216 58.7369 60.0145 58.1376C59.8129 57.5382 60.1385 56.8774 60.7431 56.6776C62.6811 56.0167 64.0765 54.987 64.8827 53.6039C68.7742 46.934 58.3711 33.4712 42.185 24.1887C34.0765 19.5475 25.6734 16.5506 18.5261 15.7361C11.8129 14.983 6.92919 16.3201 5.14625 19.4091C3.3478 22.4982 4.61912 27.3546 8.63462 32.7336C12.9137 38.466 19.7354 44.1677 27.8439 48.8089C37.3323 54.2493 47.1618 57.3999 54.7897 57.4767C55.4253 57.4767 55.9525 57.9992 55.9369 58.6447C55.9369 59.2748 55.4098 59.782 54.7742 59.782H54.7586Z" fill="#A4AFBA"/>
<path d="M57.971 62.7493C57.2268 62.7493 56.4826 62.5495 55.847 62.1806C53.816 61.0126 53.1183 58.4307 54.2811 56.4021C55.0408 55.0958 56.4516 54.2812 57.971 54.2812C58.7152 54.2812 59.4439 54.481 60.095 54.8499C61.0873 55.4185 61.7849 56.3253 62.0795 57.4164C62.3741 58.5076 62.2191 59.6448 61.6454 60.6284C60.8857 61.9347 59.4749 62.7493 57.9555 62.7493H57.971ZM57.971 56.6019C57.2733 56.6019 56.6377 56.9707 56.2966 57.5547C55.7694 58.4768 56.0795 59.6448 57.0098 60.1827C57.909 60.6899 59.1493 60.3671 59.6609 59.4758C59.9245 59.0301 59.9865 58.5076 59.847 58.0158C59.7074 57.524 59.3974 57.109 58.9477 56.8478C58.6532 56.6787 58.3121 56.5865 57.9865 56.5865L57.971 56.6019Z" fill="#A4AFBA"/>
<path d="M14.9566 59.7845C9.17363 59.7845 5.01859 58.0479 3.11161 54.759C2.01084 52.8841 1.71626 50.6249 2.22789 48.0738C2.35192 47.4436 2.95657 47.0441 3.59223 47.167C4.22789 47.29 4.63099 47.9047 4.50696 48.5194C4.10386 50.5173 4.32091 52.2232 5.12711 53.6064C6.92556 56.6954 11.7938 58.0325 18.507 57.2794C25.6542 56.4649 34.0573 53.4681 42.1659 48.8268C50.2744 44.1855 57.0961 38.4685 61.3752 32.7514C65.3907 27.3725 66.662 22.5161 64.8635 19.427C63.0651 16.338 58.1969 15.0009 51.4837 15.754C44.3364 16.5685 35.9333 19.5653 27.8248 24.2066C18.3364 29.6316 10.662 36.486 6.78603 43.0022C6.46045 43.5554 5.74727 43.7399 5.18913 43.4018C4.63099 43.079 4.44494 42.3721 4.78603 41.8188C8.86355 34.9645 16.8325 27.8182 26.662 22.1933C35.0496 17.3984 43.7628 14.294 51.2201 13.4487C59.0186 12.5573 64.569 14.2786 66.879 18.2436C69.1891 22.2241 67.9023 27.8489 63.2511 34.0885C58.786 40.0668 51.7163 45.999 43.3287 50.794C34.9411 55.5889 26.2279 58.6933 18.7705 59.5386C17.4372 59.6923 16.1659 59.7691 14.9566 59.7691V59.7845Z" fill="#A4AFBA"/>
<path d="M4.263 49.4407C2.74362 49.4407 1.33276 48.6261 0.573074 47.3198C-0.00056897 46.3362 -0.140104 45.199 0.138966 44.1078C0.43354 43.0167 1.14672 42.1099 2.12346 41.5413C2.77462 41.1724 3.50331 40.9727 4.24749 40.9727C5.76687 40.9727 7.17773 41.7872 7.93742 43.0935C9.11571 45.1068 8.41804 47.704 6.37152 48.872C5.72036 49.2409 4.99168 49.4407 4.24749 49.4407H4.263ZM4.263 43.2933C3.92191 43.2933 3.59633 43.3855 3.30176 43.5546C2.85214 43.8158 2.52656 44.2308 2.40253 44.7226C2.263 45.2143 2.34052 45.7369 2.58858 46.1826C3.10021 47.0586 4.34052 47.3967 5.23974 46.8895C6.16997 46.367 6.48005 45.1836 5.95292 44.2615C5.61183 43.6621 4.96067 43.3087 4.263 43.3087V43.2933Z" fill="#A4AFBA"/>
</g>
<defs>
<clipPath id="clip0_1024_20737">
<rect width="68" height="73" fill="white"/>
</clipPath>
</defs>
</svg>
