<svg width="97" height="73" viewBox="0 0 97 73" fill="none" xmlns="http://www.w3.org/2000/svg">
<mask id="path-1-outside-1_217_1072" maskUnits="userSpaceOnUse" x="-0.832031" y="-0.919922" width="98" height="73" fill="black">
<rect fill="white" x="-0.832031" y="-0.919922" width="98" height="73"/>
<path d="M0.999969 71.0801V1.00008H14.632V71.0801H0.999969ZM29.2405 71.0801V1.00008H51.6085L81.0805 59.7521H84.2485L82.3285 61.4801V1.00008H95.1925V71.0801H72.7285L43.2565 12.3281H39.9925L41.9125 10.6001V71.0801H29.2405Z"/>
</mask>
<path d="M0.999969 71.0801H-3.05176e-05V72.0801H0.999969V71.0801ZM0.999969 1.00008V7.62939e-05H-3.05176e-05V1.00008H0.999969ZM14.632 1.00008H15.632V7.62939e-05H14.632V1.00008ZM14.632 71.0801V72.0801H15.632V71.0801H14.632ZM0.999969 71.0801H1.99997V1.00008H0.999969H-3.05176e-05V71.0801H0.999969ZM0.999969 1.00008V2.00008H14.632V1.00008V7.62939e-05H0.999969V1.00008ZM14.632 1.00008H13.632V71.0801H14.632H15.632V1.00008H14.632ZM14.632 71.0801V70.0801H0.999969V71.0801V72.0801H14.632V71.0801ZM29.2405 71.0801H28.2405V72.0801H29.2405V71.0801ZM29.2405 1.00008V7.62939e-05H28.2405V1.00008H29.2405ZM51.6085 1.00008L52.5023 0.551695L52.2256 7.62939e-05H51.6085V1.00008ZM81.0805 59.7521L80.1866 60.2005L80.4633 60.7521H81.0805V59.7521ZM84.2485 59.7521L84.9174 60.4954L86.8544 58.7521H84.2485V59.7521ZM82.3285 61.4801H81.3285V63.7254L82.9974 62.2234L82.3285 61.4801ZM82.3285 1.00008V7.62939e-05H81.3285V1.00008H82.3285ZM95.1925 1.00008H96.1925V7.62939e-05H95.1925V1.00008ZM95.1925 71.0801V72.0801H96.1925V71.0801H95.1925ZM72.7285 71.0801L71.8346 71.5285L72.1113 72.0801H72.7285V71.0801ZM43.2565 12.3281L44.1503 11.8797L43.8736 11.3281H43.2565V12.3281ZM39.9925 12.3281L39.3235 11.5848L37.3865 13.3281H39.9925V12.3281ZM41.9125 10.6001H42.9125V8.35471L41.2435 9.85678L41.9125 10.6001ZM41.9125 71.0801V72.0801H42.9125V71.0801H41.9125ZM29.2405 71.0801H30.2405V1.00008H29.2405H28.2405V71.0801H29.2405ZM29.2405 1.00008V2.00008H51.6085V1.00008V7.62939e-05H29.2405V1.00008ZM51.6085 1.00008L50.7146 1.44846L80.1866 60.2005L81.0805 59.7521L81.9743 59.3037L52.5023 0.551695L51.6085 1.00008ZM81.0805 59.7521V60.7521H84.2485V59.7521V58.7521H81.0805V59.7521ZM84.2485 59.7521L83.5795 59.0088L81.6595 60.7368L82.3285 61.4801L82.9974 62.2234L84.9174 60.4954L84.2485 59.7521ZM82.3285 61.4801H83.3285V1.00008H82.3285H81.3285V61.4801H82.3285ZM82.3285 1.00008V2.00008H95.1925V1.00008V7.62939e-05H82.3285V1.00008ZM95.1925 1.00008H94.1925V71.0801H95.1925H96.1925V1.00008H95.1925ZM95.1925 71.0801V70.0801H72.7285V71.0801V72.0801H95.1925V71.0801ZM72.7285 71.0801L73.6223 70.6317L44.1503 11.8797L43.2565 12.3281L42.3626 12.7765L71.8346 71.5285L72.7285 71.0801ZM43.2565 12.3281V11.3281H39.9925V12.3281V13.3281H43.2565V12.3281ZM39.9925 12.3281L40.6614 13.0714L42.5814 11.3434L41.9125 10.6001L41.2435 9.85678L39.3235 11.5848L39.9925 12.3281ZM41.9125 10.6001H40.9125V71.0801H41.9125H42.9125V10.6001H41.9125ZM41.9125 71.0801V70.0801H29.2405V71.0801V72.0801H41.9125V71.0801Z" fill="url(#paint0_linear_217_1072)" mask="url(#path-1-outside-1_217_1072)"/>
<defs>
<linearGradient id="paint0_linear_217_1072" x1="48.2985" y1="-2.98242" x2="48.2148" y2="62.4237" gradientUnits="userSpaceOnUse">
<stop stop-color="#8258C8"/>
<stop offset="0.773838" stop-color="#2C84C8"/>
<stop offset="0.929954" stop-color="#FEFEFE" stop-opacity="0.6"/>
</linearGradient>
</defs>
</svg>
