<svg width="422" height="220" viewBox="0 0 422 220" fill="none" xmlns="http://www.w3.org/2000/svg">
<g filter="url(#filter0_d_769_8673)">
<path d="M30 59C30 52.3726 35.3726 47 42 47H390V176C390 182.627 384.627 188 378 188H42C35.3726 188 30 182.627 30 176V59Z" fill="white"/>
<path d="M28 47C28 44.7909 29.7909 43 32 43V131C29.7909 131 28 129.209 28 127V47Z" fill="url(#paint0_linear_769_8673)"/>
<path d="M30 40C30 33.3726 35.3726 28 42 28H378C384.627 28 390 33.3726 390 40V47H32C30.8954 47 30 46.1046 30 45V40Z" fill="white"/>
<path d="M30 129C30 127.895 30.8954 127 32 127H390V134C390 140.627 384.627 146 378 146H42C35.3726 146 30 140.627 30 134V129Z" fill="white"/>
<path d="M30 47H322C328.627 47 334 52.3726 334 59V115C334 121.627 328.627 127 322 127H30V47Z" fill="url(#paint1_linear_769_8673)"/>
<path d="M106.796 98.406C105.321 98.406 104.08 98.014 103.072 97.23C102.073 96.446 101.383 95.3913 101 94.066L103.898 93.38C104.029 94.0053 104.36 94.542 104.892 94.99C105.433 95.4287 106.035 95.648 106.698 95.648C107.137 95.648 107.594 95.536 108.07 95.312C108.546 95.088 108.901 94.724 109.134 94.22C109.293 93.884 109.386 93.5013 109.414 93.072C109.442 92.6333 109.456 92.1247 109.456 91.546V77.84H112.424V91.546C112.424 92.1433 112.419 92.6753 112.41 93.142C112.41 93.6087 112.363 94.0473 112.27 94.458C112.186 94.8687 112.018 95.2933 111.766 95.732C111.234 96.656 110.534 97.3327 109.666 97.762C108.798 98.1913 107.841 98.406 106.796 98.406ZM121.364 98L114.812 77.84H117.85L123.436 95.046L129.092 77.84H132.13L125.578 98H121.364ZM139.847 98V77.84H147.771C149.049 77.84 150.123 78.1013 150.991 78.624C151.859 79.1467 152.512 79.8233 152.951 80.654C153.389 81.4753 153.609 82.3433 153.609 83.258C153.609 84.3687 153.333 85.3207 152.783 86.114C152.241 86.9073 151.509 87.4487 150.585 87.738L150.557 87.052C151.845 87.3693 152.834 87.99 153.525 88.914C154.215 89.8287 154.561 90.8973 154.561 92.12C154.561 93.3053 154.323 94.3367 153.847 95.214C153.38 96.0913 152.694 96.7773 151.789 97.272C150.893 97.7573 149.805 98 148.527 98H139.847ZM142.815 95.214H148.079C148.741 95.214 149.334 95.088 149.857 94.836C150.389 94.584 150.804 94.2247 151.103 93.758C151.411 93.282 151.565 92.7173 151.565 92.064C151.565 91.4573 151.429 90.9113 151.159 90.426C150.897 89.9313 150.515 89.544 150.011 89.264C149.516 88.9747 148.933 88.83 148.261 88.83H142.815V95.214ZM142.815 86.072H147.729C148.27 86.072 148.755 85.9647 149.185 85.75C149.623 85.526 149.969 85.2087 150.221 84.798C150.482 84.378 150.613 83.874 150.613 83.286C150.613 82.502 150.351 81.858 149.829 81.354C149.306 80.85 148.606 80.598 147.729 80.598H142.815V86.072ZM161.617 98.42C160.497 98.42 159.559 98.2147 158.803 97.804C158.047 97.384 157.473 96.8333 157.081 96.152C156.698 95.4613 156.507 94.7053 156.507 93.884C156.507 93.1187 156.642 92.4467 156.913 91.868C157.183 91.2893 157.585 90.7993 158.117 90.398C158.649 89.9873 159.302 89.656 160.077 89.404C160.749 89.208 161.509 89.0353 162.359 88.886C163.208 88.7367 164.099 88.5967 165.033 88.466C165.975 88.3353 166.909 88.2047 167.833 88.074L166.769 88.662C166.787 87.4767 166.535 86.5993 166.013 86.03C165.499 85.4513 164.613 85.162 163.353 85.162C162.559 85.162 161.831 85.3487 161.169 85.722C160.506 86.086 160.044 86.6927 159.783 87.542L157.053 86.702C157.426 85.4047 158.135 84.3733 159.181 83.608C160.235 82.8427 161.635 82.46 163.381 82.46C164.734 82.46 165.91 82.6933 166.909 83.16C167.917 83.6173 168.654 84.3453 169.121 85.344C169.363 85.8387 169.513 86.3613 169.569 86.912C169.625 87.4627 169.653 88.0553 169.653 88.69V98H167.063V94.542L167.567 94.99C166.941 96.1473 166.143 97.0107 165.173 97.58C164.211 98.14 163.026 98.42 161.617 98.42ZM162.135 96.026C162.965 96.026 163.679 95.8813 164.277 95.592C164.874 95.2933 165.355 94.9153 165.719 94.458C166.083 94.0007 166.321 93.5247 166.433 93.03C166.591 92.582 166.68 92.078 166.699 91.518C166.727 90.958 166.741 90.51 166.741 90.174L167.693 90.524C166.769 90.664 165.929 90.79 165.173 90.902C164.417 91.014 163.731 91.126 163.115 91.238C162.508 91.3407 161.967 91.4667 161.491 91.616C161.089 91.756 160.73 91.924 160.413 92.12C160.105 92.316 159.857 92.554 159.671 92.834C159.493 93.114 159.405 93.4547 159.405 93.856C159.405 94.248 159.503 94.612 159.699 94.948C159.895 95.2747 160.193 95.536 160.595 95.732C160.996 95.928 161.509 96.026 162.135 96.026ZM173.568 80.402V77.56H176.494V80.402H173.568ZM173.568 98V82.88H176.494V98H173.568ZM186.48 98.406C184.642 98.406 183.144 98 181.986 97.188C180.829 96.376 180.12 95.2327 179.858 93.758L182.854 93.296C183.041 94.08 183.47 94.7007 184.142 95.158C184.824 95.606 185.668 95.83 186.676 95.83C187.591 95.83 188.305 95.6433 188.818 95.27C189.341 94.8967 189.602 94.3833 189.602 93.73C189.602 93.3473 189.509 93.0393 189.322 92.806C189.145 92.5633 188.767 92.3347 188.188 92.12C187.61 91.9053 186.728 91.6393 185.542 91.322C184.245 90.986 183.214 90.6267 182.448 90.244C181.692 89.852 181.151 89.3993 180.824 88.886C180.507 88.3633 180.348 87.7333 180.348 86.996C180.348 86.0813 180.591 85.2833 181.076 84.602C181.562 83.9207 182.243 83.3933 183.12 83.02C184.007 82.6467 185.043 82.46 186.228 82.46C187.386 82.46 188.417 82.642 189.322 83.006C190.228 83.37 190.96 83.888 191.52 84.56C192.08 85.2227 192.416 86.002 192.528 86.898L189.532 87.444C189.43 86.716 189.089 86.142 188.51 85.722C187.932 85.302 187.18 85.0733 186.256 85.036C185.37 84.9987 184.651 85.148 184.1 85.484C183.55 85.8107 183.274 86.2633 183.274 86.842C183.274 87.178 183.377 87.4627 183.582 87.696C183.797 87.9293 184.208 88.1533 184.814 88.368C185.421 88.5827 186.317 88.8393 187.502 89.138C188.772 89.4647 189.78 89.8287 190.526 90.23C191.273 90.622 191.805 91.0933 192.122 91.644C192.449 92.1853 192.612 92.8433 192.612 93.618C192.612 95.1113 192.066 96.2827 190.974 97.132C189.892 97.9813 188.394 98.406 186.48 98.406ZM206.322 98V90.566C206.322 89.978 206.271 89.376 206.168 88.76C206.075 88.1347 205.888 87.556 205.608 87.024C205.337 86.492 204.95 86.0627 204.446 85.736C203.951 85.4093 203.303 85.246 202.5 85.246C201.977 85.246 201.483 85.3347 201.016 85.512C200.549 85.68 200.139 85.9553 199.784 86.338C199.439 86.7207 199.163 87.2247 198.958 87.85C198.762 88.4753 198.664 89.236 198.664 90.132L196.844 89.446C196.844 88.074 197.101 86.8653 197.614 85.82C198.127 84.7653 198.865 83.944 199.826 83.356C200.787 82.768 201.949 82.474 203.312 82.474C204.357 82.474 205.235 82.642 205.944 82.978C206.653 83.314 207.227 83.7573 207.666 84.308C208.114 84.8493 208.455 85.442 208.688 86.086C208.921 86.73 209.08 87.36 209.164 87.976C209.248 88.592 209.29 89.1333 209.29 89.6V98H206.322ZM195.696 98V77.84H198.314V88.718H198.664V98H195.696ZM219.643 98.42C218.14 98.42 216.819 98.0933 215.681 97.44C214.551 96.7773 213.669 95.858 213.035 94.682C212.409 93.4967 212.097 92.1247 212.097 90.566C212.097 88.914 212.405 87.4813 213.021 86.268C213.646 85.0547 214.514 84.1167 215.625 83.454C216.735 82.7913 218.028 82.46 219.503 82.46C221.043 82.46 222.354 82.8193 223.437 83.538C224.519 84.2473 225.327 85.26 225.859 86.576C226.4 87.892 226.615 89.4553 226.503 91.266H223.577V90.202C223.558 88.4473 223.222 87.15 222.569 86.31C221.925 85.47 220.94 85.05 219.615 85.05C218.149 85.05 217.048 85.512 216.311 86.436C215.573 87.36 215.205 88.6947 215.205 90.44C215.205 92.1013 215.573 93.3893 216.311 94.304C217.048 95.2093 218.112 95.662 219.503 95.662C220.417 95.662 221.206 95.4567 221.869 95.046C222.541 94.626 223.063 94.0287 223.437 93.254L226.307 94.164C225.719 95.5173 224.827 96.5673 223.633 97.314C222.438 98.0513 221.108 98.42 219.643 98.42ZM214.253 91.266V88.984H225.047V91.266H214.253ZM239.845 98V90.566C239.845 89.978 239.794 89.376 239.691 88.76C239.598 88.1347 239.411 87.556 239.131 87.024C238.861 86.492 238.473 86.0627 237.969 85.736C237.475 85.4093 236.826 85.246 236.023 85.246C235.501 85.246 235.006 85.3347 234.539 85.512C234.073 85.68 233.662 85.9553 233.307 86.338C232.962 86.7207 232.687 87.2247 232.481 87.85C232.285 88.4753 232.187 89.236 232.187 90.132L230.367 89.446C230.367 88.074 230.624 86.8653 231.137 85.82C231.651 84.7653 232.388 83.944 233.349 83.356C234.311 82.768 235.473 82.474 236.835 82.474C237.881 82.474 238.758 82.642 239.467 82.978C240.177 83.314 240.751 83.7573 241.189 84.308C241.637 84.8493 241.978 85.442 242.211 86.086C242.445 86.73 242.603 87.36 242.687 87.976C242.771 88.592 242.813 89.1333 242.813 89.6V98H239.845ZM229.219 98V82.88H231.837V87.248H232.187V98H229.219ZM252.69 105.14C251.878 105.14 251.089 105.014 250.324 104.762C249.568 104.51 248.877 104.137 248.252 103.642C247.627 103.157 247.109 102.555 246.698 101.836L249.4 100.464C249.727 101.108 250.193 101.579 250.8 101.878C251.407 102.177 252.046 102.326 252.718 102.326C253.549 102.326 254.258 102.177 254.846 101.878C255.434 101.589 255.877 101.15 256.176 100.562C256.484 99.974 256.633 99.246 256.624 98.378V94.15H256.974V82.88H259.564V98.406C259.564 98.8073 259.55 99.19 259.522 99.554C259.494 99.918 259.443 100.282 259.368 100.646C259.153 101.663 258.743 102.503 258.136 103.166C257.539 103.829 256.773 104.323 255.84 104.65C254.916 104.977 253.866 105.14 252.69 105.14ZM252.466 98.42C251.057 98.42 249.839 98.07 248.812 97.37C247.795 96.67 247.006 95.718 246.446 94.514C245.895 93.3007 245.62 91.938 245.62 90.426C245.62 88.9047 245.9 87.5467 246.46 86.352C247.02 85.148 247.813 84.2007 248.84 83.51C249.876 82.81 251.103 82.46 252.522 82.46C253.95 82.46 255.149 82.81 256.12 83.51C257.1 84.2007 257.837 85.148 258.332 86.352C258.836 87.556 259.088 88.914 259.088 90.426C259.088 91.938 258.836 93.296 258.332 94.5C257.828 95.704 257.086 96.6607 256.106 97.37C255.126 98.07 253.913 98.42 252.466 98.42ZM252.872 95.774C253.833 95.774 254.617 95.5453 255.224 95.088C255.831 94.6307 256.274 94.0007 256.554 93.198C256.834 92.3953 256.974 91.4713 256.974 90.426C256.974 89.3807 256.829 88.4567 256.54 87.654C256.26 86.8513 255.821 86.226 255.224 85.778C254.636 85.33 253.885 85.106 252.97 85.106C251.999 85.106 251.201 85.344 250.576 85.82C249.951 86.296 249.484 86.9353 249.176 87.738C248.877 88.5407 248.728 89.4367 248.728 90.426C248.728 91.4247 248.877 92.33 249.176 93.142C249.484 93.9447 249.941 94.584 250.548 95.06C251.164 95.536 251.939 95.774 252.872 95.774Z" fill="white"/>
<path d="M136.968 163.348C135.704 163.348 134.64 163.012 133.776 162.34C132.92 161.668 132.328 160.764 132 159.628L134.484 159.04C134.596 159.576 134.88 160.036 135.336 160.42C135.8 160.796 136.316 160.984 136.884 160.984C137.26 160.984 137.652 160.888 138.06 160.696C138.468 160.504 138.772 160.192 138.972 159.76C139.108 159.472 139.188 159.144 139.212 158.776C139.236 158.4 139.248 157.964 139.248 157.468V145.72H141.792V157.468C141.792 157.98 141.788 158.436 141.78 158.836C141.78 159.236 141.74 159.612 141.66 159.964C141.588 160.316 141.444 160.68 141.228 161.056C140.772 161.848 140.172 162.428 139.428 162.796C138.684 163.164 137.864 163.348 136.968 163.348ZM151.027 163.36C149.731 163.36 148.607 163.068 147.655 162.484C146.703 161.9 145.967 161.096 145.447 160.072C144.935 159.04 144.679 157.852 144.679 156.508C144.679 155.156 144.943 153.968 145.471 152.944C145.999 151.912 146.739 151.112 147.691 150.544C148.643 149.968 149.755 149.68 151.027 149.68C152.323 149.68 153.447 149.972 154.399 150.556C155.351 151.14 156.087 151.944 156.607 152.968C157.127 153.992 157.387 155.172 157.387 156.508C157.387 157.86 157.123 159.052 156.595 160.084C156.075 161.108 155.339 161.912 154.387 162.496C153.435 163.072 152.315 163.36 151.027 163.36ZM151.027 160.996C152.267 160.996 153.191 160.58 153.799 159.748C154.415 158.908 154.723 157.828 154.723 156.508C154.723 155.156 154.411 154.076 153.787 153.268C153.171 152.452 152.251 152.044 151.027 152.044C150.187 152.044 149.495 152.236 148.951 152.62C148.407 152.996 148.003 153.52 147.739 154.192C147.475 154.856 147.343 155.628 147.343 156.508C147.343 157.868 147.655 158.956 148.279 159.772C148.903 160.588 149.819 160.996 151.027 160.996ZM160.264 147.916V145.48H162.772V147.916H160.264ZM160.264 163V150.04H162.772V163H160.264ZM175.471 163V156.628C175.471 156.124 175.427 155.608 175.339 155.08C175.259 154.544 175.099 154.048 174.859 153.592C174.627 153.136 174.295 152.768 173.863 152.488C173.439 152.208 172.883 152.068 172.195 152.068C171.747 152.068 171.323 152.144 170.923 152.296C170.523 152.44 170.171 152.676 169.867 153.004C169.571 153.332 169.335 153.764 169.159 154.3C168.991 154.836 168.907 155.488 168.907 156.256L167.347 155.668C167.347 154.492 167.567 153.456 168.007 152.56C168.447 151.656 169.079 150.952 169.903 150.448C170.727 149.944 171.723 149.692 172.891 149.692C173.787 149.692 174.539 149.836 175.147 150.124C175.755 150.412 176.247 150.792 176.623 151.264C177.007 151.728 177.299 152.236 177.499 152.788C177.699 153.34 177.835 153.88 177.907 154.408C177.979 154.936 178.015 155.4 178.015 155.8V163H175.471ZM166.363 163V150.04H168.607V153.784H168.907V163H166.363ZM188.557 163C187.741 163.16 186.941 163.228 186.157 163.204C185.373 163.18 184.673 163.028 184.057 162.748C183.441 162.468 182.977 162.028 182.665 161.428C182.385 160.892 182.233 160.348 182.209 159.796C182.193 159.236 182.185 158.604 182.185 157.9V146.44H184.705V157.78C184.705 158.3 184.709 158.752 184.717 159.136C184.733 159.52 184.817 159.844 184.969 160.108C185.257 160.604 185.713 160.888 186.337 160.96C186.969 161.024 187.709 160.996 188.557 160.876V163ZM179.701 152.056V150.04H188.557V152.056H179.701ZM200.15 163L194.534 145.72H197.138L201.926 160.468L206.774 145.72H209.378L203.762 163H200.15ZM215.506 163.36C214.218 163.36 213.086 163.08 212.11 162.52C211.142 161.952 210.386 161.164 209.842 160.156C209.306 159.14 209.038 157.964 209.038 156.628C209.038 155.212 209.302 153.984 209.83 152.944C210.366 151.904 211.11 151.1 212.062 150.532C213.014 149.964 214.122 149.68 215.386 149.68C216.706 149.68 217.83 149.988 218.758 150.604C219.686 151.212 220.378 152.08 220.834 153.208C221.298 154.336 221.482 155.676 221.386 157.228H218.878V156.316C218.862 154.812 218.574 153.7 218.014 152.98C217.462 152.26 216.618 151.9 215.482 151.9C214.226 151.9 213.282 152.296 212.65 153.088C212.018 153.88 211.702 155.024 211.702 156.52C211.702 157.944 212.018 159.048 212.65 159.832C213.282 160.608 214.194 160.996 215.386 160.996C216.17 160.996 216.846 160.82 217.414 160.468C217.99 160.108 218.438 159.596 218.758 158.932L221.218 159.712C220.714 160.872 219.95 161.772 218.926 162.412C217.902 163.044 216.762 163.36 215.506 163.36ZM210.886 157.228V155.272H220.138V157.228H210.886ZM232.823 163V156.628C232.823 156.124 232.779 155.608 232.691 155.08C232.611 154.544 232.451 154.048 232.211 153.592C231.979 153.136 231.647 152.768 231.215 152.488C230.791 152.208 230.235 152.068 229.547 152.068C229.099 152.068 228.675 152.144 228.275 152.296C227.875 152.44 227.523 152.676 227.219 153.004C226.923 153.332 226.687 153.764 226.511 154.3C226.343 154.836 226.259 155.488 226.259 156.256L224.699 155.668C224.699 154.492 224.919 153.456 225.359 152.56C225.799 151.656 226.431 150.952 227.255 150.448C228.079 149.944 229.075 149.692 230.243 149.692C231.139 149.692 231.891 149.836 232.499 150.124C233.107 150.412 233.599 150.792 233.975 151.264C234.359 151.728 234.651 152.236 234.851 152.788C235.051 153.34 235.187 153.88 235.259 154.408C235.331 154.936 235.367 155.4 235.367 155.8V163H232.823ZM223.715 163V150.04H225.959V153.784H226.259V163H223.715ZM245.909 163C245.093 163.16 244.293 163.228 243.509 163.204C242.725 163.18 242.025 163.028 241.409 162.748C240.793 162.468 240.329 162.028 240.017 161.428C239.737 160.892 239.585 160.348 239.561 159.796C239.545 159.236 239.537 158.604 239.537 157.9V146.44H242.057V157.78C242.057 158.3 242.061 158.752 242.069 159.136C242.085 159.52 242.169 159.844 242.321 160.108C242.609 160.604 243.065 160.888 243.689 160.96C244.321 161.024 245.061 160.996 245.909 160.876V163ZM237.053 152.056V150.04H245.909V152.056H237.053ZM253.525 163.348C252.629 163.348 251.877 163.204 251.269 162.916C250.661 162.628 250.165 162.252 249.781 161.788C249.405 161.316 249.117 160.804 248.917 160.252C248.717 159.7 248.581 159.16 248.509 158.632C248.437 158.104 248.401 157.64 248.401 157.24V150.04H250.945V156.412C250.945 156.916 250.985 157.436 251.065 157.972C251.153 158.5 251.313 158.992 251.545 159.448C251.785 159.904 252.117 160.272 252.541 160.552C252.973 160.832 253.533 160.972 254.221 160.972C254.669 160.972 255.093 160.9 255.493 160.756C255.893 160.604 256.241 160.364 256.537 160.036C256.841 159.708 257.077 159.276 257.245 158.74C257.421 158.204 257.509 157.552 257.509 156.784L259.069 157.372C259.069 158.548 258.849 159.588 258.409 160.492C257.969 161.388 257.337 162.088 256.513 162.592C255.689 163.096 254.693 163.348 253.525 163.348ZM257.809 163V159.256H257.509V150.04H260.041V163H257.809ZM263.407 163V150.04H265.639V153.184L265.327 152.776C265.487 152.36 265.695 151.98 265.951 151.636C266.207 151.284 266.503 150.996 266.839 150.772C267.167 150.532 267.531 150.348 267.931 150.22C268.339 150.084 268.755 150.004 269.179 149.98C269.603 149.948 270.011 149.968 270.403 150.04V152.392C269.979 152.28 269.507 152.248 268.987 152.296C268.475 152.344 268.003 152.508 267.571 152.788C267.163 153.052 266.839 153.372 266.599 153.748C266.367 154.124 266.199 154.544 266.095 155.008C265.991 155.464 265.939 155.948 265.939 156.46V163H263.407ZM278.201 163.36C276.913 163.36 275.781 163.08 274.805 162.52C273.837 161.952 273.081 161.164 272.537 160.156C272.001 159.14 271.733 157.964 271.733 156.628C271.733 155.212 271.997 153.984 272.525 152.944C273.061 151.904 273.805 151.1 274.757 150.532C275.709 149.964 276.817 149.68 278.081 149.68C279.401 149.68 280.525 149.988 281.453 150.604C282.381 151.212 283.073 152.08 283.529 153.208C283.993 154.336 284.177 155.676 284.081 157.228H281.573V156.316C281.557 154.812 281.269 153.7 280.709 152.98C280.157 152.26 279.313 151.9 278.177 151.9C276.921 151.9 275.977 152.296 275.345 153.088C274.713 153.88 274.397 155.024 274.397 156.52C274.397 157.944 274.713 159.048 275.345 159.832C275.977 160.608 276.889 160.996 278.081 160.996C278.865 160.996 279.541 160.82 280.109 160.468C280.685 160.108 281.133 159.596 281.453 158.932L283.913 159.712C283.409 160.872 282.645 161.772 281.621 162.412C280.597 163.044 279.457 163.36 278.201 163.36ZM273.581 157.228V155.272H282.833V157.228H273.581Z" fill="#333333"/>
</g>
<defs>
<filter id="filter0_d_769_8673" x="0" y="0" width="422" height="220" filterUnits="userSpaceOnUse" color-interpolation-filters="sRGB">
<feFlood flood-opacity="0" result="BackgroundImageFix"/>
<feColorMatrix in="SourceAlpha" type="matrix" values="0 0 0 0 0 0 0 0 0 0 0 0 0 0 0 0 0 0 127 0" result="hardAlpha"/>
<feOffset dx="2" dy="2"/>
<feGaussianBlur stdDeviation="15"/>
<feComposite in2="hardAlpha" operator="out"/>
<feColorMatrix type="matrix" values="0 0 0 0 0.11692 0 0 0 0 0.726544 0 0 0 0 0.641997 0 0 0 0.25 0"/>
<feBlend mode="normal" in2="BackgroundImageFix" result="effect1_dropShadow_769_8673"/>
<feBlend mode="normal" in="SourceGraphic" in2="effect1_dropShadow_769_8673" result="shape"/>
</filter>
<linearGradient id="paint0_linear_769_8673" x1="30" y1="43" x2="30" y2="131" gradientUnits="userSpaceOnUse">
<stop stop-color="#45D0BD"/>
<stop offset="1" stop-color="#45C9C9"/>
</linearGradient>
<linearGradient id="paint1_linear_769_8673" x1="37.0601" y1="49.8875" x2="154.562" y2="236.224" gradientUnits="userSpaceOnUse">
<stop stop-color="#45D0BD"/>
<stop offset="1" stop-color="#44B6E9"/>
</linearGradient>
</defs>
</svg>
