<svg width="422" height="220" viewBox="0 0 422 220" fill="none" xmlns="http://www.w3.org/2000/svg">
<g filter="url(#filter0_d_769_8689)">
<path d="M30 59C30 52.3726 35.3726 47 42 47H390V176C390 182.627 384.627 188 378 188H42C35.3726 188 30 182.627 30 176V59Z" fill="white"/>
<path d="M28 47C28 44.7909 29.7909 43 32 43V131C29.7909 131 28 129.209 28 127V47Z" fill="url(#paint0_linear_769_8689)"/>
<path d="M30 40C30 33.3726 35.3726 28 42 28H378C384.627 28 390 33.3726 390 40V47H32C30.8954 47 30 46.1046 30 45V40Z" fill="white"/>
<path d="M30 129C30 127.895 30.8954 127 32 127H390V134C390 140.627 384.627 146 378 146H42C35.3726 146 30 140.627 30 134V129Z" fill="white"/>
<path d="M30 47H322C328.627 47 334 52.3726 334 59V115C334 121.627 328.627 127 322 127H30V47Z" fill="url(#paint1_linear_769_8689)"/>
<path d="M126.96 98V77.84H129.886V87.248L138.328 77.84H141.968L133.05 87.682L142.626 98H138.874L129.886 88.368V98H126.96ZM144.317 89.082V86.73H152.717V89.082H144.317ZM156.355 98V77.84H162.669C162.855 77.84 163.201 77.8447 163.705 77.854C164.218 77.8633 164.708 77.9007 165.175 77.966C166.752 78.162 168.077 78.7267 169.151 79.66C170.233 80.5933 171.05 81.7787 171.601 83.216C172.151 84.644 172.427 86.212 172.427 87.92C172.427 89.6373 172.151 91.2147 171.601 92.652C171.05 94.08 170.233 95.2607 169.151 96.194C168.077 97.118 166.752 97.678 165.175 97.874C164.708 97.9393 164.218 97.9767 163.705 97.986C163.201 97.9953 162.855 98 162.669 98H156.355ZM159.351 95.214H162.669C162.986 95.214 163.364 95.2047 163.803 95.186C164.241 95.1673 164.629 95.13 164.965 95.074C165.991 94.878 166.822 94.4347 167.457 93.744C168.101 93.044 168.572 92.1853 168.871 91.168C169.169 90.1507 169.319 89.068 169.319 87.92C169.319 86.7347 169.165 85.638 168.857 84.63C168.549 83.6127 168.073 82.7633 167.429 82.082C166.794 81.3913 165.973 80.9527 164.965 80.766C164.629 80.7007 164.237 80.6633 163.789 80.654C163.35 80.6353 162.977 80.626 162.669 80.626H159.351V95.214ZM182.393 98.42C180.89 98.42 179.569 98.0933 178.431 97.44C177.301 96.7773 176.419 95.858 175.785 94.682C175.159 93.4967 174.847 92.1247 174.847 90.566C174.847 88.914 175.155 87.4813 175.771 86.268C176.396 85.0547 177.264 84.1167 178.375 83.454C179.485 82.7913 180.778 82.46 182.253 82.46C183.793 82.46 185.104 82.8193 186.187 83.538C187.269 84.2473 188.077 85.26 188.609 86.576C189.15 87.892 189.365 89.4553 189.253 91.266H186.327V90.202C186.308 88.4473 185.972 87.15 185.319 86.31C184.675 85.47 183.69 85.05 182.365 85.05C180.899 85.05 179.798 85.512 179.061 86.436C178.323 87.36 177.955 88.6947 177.955 90.44C177.955 92.1013 178.323 93.3893 179.061 94.304C179.798 95.2093 180.862 95.662 182.253 95.662C183.167 95.662 183.956 95.4567 184.619 95.046C185.291 94.626 185.813 94.0287 186.187 93.254L189.057 94.164C188.469 95.5173 187.577 96.5673 186.383 97.314C185.188 98.0513 183.858 98.42 182.393 98.42ZM177.003 91.266V88.984H187.797V91.266H177.003ZM202.595 98V90.566C202.595 89.978 202.544 89.376 202.441 88.76C202.348 88.1347 202.161 87.556 201.881 87.024C201.611 86.492 201.223 86.0627 200.719 85.736C200.225 85.4093 199.576 85.246 198.773 85.246C198.251 85.246 197.756 85.3347 197.289 85.512C196.823 85.68 196.412 85.9553 196.057 86.338C195.712 86.7207 195.437 87.2247 195.231 87.85C195.035 88.4753 194.937 89.236 194.937 90.132L193.117 89.446C193.117 88.074 193.374 86.8653 193.887 85.82C194.401 84.7653 195.138 83.944 196.099 83.356C197.061 82.768 198.223 82.474 199.585 82.474C200.631 82.474 201.508 82.642 202.217 82.978C202.927 83.314 203.501 83.7573 203.939 84.308C204.387 84.8493 204.728 85.442 204.961 86.086C205.195 86.73 205.353 87.36 205.437 87.976C205.521 88.592 205.563 89.1333 205.563 89.6V98H202.595ZM191.969 98V82.88H194.587V87.248H194.937V98H191.969ZM214.992 98.406C213.153 98.406 211.655 98 210.498 97.188C209.341 96.376 208.631 95.2327 208.37 93.758L211.366 93.296C211.553 94.08 211.982 94.7007 212.654 95.158C213.335 95.606 214.18 95.83 215.188 95.83C216.103 95.83 216.817 95.6433 217.33 95.27C217.853 94.8967 218.114 94.3833 218.114 93.73C218.114 93.3473 218.021 93.0393 217.834 92.806C217.657 92.5633 217.279 92.3347 216.7 92.12C216.121 91.9053 215.239 91.6393 214.054 91.322C212.757 90.986 211.725 90.6267 210.96 90.244C210.204 89.852 209.663 89.3993 209.336 88.886C209.019 88.3633 208.86 87.7333 208.86 86.996C208.86 86.0813 209.103 85.2833 209.588 84.602C210.073 83.9207 210.755 83.3933 211.632 83.02C212.519 82.6467 213.555 82.46 214.74 82.46C215.897 82.46 216.929 82.642 217.834 83.006C218.739 83.37 219.472 83.888 220.032 84.56C220.592 85.2227 220.928 86.002 221.04 86.898L218.044 87.444C217.941 86.716 217.601 86.142 217.022 85.722C216.443 85.302 215.692 85.0733 214.768 85.036C213.881 84.9987 213.163 85.148 212.612 85.484C212.061 85.8107 211.786 86.2633 211.786 86.842C211.786 87.178 211.889 87.4627 212.094 87.696C212.309 87.9293 212.719 88.1533 213.326 88.368C213.933 88.5827 214.829 88.8393 216.014 89.138C217.283 89.4647 218.291 89.8287 219.038 90.23C219.785 90.622 220.317 91.0933 220.634 91.644C220.961 92.1853 221.124 92.8433 221.124 93.618C221.124 95.1113 220.578 96.2827 219.486 97.132C218.403 97.9813 216.905 98.406 214.992 98.406ZM230.928 98.42C229.425 98.42 228.104 98.0933 226.966 97.44C225.836 96.7773 224.954 95.858 224.32 94.682C223.694 93.4967 223.382 92.1247 223.382 90.566C223.382 88.914 223.69 87.4813 224.306 86.268C224.931 85.0547 225.799 84.1167 226.91 83.454C228.02 82.7913 229.313 82.46 230.788 82.46C232.328 82.46 233.639 82.8193 234.722 83.538C235.804 84.2473 236.612 85.26 237.144 86.576C237.685 87.892 237.9 89.4553 237.788 91.266H234.862V90.202C234.843 88.4473 234.507 87.15 233.854 86.31C233.21 85.47 232.225 85.05 230.9 85.05C229.434 85.05 228.333 85.512 227.596 86.436C226.858 87.36 226.49 88.6947 226.49 90.44C226.49 92.1013 226.858 93.3893 227.596 94.304C228.333 95.2093 229.397 95.662 230.788 95.662C231.702 95.662 232.491 95.4567 233.154 95.046C233.826 94.626 234.348 94.0287 234.722 93.254L237.592 94.164C237.004 95.5173 236.112 96.5673 234.918 97.314C233.723 98.0513 232.393 98.42 230.928 98.42ZM225.538 91.266V88.984H236.332V91.266H225.538Z" fill="white"/>
<path d="M96.48 163L102.096 145.72H105.708L111.324 163H108.72L103.548 147.232H104.196L99.084 163H96.48ZM99.396 159.1V156.748H108.42V159.1H99.396ZM113.717 163V145.72H116.225V163H113.717ZM130.897 163.36C129.657 163.36 128.537 163.148 127.537 162.724C126.545 162.292 125.725 161.68 125.077 160.888C124.437 160.088 124.021 159.14 123.829 158.044L126.445 157.648C126.709 158.704 127.261 159.528 128.101 160.12C128.941 160.704 129.921 160.996 131.041 160.996C131.737 160.996 132.377 160.888 132.961 160.672C133.545 160.448 134.013 160.132 134.365 159.724C134.725 159.308 134.905 158.812 134.905 158.236C134.905 157.924 134.849 157.648 134.737 157.408C134.633 157.168 134.485 156.96 134.293 156.784C134.109 156.6 133.881 156.444 133.609 156.316C133.345 156.18 133.053 156.064 132.733 155.968L128.305 154.66C127.873 154.532 127.433 154.368 126.985 154.168C126.537 153.96 126.125 153.692 125.749 153.364C125.381 153.028 125.081 152.616 124.849 152.128C124.617 151.632 124.501 151.032 124.501 150.328C124.501 149.264 124.773 148.364 125.317 147.628C125.869 146.884 126.613 146.324 127.549 145.948C128.485 145.564 129.533 145.372 130.693 145.372C131.861 145.388 132.905 145.596 133.825 145.996C134.753 146.396 135.521 146.972 136.129 147.724C136.745 148.468 137.169 149.372 137.401 150.436L134.713 150.892C134.593 150.244 134.337 149.688 133.945 149.224C133.553 148.752 133.073 148.392 132.505 148.144C131.937 147.888 131.321 147.756 130.657 147.748C130.017 147.732 129.429 147.828 128.893 148.036C128.365 148.244 127.941 148.536 127.621 148.912C127.309 149.288 127.153 149.72 127.153 150.208C127.153 150.688 127.293 151.076 127.573 151.372C127.853 151.668 128.197 151.904 128.605 152.08C129.021 152.248 129.433 152.388 129.841 152.5L133.033 153.4C133.433 153.512 133.885 153.664 134.389 153.856C134.901 154.04 135.393 154.3 135.865 154.636C136.345 154.972 136.741 155.42 137.053 155.98C137.365 156.532 137.521 157.228 137.521 158.068C137.521 158.94 137.345 159.708 136.993 160.372C136.641 161.028 136.157 161.58 135.541 162.028C134.933 162.468 134.229 162.8 133.429 163.024C132.629 163.248 131.785 163.36 130.897 163.36ZM145.622 163.36C144.294 163.36 143.166 163.064 142.238 162.472C141.31 161.88 140.598 161.068 140.102 160.036C139.614 159.004 139.366 157.832 139.358 156.52C139.366 155.184 139.622 154.004 140.126 152.98C140.63 151.948 141.35 151.14 142.286 150.556C143.222 149.972 144.346 149.68 145.658 149.68C147.074 149.68 148.282 150.032 149.282 150.736C150.29 151.44 150.954 152.404 151.274 153.628L148.778 154.348C148.53 153.62 148.122 153.056 147.554 152.656C146.994 152.248 146.35 152.044 145.622 152.044C144.798 152.044 144.122 152.24 143.594 152.632C143.066 153.016 142.674 153.544 142.418 154.216C142.162 154.888 142.03 155.656 142.022 156.52C142.03 157.856 142.334 158.936 142.934 159.76C143.542 160.584 144.438 160.996 145.622 160.996C146.43 160.996 147.082 160.812 147.578 160.444C148.082 160.068 148.466 159.532 148.73 158.836L151.274 159.436C150.85 160.7 150.15 161.672 149.174 162.352C148.198 163.024 147.014 163.36 145.622 163.36ZM153.608 147.916V145.48H156.116V147.916H153.608ZM153.608 163V150.04H156.116V163H153.608ZM165.467 163.36C164.179 163.36 163.047 163.08 162.071 162.52C161.103 161.952 160.347 161.164 159.803 160.156C159.267 159.14 158.999 157.964 158.999 156.628C158.999 155.212 159.263 153.984 159.791 152.944C160.327 151.904 161.071 151.1 162.023 150.532C162.975 149.964 164.083 149.68 165.347 149.68C166.667 149.68 167.791 149.988 168.719 150.604C169.647 151.212 170.339 152.08 170.795 153.208C171.259 154.336 171.443 155.676 171.347 157.228H168.839V156.316C168.823 154.812 168.535 153.7 167.975 152.98C167.423 152.26 166.579 151.9 165.443 151.9C164.187 151.9 163.243 152.296 162.611 153.088C161.979 153.88 161.663 155.024 161.663 156.52C161.663 157.944 161.979 159.048 162.611 159.832C163.243 160.608 164.155 160.996 165.347 160.996C166.131 160.996 166.807 160.82 167.375 160.468C167.951 160.108 168.399 159.596 168.719 158.932L171.179 159.712C170.675 160.872 169.911 161.772 168.887 162.412C167.863 163.044 166.723 163.36 165.467 163.36ZM160.847 157.228V155.272H170.099V157.228H160.847ZM182.784 163V156.628C182.784 156.124 182.74 155.608 182.652 155.08C182.572 154.544 182.412 154.048 182.172 153.592C181.94 153.136 181.608 152.768 181.176 152.488C180.752 152.208 180.196 152.068 179.508 152.068C179.06 152.068 178.636 152.144 178.236 152.296C177.836 152.44 177.484 152.676 177.18 153.004C176.884 153.332 176.648 153.764 176.472 154.3C176.304 154.836 176.22 155.488 176.22 156.256L174.66 155.668C174.66 154.492 174.88 153.456 175.32 152.56C175.76 151.656 176.392 150.952 177.216 150.448C178.04 149.944 179.036 149.692 180.204 149.692C181.1 149.692 181.852 149.836 182.46 150.124C183.068 150.412 183.56 150.792 183.936 151.264C184.32 151.728 184.612 152.236 184.812 152.788C185.012 153.34 185.148 153.88 185.22 154.408C185.292 154.936 185.328 155.4 185.328 155.8V163H182.784ZM173.676 163V150.04H175.92V153.784H176.22V163H173.676ZM195.869 163C195.053 163.16 194.253 163.228 193.469 163.204C192.685 163.18 191.985 163.028 191.369 162.748C190.753 162.468 190.289 162.028 189.977 161.428C189.697 160.892 189.545 160.348 189.521 159.796C189.505 159.236 189.497 158.604 189.497 157.9V146.44H192.017V157.78C192.017 158.3 192.021 158.752 192.029 159.136C192.045 159.52 192.129 159.844 192.281 160.108C192.569 160.604 193.025 160.888 193.649 160.96C194.281 161.024 195.021 160.996 195.869 160.876V163ZM187.013 152.056V150.04H195.869V152.056H187.013ZM198.842 147.916V145.48H201.35V147.916H198.842ZM198.842 163V150.04H201.35V163H198.842ZM209.909 163.348C208.333 163.348 207.049 163 206.057 162.304C205.065 161.608 204.457 160.628 204.233 159.364L206.801 158.968C206.961 159.64 207.329 160.172 207.905 160.564C208.489 160.948 209.213 161.14 210.077 161.14C210.861 161.14 211.473 160.98 211.913 160.66C212.361 160.34 212.585 159.9 212.585 159.34C212.585 159.012 212.505 158.748 212.345 158.548C212.193 158.34 211.869 158.144 211.373 157.96C210.877 157.776 210.121 157.548 209.105 157.276C207.993 156.988 207.109 156.68 206.453 156.352C205.805 156.016 205.341 155.628 205.061 155.188C204.789 154.74 204.653 154.2 204.653 153.568C204.653 152.784 204.861 152.1 205.277 151.516C205.693 150.932 206.277 150.48 207.029 150.16C207.789 149.84 208.677 149.68 209.693 149.68C210.685 149.68 211.569 149.836 212.345 150.148C213.121 150.46 213.749 150.904 214.229 151.48C214.709 152.048 214.997 152.716 215.093 153.484L212.525 153.952C212.437 153.328 212.145 152.836 211.649 152.476C211.153 152.116 210.509 151.92 209.717 151.888C208.957 151.856 208.341 151.984 207.869 152.272C207.397 152.552 207.161 152.94 207.161 153.436C207.161 153.724 207.249 153.968 207.425 154.168C207.609 154.368 207.961 154.56 208.481 154.744C209.001 154.928 209.769 155.148 210.785 155.404C211.873 155.684 212.737 155.996 213.377 156.34C214.017 156.676 214.473 157.08 214.745 157.552C215.025 158.016 215.165 158.58 215.165 159.244C215.165 160.524 214.697 161.528 213.761 162.256C212.833 162.984 211.549 163.348 209.909 163.348ZM225.237 163C224.421 163.16 223.621 163.228 222.837 163.204C222.053 163.18 221.353 163.028 220.737 162.748C220.121 162.468 219.657 162.028 219.345 161.428C219.065 160.892 218.913 160.348 218.889 159.796C218.873 159.236 218.865 158.604 218.865 157.9V146.44H221.385V157.78C221.385 158.3 221.389 158.752 221.397 159.136C221.413 159.52 221.497 159.844 221.649 160.108C221.937 160.604 222.393 160.888 223.017 160.96C223.649 161.024 224.389 160.996 225.237 160.876V163ZM216.381 152.056V150.04H225.237V152.056H216.381ZM239.038 163.36C237.798 163.36 236.678 163.148 235.678 162.724C234.686 162.292 233.866 161.68 233.218 160.888C232.578 160.088 232.162 159.14 231.97 158.044L234.586 157.648C234.85 158.704 235.402 159.528 236.242 160.12C237.082 160.704 238.062 160.996 239.182 160.996C239.878 160.996 240.518 160.888 241.102 160.672C241.686 160.448 242.154 160.132 242.506 159.724C242.866 159.308 243.046 158.812 243.046 158.236C243.046 157.924 242.99 157.648 242.878 157.408C242.774 157.168 242.626 156.96 242.434 156.784C242.25 156.6 242.022 156.444 241.75 156.316C241.486 156.18 241.194 156.064 240.874 155.968L236.446 154.66C236.014 154.532 235.574 154.368 235.126 154.168C234.678 153.96 234.266 153.692 233.89 153.364C233.522 153.028 233.222 152.616 232.99 152.128C232.758 151.632 232.642 151.032 232.642 150.328C232.642 149.264 232.914 148.364 233.458 147.628C234.01 146.884 234.754 146.324 235.69 145.948C236.626 145.564 237.674 145.372 238.834 145.372C240.002 145.388 241.046 145.596 241.966 145.996C242.894 146.396 243.662 146.972 244.27 147.724C244.886 148.468 245.31 149.372 245.542 150.436L242.854 150.892C242.734 150.244 242.478 149.688 242.086 149.224C241.694 148.752 241.214 148.392 240.646 148.144C240.078 147.888 239.462 147.756 238.798 147.748C238.158 147.732 237.57 147.828 237.034 148.036C236.506 148.244 236.082 148.536 235.762 148.912C235.45 149.288 235.294 149.72 235.294 150.208C235.294 150.688 235.434 151.076 235.714 151.372C235.994 151.668 236.338 151.904 236.746 152.08C237.162 152.248 237.574 152.388 237.982 152.5L241.174 153.4C241.574 153.512 242.026 153.664 242.53 153.856C243.042 154.04 243.534 154.3 244.006 154.636C244.486 154.972 244.882 155.42 245.194 155.98C245.506 156.532 245.662 157.228 245.662 158.068C245.662 158.94 245.486 159.708 245.134 160.372C244.782 161.028 244.298 161.58 243.682 162.028C243.074 162.468 242.37 162.8 241.57 163.024C240.77 163.248 239.926 163.36 239.038 163.36ZM254.303 163.36C253.063 163.36 252.023 163.06 251.183 162.46C250.343 161.852 249.707 161.032 249.275 160C248.843 158.968 248.627 157.804 248.627 156.508C248.627 155.212 248.839 154.048 249.263 153.016C249.695 151.984 250.327 151.172 251.159 150.58C251.999 149.98 253.031 149.68 254.255 149.68C255.471 149.68 256.519 149.98 257.399 150.58C258.287 151.172 258.971 151.984 259.451 153.016C259.931 154.04 260.171 155.204 260.171 156.508C260.171 157.804 259.931 158.972 259.451 160.012C258.979 161.044 258.303 161.86 257.423 162.46C256.551 163.06 255.511 163.36 254.303 163.36ZM248.207 168.76V150.04H250.439V159.364H250.727V168.76H248.207ZM253.955 161.092C254.755 161.092 255.415 160.888 255.935 160.48C256.463 160.072 256.855 159.524 257.111 158.836C257.375 158.14 257.507 157.364 257.507 156.508C257.507 155.66 257.375 154.892 257.111 154.204C256.855 153.516 256.459 152.968 255.923 152.56C255.387 152.152 254.703 151.948 253.871 151.948C253.087 151.948 252.439 152.14 251.927 152.524C251.423 152.908 251.047 153.444 250.799 154.132C250.559 154.82 250.439 155.612 250.439 156.508C250.439 157.404 250.559 158.196 250.799 158.884C251.039 159.572 251.419 160.112 251.939 160.504C252.459 160.896 253.131 161.092 253.955 161.092ZM263.061 147.916V145.48H265.569V147.916H263.061ZM263.061 163V150.04H265.569V163H263.061ZM278.268 163V156.628C278.268 156.124 278.224 155.608 278.136 155.08C278.056 154.544 277.896 154.048 277.656 153.592C277.424 153.136 277.092 152.768 276.66 152.488C276.236 152.208 275.68 152.068 274.992 152.068C274.544 152.068 274.12 152.144 273.72 152.296C273.32 152.44 272.968 152.676 272.664 153.004C272.368 153.332 272.132 153.764 271.956 154.3C271.788 154.836 271.704 155.488 271.704 156.256L270.144 155.668C270.144 154.492 270.364 153.456 270.804 152.56C271.244 151.656 271.876 150.952 272.7 150.448C273.524 149.944 274.52 149.692 275.688 149.692C276.584 149.692 277.336 149.836 277.944 150.124C278.552 150.412 279.044 150.792 279.42 151.264C279.804 151.728 280.096 152.236 280.296 152.788C280.496 153.34 280.632 153.88 280.704 154.408C280.776 154.936 280.812 155.4 280.812 155.8V163H278.268ZM269.16 163V150.04H271.404V153.784H271.704V163H269.16ZM289.402 163.36C288.106 163.36 286.982 163.068 286.03 162.484C285.078 161.9 284.342 161.096 283.822 160.072C283.31 159.04 283.054 157.852 283.054 156.508C283.054 155.156 283.318 153.968 283.846 152.944C284.374 151.912 285.114 151.112 286.066 150.544C287.018 149.968 288.13 149.68 289.402 149.68C290.698 149.68 291.822 149.972 292.774 150.556C293.726 151.14 294.462 151.944 294.982 152.968C295.502 153.992 295.762 155.172 295.762 156.508C295.762 157.86 295.498 159.052 294.97 160.084C294.45 161.108 293.714 161.912 292.762 162.496C291.81 163.072 290.69 163.36 289.402 163.36ZM289.402 160.996C290.642 160.996 291.566 160.58 292.174 159.748C292.79 158.908 293.098 157.828 293.098 156.508C293.098 155.156 292.786 154.076 292.162 153.268C291.546 152.452 290.626 152.044 289.402 152.044C288.562 152.044 287.87 152.236 287.326 152.62C286.782 152.996 286.378 153.52 286.114 154.192C285.85 154.856 285.718 155.628 285.718 156.508C285.718 157.868 286.03 158.956 286.654 159.772C287.278 160.588 288.194 160.996 289.402 160.996ZM303.283 163.348C302.387 163.348 301.635 163.204 301.027 162.916C300.419 162.628 299.923 162.252 299.539 161.788C299.163 161.316 298.875 160.804 298.675 160.252C298.475 159.7 298.339 159.16 298.267 158.632C298.195 158.104 298.159 157.64 298.159 157.24V150.04H300.703V156.412C300.703 156.916 300.743 157.436 300.823 157.972C300.911 158.5 301.071 158.992 301.303 159.448C301.543 159.904 301.875 160.272 302.299 160.552C302.731 160.832 303.291 160.972 303.979 160.972C304.427 160.972 304.851 160.9 305.251 160.756C305.651 160.604 305.999 160.364 306.295 160.036C306.599 159.708 306.835 159.276 307.003 158.74C307.179 158.204 307.267 157.552 307.267 156.784L308.827 157.372C308.827 158.548 308.607 159.588 308.167 160.492C307.727 161.388 307.095 162.088 306.271 162.592C305.447 163.096 304.451 163.348 303.283 163.348ZM307.567 163V159.256H307.267V150.04H309.799V163H307.567ZM320.58 163C319.764 163.16 318.964 163.228 318.18 163.204C317.396 163.18 316.696 163.028 316.08 162.748C315.464 162.468 315 162.028 314.688 161.428C314.408 160.892 314.256 160.348 314.232 159.796C314.216 159.236 314.208 158.604 314.208 157.9V146.44H316.728V157.78C316.728 158.3 316.732 158.752 316.74 159.136C316.756 159.52 316.84 159.844 316.992 160.108C317.28 160.604 317.736 160.888 318.36 160.96C318.992 161.024 319.732 160.996 320.58 160.876V163ZM311.724 152.056V150.04H320.58V152.056H311.724Z" fill="#333333"/>
</g>
<defs>
<filter id="filter0_d_769_8689" x="0" y="0" width="422" height="220" filterUnits="userSpaceOnUse" color-interpolation-filters="sRGB">
<feFlood flood-opacity="0" result="BackgroundImageFix"/>
<feColorMatrix in="SourceAlpha" type="matrix" values="0 0 0 0 0 0 0 0 0 0 0 0 0 0 0 0 0 0 127 0" result="hardAlpha"/>
<feOffset dx="2" dy="2"/>
<feGaussianBlur stdDeviation="15"/>
<feComposite in2="hardAlpha" operator="out"/>
<feColorMatrix type="matrix" values="0 0 0 0 0.11692 0 0 0 0 0.726544 0 0 0 0 0.641997 0 0 0 0.25 0"/>
<feBlend mode="normal" in2="BackgroundImageFix" result="effect1_dropShadow_769_8689"/>
<feBlend mode="normal" in="SourceGraphic" in2="effect1_dropShadow_769_8689" result="shape"/>
</filter>
<linearGradient id="paint0_linear_769_8689" x1="30" y1="43" x2="30" y2="131" gradientUnits="userSpaceOnUse">
<stop stop-color="#45D0BD"/>
<stop offset="1" stop-color="#45C9C9"/>
</linearGradient>
<linearGradient id="paint1_linear_769_8689" x1="37.0601" y1="49.8875" x2="154.562" y2="236.224" gradientUnits="userSpaceOnUse">
<stop stop-color="#45D0BD"/>
<stop offset="1" stop-color="#44B6E9"/>
</linearGradient>
</defs>
</svg>
