<svg width="192" height="76" viewBox="0 0 192 76" fill="none" xmlns="http://www.w3.org/2000/svg">
<mask id="path-1-outside-1_217_1076" maskUnits="userSpaceOnUse" x="-0.640137" y="-0.903809" width="193" height="77" fill="black">
<rect fill="white" x="-0.640137" y="-0.903809" width="193" height="77"/>
<path d="M46.4079 73.0962L20.7759 40.3602H10.8879L41.3199 3.01619H56.9679L29.5119 36.6162L29.1279 29.8962L63.0159 73.0962H46.4079ZM0.999864 73.0962V3.01619H14.6319V73.0962H0.999864ZM88.8676 74.9202C82.6596 74.9202 77.4116 73.9282 73.1236 71.9442C68.8996 69.9602 65.6676 67.2402 63.4276 63.7842C61.1876 60.2642 60.0676 56.2962 60.0676 51.8802H73.4116C73.4116 53.7362 73.9236 55.5602 74.9476 57.3522C75.9716 59.0802 77.6036 60.4882 79.8436 61.5762C82.1476 62.6642 85.1556 63.2082 88.8676 63.2082C92.1956 63.2082 94.9796 62.7282 97.2196 61.7682C99.4596 60.8082 101.124 59.5602 102.212 58.0242C103.3 56.4242 103.844 54.6322 103.844 52.6482C103.844 50.1522 102.788 48.1682 100.676 46.6962C98.5636 45.1602 95.2996 44.2002 90.8836 43.8162L84.7396 43.3362C78.0196 42.7602 72.6436 40.6802 68.6116 37.0962C64.6436 33.4482 62.6596 28.6482 62.6596 22.6962C62.6596 18.2162 63.7156 14.3762 65.8276 11.1762C67.9396 7.91219 70.8836 5.41619 74.6596 3.68819C78.4996 1.89619 82.9796 1.00019 88.0996 1.00019C93.4116 1.00019 97.9876 1.92819 101.828 3.78419C105.668 5.64019 108.644 8.26419 110.756 11.6562C112.868 14.9842 113.924 18.9202 113.924 23.4642H100.58C100.58 21.5442 100.1 19.7842 99.1396 18.1842C98.2436 16.5202 96.8676 15.2082 95.0116 14.2482C93.2196 13.2242 90.9156 12.7122 88.0996 12.7122C85.4116 12.7122 83.1716 13.1602 81.3796 14.0562C79.5876 14.9522 78.2436 16.1682 77.3476 17.7042C76.4516 19.2402 76.0036 20.9042 76.0036 22.6962C76.0036 24.8722 76.8036 26.7922 78.4036 28.4562C80.0036 30.0562 82.5316 30.9842 85.9876 31.2402L92.1316 31.8162C97.1236 32.2002 101.508 33.2562 105.284 34.9842C109.06 36.7122 111.972 39.0482 114.02 41.9922C116.132 44.9362 117.188 48.4882 117.188 52.6482C117.188 57.0642 116.036 60.9682 113.732 64.3602C111.428 67.6882 108.132 70.2802 103.844 72.1362C99.6196 73.9922 94.6276 74.9202 88.8676 74.9202ZM119.39 73.0962L143.294 3.01619H165.566L190.142 73.0962H176.126L155.294 12.3282L160.19 14.4402H148.19L153.182 12.3282L133.022 73.0962H119.39ZM136.094 54.4722L140.414 42.9522H168.83L173.054 54.4722H136.094Z"/>
</mask>
<path d="M46.4079 73.0962L45.6205 73.7127L45.9208 74.0962H46.4079V73.0962ZM20.7759 40.3602L21.5632 39.7437L21.2629 39.3602H20.7759V40.3602ZM10.8879 40.3602L10.1127 39.7285L8.78296 41.3602H10.8879V40.3602ZM41.3199 3.01619V2.01619H40.8448L40.5447 2.38447L41.3199 3.01619ZM56.9679 3.01619L57.7422 3.64894L59.0764 2.01619H56.9679V3.01619ZM29.5119 36.6162L28.5135 36.6732L28.6601 39.2389L30.2862 37.2489L29.5119 36.6162ZM29.1279 29.8962L29.9147 29.279L27.9477 26.7715L28.1295 29.9532L29.1279 29.8962ZM63.0159 73.0962V74.0962H65.0713L63.8027 72.479L63.0159 73.0962ZM0.999864 73.0962H-0.000136375V74.0962H0.999864V73.0962ZM0.999864 3.01619V2.01619H-0.000136375V3.01619H0.999864ZM14.6319 3.01619H15.6319V2.01619H14.6319V3.01619ZM14.6319 73.0962V74.0962H15.6319V73.0962H14.6319ZM46.4079 73.0962L47.1952 72.4797L21.5632 39.7437L20.7759 40.3602L19.9885 40.9767L45.6205 73.7127L46.4079 73.0962ZM20.7759 40.3602V39.3602H10.8879V40.3602V41.3602H20.7759V40.3602ZM10.8879 40.3602L11.6631 40.9919L42.0951 3.64791L41.3199 3.01619L40.5447 2.38447L10.1127 39.7285L10.8879 40.3602ZM41.3199 3.01619V4.01619H56.9679V3.01619V2.01619H41.3199V3.01619ZM56.9679 3.01619L56.1935 2.38343L28.7375 35.9834L29.5119 36.6162L30.2862 37.2489L57.7422 3.64894L56.9679 3.01619ZM29.5119 36.6162L30.5102 36.5591L30.1262 29.8391L29.1279 29.8962L28.1295 29.9532L28.5135 36.6732L29.5119 36.6162ZM29.1279 29.8962L28.3411 30.5134L62.2291 73.7134L63.0159 73.0962L63.8027 72.479L29.9147 29.279L29.1279 29.8962ZM63.0159 73.0962V72.0962H46.4079V73.0962V74.0962H63.0159V73.0962ZM0.999864 73.0962H1.99986V3.01619H0.999864H-0.000136375V73.0962H0.999864ZM0.999864 3.01619V4.01619H14.6319V3.01619V2.01619H0.999864V3.01619ZM14.6319 3.01619H13.6319V73.0962H14.6319H15.6319V3.01619H14.6319ZM14.6319 73.0962V72.0962H0.999864V73.0962V74.0962H14.6319V73.0962ZM73.1236 71.9442L72.6985 72.8493L72.7037 72.8518L73.1236 71.9442ZM63.4276 63.7842L62.5839 64.3211L62.5885 64.3281L63.4276 63.7842ZM60.0676 51.8802V50.8802H59.0676V51.8802H60.0676ZM73.4116 51.8802H74.4116V50.8802H73.4116V51.8802ZM74.9476 57.3522L74.0794 57.8483L74.0833 57.8552L74.0873 57.862L74.9476 57.3522ZM79.8436 61.5762L79.4067 62.4758L79.4166 62.4804L79.8436 61.5762ZM97.2196 61.7682L96.8257 60.849V60.849L97.2196 61.7682ZM102.212 58.0242L103.028 58.6022L103.033 58.5944L103.039 58.5865L102.212 58.0242ZM100.676 46.6962L100.087 47.5049L100.096 47.5108L100.104 47.5166L100.676 46.6962ZM90.8836 43.8162L90.9702 42.8199L90.9615 42.8192L90.8836 43.8162ZM84.7396 43.3362L84.6542 44.3326L84.6617 44.3332L84.7396 43.3362ZM68.6116 37.0962L67.9348 37.8324L67.941 37.838L67.9473 37.8436L68.6116 37.0962ZM65.8276 11.1762L66.6623 11.7271L66.6672 11.7194L65.8276 11.1762ZM74.6596 3.68819L75.0758 4.59752L75.0825 4.59437L74.6596 3.68819ZM101.828 3.78419L102.263 2.88384V2.88384L101.828 3.78419ZM110.756 11.6562L109.907 12.1848L109.911 12.192L110.756 11.6562ZM113.924 23.4642V24.4642H114.924V23.4642H113.924ZM100.58 23.4642H99.5796V24.4642H100.58V23.4642ZM99.1396 18.1842L98.2591 18.6583L98.2702 18.6788L98.2821 18.6987L99.1396 18.1842ZM95.0116 14.2482L94.5155 15.1164L94.5336 15.1268L94.5522 15.1364L95.0116 14.2482ZM78.4036 28.4562L77.6828 29.1493L77.6896 29.1564L77.6965 29.1633L78.4036 28.4562ZM85.9876 31.2402L86.081 30.2446L86.0712 30.2436L86.0615 30.2429L85.9876 31.2402ZM92.1316 31.8162L92.0383 32.8118L92.0466 32.8126L92.0549 32.8132L92.1316 31.8162ZM105.284 34.9842L105.7 34.0749V34.0749L105.284 34.9842ZM114.02 41.9922L113.199 42.5633L113.203 42.5692L113.207 42.5751L114.02 41.9922ZM113.732 64.3602L114.554 64.9294L114.559 64.9221L113.732 64.3602ZM103.844 72.1362L103.446 71.2185L103.441 71.2207L103.844 72.1362ZM88.8676 74.9202V73.9202C82.7611 73.9202 77.6654 72.9438 73.5435 71.0366L73.1236 71.9442L72.7037 72.8518C77.1578 74.9126 82.5581 75.9202 88.8676 75.9202V74.9202ZM73.1236 71.9442L73.5488 71.0391C69.4707 69.1236 66.3922 66.5195 64.2668 63.2403L63.4276 63.7842L62.5885 64.3281C64.9431 67.9609 68.3285 70.7968 72.6985 72.8493L73.1236 71.9442ZM63.4276 63.7842L64.2713 63.2473C62.1395 59.8973 61.0676 56.1176 61.0676 51.8802H60.0676H59.0676C59.0676 56.4747 60.2358 60.6311 62.584 64.3211L63.4276 63.7842ZM60.0676 51.8802V52.8802H73.4116V51.8802V50.8802H60.0676V51.8802ZM73.4116 51.8802H72.4116C72.4116 53.9291 72.9789 55.9226 74.0794 57.8483L74.9476 57.3522L75.8159 56.8561C74.8683 55.1978 74.4116 53.5432 74.4116 51.8802H73.4116ZM74.9476 57.3522L74.0873 57.862C75.2328 59.795 77.0329 61.3227 79.4067 62.4757L79.8436 61.5762L80.2805 60.6767C78.1744 59.6537 76.7104 58.3654 75.8079 56.8424L74.9476 57.3522ZM79.8436 61.5762L79.4166 62.4804C81.9008 63.6535 85.0702 64.2082 88.8676 64.2082V63.2082V62.2082C85.2411 62.2082 82.3944 61.6748 80.2706 60.6719L79.8436 61.5762ZM88.8676 63.2082V64.2082C92.2846 64.2082 95.2125 63.7164 97.6135 62.6873L97.2196 61.7682L96.8257 60.849C94.7468 61.74 92.1067 62.2082 88.8676 62.2082V63.2082ZM97.2196 61.7682L97.6135 62.6873C99.974 61.6757 101.806 60.3269 103.028 58.6022L102.212 58.0242L101.396 57.4462C100.441 58.7934 98.9453 59.9407 96.8257 60.849L97.2196 61.7682ZM102.212 58.0242L103.039 58.5865C104.242 56.8162 104.844 54.8273 104.844 52.6482H103.844H102.844C102.844 54.4371 102.357 56.0321 101.385 57.4619L102.212 58.0242ZM103.844 52.6482H104.844C104.844 49.8131 103.618 47.5278 101.247 45.8758L100.676 46.6962L100.104 47.5166C101.958 48.8086 102.844 50.4913 102.844 52.6482H103.844ZM100.676 46.6962L101.264 45.8875C98.9349 44.1937 95.4558 43.21 90.9702 42.82L90.8836 43.8162L90.797 44.8124C95.1434 45.1904 98.1923 46.1266 100.087 47.5049L100.676 46.6962ZM90.8836 43.8162L90.9615 42.8192L84.8175 42.3392L84.7396 43.3362L84.6617 44.3332L90.8057 44.8132L90.8836 43.8162ZM84.7396 43.3362L84.825 42.3398C78.2653 41.7776 73.1103 39.757 69.276 36.3488L68.6116 37.0962L67.9473 37.8436C72.177 41.6033 77.774 43.7428 84.6542 44.3325L84.7396 43.3362ZM68.6116 37.0962L69.2884 36.36C65.5491 32.9223 63.6596 28.4008 63.6596 22.6962H62.6596H61.6596C61.6596 28.8955 63.7381 33.9741 67.9348 37.8324L68.6116 37.0962ZM62.6596 22.6962H63.6596C63.6596 18.3783 64.6753 14.7375 66.6622 11.727L65.8276 11.1762L64.993 10.6253C62.7559 14.0148 61.6596 18.0541 61.6596 22.6962H62.6596ZM65.8276 11.1762L66.6672 11.7194C68.6686 8.62629 71.4605 6.25191 75.0757 4.59749L74.6596 3.68819L74.2435 2.77888C70.3067 4.58046 67.2106 7.19808 64.988 10.6329L65.8276 11.1762ZM74.6596 3.68819L75.0825 4.59437C78.7654 2.87568 83.0958 2.00019 88.0996 2.00019V1.00019V0.00018692C82.8634 0.00018692 78.2338 0.916698 74.2367 2.782L74.6596 3.68819ZM88.0996 1.00019V2.00019C93.297 2.00019 97.7173 2.9082 101.392 4.68453L101.828 3.78419L102.263 2.88384C98.258 0.94817 93.5262 0.00018692 88.0996 0.00018692V1.00019ZM101.828 3.78419L101.392 4.68453C105.074 6.46402 107.902 8.96425 109.907 12.1847L110.756 11.6562L111.605 11.1276C109.386 7.56413 106.261 4.81635 102.263 2.88384L101.828 3.78419ZM110.756 11.6562L109.911 12.192C111.907 15.3365 112.924 19.0803 112.924 23.4642H113.924H114.924C114.924 18.7601 113.828 14.6319 111.6 11.1204L110.756 11.6562ZM113.924 23.4642V22.4642H100.58V23.4642V24.4642H113.924V23.4642ZM100.58 23.4642H101.58C101.58 21.3685 101.053 19.4298 99.9971 17.6697L99.1396 18.1842L98.2821 18.6987C99.1461 20.1386 99.5796 21.7199 99.5796 23.4642H100.58ZM99.1396 18.1842L100.02 17.7101C99.0186 15.8502 97.4862 14.4023 95.471 13.36L95.0116 14.2482L94.5522 15.1364C96.2491 16.0141 97.4686 17.1901 98.2591 18.6583L99.1396 18.1842ZM95.0116 14.2482L95.5078 13.3799C93.5194 12.2438 91.0289 11.7122 88.0996 11.7122V12.7122V13.7122C90.8023 13.7122 92.9198 14.2046 94.5155 15.1164L95.0116 14.2482ZM88.0996 12.7122V11.7122C85.307 11.7122 82.9024 12.1768 80.9324 13.1618L81.3796 14.0562L81.8268 14.9506C83.4409 14.1436 85.5163 13.7122 88.0996 13.7122V12.7122ZM81.3796 14.0562L80.9324 13.1618C78.9893 14.1333 77.4898 15.4757 76.4838 17.2003L77.3476 17.7042L78.2114 18.2081C78.9974 16.8607 80.186 15.7711 81.8268 14.9506L81.3796 14.0562ZM77.3476 17.7042L76.4838 17.2003C75.4979 18.8905 75.0036 20.7286 75.0036 22.6962H76.0036H77.0036C77.0036 21.0798 77.4053 19.5899 78.2114 18.2081L77.3476 17.7042ZM76.0036 22.6962H75.0036C75.0036 25.1475 75.9157 27.3115 77.6828 29.1493L78.4036 28.4562L79.1244 27.7631C77.6915 26.2729 77.0036 24.5969 77.0036 22.6962H76.0036ZM78.4036 28.4562L77.6965 29.1633C79.536 31.0028 82.3406 31.9728 85.9137 32.2375L85.9876 31.2402L86.0615 30.2429C82.7226 29.9956 80.4712 29.1096 79.1107 27.7491L78.4036 28.4562ZM85.9876 31.2402L85.8943 32.2358L92.0383 32.8118L92.1316 31.8162L92.225 30.8206L86.081 30.2446L85.9876 31.2402ZM92.1316 31.8162L92.0549 32.8132C96.953 33.19 101.218 34.2234 104.867 35.8935L105.284 34.9842L105.7 34.0749C101.797 32.289 97.2943 31.2104 92.2083 30.8191L92.1316 31.8162ZM105.284 34.9842L104.867 35.8935C108.507 37.5589 111.268 39.7881 113.199 42.5633L114.02 41.9922L114.841 41.4211C112.675 38.3083 109.612 35.8654 105.7 34.0749L105.284 34.9842ZM114.02 41.9922L113.207 42.5751C115.18 45.3248 116.188 48.6652 116.188 52.6482H117.188H118.188C118.188 48.3112 117.084 44.5476 114.832 41.4093L114.02 41.9922ZM117.188 52.6482H116.188C116.188 56.88 115.087 60.585 112.904 63.7983L113.732 64.3602L114.559 64.9221C116.984 61.3514 118.188 57.2484 118.188 52.6482H117.188ZM113.732 64.3602L112.909 63.791C110.727 66.9429 107.59 69.425 103.446 71.2185L103.844 72.1362L104.241 73.0539C108.673 71.1354 112.128 68.4335 114.554 64.9294L113.732 64.3602ZM103.844 72.1362L103.441 71.2207C99.3715 73.0089 94.5225 73.9202 88.8676 73.9202V74.9202V75.9202C94.7328 75.9202 99.8678 74.9754 104.246 73.0517L103.844 72.1362ZM119.39 73.0962L118.444 72.7734L117.993 74.0962H119.39V73.0962ZM143.294 3.01619V2.01619H142.579L142.348 2.69336L143.294 3.01619ZM165.566 3.01619L166.51 2.68526L166.275 2.01619H165.566V3.01619ZM190.142 73.0962V74.0962H191.553L191.086 72.7653L190.142 73.0962ZM176.126 73.0962L175.18 73.4205L175.412 74.0962H176.126V73.0962ZM155.294 12.3282L155.69 11.41L153.616 10.515L154.348 12.6525L155.294 12.3282ZM160.19 14.4402V15.4402L160.586 13.522L160.19 14.4402ZM148.19 14.4402L147.801 13.5192L148.19 15.4402V14.4402ZM153.182 12.3282L154.132 12.6431L154.827 10.5466L152.793 11.4072L153.182 12.3282ZM133.022 73.0962V74.0962H133.744L133.971 73.4111L133.022 73.0962ZM136.094 54.4722L135.158 54.1211L134.651 55.4722H136.094V54.4722ZM140.414 42.9522V41.9522H139.721L139.478 42.6011L140.414 42.9522ZM168.83 42.9522L169.769 42.6079L169.529 41.9522H168.83V42.9522ZM173.054 54.4722V55.4722H174.486L173.993 54.1279L173.054 54.4722ZM119.39 73.0962L120.337 73.419L144.241 3.33902L143.294 3.01619L142.348 2.69336L118.444 72.7734L119.39 73.0962ZM143.294 3.01619V4.01619H165.566V3.01619V2.01619H143.294V3.01619ZM165.566 3.01619L164.623 3.34712L189.199 73.4271L190.142 73.0962L191.086 72.7653L166.51 2.68526L165.566 3.01619ZM190.142 73.0962V72.0962H176.126V73.0962V74.0962H190.142V73.0962ZM176.126 73.0962L177.072 72.7719L156.24 12.0039L155.294 12.3282L154.348 12.6525L175.18 73.4205L176.126 73.0962ZM155.294 12.3282L154.898 13.2464L159.794 15.3584L160.19 14.4402L160.586 13.522L155.69 11.41L155.294 12.3282ZM160.19 14.4402V13.4402H148.19V14.4402V15.4402H160.19V14.4402ZM148.19 14.4402L148.58 15.3612L153.572 13.2492L153.182 12.3282L152.793 11.4072L147.801 13.5192L148.19 14.4402ZM153.182 12.3282L152.233 12.0133L132.073 72.7813L133.022 73.0962L133.971 73.4111L154.132 12.6431L153.182 12.3282ZM133.022 73.0962V72.0962H119.39V73.0962V74.0962H133.022V73.0962ZM136.094 54.4722L137.031 54.8233L141.351 43.3033L140.414 42.9522L139.478 42.6011L135.158 54.1211L136.094 54.4722ZM140.414 42.9522V43.9522H168.83V42.9522V41.9522H140.414V42.9522ZM168.83 42.9522L167.891 43.2964L172.115 54.8164L173.054 54.4722L173.993 54.1279L169.769 42.6079L168.83 42.9522ZM173.054 54.4722V53.4722H136.094V54.4722V55.4722H173.054V54.4722Z" fill="url(#paint0_linear_217_1076)" mask="url(#path-1-outside-1_217_1076)"/>
<defs>
<linearGradient id="paint0_linear_217_1076" x1="92.593" y1="-0.966308" x2="92.5461" y2="64.4399" gradientUnits="userSpaceOnUse">
<stop stop-color="#8258C8"/>
<stop offset="0.616187" stop-color="#2C84C8"/>
<stop offset="0.977208" stop-color="#FEFEFE" stop-opacity="0.6"/>
</linearGradient>
</defs>
</svg>
