<svg width="80" height="80" viewBox="0 0 80 80" fill="none" xmlns="http://www.w3.org/2000/svg">
<g clip-path="url(#clip0_1139_6046)">
<path d="M34.6806 12.2793C22.3141 12.2793 12.2891 22.3043 12.2891 34.6708C12.2891 47.0373 22.3141 57.0623 34.6806 57.0623C47.0471 57.0623 57.0721 47.0373 57.0721 34.6708C57.0586 22.3099 47.0415 12.2928 34.6806 12.2793ZM34.6806 14.4118C41.2669 14.417 47.4388 17.627 51.2247 23.0166L48.559 25.6822C47.9104 25.2897 47.1677 25.0796 46.4095 25.0744C44.054 25.0744 42.1444 26.984 42.1444 29.3395C42.1481 30.0985 42.357 30.8424 42.749 31.4923L35.7671 38.4742C34.4451 37.6681 32.7836 37.6681 31.4615 38.4742L26.6122 33.6248C27.0041 32.9749 27.213 32.2311 27.2167 31.472C27.2197 29.1212 25.3164 27.2131 22.9655 27.2102C21.0214 27.2078 19.3227 28.5229 18.838 30.4058H14.8822C16.901 21.083 25.1418 14.4258 34.6806 14.4118ZM48.542 29.3395C48.542 30.5173 47.5873 31.472 46.4095 31.472C45.2316 31.472 44.2769 30.5173 44.2769 29.3395C44.2769 28.1617 45.2316 27.207 46.4095 27.207C47.5873 27.207 48.542 28.1617 48.542 29.3395ZM35.7468 42.1346C35.7468 43.3125 34.7921 44.2672 33.6143 44.2672C32.4365 44.2672 31.4818 43.3125 31.4818 42.1346C31.4818 40.9568 32.4365 40.0021 33.6143 40.0021C34.7921 40.0021 35.7468 40.9568 35.7468 42.1346ZM25.0842 31.472C25.0842 32.6498 24.1295 33.6045 22.9517 33.6045C21.7739 33.6045 20.8192 32.6498 20.8192 31.472C20.8192 30.2942 21.7739 29.3395 22.9517 29.3395C24.1295 29.3395 25.0842 30.2942 25.0842 31.472ZM44.524 52.3849C41.5129 54.0568 38.1249 54.9327 34.6806 54.9297C23.4995 54.9373 14.4292 45.8795 14.4216 34.6984C14.4211 33.9768 14.4592 33.2556 14.5357 32.5381H18.838C19.3228 34.4154 21.0128 35.7296 22.9517 35.7369C23.7107 35.7332 24.4546 35.5243 25.1045 35.1324L29.9538 39.9817C29.5618 40.6316 29.353 41.3755 29.3493 42.1345C29.3493 44.49 31.2588 46.3996 33.6143 46.3996C35.9698 46.3996 37.8794 44.49 37.8794 42.1345C37.8756 41.3755 37.6668 40.6316 37.2748 39.9817L44.2567 32.9998C44.9066 33.3918 45.6504 33.6007 46.4095 33.6044C48.765 33.6044 50.6745 31.6949 50.6745 29.3394C50.6708 28.5803 50.4619 27.8365 50.0699 27.1866L52.3944 24.8632C57.821 34.6366 54.2973 46.9584 44.524 52.3849Z" fill="black"/>
<path d="M61.3373 18.6768C63.2762 18.6695 64.9662 17.3554 65.451 15.478H72V13.3455H65.451C64.9662 11.4681 63.2762 10.154 61.3373 10.1467C58.9818 10.1467 57.0723 12.0562 57.0723 14.4117C57.076 15.1708 57.2849 15.9146 57.6769 16.5645L55.8034 18.4379C46.8395 6.75958 30.1056 4.55908 18.4272 13.523C6.74883 22.4869 4.54834 39.221 13.5123 50.8994C21.9736 61.9228 37.4838 64.5968 49.1478 57.043L52.3658 60.261L53.8735 61.7687L62.4569 70.3521C64.6399 72.5352 68.1791 72.5352 70.3622 70.3521C72.5452 68.1691 72.5452 64.6299 70.3622 62.4469L61.7788 53.8634L60.2711 52.3558L57.0531 49.1378C62.7655 40.339 62.7655 29.0026 57.0531 20.2037L59.1856 18.0712C59.8351 18.4633 60.5787 18.6725 61.3373 18.6768ZM61.3373 12.2792C62.5152 12.2792 63.4699 13.2339 63.4699 14.4117C63.4699 15.5896 62.5152 16.5443 61.3373 16.5443C60.1595 16.5443 59.2048 15.5896 59.2048 14.4117C59.2048 13.2339 60.1596 12.2792 61.3373 12.2792ZM68.8545 63.9546C70.2201 65.2895 70.245 67.4788 68.9101 68.8444C67.5751 70.2101 65.3858 70.235 64.0202 68.9C64.0014 68.8818 63.983 68.8632 63.9646 68.8444L55.3812 60.261L60.2711 55.3711L68.8545 63.9546ZM58.7634 53.8634L53.8735 58.7533L50.9221 55.8019C51.0724 55.6868 51.2132 55.5599 51.3614 55.4415C51.5096 55.3232 51.6813 55.1813 51.8401 55.0481C52.0736 54.8519 52.304 54.6536 52.53 54.4499C52.6462 54.3433 52.7571 54.2366 52.8712 54.13C53.3084 53.7206 53.7317 53.2973 54.1411 52.8601C54.2478 52.746 54.3544 52.6351 54.461 52.5189C54.6647 52.2928 54.863 52.0625 55.0592 51.829C55.1929 51.6712 55.324 51.5117 55.4526 51.3503C55.5699 51.2031 55.6968 51.0624 55.812 50.912L58.7634 53.8634ZM54.6284 48.9107C54.2925 49.3798 53.946 49.8394 53.5803 50.2819C53.4736 50.4109 53.3596 50.5356 53.2497 50.6625C52.9235 51.0421 52.5865 51.4104 52.2389 51.7672C52.0875 51.9235 51.9336 52.0775 51.7772 52.2289C51.4218 52.5765 51.0536 52.9134 50.6726 53.2397C50.5457 53.3463 50.4209 53.4625 50.2919 53.5702C49.8494 53.936 49.3899 54.2825 48.9207 54.6184C37.8828 62.504 22.542 59.9486 14.6564 48.9107C6.77069 37.8727 9.32612 22.532 20.3641 14.6463C31.402 6.76064 46.7427 9.31594 54.6284 20.354C60.7302 28.895 60.7302 40.3696 54.6284 48.9107Z" fill="black"/>
</g>
<defs>
<clipPath id="clip0_1139_6046">
<rect width="64" height="64" fill="white" transform="translate(8 8)"/>
</clipPath>
</defs>
</svg>
