<svg width="80" height="80" viewBox="0 0 80 80" fill="none" xmlns="http://www.w3.org/2000/svg">
<path d="M50.5469 34.2393L40.7643 44.0219L34.2425 37.5001L24.4599 47.2827" stroke="#111111" stroke-width="2" stroke-linecap="round" stroke-linejoin="round"/>
<path d="M47.2806 14.6738H17.8719C16.7518 14.6738 16.1917 14.6738 15.7639 14.8918C15.3876 15.0836 15.0816 15.3895 14.8899 15.7658C14.6719 16.1937 14.6719 16.7537 14.6719 17.8738V60.3869C14.6719 61.507 14.6719 62.067 14.8899 62.4949C15.0816 62.8712 15.3876 63.1771 15.7639 63.3689C16.1917 63.5869 16.7518 63.5869 17.8719 63.5869H60.3849C61.505 63.5869 62.0651 63.5869 62.4929 63.3689C62.8692 63.1771 63.1752 62.8712 63.3669 62.4949C63.5849 62.067 63.5849 61.507 63.5849 60.3869V30.9782" stroke="#111111" stroke-width="2" stroke-linecap="round"/>
<circle cx="60.3241" cy="17.9344" r="7.15217" stroke="#111111" stroke-width="2" stroke-linecap="round"/>
</svg>
