<svg width="80" height="80" viewBox="0 0 80 80" fill="none" xmlns="http://www.w3.org/2000/svg">
<path d="M57.9567 39.9514C57.6106 39.9514 57.2712 39.8102 57.0264 39.5649C56.781 39.3196 56.6406 38.9795 56.6406 38.6322C56.6406 38.2854 56.781 37.9453 57.0264 37.7C57.2712 37.4547 57.6106 37.3135 57.9567 37.3135C58.3034 37.3135 58.6428 37.4547 58.8876 37.7C59.1324 37.9453 59.2734 38.2854 59.2734 38.6322C59.2734 38.9795 59.1324 39.3196 58.8876 39.5649C58.6428 39.8102 58.3034 39.9514 57.9567 39.9514Z" fill="black"/>
<path d="M67.7339 70H11.6774C9.62793 70 7.79288 68.9385 6.76838 67.1606C5.74387 65.3823 5.74387 63.2592 6.76838 61.4814L34.7971 12.8394C35.8216 11.0615 37.6567 10 39.7057 10C41.7547 10 43.5897 11.0615 44.6142 12.8394L56.2366 33.0087C56.6002 33.6395 56.3842 34.4465 55.7547 34.8108C55.1246 35.1746 54.3197 34.9587 53.9561 34.3279L42.3343 14.1586C41.7855 13.2068 40.8027 12.6379 39.7057 12.6379C38.6087 12.6379 37.6258 13.2068 37.0771 14.1586L9.04882 62.8C8.50005 63.7523 8.50005 64.8891 9.04882 65.8414C9.59707 66.7937 10.5799 67.3621 11.6774 67.3621H67.7339C68.8315 67.3621 69.8138 66.7937 70.3626 65.8414C70.9113 64.8891 70.9113 63.7523 70.3626 62.8L59.1275 43.3021C58.7639 42.6714 58.9799 41.8649 59.6094 41.5006C60.2389 41.1363 61.0443 41.3522 61.4079 41.9834L72.643 61.4814C73.6675 63.2592 73.6675 65.3823 72.643 67.1606C71.618 68.9385 69.7834 70 67.7339 70Z" fill="black"/>
<path d="M39.7049 49.9091C37.3818 49.9091 35.4922 48.0154 35.4922 45.6882V33.7834C35.4922 31.4558 37.3818 29.5625 39.7049 29.5625C42.028 29.5625 43.9176 31.4558 43.9176 33.7834V45.6882C43.9176 48.0154 42.028 49.9091 39.7049 49.9091ZM39.7049 32.2009C38.8336 32.2009 38.1249 32.911 38.1249 33.7834V45.6882C38.1249 46.5611 38.8336 47.2712 39.7049 47.2712C40.5761 47.2712 41.2848 46.5611 41.2848 45.6882V33.7834C41.2848 32.911 40.5761 32.2009 39.7049 32.2009Z" fill="black"/>
<path d="M39.7049 61.518C37.3818 61.518 35.4922 59.6248 35.4922 57.2971C35.4922 54.9694 37.3818 53.0762 39.7049 53.0762C42.028 53.0762 43.9176 54.9694 43.9176 57.2971C43.9176 58.4246 43.4794 59.4846 42.6838 60.2818C41.8881 61.079 40.8302 61.518 39.7049 61.518ZM39.7049 55.7141C38.8336 55.7141 38.1249 56.4242 38.1249 57.2971C38.1249 58.17 38.8336 58.8801 39.7049 58.8801C40.1266 58.8801 40.5237 58.7152 40.822 58.4164C41.1203 58.1175 41.2848 57.7197 41.2848 57.2971C41.2848 56.4242 40.5761 55.7141 39.7049 55.7141Z" fill="black"/>
</svg>
