<svg width="32" height="32" viewBox="0 0 32 32" fill="none" xmlns="http://www.w3.org/2000/svg">
<g clip-path="url(#clip0_56_227)">
<path d="M1.77778 14.2222H12.4444C13.4249 14.2222 14.2222 13.4249 14.2222 12.4444V1.77778C14.2222 0.797333 13.4249 0 12.4444 0H1.77778C0.797333 0 0 0.797333 0 1.77778V12.4444C0 13.4249 0.797333 14.2222 1.77778 14.2222ZM1.18519 1.77778C1.18519 1.45096 1.45096 1.18519 1.77778 1.18519H12.4444C12.7713 1.18519 13.037 1.45096 13.037 1.77778V12.4444C13.037 12.7713 12.7713 13.037 12.4444 13.037H1.77778C1.45096 13.037 1.18519 12.7713 1.18519 12.4444V1.77778Z" fill="white"/>
<path d="M19.5551 14.2222H30.2218C31.2022 14.2222 31.9996 13.4249 31.9996 12.4444V1.77778C31.9996 0.797333 31.2022 0 30.2218 0H19.5551C18.5747 0 17.7773 0.797333 17.7773 1.77778V12.4444C17.7773 13.4249 18.5747 14.2222 19.5551 14.2222ZM18.9625 1.77778C18.9625 1.45096 19.2283 1.18519 19.5551 1.18519H30.2218C30.5486 1.18519 30.8144 1.45096 30.8144 1.77778V12.4444C30.8144 12.7713 30.5486 13.037 30.2218 13.037H19.5551C19.2283 13.037 18.9625 12.7713 18.9625 12.4444V1.77778Z" fill="white"/>
<path d="M12.4444 17.7778H1.77778C0.797333 17.7778 0 18.5752 0 19.5556V30.2223C0 31.2027 0.797333 32.0001 1.77778 32.0001H12.4444C13.4249 32.0001 14.2222 31.2027 14.2222 30.2223V19.5556C14.2222 18.5752 13.4249 17.7778 12.4444 17.7778ZM13.037 30.2223C13.037 30.5491 12.7713 30.8149 12.4444 30.8149H1.77778C1.45096 30.8149 1.18519 30.5491 1.18519 30.2223V19.5556C1.18519 19.2288 1.45096 18.963 1.77778 18.963H12.4444C12.7713 18.963 13.037 19.2288 13.037 19.5556V30.2223Z" fill="white"/>
<path d="M30.2218 17.7778H19.5551C18.5747 17.7778 17.7773 18.5752 17.7773 19.5556V30.2223C17.7773 31.2027 18.5747 32.0001 19.5551 32.0001H30.2218C31.2022 32.0001 31.9996 31.2027 31.9996 30.2223V19.5556C31.9996 18.5752 31.2022 17.7778 30.2218 17.7778ZM30.8144 30.2223C30.8144 30.5491 30.5486 30.8149 30.2218 30.8149H19.5551C19.2283 30.8149 18.9625 30.5491 18.9625 30.2223V19.5556C18.9625 19.2288 19.2283 18.963 19.5551 18.963H30.2218C30.5486 18.963 30.8144 19.2288 30.8144 19.5556V30.2223Z" fill="white"/>
</g>
<defs>
<clipPath id="clip0_56_227">
<rect width="32" height="32" fill="white"/>
</clipPath>
</defs>
</svg>
