<svg width="40" height="40" viewBox="0 0 40 40" fill="none" xmlns="http://www.w3.org/2000/svg">
<path d="M24.5694 17.7778C22.9341 17.7778 21.6035 19.1084 21.6035 20.7437C21.6035 22.3793 22.9341 23.7099 24.5694 23.7099C26.2048 23.7099 27.5353 22.3793 27.5353 20.7437C27.5353 19.1084 26.2048 17.7778 24.5694 17.7778ZM24.5694 22.0432C23.8529 22.0432 23.2702 21.4603 23.2702 20.7437C23.2702 20.0274 23.8528 19.4445 24.5694 19.4445C25.286 19.4445 25.8687 20.0273 25.8687 20.7437C25.8686 21.4603 25.286 22.0432 24.5694 22.0432Z" fill="white"/>
<path d="M15.4298 17.7778C13.7945 17.7778 12.4639 19.1084 12.4639 20.7437C12.4639 22.3793 13.7945 23.7099 15.4298 23.7099C17.0651 23.7099 18.3957 22.3793 18.3957 20.7437C18.3957 19.1084 17.0651 17.7778 15.4298 17.7778ZM15.4298 22.0432C14.7132 22.0432 14.1305 21.4603 14.1305 20.7437C14.1305 20.0274 14.7132 19.4445 15.4298 19.4445C16.1463 19.4445 16.729 20.0273 16.729 20.7437C16.729 21.4603 16.1464 22.0432 15.4298 22.0432Z" fill="white"/>
<path d="M33.438 17.6212H32.7487V14.7859C32.7487 12.8891 31.2058 11.3459 29.3088 11.3459H20.833V9.42467C22.1203 9.06034 23.0673 7.87746 23.0673 6.47513C23.0673 4.78384 21.6912 3.40771 19.9997 3.40771C18.3082 3.40771 16.9321 4.78384 16.9321 6.47513C16.9321 7.87751 17.8791 9.06034 19.1664 9.42467V11.3459H10.6906C8.79364 11.3459 7.25065 12.8891 7.25065 14.7859V17.6212H6.56135C4.71402 17.6212 3.21094 19.124 3.21094 20.9714V24.7816C3.21094 26.6287 4.71402 28.1316 6.56135 28.1316H7.25065V30.9669C7.25065 32.8636 8.7936 34.4068 10.6906 34.4068H29.3088C31.2057 34.4068 32.7487 32.8637 32.7487 30.9669V28.1316H33.438C35.2854 28.1316 36.7884 26.6287 36.7884 24.7816V20.9714C36.7884 19.124 35.2853 17.6212 33.438 17.6212ZM18.5987 6.47513C18.5987 5.70284 19.2274 5.07438 19.9997 5.07438C20.772 5.07438 21.4006 5.70284 21.4006 6.47513C21.4006 7.24763 20.772 7.87609 19.9997 7.87609C19.2274 7.87609 18.5987 7.24763 18.5987 6.47513ZM6.56135 26.465C5.63281 26.465 4.8776 25.7098 4.8776 24.7816V20.9714C4.8776 20.0431 5.63281 19.2879 6.56135 19.2879H7.25065V26.465L6.56135 26.465ZM31.0821 30.9669C31.0821 31.9447 30.2866 32.7402 29.3088 32.7402H10.6906C9.71281 32.7402 8.91731 31.9447 8.91731 30.9669V27.2983V18.4545V14.7859C8.91731 13.8081 9.71281 13.0126 10.6906 13.0126H29.3088C30.2866 13.0126 31.0821 13.8081 31.0821 14.7859V18.4545V27.2983V30.9669ZM35.1218 24.7816C35.1218 25.7098 34.3666 26.465 33.438 26.465H32.7487V19.2878H33.438C34.3666 19.2878 35.1218 20.043 35.1218 20.9714V24.7816Z" fill="white"/>
</svg>
