<svg width="24" height="24" viewBox="0 0 24 24" fill="none" xmlns="http://www.w3.org/2000/svg">
<path d="M11.3438 23.0625C11.3438 23.5803 10.9241 24 10.4062 24H5.01562C2.94781 24 1.26562 22.3178 1.26562 20.25V3.75C1.26562 1.68219 2.94781 0 5.01562 0H16.5417C18.6094 0 20.2917 1.68219 20.2917 3.75V13.6875C20.2917 14.2053 19.8719 14.625 19.3542 14.625C18.8364 14.625 18.4167 14.2053 18.4167 13.6875V3.75C18.4167 2.71619 17.5756 1.875 16.5417 1.875H5.01562C3.98181 1.875 3.14062 2.71619 3.14062 3.75V20.25C3.14062 21.2838 3.98181 22.125 5.01562 22.125H10.4062C10.9241 22.125 11.3438 22.5447 11.3438 23.0625ZM22.3894 15.269C21.9684 14.9676 21.3829 15.0646 21.0815 15.4854L16.4604 21.9402C16.3343 22.0865 16.1761 22.118 16.0915 22.1237C16.004 22.1294 15.8348 22.1184 15.6896 21.9802L12.698 19.1076C12.3246 18.7491 11.7312 18.761 11.3725 19.1345C11.0138 19.5081 11.0259 20.1015 11.3994 20.46L14.3939 23.3355C14.8425 23.7623 15.4411 24 16.0571 24C16.11 24 16.1631 23.9982 16.2162 23.9947C16.8871 23.95 17.5135 23.6237 17.9348 23.0993C17.9456 23.0859 17.9562 23.072 17.9663 23.0579L22.606 16.5769C22.9074 16.1559 22.8105 15.5704 22.3894 15.269ZM15.6042 5.625H5.948C5.43018 5.625 5.0105 6.04468 5.0105 6.5625C5.0105 7.08032 5.43018 7.5 5.948 7.5H15.6042C16.1219 7.5 16.5417 7.08032 16.5417 6.5625C16.5417 6.04468 16.1219 5.625 15.6042 5.625ZM16.5417 10.3125C16.5417 9.79468 16.1219 9.375 15.6042 9.375H5.948C5.43018 9.375 5.0105 9.79468 5.0105 10.3125C5.0105 10.8303 5.43018 11.25 5.948 11.25H15.6042C16.1219 11.25 16.5417 10.8303 16.5417 10.3125ZM5.948 13.125C5.43018 13.125 5.0105 13.5447 5.0105 14.0625C5.0105 14.5803 5.43018 15 5.948 15H11.8125C12.3303 15 12.75 14.5803 12.75 14.0625C12.75 13.5447 12.3303 13.125 11.8125 13.125H5.948Z" fill="white"/>
</svg>
