<svg width="24" height="24" viewBox="0 0 24 24" fill="none" xmlns="http://www.w3.org/2000/svg">
<g clip-path="url(#clip0_56_615)">
<path d="M10.0052 1.60449C5.36777 1.60449 1.6084 5.36387 1.6084 10.0013C1.6084 14.6388 5.36777 18.3981 10.0052 18.3981C14.6427 18.3981 18.402 14.6388 18.402 10.0013C18.397 5.36597 14.6406 1.60954 10.0052 1.60449ZM10.0052 2.40419C12.4751 2.40614 14.7896 3.60988 16.2093 5.63097L15.2096 6.63059C14.9664 6.48339 14.6879 6.40462 14.4035 6.40267C13.5202 6.40267 12.8042 7.11875 12.8042 8.00207C12.8056 8.28671 12.8839 8.56565 13.0309 8.80936L10.4127 11.4276C9.9169 11.1253 9.29383 11.1253 8.79807 11.4276L6.97956 9.60906C7.12656 9.36535 7.20488 9.08641 7.20628 8.80176C7.20738 7.9202 6.49365 7.20467 5.61208 7.20357C4.88301 7.20267 4.246 7.69583 4.06427 8.40192H2.58083C3.33789 4.90589 6.42817 2.40944 10.0052 2.40419ZM15.2032 8.00207C15.2032 8.44375 14.8452 8.80176 14.4035 8.80176C13.9619 8.80176 13.6039 8.44375 13.6039 8.00207C13.6039 7.56038 13.9619 7.20237 14.4035 7.20237C14.8452 7.20237 15.2032 7.56038 15.2032 8.00207ZM10.4051 12.8002C10.4051 13.2419 10.047 13.5999 9.60537 13.5999C9.16368 13.5999 8.80567 13.2419 8.80567 12.8002C8.80567 12.3586 9.16368 12.0006 9.60537 12.0006C10.047 12.0006 10.4051 12.3586 10.4051 12.8002ZM6.40658 8.80176C6.40658 9.24345 6.04856 9.60146 5.60688 9.60146C5.1652 9.60146 4.80719 9.24345 4.80719 8.80176C4.80719 8.36008 5.1652 8.00207 5.60688 8.00207C6.04856 8.00207 6.40658 8.36008 6.40658 8.80176ZM13.6965 16.6441C12.5673 17.2711 11.2968 17.5995 10.0052 17.5984C5.8123 17.6012 2.41094 14.2046 2.4081 10.0117C2.4079 9.74106 2.42219 9.47061 2.45088 9.20156H4.06427C4.24605 9.90554 4.87981 10.3984 5.60688 10.4011C5.89152 10.3997 6.17047 10.3214 6.41418 10.1744L8.23269 11.9929C8.08569 12.2366 8.00737 12.5156 8.00597 12.8002C8.00597 13.6835 8.72205 14.3996 9.60537 14.3996C10.4887 14.3996 11.2048 13.6835 11.2048 12.8002C11.2034 12.5156 11.125 12.2366 10.978 11.9929L13.5963 9.3747C13.84 9.52169 14.1189 9.60001 14.4035 9.60141C15.2869 9.60141 16.0029 8.88533 16.0029 8.00202C16.0015 7.71737 15.9232 7.43843 15.7762 7.19472L16.6479 6.32345C18.6829 9.98846 17.3615 14.6092 13.6965 16.6441Z" fill="white"/>
<path d="M20.0015 4.00367C20.7286 4.00093 21.3623 3.50816 21.5441 2.80413H24V2.00443H21.5441C21.3623 1.3004 20.7286 0.807636 20.0015 0.804887C19.1182 0.804887 18.4021 1.52097 18.4021 2.40428C18.4035 2.68892 18.4818 2.96787 18.6288 3.21157L17.9263 3.91411C14.5648 -0.465281 8.28959 -1.29047 3.9102 2.07101C-0.469187 5.43248 -1.29437 11.7078 2.0671 16.0871C5.2401 20.2209 11.0564 21.2237 15.4304 18.391L16.6372 19.5978L17.2026 20.1631L20.4213 23.3819C21.24 24.2006 22.5672 24.2006 23.3858 23.3819C24.2045 22.5633 24.2045 21.2361 23.3858 20.4175L20.167 17.1987L19.6017 16.6333L18.3949 15.4265C20.537 12.127 20.537 7.87586 18.3949 4.57626L19.1946 3.77656C19.4382 3.9236 19.717 4.00208 20.0015 4.00367ZM20.0015 1.60458C20.4432 1.60458 20.8012 1.9626 20.8012 2.40428C20.8012 2.84596 20.4432 3.20398 20.0015 3.20398C19.5598 3.20398 19.2018 2.84596 19.2018 2.40428C19.2018 1.9626 19.5599 1.60458 20.0015 1.60458ZM22.8204 20.9828C23.3325 21.4834 23.3419 22.3044 22.8413 22.8165C22.3407 23.3286 21.5197 23.338 21.0076 22.8374C21.0005 22.8305 20.9936 22.8236 20.9867 22.8165L17.7679 19.5978L19.6017 17.7641L22.8204 20.9828ZM19.0363 17.1987L17.2026 19.0324L16.0958 17.9256C16.1522 17.8824 16.2049 17.8348 16.2605 17.7904C16.3161 17.7461 16.3805 17.6929 16.4401 17.6429C16.5276 17.5693 16.614 17.495 16.6988 17.4186C16.7423 17.3786 16.7839 17.3386 16.8267 17.2986C16.9906 17.1451 17.1494 16.9864 17.3029 16.8224C17.3429 16.7796 17.3829 16.738 17.4229 16.6945C17.4992 16.6097 17.5736 16.5233 17.6472 16.4358C17.6973 16.3766 17.7465 16.3168 17.7947 16.2562C17.8387 16.201 17.8863 16.1483 17.9295 16.0919L19.0363 17.1987ZM17.4857 15.3414C17.3597 15.5173 17.2298 15.6896 17.0926 15.8556C17.0526 15.904 17.0098 15.9507 16.9687 15.9983C16.8463 16.1407 16.7199 16.2788 16.5896 16.4126C16.5328 16.4712 16.4751 16.5289 16.4165 16.5857C16.2832 16.7161 16.1451 16.8424 16.0022 16.9648C15.9546 17.0047 15.9079 17.0483 15.8595 17.0887C15.6935 17.2259 15.5212 17.3558 15.3453 17.4818C11.206 20.4389 5.45327 19.4806 2.49614 15.3414C-0.46099 11.2021 0.497296 5.44938 4.63653 2.49225C8.77576 -0.464881 14.5285 0.493355 17.4857 4.63264C19.7738 7.83552 19.7738 12.1385 17.4857 15.3414Z" fill="white"/>
</g>
<defs>
<clipPath id="clip0_56_615">
<rect width="24" height="24" fill="white"/>
</clipPath>
</defs>
</svg>
