<svg width="28" height="28" viewBox="0 0 28 28" fill="none" xmlns="http://www.w3.org/2000/svg">
<path d="M19.5 1.75C19.5 0.783562 18.7173 0 17.75 0H10.75C9.78356 0 9 0.783562 9 1.75C9 2.51136 9.48705 3.1599 10.1664 3.40003V23.9172C10.1664 26.1714 11.995 28 14.25 28C16.5059 28 18.3345 26.1714 18.3345 23.9172V3.40003C19.013 3.1599 19.5 2.51136 19.5 1.75ZM17.1656 10.5H11.3336V3.5H17.1656V10.5ZM14.25 26.8328C12.6419 26.8328 11.3336 25.5236 11.3336 23.9172V18.6672H13.0836C13.4058 18.6672 13.6664 18.404 13.6664 18.0827C13.6664 17.7614 13.4058 17.5 13.0836 17.5H11.3336V15.1672H13.0836C13.4058 15.1672 13.6664 14.904 13.6664 14.5828C13.6664 14.2615 13.4058 14 13.0836 14H11.3336V11.6664H17.1656V23.9172C17.1656 25.5237 15.8581 26.8328 14.25 26.8328ZM17.75 2.33275H10.75C10.4287 2.33275 10.1664 2.07129 10.1664 1.75C10.1664 1.42784 10.4287 1.16637 10.75 1.16637H17.75C18.0713 1.16637 18.3345 1.42784 18.3345 1.75C18.3345 2.07129 18.0713 2.33275 17.75 2.33275Z" fill="white"/>
</svg>
