<svg width="24" height="24" viewBox="0 0 24 24" fill="none" xmlns="http://www.w3.org/2000/svg">
<g clip-path="url(#clip0_56_626)">
<path d="M13.2311 14.4387L9.56055 10.7681" stroke="white" stroke-width="0.5" stroke-miterlimit="10" stroke-linecap="round"/>
<path d="M8.75 12.3721L11.6268 15.2489" stroke="white" stroke-width="0.5" stroke-miterlimit="10" stroke-linecap="round"/>
<path d="M15.2489 11.6273L12.3721 8.75049" stroke="white" stroke-width="0.5" stroke-miterlimit="10" stroke-linecap="round"/>
<path d="M10.7686 9.56055L14.4391 13.2312" stroke="white" stroke-width="0.5" stroke-miterlimit="10" stroke-linecap="round"/>
<path d="M7.12173 19.7414L4.25781 16.8774" stroke="white" stroke-width="0.5" stroke-miterlimit="10" stroke-linecap="round"/>
<path d="M16.8779 4.2583L19.7419 7.12222" stroke="white" stroke-width="0.5" stroke-miterlimit="10" stroke-linecap="round"/>
<path d="M0.589221 17.8965L0.58819 17.8955C0.248252 17.5555 0.280268 16.9947 0.657237 16.6963C2.91432 14.9099 5.37938 15.1441 7.57782 15.353C9.94093 15.5775 11.9818 15.7714 13.8773 13.8759C15.7727 11.9805 15.5787 9.93969 15.3541 7.57663C15.1452 5.37824 14.911 2.91323 16.6973 0.656242C16.9957 0.279273 17.5565 0.247304 17.8965 0.587195L17.8975 0.588226C18.1882 0.878945 18.2096 1.33954 17.9545 1.66204C16.5755 3.40584 16.7538 5.28271 16.9573 7.42424C17.1871 9.84234 17.4476 12.583 15.016 15.0146C12.5843 17.4463 9.84357 17.1859 7.42542 16.9561C5.2838 16.7527 3.40688 16.5743 1.66299 17.9535C1.34053 18.2086 0.87994 18.1872 0.589221 17.8965Z" stroke="white" stroke-width="0.5" stroke-miterlimit="10" stroke-linecap="round" stroke-linejoin="round"/>
<path d="M15.1567 21.8627L14.1683 20.8744C14.1061 20.8122 14.0154 20.7879 13.9305 20.8106L12.4431 21.2092L12.0445 22.6966C12.0217 22.7816 12.0461 22.8722 12.1083 22.9345L13.0966 23.9228C13.1588 23.985 13.2495 24.0093 13.3345 23.9865L14.6845 23.6248C14.7695 23.602 14.8359 23.5356 14.8587 23.4506L15.2204 22.1006C15.2431 22.0156 15.2189 21.9249 15.1567 21.8627Z" stroke="white" stroke-width="0.5" stroke-miterlimit="10" stroke-linecap="round" stroke-linejoin="round"/>
<path d="M12.4435 21.2092L10.1719 18.9375" stroke="white" stroke-width="0.5" stroke-miterlimit="10" stroke-linecap="round" stroke-linejoin="round"/>
<path d="M9.25721 1.15025L10.2455 2.13857C10.3077 2.20077 10.3321 2.29147 10.3093 2.37646L9.91074 3.86385L8.42335 4.26238C8.33837 4.28516 8.24771 4.26083 8.18546 4.19863L7.19715 3.21032C7.13494 3.14811 7.11062 3.05741 7.1334 2.97243L7.49513 1.62238C7.51791 1.53739 7.58429 1.47102 7.66927 1.44824L9.01932 1.0865C9.10435 1.06377 9.19501 1.08805 9.25721 1.15025Z" stroke="white" stroke-width="0.5" stroke-miterlimit="10" stroke-linecap="round" stroke-linejoin="round"/>
<path d="M9.91113 3.86377L12.1828 6.13543" stroke="white" stroke-width="0.5" stroke-miterlimit="10" stroke-linecap="round" stroke-linejoin="round"/>
<path d="M6.54763 21.5789L4.41992 19.4512" stroke="white" stroke-width="0.5" stroke-miterlimit="10" stroke-linecap="round"/>
<path d="M3.25963 18.2909L2.4209 17.4521" stroke="white" stroke-width="0.5" stroke-miterlimit="10" stroke-linecap="round"/>
<path d="M21.5801 6.54732L20.7412 5.7085" stroke="white" stroke-width="0.5" stroke-miterlimit="10" stroke-linecap="round"/>
<path d="M19.5807 4.54851L17.4531 2.4209" stroke="white" stroke-width="0.5" stroke-miterlimit="10" stroke-linecap="round"/>
</g>
<defs>
<clipPath id="clip0_56_626">
<rect width="24" height="24" fill="white"/>
</clipPath>
</defs>
</svg>
