<svg width="128" height="76" viewBox="0 0 128 76" fill="none" xmlns="http://www.w3.org/2000/svg">
<mask id="path-1-outside-1_217_1062" maskUnits="userSpaceOnUse" x="-0.295898" y="-0.903809" width="128" height="77" fill="black">
<rect fill="white" x="-0.295898" y="-0.903809" width="128" height="77"/>
<path d="M31.2401 74.9202C24.7121 74.9202 19.2081 73.6722 14.7281 71.1762C10.2481 68.6802 6.8241 65.1922 4.4561 60.7122C2.1521 56.1682 1.0001 50.8562 1.0001 44.7762V3.01619H14.6321V45.5442C14.6321 48.8722 15.2721 51.8162 16.5521 54.3762C17.8321 56.8722 19.6881 58.8242 22.1201 60.2322C24.6161 61.5762 27.6561 62.2482 31.2401 62.2482C34.7601 62.2482 37.7361 61.5762 40.1681 60.2322C42.6641 58.8242 44.5201 56.8722 45.7361 54.3762C47.0161 51.8802 47.6561 48.9362 47.6561 45.5442V3.01619H61.2881V44.7762C61.2881 50.8562 60.1361 56.1682 57.8321 60.7122C55.5921 65.1922 52.2321 68.6802 47.7521 71.1762C43.2721 73.6722 37.7681 74.9202 31.2401 74.9202ZM98.2744 74.9202C92.0664 74.9202 86.8184 73.9282 82.5304 71.9442C78.3064 69.9602 75.0744 67.2402 72.8344 63.7842C70.5944 60.2642 69.4744 56.2962 69.4744 51.8802H82.8184C82.8184 53.7362 83.3304 55.5602 84.3544 57.3522C85.3784 59.0802 87.0104 60.4882 89.2504 61.5762C91.5544 62.6642 94.5624 63.2082 98.2744 63.2082C101.602 63.2082 104.386 62.7282 106.626 61.7682C108.866 60.8082 110.53 59.5602 111.618 58.0242C112.706 56.4242 113.25 54.6322 113.25 52.6482C113.25 50.1522 112.194 48.1682 110.082 46.6962C107.97 45.1602 104.706 44.2002 100.29 43.8162L94.1464 43.3362C87.4264 42.7602 82.0504 40.6802 78.0184 37.0962C74.0504 33.4482 72.0664 28.6482 72.0664 22.6962C72.0664 18.2162 73.1224 14.3762 75.2344 11.1762C77.3464 7.91219 80.2904 5.41619 84.0664 3.68819C87.9064 1.89619 92.3864 1.00019 97.5064 1.00019C102.818 1.00019 107.394 1.92819 111.234 3.78419C115.074 5.64019 118.05 8.26419 120.162 11.6562C122.274 14.9842 123.33 18.9202 123.33 23.4642H109.986C109.986 21.5442 109.506 19.7842 108.546 18.1842C107.65 16.5202 106.274 15.2082 104.418 14.2482C102.626 13.2242 100.322 12.7122 97.5064 12.7122C94.8184 12.7122 92.5784 13.1602 90.7864 14.0562C88.9944 14.9522 87.6504 16.1682 86.7544 17.7042C85.8584 19.2402 85.4104 20.9042 85.4104 22.6962C85.4104 24.8722 86.2104 26.7922 87.8104 28.4562C89.4104 30.0562 91.9384 30.9842 95.3944 31.2402L101.538 31.8162C106.53 32.2002 110.914 33.2562 114.69 34.9842C118.466 36.7122 121.378 39.0482 123.426 41.9922C125.538 44.9362 126.594 48.4882 126.594 52.6482C126.594 57.0642 125.442 60.9682 123.138 64.3602C120.834 67.6882 117.538 70.2802 113.25 72.1362C109.026 73.9922 104.034 74.9202 98.2744 74.9202Z"/>
</mask>
<path d="M14.7281 71.1762L15.2148 70.3026V70.3026L14.7281 71.1762ZM4.4561 60.7122L3.5642 61.1644L3.56804 61.172L3.57201 61.1795L4.4561 60.7122ZM1.0001 3.01619V2.01619H0.000102043V3.01619H1.0001ZM14.6321 3.01619H15.6321V2.01619H14.6321V3.01619ZM16.5521 54.3762L15.6576 54.8234L15.6623 54.8325L16.5521 54.3762ZM22.1201 60.2322L21.6191 61.0976L21.6324 61.1053L21.646 61.1127L22.1201 60.2322ZM40.1681 60.2322L40.6518 61.1075L40.6594 61.1032L40.1681 60.2322ZM45.7361 54.3762L44.8463 53.9199L44.8416 53.929L44.8371 53.9382L45.7361 54.3762ZM47.6561 3.01619V2.01619H46.6561V3.01619H47.6561ZM61.2881 3.01619H62.2881V2.01619H61.2881V3.01619ZM57.8321 60.7122L56.9402 60.26L56.9377 60.265L57.8321 60.7122ZM31.2401 74.9202V73.9202C24.8369 73.9202 19.5107 72.6961 15.2148 70.3026L14.7281 71.1762L14.2414 72.0498C18.9055 74.6483 24.5873 75.9202 31.2401 75.9202V74.9202ZM14.7281 71.1762L15.2148 70.3026C10.9016 67.8996 7.61666 64.5517 5.3402 60.2449L4.4561 60.7122L3.57201 61.1795C6.03154 65.8327 9.5946 69.4608 14.2414 72.0498L14.7281 71.1762ZM4.4561 60.7122L5.348 60.26C3.12755 55.8807 2.0001 50.7292 2.0001 44.7762H1.0001H0.000102043C0.000102043 50.9832 1.17665 56.4556 3.5642 61.1644L4.4561 60.7122ZM1.0001 44.7762H2.0001V3.01619H1.0001H0.000102043V44.7762H1.0001ZM1.0001 3.01619V4.01619H14.6321V3.01619V2.01619H1.0001V3.01619ZM14.6321 3.01619H13.6321V45.5442H14.6321H15.6321V3.01619H14.6321ZM14.6321 45.5442H13.6321C13.6321 49.0022 14.2978 52.1036 15.6577 54.8234L16.5521 54.3762L17.4465 53.929C16.2464 51.5288 15.6321 48.7422 15.6321 45.5442H14.6321ZM16.5521 54.3762L15.6623 54.8325C17.0301 57.4997 19.0212 59.5936 21.6191 61.0976L22.1201 60.2322L22.6211 59.3668C20.355 58.0548 18.6341 56.2447 17.4419 53.9199L16.5521 54.3762ZM22.1201 60.2322L21.646 61.1127C24.3212 62.5532 27.5334 63.2482 31.2401 63.2482V62.2482V61.2482C27.7788 61.2482 24.911 60.5992 22.5942 59.3517L22.1201 60.2322ZM31.2401 62.2482V63.2482C34.885 63.2482 38.0373 62.5523 40.6518 61.1074L40.1681 60.2322L39.6844 59.3569C37.4349 60.6001 34.6352 61.2482 31.2401 61.2482V62.2482ZM40.1681 60.2322L40.6594 61.1032C43.326 59.5989 45.3273 57.4986 46.6351 54.8142L45.7361 54.3762L44.8371 53.9382C43.7129 56.2457 42.0022 58.0495 39.6768 59.3612L40.1681 60.2322ZM45.7361 54.3762L46.6259 54.8325C47.992 52.1687 48.6561 49.062 48.6561 45.5442H47.6561H46.6561C46.6561 48.8103 46.0402 51.5917 44.8463 53.9199L45.7361 54.3762ZM47.6561 45.5442H48.6561V3.01619H47.6561H46.6561V45.5442H47.6561ZM47.6561 3.01619V4.01619H61.2881V3.01619V2.01619H47.6561V3.01619ZM61.2881 3.01619H60.2881V44.7762H61.2881H62.2881V3.01619H61.2881ZM61.2881 44.7762H60.2881C60.2881 50.7292 59.1607 55.8807 56.9402 60.26L57.8321 60.7122L58.724 61.1644C61.1116 56.4556 62.2881 50.9832 62.2881 44.7762H61.2881ZM57.8321 60.7122L56.9377 60.265C54.7899 64.5606 51.5742 67.902 47.2654 70.3026L47.7521 71.1762L48.2388 72.0498C52.89 69.4584 56.3943 65.8238 58.7265 61.1594L57.8321 60.7122ZM47.7521 71.1762L47.2654 70.3026C42.9695 72.6961 37.6433 73.9202 31.2401 73.9202V74.9202V75.9202C37.8929 75.9202 43.5747 74.6483 48.2388 72.0498L47.7521 71.1762ZM82.5304 71.9442L82.1052 72.8493L82.1104 72.8518L82.5304 71.9442ZM72.8344 63.7842L71.9907 64.3211L71.9952 64.3281L72.8344 63.7842ZM69.4744 51.8802V50.8802H68.4744V51.8802H69.4744ZM82.8184 51.8802H83.8184V50.8802H82.8184V51.8802ZM84.3544 57.3522L83.4861 57.8483L83.49 57.8552L83.4941 57.862L84.3544 57.3522ZM89.2504 61.5762L88.8134 62.4758L88.8233 62.4804L89.2504 61.5762ZM106.626 61.7682L106.232 60.849V60.849L106.626 61.7682ZM111.618 58.0242L112.434 58.6022L112.44 58.5944L112.445 58.5865L111.618 58.0242ZM110.082 46.6962L109.494 47.5049L109.502 47.5108L109.511 47.5166L110.082 46.6962ZM100.29 43.8162L100.377 42.8199L100.368 42.8192L100.29 43.8162ZM94.1464 43.3362L94.061 44.3326L94.0685 44.3332L94.1464 43.3362ZM78.0184 37.0962L77.3416 37.8324L77.3477 37.838L77.354 37.8436L78.0184 37.0962ZM75.2344 11.1762L76.069 11.7271L76.0739 11.7194L75.2344 11.1762ZM84.0664 3.68819L84.4825 4.59752L84.4892 4.59437L84.0664 3.68819ZM111.234 3.78419L111.67 2.88384V2.88384L111.234 3.78419ZM120.162 11.6562L119.313 12.1848L119.318 12.192L120.162 11.6562ZM123.33 23.4642V24.4642H124.33V23.4642H123.33ZM109.986 23.4642H108.986V24.4642H109.986V23.4642ZM108.546 18.1842L107.666 18.6583L107.677 18.6788L107.689 18.6987L108.546 18.1842ZM104.418 14.2482L103.922 15.1164L103.94 15.1268L103.959 15.1364L104.418 14.2482ZM87.8104 28.4562L87.0895 29.1493L87.0963 29.1564L87.1032 29.1633L87.8104 28.4562ZM95.3944 31.2402L95.4877 30.2446L95.478 30.2436L95.4682 30.2429L95.3944 31.2402ZM101.538 31.8162L101.445 32.8118L101.453 32.8126L101.462 32.8132L101.538 31.8162ZM114.69 34.9842L115.106 34.0749V34.0749L114.69 34.9842ZM123.426 41.9922L122.605 42.5633L122.61 42.5692L122.614 42.5751L123.426 41.9922ZM123.138 64.3602L123.961 64.9294L123.966 64.9221L123.138 64.3602ZM113.25 72.1362L112.853 71.2185L112.848 71.2207L113.25 72.1362ZM98.2744 74.9202V73.9202C92.1679 73.9202 87.0722 72.9438 82.9503 71.0366L82.5304 71.9442L82.1104 72.8518C86.5645 74.9126 91.9649 75.9202 98.2744 75.9202V74.9202ZM82.5304 71.9442L82.9555 71.0391C78.8774 69.1236 75.7989 66.5195 73.6735 63.2403L72.8344 63.7842L71.9952 64.3281C74.3498 67.9609 77.7353 70.7968 82.1052 72.8493L82.5304 71.9442ZM72.8344 63.7842L73.678 63.2473C71.5462 59.8973 70.4744 56.1176 70.4744 51.8802H69.4744H68.4744C68.4744 56.4747 69.6425 60.6311 71.9907 64.3211L72.8344 63.7842ZM69.4744 51.8802V52.8802H82.8184V51.8802V50.8802H69.4744V51.8802ZM82.8184 51.8802H81.8184C81.8184 53.9291 82.3857 55.9226 83.4861 57.8483L84.3544 57.3522L85.2226 56.8561C84.275 55.1978 83.8184 53.5432 83.8184 51.8802H82.8184ZM84.3544 57.3522L83.4941 57.862C84.6396 59.795 86.4396 61.3227 88.8135 62.4757L89.2504 61.5762L89.6873 60.6767C87.5811 59.6537 86.1172 58.3654 85.2146 56.8424L84.3544 57.3522ZM89.2504 61.5762L88.8233 62.4804C91.3076 63.6535 94.4769 64.2082 98.2744 64.2082V63.2082V62.2082C94.6478 62.2082 91.8011 61.6748 89.6774 60.6719L89.2504 61.5762ZM98.2744 63.2082V64.2082C101.691 64.2082 104.619 63.7164 107.02 62.6873L106.626 61.7682L106.232 60.849C104.154 61.74 101.513 62.2082 98.2744 62.2082V63.2082ZM106.626 61.7682L107.02 62.6873C109.381 61.6757 111.213 60.3269 112.434 58.6022L111.618 58.0242L110.802 57.4462C109.848 58.7934 108.352 59.9407 106.232 60.849L106.626 61.7682ZM111.618 58.0242L112.445 58.5865C113.649 56.8162 114.25 54.8273 114.25 52.6482H113.25H112.25C112.25 54.4371 111.764 56.0321 110.791 57.4619L111.618 58.0242ZM113.25 52.6482H114.25C114.25 49.8131 113.024 47.5278 110.654 45.8758L110.082 46.6962L109.511 47.5166C111.364 48.8086 112.25 50.4913 112.25 52.6482H113.25ZM110.082 46.6962L110.671 45.8875C108.342 44.1937 104.863 43.21 100.377 42.82L100.29 43.8162L100.204 44.8124C104.55 45.1904 107.599 46.1266 109.494 47.5049L110.082 46.6962ZM100.29 43.8162L100.368 42.8192L94.2242 42.3392L94.1464 43.3362L94.0685 44.3332L100.212 44.8132L100.29 43.8162ZM94.1464 43.3362L94.2318 42.3398C87.672 41.7776 82.517 39.757 78.6827 36.3488L78.0184 37.0962L77.354 37.8436C81.5837 41.6033 87.1807 43.7428 94.061 44.3325L94.1464 43.3362ZM78.0184 37.0962L78.6952 36.36C74.9559 32.9223 73.0664 28.4008 73.0664 22.6962H72.0664H71.0664C71.0664 28.8955 73.1448 33.9741 77.3416 37.8324L78.0184 37.0962ZM72.0664 22.6962H73.0664C73.0664 18.3783 74.082 14.7375 76.069 11.727L75.2344 11.1762L74.3997 10.6253C72.1627 14.0148 71.0664 18.0541 71.0664 22.6962H72.0664ZM75.2344 11.1762L76.0739 11.7194C78.0754 8.62629 80.8673 6.25191 84.4825 4.59749L84.0664 3.68819L83.6502 2.77888C79.7134 4.58046 76.6173 7.19808 74.3948 10.6329L75.2344 11.1762ZM84.0664 3.68819L84.4892 4.59437C88.1722 2.87568 92.5026 2.00019 97.5064 2.00019V1.00019V0.00018692C92.2701 0.00018692 87.6405 0.916698 83.6435 2.782L84.0664 3.68819ZM97.5064 1.00019V2.00019C102.704 2.00019 107.124 2.9082 110.799 4.68453L111.234 3.78419L111.67 2.88384C107.665 0.94817 102.933 0.00018692 97.5064 0.00018692V1.00019ZM111.234 3.78419L110.799 4.68453C114.481 6.46402 117.308 8.96425 119.313 12.1847L120.162 11.6562L121.011 11.1276C118.792 7.56413 115.668 4.81635 111.67 2.88384L111.234 3.78419ZM120.162 11.6562L119.318 12.192C121.314 15.3365 122.33 19.0803 122.33 23.4642H123.33H124.33C124.33 18.7601 123.235 14.6319 121.007 11.1204L120.162 11.6562ZM123.33 23.4642V22.4642H109.986V23.4642V24.4642H123.33V23.4642ZM109.986 23.4642H110.986C110.986 21.3685 110.46 19.4298 109.404 17.6697L108.546 18.1842L107.689 18.6987C108.553 20.1386 108.986 21.7199 108.986 23.4642H109.986ZM108.546 18.1842L109.427 17.7101C108.425 15.8502 106.893 14.4023 104.878 13.36L104.418 14.2482L103.959 15.1364C105.656 16.0141 106.875 17.1901 107.666 18.6583L108.546 18.1842ZM104.418 14.2482L104.914 13.3799C102.926 12.2438 100.436 11.7122 97.5064 11.7122V12.7122V13.7122C100.209 13.7122 102.327 14.2046 103.922 15.1164L104.418 14.2482ZM97.5064 12.7122V11.7122C94.7137 11.7122 92.3091 12.1768 90.3391 13.1618L90.7864 14.0562L91.2336 14.9506C92.8476 14.1436 94.923 13.7122 97.5064 13.7122V12.7122ZM90.7864 14.0562L90.3391 13.1618C88.396 14.1333 86.8966 15.4757 85.8906 17.2003L86.7544 17.7042L87.6181 18.2081C88.4041 16.8607 89.5927 15.7711 91.2336 14.9506L90.7864 14.0562ZM86.7544 17.7042L85.8906 17.2003C84.9046 18.8905 84.4104 20.7286 84.4104 22.6962H85.4104H86.4104C86.4104 21.0798 86.8121 19.5899 87.6181 18.2081L86.7544 17.7042ZM85.4104 22.6962H84.4104C84.4104 25.1475 85.3224 27.3115 87.0895 29.1493L87.8104 28.4562L88.5312 27.7631C87.0983 26.2729 86.4104 24.5969 86.4104 22.6962H85.4104ZM87.8104 28.4562L87.1032 29.1633C88.9428 31.0028 91.7473 31.9728 95.3205 32.2375L95.3944 31.2402L95.4682 30.2429C92.1294 29.9956 89.878 29.1096 88.5175 27.7491L87.8104 28.4562ZM95.3944 31.2402L95.301 32.2358L101.445 32.8118L101.538 31.8162L101.632 30.8206L95.4877 30.2446L95.3944 31.2402ZM101.538 31.8162L101.462 32.8132C106.36 33.19 110.625 34.2234 114.274 35.8935L114.69 34.9842L115.106 34.0749C111.204 32.289 106.701 31.2104 101.615 30.8191L101.538 31.8162ZM114.69 34.9842L114.274 35.8935C117.914 37.5589 120.675 39.7881 122.605 42.5633L123.426 41.9922L124.247 41.4211C122.082 38.3083 119.019 35.8654 115.106 34.0749L114.69 34.9842ZM123.426 41.9922L122.614 42.5751C124.586 45.3248 125.594 48.6652 125.594 52.6482H126.594H127.594C127.594 48.3112 126.49 44.5476 124.239 41.4093L123.426 41.9922ZM126.594 52.6482H125.594C125.594 56.88 124.494 60.585 122.311 63.7983L123.138 64.3602L123.966 64.9221C126.391 61.3514 127.594 57.2484 127.594 52.6482H126.594ZM123.138 64.3602L122.316 63.791C120.134 66.9429 116.997 69.425 112.853 71.2185L113.25 72.1362L113.648 73.0539C118.08 71.1354 121.535 68.4335 123.961 64.9294L123.138 64.3602ZM113.25 72.1362L112.848 71.2207C108.778 73.0089 103.929 73.9202 98.2744 73.9202V74.9202V75.9202C104.139 75.9202 109.274 74.9754 113.653 73.0517L113.25 72.1362Z" fill="url(#paint0_linear_217_1062)" mask="url(#path-1-outside-1_217_1062)"/>
<defs>
<linearGradient id="paint0_linear_217_1062" x1="62.3638" y1="-0.966307" x2="62.2962" y2="63.5961" gradientUnits="userSpaceOnUse">
<stop stop-color="#8258C8"/>
<stop offset="0.75" stop-color="#2C84C8"/>
<stop offset="1" stop-color="#FEFEFE"/>
</linearGradient>
</defs>
</svg>
