<svg width="36" height="33" viewBox="0 0 36 33" fill="none" xmlns="http://www.w3.org/2000/svg">
<path d="M10.9083 1.45556C8.12241 1.45556 5.32288 2.51925 3.19264 4.64941C-1.04663 8.88867 -1.06255 15.7357 3.13536 20.0006V20.0123L17.4562 34.3217C17.758 34.6185 18.2419 34.6185 18.5437 34.3217L32.8646 20.0123C32.8646 20.0084 32.8646 20.0046 32.8646 20.0006C37.0625 15.7358 37.0466 8.88875 32.8073 4.64941C30.7027 2.54483 27.9468 1.47979 25.1947 1.45556C22.601 1.4327 20.0844 2.21754 18.0057 4.04191C15.953 2.23588 13.4735 1.45556 10.9083 1.45556ZM10.9083 3.00102C13.2739 3.00102 15.6273 3.90238 17.4563 5.70268C17.7581 5.99948 18.242 5.99948 18.5438 5.70268C20.3944 3.88117 22.789 2.97996 25.1834 3.00102C27.544 3.02215 29.8947 3.9346 31.7085 5.74841C35.362 9.40192 35.3717 15.238 31.7543 18.913L18.0057 32.673L4.24584 18.913C0.628403 15.238 0.638138 9.40192 4.29157 5.74841C6.12726 3.91279 8.51846 3.00102 10.9083 3.00102Z" fill="#222222"/>
<path d="M15.8306 11.0259C15.5374 11.0669 15.2931 11.2712 15.201 11.5525L13.3007 17.2191H7.6571C7.23095 17.2237 6.88841 17.5713 6.89014 17.9975C6.88841 18.4236 7.23102 18.7713 7.6571 18.7759H13.8616C14.1933 18.7752 14.4878 18.5635 14.5943 18.2493L15.9336 14.2427L19.3336 24.4425C19.4739 24.8471 19.9157 25.0614 20.3203 24.921C20.5446 24.8432 20.721 24.6668 20.7988 24.4425L22.6991 18.7759H28.3427C28.7688 18.7713 29.1114 18.4236 29.1096 17.9975C29.1114 17.5713 28.7688 17.2237 28.3427 17.2191H22.1381C21.7992 17.2165 21.4978 17.4344 21.3941 17.7571L20.0662 21.7637L16.6662 11.5525C16.55 11.1993 16.1994 10.9785 15.8306 11.0259Z" fill="#222222"/>
</svg>
