<svg width="32" height="32" viewBox="0 0 32 32" fill="none" xmlns="http://www.w3.org/2000/svg">
<g clip-path="url(#clip0_217_1255)">
<g clip-path="url(#clip1_217_1255)">
<path d="M31.5303 31.0606H28.4931V12.4931C28.4931 12.2337 28.2829 12.0234 28.0234 12.0234H23.0137C22.7542 12.0234 22.544 12.2337 22.544 12.4931V31.0606H18.9746V18.0039C18.9746 17.7445 18.7643 17.5342 18.5049 17.5342H13.4951C13.2357 17.5342 13.0254 17.7445 13.0254 18.0039V31.0606H9.456V20.5087C9.456 20.2494 9.24575 20.0391 8.98631 20.0391H3.97656C3.71712 20.0391 3.50688 20.2494 3.50688 20.5087V31.0606H0.469687C0.21025 31.0606 0 31.2709 0 31.5302C0 31.7896 0.21025 31.9999 0.469687 31.9999H31.5303C31.7897 31.9999 32 31.7896 32 31.5302C31.9999 31.2709 31.7897 31.0606 31.5303 31.0606ZM8.51663 31.0606H4.44619V20.9784H8.51663V31.0606ZM18.0352 31.0606H13.9648V18.4736H18.0352V31.0606ZM27.5538 31.0606H23.4834V12.9628H27.5538V31.0606Z" fill="#222222"/>
<path d="M30.5004 0.368464C30.1838 0.0890262 29.7625 -0.0411613 29.3438 0.0114637L25.336 0.512464C24.5403 0.611901 23.9587 1.35871 24.0583 2.15515C24.1588 2.95996 24.8952 3.53353 25.701 3.4329L26.028 3.39209C21.109 9.09559 15.261 12.0432 11.1287 13.5246C5.9761 15.3718 1.96566 15.5298 1.9266 15.5311C1.11641 15.5564 0.477158 16.2362 0.501658 17.0465C0.525908 17.8468 1.17172 18.4736 1.97203 18.4736C1.98691 18.4736 2.00185 18.4734 2.01716 18.4729C2.19547 18.4675 6.44678 18.3174 12.0477 16.3217C15.1963 15.1997 18.1591 13.7102 20.8535 11.8948C21.0687 11.7499 21.1255 11.4579 20.9805 11.2428C20.8357 11.0277 20.5438 10.9708 20.3286 11.1158C17.6993 12.8874 14.8072 14.3412 11.7324 15.4368C6.2691 17.3835 2.16085 17.5288 1.98903 17.534L1.97203 17.5342C1.68278 17.5342 1.44928 17.3075 1.44053 17.0181C1.43166 16.725 1.66291 16.4791 1.95616 16.4699C1.99716 16.4686 6.12203 16.3172 11.4457 14.4088C15.9056 12.81 22.314 9.5454 27.516 3.07265C27.775 2.7504 27.5012 2.26109 27.0918 2.3124L25.5848 2.50078C25.3235 2.53309 25.0698 2.3619 25.0035 2.10678C24.9237 1.79978 25.1382 1.48378 25.4526 1.4444L29.4605 0.943401C29.7735 0.903839 30.0587 1.15678 30.0587 1.47159V5.4794C30.0587 5.7729 29.82 6.01171 29.5264 6.01171C29.2328 6.01171 28.9941 5.77296 28.9941 5.4794V4.2644C28.9941 4.07246 28.87 3.89296 28.6905 3.82515C28.505 3.75509 28.2859 3.8139 28.1605 3.9674C26.4063 6.11684 24.409 8.06184 22.2238 9.74834C22.0185 9.90684 21.9804 10.2018 22.1389 10.4072C22.2974 10.6125 22.5925 10.6505 22.7977 10.492C24.7012 9.02296 26.4655 7.3629 28.0563 5.54571C28.091 6.32653 28.7372 6.95115 29.5265 6.95115C30.3379 6.95115 30.9981 6.29096 30.9981 5.47953V1.47171C30.998 1.04984 30.8167 0.647651 30.5004 0.368464Z" fill="#222222"/>
</g>
</g>
<defs>
<clipPath id="clip0_217_1255">
<rect width="32" height="32" fill="white" transform="matrix(-1 0 0 1 32 0)"/>
</clipPath>
<clipPath id="clip1_217_1255">
<rect width="32" height="32" fill="white"/>
</clipPath>
</defs>
</svg>
