<svg width="30" height="30" viewBox="0 0 30 30" fill="none" xmlns="http://www.w3.org/2000/svg">
<rect width="30" height="30" rx="15" fill="#FEE2E2"/>
<g clip-path="url(#clip0_56_682)">
<rect width="30" height="30" fill="white"/>
<circle cx="15" cy="15" r="14" fill="#EF6464"/>
<path d="M15 0.9375C7.2375 0.9375 0.9375 7.2375 0.9375 15C0.9375 22.7625 7.2375 29.0625 15 29.0625C22.7625 29.0625 29.0625 22.7625 29.0625 15C29.0625 7.2375 22.7625 0.9375 15 0.9375ZM15 23.4375C13.9688 23.4375 13.125 22.5938 13.125 21.5625C13.125 20.5312 13.9688 19.6875 15 19.6875C16.0312 19.6875 16.875 20.5312 16.875 21.5625C16.875 22.5938 16.0312 23.4375 15 23.4375ZM17.1469 8.89687L16.5188 16.4156C16.4531 17.2031 15.7969 17.8125 15 17.8125C14.2031 17.8125 13.5469 17.2031 13.4812 16.4156L12.8531 8.89687C12.75 7.64062 13.7344 6.5625 15 6.5625C16.2 6.5625 17.1562 7.5375 17.1562 8.71875C17.1562 8.775 17.1562 8.84062 17.1469 8.89687Z" fill="#FEE2E2"/>
</g>
<defs>
<clipPath id="clip0_56_682">
<rect width="30" height="30" fill="white"/>
</clipPath>
</defs>
</svg>
