<svg width="20" height="20" viewBox="0 0 20 20" fill="none" xmlns="http://www.w3.org/2000/svg">
<path d="M4.19995 8.5C2.49995 8.5 1.3001 8.3 0.600098 7.5C9.76324e-05 6.8 0 5.6998 0 4.2998C0 1.3998 0.200049 0 4.30005 0C8.40005 0 8.6001 1.3998 8.6001 4.2998C8.6001 5.6998 8.6 6.8 8 7.5C7.2 8.3 5.89995 8.5 4.19995 8.5Z" fill="#333333"/>
<path d="M15.2 8.5C13.5 8.5 12.3001 8.3 11.6001 7.5C11.0001 6.8 11 5.6998 11 4.2998C11 1.3998 11.2 0 15.3 0C19.4 0 19.6001 1.3998 19.6001 4.2998C19.6001 5.6998 19.6 6.8 19 7.5C18.2 8.3 16.9 8.5 15.2 8.5Z" fill="#333333"/>
<path d="M15.2 19.5C13.5 19.5 12.3001 19.3 11.6001 18.5C11.0001 17.8 11 16.6998 11 15.2998C11 12.3998 11.2 11 15.3 11C19.4 11 19.6001 12.3998 19.6001 15.2998C19.6001 16.6998 19.6 17.8 19 18.5C18.2 19.3 16.9 19.5 15.2 19.5Z" fill="#333333"/>
<path d="M4.19995 19.5C2.49995 19.5 1.3001 19.3 0.600098 18.5C9.76324e-05 17.8 0 16.6998 0 15.2998C0 12.3998 0.200049 11 4.30005 11C8.40005 11 8.6001 12.3998 8.6001 15.2998C8.6001 16.6998 8.6 17.8 8 18.5C7.2 19.3 5.89995 19.5 4.19995 19.5Z" fill="#333333"/>
</svg>
